<svg xmlns="http://www.w3.org/2000/svg" width="166" height="94" fill-rule="nonzero"><path d="M57.67 68.87c.045-.022.113-.08.17-.123.045 0 .102 0 .17.022-.068.056-.147.1-.226.146-.045 0-.068-.024-.113-.046zm-1.436-.123s0-.023-.023-.046c.147-.1.147-.1.317-.1-.022.022-.08.045-.125.123-.044 0-.1 0-.17.023zm.543-.46c0-.034-.022-.056-.045-.124.023-.033.068-.08.113-.146.034.023.057.046.102.067v.17c-.022.034-.068.056-.124.08a1.5 1.5 0 0 0-.045-.045zm1.063-.72c0-.023-.022-.046-.056-.067.034-.034.08-.056.124-.102h.226c-.045.102-.045.102-.17.17h-.125zm-.25-.562c0-.023-.022-.046-.045-.08l.543-.315-.124-.17c.068-.056.147-.1.248-.18.294-.505.294-.505.418-.63 0-.18 0-.348-.034-.54.08.067.158.146.226.214a.41.41 0 0 0 .147-.09c0-.056 0-.124.022-.157a.32.32 0 0 1 .181.202c-.102.192-.102.192-.203.248v.247a.4.4 0 0 1-.125.067c0 .056 0 .102.034.17-.08.056-.226.1-.35.157a1.96 1.96 0 0 0-.147.269 1.21 1.21 0 0 0 .023.269c-.27.124-.27.124-.317.192h-.248c-.022.022-.056.08-.125.124l-.124.001zm-1.356-.27c.17 0 .17 0 .34-.08.08-.123.08-.123.497-.483l.08-.45c.147-.067.147-.067.147-.17.068-.045.147-.067.192-.1.102-.192.102-.192.226-.81-.045.033-.1.056-.124.08-.08.19-.147.37-.203.584-.068.056-.147.1-.215.146-.022-.022-.056-.046-.08-.067-.068.067-.09.292-.27.663-.068.023-.192.192-.317.27l-.08.214-.192.202zm2.962-1.742c0-.022-.023-.045-.045-.08.17-.045.17-.045.362-.236.022-.348.022-.348.102-.45.023 0 .045 0 .102-.022.022-.27.1-.562.124-.854.045-.056.124-.1.192-.18.022-.067.056-.146.08-.247l.463-.236c.057-.18.125-.203.294-.618.102.08.102.08.305.472l-.622.382-.226.55c-.104.054-.202.118-.294.19 0 .08 0 .17.022.27-.068.045-.147.123-.248.19.034.326 0 .348 0 .596-.045.067-.068.146-.1.225-.174.003-.348.017-.52.044zm-.916-.44c0-.123-.124-.224-.124-.427a2.63 2.63 0 0 0 .226-.146c.023-.123.045-.236.102-.36l.147.213c.022 0 .045-.022.1-.045a.22.22 0 0 0 .034.123 2.65 2.65 0 0 0-.249.169c0 .124 0 .248.023.393.068.046.068.046.045.102-.098.004-.197-.003-.294-.022zm.52-.932c.27-.102.27-.102.44-.247v-.27l.203-.326.362-.124v-.213c.034-.08.08-.146.124-.203h.18c.022-.123.022-.247.022-.337l.418-.416c.08-.034.124-.034.17-.034.022-.067.022-.146.022-.19.124-.08.124-.08.18-.247.068-.046.125-.067.17-.102l.203-.315c-.034-.022-.056-.045-.056-.08-.124 0-.147.056-.69.102a.99.99 0 0 0-.102.224l.147.248c-.023.1-.045.17-.045.247-.08.022-.124.045-.17.045-.022.046-.022.067-.022.102l-.35.236c-.102.033-.17.056-.248.056-.023.102-.023.17-.023.247l-.203.248v.292l-.317.248c-.045-.034-.102-.056-.124-.08-.022.08-.045.146-.045.192-.056.033-.102.056-.124.08 0 .1 0 .1.045.123 0 .102 0 .102-.068.124-.057.125-.102.248-.102.372zm2.668-2.113v-.247c.045-.046.102-.102.147-.17.192.123.192.123.27.247-.27.146-.27.146-.418.17zm-1.956-.203c-.045 0-.09 0-.147-.022-.022-.146-.045-.292-.045-.44a.59.59 0 0 1 .068-.247c.034-.022.08-.045.124-.08.022.034.08.056.125.08l.203-.08c.068-.292.068-.292.045-.505.045-.033.124-.056.203-.08 0-.046.023-.1.045-.146h.147c-.005-.05-.02-.1-.045-.146l.362-.17c.034 0 .08.022.124.046-.1.1-.215.19-.34.315l.068.348c-.068.124-.17.27-.27.416-.045 0-.124.023-.192.046-.022.056-.08.1-.125.18h-.226a.39.39 0 0 0-.068.124c.022.045.045.1.068.17-.067.225-.067.225-.124.2zm2.024-2.405c.034-.08.056-.18.08-.303.102-.08.192-.315.317-.44.022-.056.056-.123.08-.202.124.08.124.08.147.202l-.147.067-.08.37c-.09.046-.09.046-.248.337-.09.022-.09.022-.147-.034zm.7-.966c.045.022.045.022.192-.08.022-.067.045-.146.08-.192a.75.75 0 0 0 .17-.079c.045-.1.125-.123.215-.337.056-.022.102-.056.158-.08.068-.292.068-.292.215-.483.102-.08.203-.124.294-.18v-.316c.056-.045.1-.1.124-.123.056.022.08.045.102.045.08.124.023.146.08.394.022-.067.045-.146.1-.192.056-.022.102-.056.147-.08.08-.067.125-.146.18-.213.045.022.068.045.1.045a1.43 1.43 0 0 0 .124-.439c.08-.022.124-.022.18-.022.015-.045.038-.086.067-.123.125.022.226.022.328.022a.9.9 0 0 1 .091-.101v-.315c.147-.203.395-.35.622-.574.045-.022.102-.022.147-.022.045-.067.045-.146.08-.214a1.24 1.24 0 0 1 .294-.202l.248-.315.44-.225c.045-.067.045-.146.045-.225.08-.022.18-.046.25-.046l-.147-.145c.023-.023.023-.046.023-.08.373-.146.418-.214.6-.236-.034-.08-.034-.157-.034-.225-.045-.046-.068-.08-.09-.1l.068-.192.248-.146.395-.618c.125-.078.226-.247.317-.292.034-.08.034-.146.034-.203-.08-.022-.124-.046-.147-.067a.39.39 0 0 1 .091-.123c.25-.056.497-.1.724-.124.045-.045.068-.1.09-.123.034-.17.056-.35.056-.518.125-.124.125-.124.667-.438l.17-.327c.1-.045.1-.045.248 0 .022-.022.068-.045.102-.067l.317-.618h.17c.022-.1.022-.17.022-.247a1.41 1.41 0 0 1 .226-.113 1.81 1.81 0 0 0 .248-.348.37.37 0 0 1-.045-.146c.045-.022.068-.046.1-.046.057-.123.08-.247.102-.348.08-.022.124-.045.17-.045.023-.078.056-.157.08-.202.192-.022.373-.022.543-.022v-.202a1.41 1.41 0 0 0 .17-.213c0-.247.056-.27.08-.81.09-.056.192-.1.294-.146.125-.18.125-.18.588-.517h.147v.562c.08-.023.158-.023.226-.023.08-.08.08-.146.1-.202l.193-.067c.056-.078.1-.146.124-.202-.068-.067-.146-.123-.192-.17l.44-.37h.373c.046-.022.046-.045.046-.067-.046-.056-.1-.1-.125-.146.125-.034.18-.056.248-.056.023-.067.023-.146.023-.19.08-.056.124-.1.18-.146l-.158-.225c.1-.022.18-.022.248-.022l.497-.472-.226-.607c.125-.056.25-.08.373-.1.102.08.204.146.294.19.08-.022.147-.045.226-.045l.068-.247a1.29 1.29 0 0 1 .181-.09l.1-.472c.1.023.17.023.237.023.057-.1.057-.1 0-.214.08-.056.125-.1.18-.123l.068-.202.464-.337-.248-.326c.022-.1.022-.1-.046-.27.09-.045.17-.1.237-.124.023-.067.057-.123.08-.17.068-.022.125-.045.17-.045.022.1.056.17.08.236.1.034.192.034.293.034l.068-.146c.158-.08.305-.157.452-.202-.022-.067-.057-.146-.057-.225l-.418-.314c-.022-.1-.022-.17-.022-.247.045-.067.08-.146.1-.19l.44.067c.023.1.08.202.08.292l.362-.113v-.348c.158-.1.52-.17.825-.315.023-.08.046-.124.046-.18h.147c.022.056.045.1.08.123.1-.022.1-.022.464-.37v-.483l.192-.124c.124.045.124.045.226 0a2.02 2.02 0 0 0 .101-.393 1.83 1.83 0 0 0 .317-.079c.057-.1.057-.1.18-.17.17 0 .17 0 .193.045.1 0 .1 0 .475-.214.17-.247.34-.326.384-.416.08-.022.1-.146.226-.247.022-.123-.023-.146 0-.27.1-.056.1-.056.418-.416l.147-.35c.304 0 .328-.045 1.062 0 .057.056.08.1.1.124.08-.067.147-.146.226-.225.046-.022.125-.045.17-.045.023-.08.023-.146.023-.19.045-.056.1-.08.124-.1.022-.1.046-.202.08-.27.1-.022.17-.056.237-.08-.068-.067-.125-.146-.17-.19.08-.022.124-.056.17-.056.057-.17.057-.17.226-.338-.046-.562-.046-.562 0-.978-.068-.056-.068-.056-.1-.18l.226-.483a.78.78 0 0 1-.17-.157c0-.416 0-.416-.08-.607.023-.124.023-.247.023-.35.056-.045.08-.1.1-.124-.022-.1-.022-.17-.022-.236-.023-.034-.046-.034-.08-.034v-.17c.042-.014.078-.04.1-.08.022-.17.125-.236.125-.337-.08-.023-.125-.123-.294-.202.022-.067.022-.113.022-.17a.37.37 0 0 0 .101-.067c.046-.123.068-.225.1-.326-.1-.067-.192-.123-.27-.17.057-.202.057-.202.226-.438.022-.1.045-.18.045-.247-.067-.022-.113-.056-.17-.056a.45.45 0 0 0 .023-.169c.045-.015.087-.038.124-.067a1.69 1.69 0 0 0 .125-.27c-.046-.1-.046-.1-.34-.27v-.123c.068-.056.147-.1.193-.123v-.27c-.052-.047-.11-.088-.17-.123-.023-.08-.057-.123-.057-.18l.226-.416-.1-.314c.056-.045.056-.045.1-.416-.046-.123-.1-.247-.125-.37.057-.124.102-.247.147-.37l-.068-.124h-.203c.022-.1.022-.19.022-.27.125-.17.125-.17.27-.236-.022-.056-.022-.1-.022-.123-.038-.047-.09-.082-.147-.1.023-.37.023-.37.08-.393-.022-.292-.08-.35-.18-.978 0-.595 0-.595.125-1.506-.068-.045-.125-.067-.17-.1.046-.056.08-.08.102-.1.022-.146.045-.27.045-.393-.045-.045-.068-.1-.1-.123v-.35c.08-.045.125-.1.18-.113-.056-.202-.124-.27-.124-.495.045-.045.1-.1.124-.146.023-.08.023-.146.023-.225h-.17l.068-.19c-.045-.663-.045-.663-.124-.9.056-.123.1-.225.124-.326-.045-.113-.068-.214-.1-.315.1-.225.1-.225.226-.292v-.123l-.17-.202c-.023-.314.022-.438-.023-.506h-.328c-.068-.056-.146-.08-.214-.1-.034.123-.057.225-.057.315-.046.08-.068.123-.125.18l-.192.067c.022.146.022.292.022.438-.293.326-.293.326-.497.427l-.125.416c-.067.045-.146.1-.17.146 0 .17.046.19.046.337-.046.034-.1.056-.114.08.023.045.023.067.023.1l-.204.236a1.74 1.74 0 0 1 .125.202c-.046.1-.046.1-.193.146l-.328.54c-.1.1-.17.17-.248.247l-.068.438c-.1.225-.1.225-.248.37v.494l-.373.214v.27c-.1.1-.17.303-.36.54v.326c-.08.045-.125.1-.18.123-.067.214-.067.214-.067.483-.057.034-.08.056-.102.056-.08.146-.124.292-.17.416l-.294.27c.046.067.046.067 0 .292-.08.022-.124.045-.18.08v.337c-.045.056-.068.1-.1.123-.147.394-.237.495-.418 1.012-.066.063-.138.12-.215.17-.057.123-.057.123 0 .247-.08.045-.08.045-.147 0-.08.045-.08.045-.147.247l.068.36c-.147.123-.147.123-.35.427l-.046.382c-.045.056-.1.08-.124.1-.023.08-.046.146-.046.202-.373.416-.373.416-.44.438-.035.094-.054.193-.056.292.056.08.08.146.1.202l-.248.315c-.046.022-.1.022-.147.022 0 .326-.045.394 0 .495-.17.225-.17.225-.44.393l-.18.247v.483c-.045.1-.045.1-.34.247.046.08.046.124.068.17-.1.247-.215.326-.34.573l.068.146c-.022.023-.045.045-.045.067-.147.056-.283.247-.407.326l-.057.562c-.046.08-.046.08-.34.17.022.08.045.146.045.202l-.124.337-.248.27c-.046-.022-.068-.022-.09-.022-.1-.123-.1-.123-.203-.494-.046.034-.1.034-.125.034-.192-.393-.192-.393-.293-.45l.17-.1c-.1-.08-.237-.146-.362-.202-.057-.1-.08-.19-.1-.27-.1 0-.1 0-.204-.1l-.486-.045c-.056-.045-.1-.1-.124-.124-.147.022-.147.022-.317-.022-.004-.052-.033-.098-.08-.123-.17-.02-.17-.02-.226.026l-.193-.123c-.203 0-.203 0-.497-.1-.17-.202-.418-.303-.44-.37-.125.022-.125.022-.147.1l-.6.123-.09-.1c-.124-.034-.248-.034-.373-.034-.056.08-.102.157-.147.202-.373-.08-.746-.123-1.12-.17-.17-.1-.17-.1-.836-.247l-.25-.146h-.905c-.452-.18-.452-.18-.577-.292-.117-.035-.24-.054-.362-.056l-.08-.17c-.08.022-.124.022-.17.022-.35-.1-.418-.17-.6-.17-.045-.08-.1-.123-.124-.18-.317-.023-.317-.023-.905-.17-.034-.045-.08-.1-.102-.146-.17-.067-.17-.067-.35-.045-.074-.056-.16-.098-.25-.123-.113-.023-.214-.023-.316-.023-.023.023-.023.046-.023.068.023.078.023.078.395.17.022.056.045.1.102.123.192.034.192.034.316.123h.25c.068.1.147.202.192.303l-.192.19c-.057-.022-.125-.022-.17-.022-.056-.1-.102-.17-.124-.247l-.543.247c-.034-.08-.034-.123-.034-.17a.51.51 0 0 0-.192-.056c-.08-.067-.124-.123-.147-.17l-.452.067-.565-.067-.486.146c-.056-.078-.102-.146-.16-.202-.1 0-.1 0-.316-.146-.068.034-.147.034-.192.034-.042-.055-.076-.116-.102-.18a.57.57 0 0 0-.124.079c-.022-.023-.045-.056-.102-.08-.026-.07-.04-.14-.045-.214-.1-.078-.203-.123-.294-.18-.25-.022-.27-.067-.577-.1l.203.124c-.017.037-.044.068-.08.1-.147.08-.34.124-.486.18-.05.074-.092.153-.125.236-.124.034-.124.034-.203-.045-.1 0-.124.045-.294.08l-.068-.202c-.057.045-.08.1-.102.124l-.644-.292c-.022-.056-.022-.08-.022-.1a2.01 2.01 0 0 1-.271-.146c-.022.022-.102.045-.147.08-.056-.056-.102-.1-.147-.124 0 .19 0 .19.09.36-.022.056-.045.1-.045.123-.08.056-.147.08-.192.1-.08-.022-.124-.022-.18-.022-.068-.08-.068-.08-.068-.247a4.19 4.19 0 0 0-.418-.101c-.102.023-.203.056-.305.056-.317-.202-.317-.202-.44-.348-.045.045-.102.078-.124.1-.226-.08-.44-.124-.667-.17l-.068-.225c-.08.023-.158.045-.203.045l-.294-.067c-.045.045-.203 0-.44.022-.04-.053-.073-.11-.102-.17-.043.044-.093.082-.147.113a1.26 1.26 0 0 1 .023.281c-.045.022-.102.045-.124.045-.023-.022-.023-.045-.023-.08-.17-.045-.328-.067-.475-.1-.045.022-.1.045-.1.067l-.77-.19c-.102.022-.17.045-.248.045-.023-.023-.045-.045-.068-.08v.18l.667.124v.17c.113.08.214.146.316.19.294.056.294.056.588.033.056.068.102.146.147.214-.022.022-.045.056-.045.08.045.045.08.1.1.123.294.045.294.045.735.247a.32.32 0 0 0 .124-.079.68.68 0 0 1 .023.202c.1.146.305.214.373.315l.35-.08c-.023.1-.023.18-.023.247-.056.022-.08.056-.1.08-.25.022-.25.022-.418-.056-.125.08-.226.124-.328.18-.09 0-.124-.056-.44-.146-.045-.056-.08-.08-.102-.1-.067.022-.147.022-.214.022-.056-.1-.08-.19-.102-.27-.102-.022-.248-.022-.35-.022-.022-.023-.022-.056-.022-.08-.192-.045-.373-.067-.543-.1-.022.067-.045.112-.045.17-.056-.1-.1-.17-.124-.247-.102-.022-.18-.022-.25-.022-.022-.08-.022-.08-.27-.202-.102.124-.102.124-.248.146-.125-.045-.17-.146-.418-.27-.102.034-.203.034-.294.034-.023.045-.023.045-.395-.1-.023-.056-.023-.1-.023-.146-.08-.022-.147-.056-.203-.056.023.18.023.18-.022.303-.022-.034-.045-.056-.08-.056l-.045-.483c-.17.022-.17.022-.226.1-.317-.022-.317-.022-.418.023l-.147-.067c-.045.146-.068.292-.102.438.226.146.226.146.724.292.068-.067.068-.067.25-.1-.034.124-.034.247-.034.338.08.08.08.08.328.1.022.023.022.045.022.08.192.045.373.067.543.1.045-.022.102-.045.124-.067.045.123.102.247.124.36.125.08.25.27.373.35.125-.124.125-.124.294-.17l.734.416c.08.067.18.146.204.19.022-.045.045-.067.045-.1h.17c.056.1.102.17.124.236l.203-.1c.045.045.102.1.124.146.102.023.17.023.25.023 0 .123 0 .123-.102.225.022.022.045.045.045.067-.022.056-.045.08-.067.1-.18-.08-.18-.08-.418-.045-.095-.115-.178-.24-.25-.37-.056.045-.08.1-.102.123.023.067.045.146.045.19.102.1.18.202.25.292h.147c-.022-.045-.022-.067-.022-.1.102 0 .125.045.418.1-.022.08-.022.123-.022.18l-.395.247c-.102-.056-.102-.056-.147-.27-.045-.056-.102-.08-.124-.1l-.6-.056c-.057-.236-.08-.483-.102-.73-.086-.016-.17-.043-.25-.08-.08-.067-.124-.146-.17-.214-.056.067-.08.146-.102.214h-.17a2.46 2.46 0 0 1-.226.146 1.27 1.27 0 0 1-.102-.292c-.068-.045-.192-.1-.294-.123.022-.022.045-.045.045-.067-.045-.022-.1-.022-.124-.022l-.1.1c-.102.034-.203.034-.27.034v.337c-.056.045-.08.1-.102.124h-.27l-.373-.35a.73.73 0 0 1-.045-.214c-.08.045-.147.067-.203.1-.34 0-.362.045-.814 0l-.17-.28c-.137.034-.277.053-.418.056-.08-.1-.124-.202-.17-.27-.034.022-.056.022-.08.022-.022-.08-.045-.123-.068-.17-.16.022-.282.022-.395.022-.034-.1-.057-.202-.08-.292-.124.022-.147-.022-.27-.022-.045.045-.08.1-.102.112-.068-.022-.124-.022-.17-.022a.58.58 0 0 0-.079-.169c-.27-.1-.27-.1-.6-.123-.056-.045-.102-.1-.147-.123-.102.022-.18.022-.25.022-.017-.06-.044-.117-.08-.17h-.215c-.034-.022-.056-.045-.056-.08h-.362c-.034-.023-.056-.045-.08-.067l-.226.067c.034-.1.056-.19.056-.292-.102-.023-.18-.023-.25-.023-.022-.045-.373.045-.52.023-.022-.045-.022-.1-.022-.123-.056.056-.102.1-.147.123 0-.214 0-.214-.08-.337a2.15 2.15 0 0 0-.34-.123l-.328.067c-.068-.022-.124-.045-.17-.045-.102.045-.17.1-.248.146l.373.078c.102-.033.192-.056.294-.078l-.124.315-.497.27c.08.08.158.157.203.225l.294-.067.08.214h.215c.08.08.147.146.203.225.017-.037.04-.07.068-.1.25.17.25.17.724.37.022.067.486.247.96.517.102.1.17.19.248.292v-.19l-.328-.427c-.023.034-.045.056-.068.056v-.18c.068-.022.124-.022.17-.022a.48.48 0 0 0 .147.123h.294c.056.056.102.1.124.146.25-.022.25-.022.418.056.08.1.034.19.08.314-.045.046-.102.1-.124.146-.124-.045-.124-.045-.497-.022.056.1.08.17.102.247l.147-.08c.023.1.056.202.08.27.068-.023.147-.045.215-.045.08.045.158.067.226.1-.026-.148-.042-.3-.045-.45l.068-.214.395.19c.023-.022.057-.045.057-.067.17-.034.192.022.44.067l.34.27c.056.1.102.17.125.247.056.023.1.045.147.08.056-.08.08-.157.102-.202.124-.022.248-.022.373-.022l.395.292c.022.08.045.146.045.225.08-.056.125-.1.18-.123.113.045.237.1.362.123l.147.337a2.97 2.97 0 0 0 .373.202 1.92 1.92 0 0 1 .351-.123l.124.17a1.45 1.45 0 0 0 .362.101c.056.123.102.247.18.35.09-.08.09-.08.27-.08.09.08.17.146.25.19.113-.045.113-.045.294-.023.022.08.045.123.068.18l.497-.123.147.067c.045.08.045.146.045.225.305.19.305.19.373.315.124.022.17.056.25.056.022-.08.045-.123.045-.18.18.022.203-.023.622.056.045.067.08.146.102.19a.5.5 0 0 0 .34.124c-.023.1-.147.17-.362.472a.94.94 0 0 0 .17.045c.022-.022.045-.045.045-.08.147-.022.27-.022.395-.022.124.1.124.1.35.123l.147.37c.497 0 .6.067.916.1l.068.214c.124-.045.203-.1.294-.124.056-.1.102-.17.124-.247.102.056.102.056.18.18-.034.1-.034.19-.034.27.08.067.102.124.158.17.113.022.215.022.317.022.045.08.124.124.124.18.045-.034.102-.056.125-.078.1.045.17.1.248.123.113-.045.113-.045.215 0 .022.067.022.123.022.17h.27c.08-.067.158-.146.203-.214h.192l.124.1c-.022.123-.022.247-.022.37-.026.024-.048.05-.068.08.147.045.294.067.418.1.1-.052.207-.093.317-.123.022-.045.022-.1.045-.123.08-.022.158-.022.226-.022.022.056.045.1.045.123-.045.114-.083.23-.113.348l.215.146c.1-.022.124-.045.17-.08.124.056.124.056.328.27-.045.1-.045.1 0 .225a4.64 4.64 0 0 0 .441.27c.475.08.475.08.79.202l.124.19c.125-.045.125-.045.226 0 .022.124.045.247.1.37.08.023.147.045.226.045.022.023.022.045.022.08h.418c.057.067.057.067 0 .19.08.045.18-.023.373-.023l.622.315c.1.146.1.146.316.843l.373.067c.045-.023.102-.045.124-.067.1.022.17.045.248.045v.146l.938.27c.022.08.045.146.045.202.102.022.17.022.248.022.045.045.102.1.147.124a2.35 2.35 0 0 0 .395.022c.045-.056.125-.1.125-.123.022.1.045.19.045.292.124.1.248.168.35.247a.66.66 0 0 1 .022.191c-.056.034-.08.08-.102.1.08.08.17.123.226.17 0 .247-.057.393-.057.64l-.192.123c-.018.085-.044.168-.08.247-.124.1-.17.314-.237.416.017.04.025.08.023.124-.003.058-.032.112-.08.146-.068.023-.124.023-.17.023-.102.08-.102.08-.204.37.033.042.053.093.057.146a1.23 1.23 0 0 0-.124.292c-.147.124-.27.247-.395.37-.102.202-.102.438-.226.742.023.045.056.1.056.124-.102.213-.18.416-.25.607a.41.41 0 0 0 .068.123c-.022.1-.022.202-.022.27-.102.08-.192.124-.294.17a.98.98 0 0 0-.17.225c.045.08.045.08-.023.64.023.022.045.045.068.045v.327a2.05 2.05 0 0 1-.192.112c-.034.08-.056.124-.056.18.08.046.08.046.125.247-.045.023-.068.046-.102.046-.022.08-.022.146-.022.19l-.102.08-.068.416c.068.045.068.045.17 0 .022-.124.056-.225.056-.315l.362-.292c-.045-.08-.068-.157-.068-.203.124-.022.248-.022.373-.022.045.046.068.067.1.1.056-.033.102-.056.124-.056.023.1.056.202.08.27-.1.056-.1.056-.543.022.022.157.022.303.022.428l-.475.505c-.022.08-.022.157-.022.225l-.463.315c-.08.124-.08.124-.08.427l-.543.214c.124.225.124.225.124.37-.102.123-.25.146-.543.348a3.87 3.87 0 0 0 .226.315c-.226.17-.226.17-.418.416.045.078.045.145.045.202a1.7 1.7 0 0 0-.271.169v.17c.102-.022.17-.022.27-.022.068-.124.068-.124.248-.202 0-.36 0-.36.068-.506.124-.033.226-.056.328-.056-.034.08-.034.124-.034.18-.068.045-.09.1-.17.112.057.1.08.203.08.27-.102.078-.147.156-.203.224-.317.124-.317.124-.362.203l.147.146c-.08.1-.147.19-.203.27-.125.046-.25 0-.61 0-.08.046-.158.067-.203.1.102.157.102.157.102.303l-.203.17c-.045.146-.068.292-.1.416-.08.045-.147.1-.226.145-.022.08-.045.146-.08.225a1.51 1.51 0 0 1-.147.067l-.17.326c-.022.124-.022.248-.022.337-.102.034-.17.056-.25.056l.08.146c-.033.067-.056.124-.056.17-.102.046-.192.1-.27.124v.202c-.102.1-.192.192-.27.27a1.29 1.29 0 0 1 .249.146l-.124.19c-.068.046-.147.08-.192.1-.08.067-.125.146-.18.192.032.078.032.146.032.225zm1.232-1.945v-.146c.215-.292.34-.562.486-.686.102.102.102.102.102.225-.192.247-.317.315-.497.607h-.09zm.61-.1c-.023 0-.068-.022-.125-.056.034-.045.056-.123.08-.19h.17c0 .022.023.045.056.1-.08.125-.08.125-.18.147zm.294-.45c0-.067.034-.146.08-.236.024-.037.06-.065.102-.08l.25.08v.1c-.14.06-.283.108-.43.146zm-.237-.292c-.034-.045-.056-.1-.08-.145l.395-.664c-.102-.045-.102-.045-.147-.19h.17c.022.1.08.19.125.315l-.317.37v.315c-.102.056-.102.056-.147 0zm2.78-.977a2.37 2.37 0 0 0 .226-.326l.27-.146c.045-.1.125-.19.203-.292 0 .124 0 .248-.034.37-.147.067-.147.067-.362.37-.102-.003-.204.004-.305.022zm-2.42-.394c0-.022.034-.045.056-.1-.022-.046-.056-.1-.08-.17.08 0 .18 0 .27.022a.72.72 0 0 0 .023.203c-.068.022-.147.067-.237.112 0-.022 0-.046-.034-.068zm4.5-1.303c-.08-.067-.147-.146-.226-.214.022 0 .056 0 .1-.034.068.056.147.102.25.146-.056.102-.056.102-.124.102zm-1.605-3.654c.045-.123.147-.27.192-.416h.248c.022.046.056.1.08.146-.08.123-.203.19-.27.315-.08 0-.147-.022-.25-.046zm3.21-.393c-.08-.022-.124-.08-.203-.123.056-.046.102-.102.203-.17 0 0 .045 0 .102.022 0 .067-.034.17-.056.27h-.045zm1.356-2.754c0-.045.022-.1.045-.17.08-.023.147-.045.226-.08 0 .034.022.08.045.123l-.317.124zm.17-.37c-.045-.067 0-.17-.045-.236-.044.008-.085.024-.124.045a2.99 2.99 0 0 1-.317-.169c.068-.08.068-.08.237-.08l-.068-.393c.102 0 .192-.023.317-.045 0-.1.023-.225.056-.348l.09-.1a2.12 2.12 0 0 1 .056-.427c.068-.022.147-.045.215-.1.034-.056.08-.1.124-.18 0-.067 0-.146.022-.236.08-.033.164-.06.25-.08l.373-.46c.226-.1.226-.1.373-.1.022.022.045.045.102.067-.16.326-.16.326-.25.742-.095.03-.187.07-.27.124a.59.59 0 0 0-.079.169c-.147.022-.294.08-.44.124a2.87 2.87 0 0 0 .022.438c-.08.056-.147.1-.25.146a.95.95 0 0 0 .023.247c.034 0 .056.022.102.056.045-.034.102-.056.147-.08l.08-.225c.068 0 .147.034.27.056a.4.4 0 0 1 .124-.079l.023-.483c.395-.034.395-.034.497.022 0 .067.022.146.045.213a5.38 5.38 0 0 0-.294.494c-.056.023-.102.08-.18.124-.023 0-.045-.023-.09-.045-.248.19-.248.19-.35.36l-.34.124c0 .022.022.056.045.08a.44.44 0 0 0-.079.101c-.068 0-.147 0-.215.022-.035.022-.062.053-.08.1h-.124zm2.838-1.37c-.046-.045-.09-.1-.17-.146.225-.146.475-.225.588-.314.057 0 .1 0 .158.022 0 .022.022.045.046.1-.023.022-.046.067-.08.124-.34.1-.34.1-.543.213zm-.543-.663c-.068-.1-.147-.19-.215-.314 0-.08 0-.17.022-.27h.17a3.41 3.41 0 0 0 .17.438c-.07.123-.07.123-.148.146zm.1-.585c0-.146-.022-.326-.046-.494-.078-.045-.146-.1-.248-.17.023-.124.046-.27.102-.416.045-.08.113-.146.192-.247.08 0 .17 0 .248.022 0-.022 0-.045.023-.1.225-.067.225-.067.373-.045-.147.27-.147.27-.328.438 0 .022.033.056.057.08.045 0 .1 0 .17-.023.022.17.08.338.147.517-.1 0-.193 0-.294.022l-.08.315c-.1.023-.192.045-.317.1zm2-1.55c-.045 0-.1 0-.146-.022v-.19c.214-.18.214-.18.34-.348 0-.045 0-.123-.022-.19l.418-.326h.18c.046.123.046.123.046.27-.05.08-.107.155-.17.225v.19c-.6.416-.6.416-.644.393zm.96-1.472l-.293-.438c-.062-.057-.13-.106-.204-.146.034-.08.034-.08.158-.146.1 0 .193 0 .294-.022.045.022.1.067.17.112.1-.022.192-.067.305-.112-.068-.08-.068-.08-.068-.303.068-.022.147-.067.215-.123v-.483c.282-.056.395-.146.554-.18-.057.056-.102.124-.158.202l-.147.517c.08.046.08.046.08.17-.046.1-.1.202-.17.314a1.11 1.11 0 0 1-.158.079c0 .225-.046.247-.046.37-.17.045-.328.123-.532.19zm-15.996-2.866c-.124-.18-.124-.18-.192-.37-.158-.023-.328-.08-.497-.123 0-.023.022-.045.068-.1a1.38 1.38 0 0 1 .226-.067l.08-.202c.068 0 .147-.022.214-.045.125.37.18.393.18.517-.034.023-.056.045-.102.067.045 0 .102 0 .147.034a2.41 2.41 0 0 1 .17-.247 2.42 2.42 0 0 1 .328.09c.022-.022.068-.045.124-.1.147.022.147.022.215.146v.1c-.463.17-.86.214-.96.292zm-1.13-.35c0-.045 0-.123-.034-.19-.1-.056-.1-.056-.214 0l-.226-.37a2.91 2.91 0 0 0 .418-.045c.023.19.023.19.102.292.045-.023.124-.056.192-.1.034.022.08.08.124.123-.022.123-.022.123-.17.27-.045 0-.124 0-.192.023zm-2.645-.584l-.08-.18c.034 0 .056-.022.08-.045.125.08.125.08.17.17 0 .034-.022.056-.045.08-.022 0-.056 0-.124-.022zm1.085-.54c-.045-.056-.045-.056-.475-.08 0-.022-.022-.045-.022-.1l.27-.393c.08-.022.147-.045.248-.1.25.023.25.023.294.1.056.034.125.056.203.078 0 .045-.08.124-.124.19h-.125c0 .034 0 .056.022.08-.102.045-.102.045-.17.202-.044 0-.1 0-.124.022zm-1.017-.225c0-.08.034-.146.056-.225h.373c-.056.056-.102.124-.18.202-.067 0-.147 0-.248.023zm-.565-.19l-.17-.123c-.022.022-.08.045-.124.1l-.147-.067c-.022-.123-.045-.247-.045-.37-.056.022-.1.078-.158.123-.27-.146-.27-.146-.34-.27-.15-.046-.298-.103-.44-.17l-.08-.146c.1-.056.1-.056.35 0 .068-.056.17-.1.215-.157h-.17v-.27h.248c.125.056.25.1.373.18h.317c.373.17.373.17.543.315.045-.045.045-.045.418 0 .045.056.125.1.203.17.068 0 .113 0 .192.034 0 .045 0 .1-.023.17-.056.045-.08.123-.17.19-.08-.045-.18-.123-.27-.19-.034 0-.08 0-.124.023-.034-.023-.034-.046-.102-.1-.17.034-.17.034-.203.08-.192-.17-.192-.17-.294-.35-.028.04-.062.073-.102.1-.192-.023-.317-.124-.44-.124-.022.022-.068.056-.124.1a.97.97 0 0 1 .294.123c.08.123.498.37.577.483-.08.123-.08.123-.204.157zm-5.483-.54l-.068-.157c-.056 0-.125-.023-.203-.045.056-.045.102-.124.147-.19.125.022.125.022.203.146 0 .1 0 .19-.022.315 0-.022-.023-.045-.056-.067zm-2.906-1.473c.022-.056.068-.1.124-.157.362-.045.362-.045.44 0l-.08.123c-.17.056-.192 0-.362 0-.056.056-.056.056-.124.034zm4.15-.28c-.158-.1-.158-.1-.203-.214.022-.022.045-.056.08-.1a.54.54 0 0 1 .17.022c.023.08.102.146.124.225-.023.068-.023.068-.17.068zm-1.312-.045c-.056 0-.125-.022-.203-.045 0-.18 0-.18.08-.247.045.022.102.067.147.123.023.17.023.17-.022.17zm-4.94-.045a.41.41 0 0 1 .045-.123.84.84 0 0 0-.09-.169.32.32 0 0 1 .124.022c.022.045.045.124.09.19 0 .022-.022.056-.045.1-.023 0-.08 0-.125-.023zm12.266 0c.035-.08.06-.162.08-.247a.26.26 0 0 0 .102.067c-.056.18-.056.18-.124.225a.43.43 0 0 0-.057-.045zm-13.204-.45c-.25-.146-.25-.146-.294-.236.17 0 .17 0 .294.1.25-.022.25-.022.27.034.08-.034.147-.08.25-.123.022.045.045.1.102.146-.022.023-.056.045-.102.1h-.52zm11.802.034c0-.056-.022-.124-.045-.202-.034.022-.08.056-.124.078-.08-.056-.124-.1-.25-.18a3.56 3.56 0 0 1-.395.079 1.11 1.11 0 0 1-.147-.169c0-.056 0-.1-.022-.18.147 0 .317 0 .486.034 0-.034.022-.056.056-.08h.215c.022.08.056.146.08.247.147.023.294.045.44.1.056 0 .124-.034.203-.056 0 .056 0 .123-.034.202-.045.023-.1.045-.147.1-.09 0-.192 0-.317.034zm10.66-.427l-.09-.1c-.1 0-.203 0-.328-.022-.124.067-.124.067-.294.067 0-.045 0-.045-.25-.045-.045-.103-.102-.2-.17-.292-.022 0-.045.022-.08.045 0-.022-.045-.08-.1-.123 0-.08 0-.146.022-.247.022.022.068.08.124.123.068 0 .147 0 .25-.022a.49.49 0 0 0 .113.067c.08 0 .124-.022.203-.045.045.08.045.08.463.225a4.46 4.46 0 0 1 .249.315c-.022 0-.068.022-.124.045zm-19.75-.113c0-.034-.022-.056-.045-.08.022 0 .08-.022.124-.045.125.067.125.067.125.123h-.203zm22.643-.08c0-.022-.022-.045-.022-.08.068 0 .17 0 .27.034-.124.068-.124.068-.25.045zm-23.48-.123l.08-.247h.192v.18c-.068.022-.17.045-.272.067zm3.007-.146c-.045-.022-.113-.08-.192-.123-.045.022-.102.045-.147.08 0-.056 0-.1.023-.18.022-.022.08-.067.124-.123.045.034.124.08.192.123v.225zm-5.924-.022c-.317-.146-.418-.247-.6-.292-.102.045-.203.1-.294.17-.203 0-.395 0-.6-.022 0-.056-.023-.123-.045-.202-.248-.067-.248-.067-.373-.17-.022.045-.045.1-.1.17 0-.045-.023-.1-.045-.17.022-.045.068-.1.125-.17.067.067.17.146.27.214.068 0 .147.034.248.056.045.045.09.123.147.19 0-.067.023-.146.045-.247.022.034.08.08.125.124.08-.045.17-.1.27-.17.102 0 .226 0 .35.023.045.08.125.146.192.225.124.045.27.123.418.19-.046.078-.046.078-.125.078zm27.063-.146v-.18c.068 0 .147-.022.25-.045 0 .023 0 .045.022.1-.203.147-.203.147-.27.124zM46.41 31.04c-.373-.08-.373-.08-.497-.158 0-.067 0-.146-.022-.236.068-.056.147-.1.215-.157l.395.326v.17c-.023 0-.045.022-.09.056zm-4.748-.45a.4.4 0 0 1-.068-.124l-.418-.146c-.022-.022-.056-.045-.08-.1-.124 0-.248 0-.373.034 0 .023-.022.045-.045.1-.022 0-.045-.022-.068-.045l.147-.315.362-.078a1.26 1.26 0 0 1 .079.247c.27.022.34.1.712.1l.18.146c-.102.214-.102.214-.125.17-.1 0-.203 0-.304.022zm7.11-.022l-.068-.315c-.17-.034-.17-.034-.203-.08-.068 0-.147.023-.248.045l-.418-.146c.056-.045.124-.123.203-.19.215.1.463.1.667.225.045 0 .102 0 .17.022 0 .067 0 .146.022.214.08 0 .147 0 .25.034.022.022.045.045.102.1a5.29 5.29 0 0 0-.475.102zm-4.386-.08v-.17c-.452.056-.452.056-.543 0 0-.022.022-.067.045-.123-.022-.023-.045-.067-.08-.123l.52-.022a3.14 3.14 0 0 1 .147.393c-.023 0-.046.022-.09.045zm-1.357-.146c-.056-.067 0-.146-.08-.236h-.102l-.068.146c0-.08 0-.146-.034-.225.057-.046.124-.1.203-.146.27.123.27.123.316.19-.068.08-.068.08-.1.247-.056 0-.1 0-.147.023zm-2.792-.1c-.13-.102-.254-.21-.373-.326-.248 0-.52.023-.79.056-.045-.1-.125-.202-.192-.326-.056 0-.102 0-.18.023a3.33 3.33 0 0 1-.418-.191c.102-.045.102-.045.25 0 .045-.023.102-.045.17-.1l.08.146c.068-.034.133-.076.192-.123.056.1.102.202.18.303.09 0 .192 0 .294-.034.294.1.294.1.6.123.056.202.056.202.16.27a3.19 3.19 0 0 1 .271-.067c0 .067-.034.146-.056.247h-.192zm21.355.023v-.247c.068.022.147.078.248.123-.1.1-.1.1-.248.123zm-10.864-.17c-.17 0-.35-.034-.542-.056-.11-.078-.207-.168-.294-.27.09-.022.215-.045.34-.1.17.08.17.08.328.27.113 0 .237.033.362.056 0 .023.034.045.056.067-.08 0-.147 0-.25.034zm-8.444.023c.124-.056.226-.078.316-.1l-.192-.315h-.226l-.317-.247-.102.17c-.045-.045-.102-.1-.147-.123h-.192c-.08-.067-.124-.146-.18-.19l-.486.045c-.147-.1-.147-.1-.328-.123-.068-.123-.068-.123-.44-.338-.023.023-.045.045-.045.067a.63.63 0 0 1 .113.146c.373.247.622.326.7.416.09-.022.17-.022.237-.022.034.022.057.056.08.078.08-.056.124-.1.17-.124l.18.247c.045-.034.068-.056.1-.078a2.01 2.01 0 0 1 .271.146.26.26 0 0 0 .102-.067c.045.067.1.124.124.17h.35l-.078.247zm22.293-.225c.08-.045.147-.1.25-.146 0 .045.022.123.045.19-.102 0-.192-.023-.294-.046zm-20.733-.146c-.034-.045-.034-.045-.203-.08-.023.034-.068.056-.125.08l-.068-.225-.622-.1c0-.034-.022-.056-.045-.08-.147 0-.305-.023-.452-.045-.045-.1-.045-.1 0-.18.125 0 .147.056.328 0 .44.123.44.123.667.123.068.08.147.146.25.225.395.123.395.123.735.146v.123h-.463zm5.776-.08c-.04-.025-.08-.048-.124-.067-.08 0-.147.023-.226.045-.045-.146-.045-.146-.124-.19-.037.03-.08.053-.125.067V29.4c.08 0 .147 0 .226-.023.192.1.192.1.317.1.022.045.08.1.124.146-.023 0-.046.022-.068.045zm8.784-.19a.45.45 0 0 1-.079-.101c-.022 0-.113 0-.192-.022.08-.023.17-.08.248-.123a1.69 1.69 0 0 0 .124.202c-.022 0-.056.022-.1.045zm-12.537-.023c0-.1.022-.202.045-.292.024-.037.06-.065.102-.08.023.08.068.146.125.247a1.15 1.15 0 0 0-.272.124zm15.544 0c0-.056 0-.1.034-.18.045-.023.09-.067.17-.113.068.113.068.113.045.236-.068 0-.147.034-.25.056zm-14.934-.1c-.022-.023-.045-.045-.068-.1 0-.045 0-.1.022-.17.023.045.045.1.102.17 0 .023-.033.056-.056.1zm-6.862-.292a1.67 1.67 0 0 1-.17-.101c0-.023.023-.045.045-.067.125.023.125.023.203.113-.023 0-.056.033-.08.056zm-.418-.08c-.08-.19-.08-.19-.192-.292-.18 0-.226.045-.373.022.068-.045.17-.1.27-.146l.215.08.18.315a.2.2 0 0 0-.102.022zm-1.04-.337l-.147-.18c0-.045 0-.1.023-.17l.1.17c.147.034.294.056.44.078-.113.023-.27.046-.418.102z" fill="#33348e"/><path d="M93.846 61.51c0-.08.023-.17.046-.292-.215 0-.248.046-.418 0 0-.033.022-.056.056-.1-.12-.027-.236-.06-.35-.1v-.146c-.294-.046-.588-.124-.893-.192 0-.056 0-.123-.022-.202-.102-.046-.17-.192-.272-.247-.022.022-.045.08-.1.123-.34.022-.34.022-.565.124v-.192c-.147.023-.147.023-.61.315-.033.102-.033.102-.1.124 0-.046-.022-.124-.057-.203-.068 0-.147 0-.215.034-.022.067-.203.146-.27.315-.125-.023-.125-.023-.17-.1h-.328c-.102-.067-.102-.067-.464-.146-.08-.067-.147-.17-.226-.27 0-.1 0-.19.022-.315-.022 0-.068-.022-.124-.056-.023.033-.046.078-.09.123l-.667.08-.08-.37c-.08-.022-.08-.022-.1-.1.203-.123.203-.123.248-.214l-.147-.08.1-.72h-.18l.08-.595c-.022 0-.045 0-.1-.023v-.145c.057 0 .1 0 .147-.023-.023-.18-.068-.202-.1-.45 0-.09.022-.192.045-.292-.1-.046-.1-.046-.147-.192.046 0 .102-.022.17-.056l-.067-.416c.067-.394.067-.394.045-.686-.17-.247-.17-.247-.226-.416l.204-.08c.045-.235.045-.235 0-.483-.022 0-.057-.022-.08-.056.022-.146.057-.315.1-.483 0-.08-.022-.146-.045-.247-.034 0-.057 0-.08-.023l.08-.72c-.034 0-.057 0-.102-.022l.068-.787-.147-.067c0-.08 0-.146.034-.247.067 0 .147-.022.214-.046 0-.056 0-.1.023-.18h-.147l.1-.686c-.054-.06-.104-.123-.147-.19.046-.022.102-.056.17-.102-.067-.202-.067-.202-.067-.517-.034 0-.057-.022-.102-.046-.022-.247-.022-.247.046-.494.1 0 .203 0 .328-.022.022-.056.046-.1.068-.146-.1-.022-.193-.056-.317-.1v-.54c-.022 0-.057-.022-.102-.046 0-.033 0-.08.023-.123a.95.95 0 0 1 .203-.146c-.056-.033-.1-.056-.146-.1 0-.124-.034-.247-.057-.37-.023 0-.046-.022-.068-.045.068-.563.068-.563.022-.742-.08-.022-.08-.022-.08-.123.08-.022.147-.067.226-.124 0-.1 0-.19-.022-.292-.204-.045-.204-.045-.294-.146.046-.067.046-.067.215-.067a5.95 5.95 0 0 1 .101-.55c-.022 0-.045-.022-.1-.045v-.494c.057 0 .124-.023.203-.045 0-.022.023-.045.046-.1-.125-.067-.125-.067-.34-.1 0-.1.022-.202.045-.326.102 0 .193 0 .317-.022.08-.045.147-.1.248-.17l.147-.292a1.73 1.73 0 0 1 .328.022c0-.08.023-.146.046-.225a1.06 1.06 0 0 0 .192-.123c.034-.067.057-.17.08-.27h.317c.08-.067.08-.067.125-.292.18-.045.418-.27.6-.315l.067-.326c.204-.045.248-.123.42-.17.033-.1.033-.1.248-.247a.51.51 0 0 1 .056-.191c.125 0 .238 0 .362-.034.035-.076.06-.155.08-.236.124 0 .248 0 .373-.034l.068-.236a4.82 4.82 0 0 0 .373-.124c.023-.18.08-.37.125-.573h.17v.202c.057 0 .1-.022.17-.056.034-.067.057-.146.08-.214.046-.056.124-.1.204-.146 0-.08.022-.146.045-.247.193-.056.193-.056.248-.123.1 0 .193 0 .317-.022.023-.022.046-.08.08-.123.046 0 .125-.022.193-.056 0-.146.022-.292.045-.438a.73.73 0 0 0 .226-.045c.022-.08.057-.146.08-.247.1 0 .192 0 .317-.022.1-.123.1-.123.272-.18.078-.36.078-.36.147-.483h.146c0-.023 0-.056.022-.08.33-.045.33-.045.373-.123.204-.067.204-.067.248-.17.046-.045.125-.1.204-.146.022-.123.068-.27.113-.416.125-.056.25-.123.373-.202a3.15 3.15 0 0 1 .101-.438c.102 0 .226 0 .35-.023.022-.08.045-.146.1-.247.08-.022.147-.08.226-.124 0-.067.022-.146.045-.225a2.17 2.17 0 0 1 .204-.067c0-.08.022-.146.045-.247.08-.045.147-.1.226-.146 0-.08.023-.146.046-.225.08-.045.147-.1.226-.146h.34c-.046-.17-.125-.214-.147-.393-.022 0-.045 0-.068-.022 0-.067 0-.146-.022-.225-.622-.1-.622-.1-.972-.067-.023.023-.046.045-.1.067-.057-.067-.102-.146-.18-.214-.067 0-.147 0-.214-.022-.023-.202-.023-.202-.102-.247-.022.023-.08.067-.124.123-.17.023-.17.023-.644-.056a.77.77 0 0 0-.046-.191 1.41 1.41 0 0 1-.35-.056c-.023.034-.046.078-.09.123l-.497-.067v-.202l-.497.1c-.125 0-.248-.022-.395-.045 0-.078-.022-.146-.046-.225-.022 0-.08 0-.124-.023-.022.023-.046.067-.08.123-.114 0-.237.022-.362.045 0 .022-.022.056-.056.078l-1.063-.146c-.022.022-.045.067-.1.123-.18 0-.35 0-.52-.034 0 .034-.022.056-.056.1a8.19 8.19 0 0 1-.735-.045c0 .023-.023.045-.046.1-.033 0-.057 0-.1-.022-.057-.17-.057-.17-.125-.19-.08.045-.147.1-.226.146 0-.045-.022-.124-.045-.202l-.395.18c-.046.1-.046.1-.125.124-.023-.086-.057-.17-.1-.247a1.98 1.98 0 0 1-.271.146c0-.045-.023-.124-.046-.202l-.44.1c-.08 0-.18-.023-.27-.045-.057-.17-.057-.17-.147-.225-.033.023-.057.08-.1.124a4.91 4.91 0 0 0-.565.045l.067-.416c-.037-.03-.08-.053-.124-.067 0-.056.022-.1.057-.18.147-.067.147-.067.147-.146-.102-.045-.102-.045-.147-.213.17-.023.17-.023.214-.1-.067-.1-.17-.225-.27-.348l.1-.63c.052-.035.11-.06.17-.08v-.17c-.022-.022-.067-.056-.124-.1l-.068-.562a1.22 1.22 0 0 1 .045-.292c-.022 0-.045-.034-.1-.056 0-.438.1-.854.1-1.293-.045-.056-.045-.056 0-.787-.022 0-.045 0-.1-.034 0-.292 0-.292.08-.506.046 0 .102-.034.17-.056.023-.1.023-.1-.045-.17-.08 0-.147-.022-.226-.045 0-.1 0-.202-.022-.326.045 0 .124 0 .192-.022 0-.022.034-.045.057-.1-.102-.1-.204-.214-.328-.337 0-.022 0-.056.033-.1.046 0 .125-.023.192-.045v-.35c-.067-.022-.067-.022-.225-.393.056 0 .1-.023.18-.045.068-.326.068-.326.045-.495-.022 0-.045-.022-.067-.045v-.326c.045 0 .113-.022.192-.045-.022-.146-.1-.202-.125-.37-.022 0-.045 0-.1-.022 0-.19 0-.394.034-.585-.057 0-.125.023-.204.045 0 .023-.022.045-.045.1-.023 0-.057 0-.102-.034 0-.045 0-.1.023-.146.124-.045.248-.123.373-.19l.068-.517c-.1-.022-.192-.045-.317-.1.046-.022.1-.067.17-.123l.125-.292c.057 0 .1 0 .147-.022.056-.1.056-.1 0-.17a.51.51 0 0 1-.215-.056c0-.1 0-.19-.022-.315.045 0 .113-.023.192-.045-.045-.18-.045-.18-.248-.427v-.236c.147-.124.147-.124.248-.37 0-.022 0-.045-.022-.1l-.248-.067c0-.056-.023-.1-.046-.157.046 0 .1 0 .17-.023.046-.1.046-.1 0-.337-.022 0-.045-.022-.08-.056l.1-.54c-.045-.19-.124-.247-.124-.315a.61.61 0 0 0 .147-.079c.022-.067.057-.146.1-.213-.022-.18-.045-.37-.1-.562.1-.427.1-.427.08-.494-.022 0-.057-.023-.102-.056 0-.17.023-.36.046-.562h-.147l.1-.562h.147l-.067-.494.067-.416c.08-.023.147-.067.25-.123-.046-.067-.294-.1-.373-.19 0-.08.022-.146.057-.247l-.08-.585c.125 0 .25 0 .373-.034 0-.045 0-.1.023-.17l-.464-.067c0-.056 0-.1-.034-.18.057 0 .1-.022.18-.045 0-.045.022-.1.045-.146l-.248-.416c0-.056 0-.1.022-.18.034 0 .057 0 .1-.022.023-.1.046-.213.102-.337-.053-.033-.1-.06-.17-.08-.035-.163-.06-.328-.08-.494.045 0 .1-.022.17-.045l.1-.494c-.022 0-.045 0-.1-.022v-.338c.203-.08.203-.08.248-.157h.328c-.033-.17-.1-.213-.08-.315.373-.067.373-.067.44-.146v.17c-.023 0-.046.022-.09.056 0 .045 0 .1.023.146.068 0 .17 0 .27.022.023-.022.046-.08.1-.123h.328c0-.022.023-.045.046-.08.248 0 .497.034.747.056a.69.69 0 0 0 .022.213h.293c.023-.1.08-.19.125-.292.022 0 .046.022.08.056v.36h.17v.202c.046 0 .1-.022.17-.045.023-.18.08-.37.125-.573.046-.023.1-.067.17-.123-.022-.067-.045-.146-.1-.236h.17c.226.36.226.36.294.416a1.93 1.93 0 0 0 .022.359c.125-.1.125-.1.328-.123a2.19 2.19 0 0 0 .125.393c.045 0 .1 0 .17-.022l.124-.124c.147 0 .294.034.44.056l.497-.35h.543c0 .045 0 .123.022.202.046.067.125.146.204.236.022-.022.068-.045.113-.067a1.69 1.69 0 0 0 .079-.225c.147-.045.147-.045.193-.146h.328c0 .045.022.123.046.202l.248.067c0 .08.022.146.045.225.057 0 .1 0 .158-.022 0-.034.022-.056.046-.1h.146c0 .045.023.1.046.17.1.022.226.056.35.1 0 .022-.022.045-.045.1.17.045.192 0 .667 0 .023.045.046.123.068.19.046 0 .102 0 .17-.023.08-.08.18-.146.272-.225.056 0 .1 0 .18-.022.022-.045.068-.1.125-.146 0 .1.022.225.045.35.317.045.317.045.373 0 .1 0 .192 0 .317-.034l.248.1c0 .35 0 .35.046.37l.08.37c.1-.034.192-.08.293-.124 0 .124 0 .247.023.36.022 0 .056.034.08.056 0 .1 0 .19-.023.315a.56.56 0 0 0-.203.056c0 .023-.023.045-.046.1-.057 0-.1 0-.18.034 0 .046.033.1.057.17a1.09 1.09 0 0 1 .293.123c0 .067-.022.17-.045.27-.057 0-.125.022-.204.045-.068.292-.068.292-.045.54.022 0 .045 0 .1.023.045.18.045.18.124.225 0 .123 0 .247.023.37.022 0 .045 0 .068.022 0 .1 0 .19-.023.292-.147.08-.147.08-.192.17 0 .247 0 .247.068.393-.046 0-.102.034-.17.056a.53.53 0 0 0 .022.169c.022 0 .045 0 .1.022v.146c-.057 0-.124 0-.203.022 0 .056.022.1.056.18.068 0 .147.022.215.045v.326h.6c0 .112 0 .236-.022.36.1.022.1.022.114.123-.114.08-.114.08-.384.08 0 .023-.034.045-.057.1a.77.77 0 0 0 .17.079v.202h.18a4.6 4.6 0 0 1-.101.483c.1.022.226.08.35.123v.17h-.43c0 .123-.022.247-.045.37.248 0 .248 0 .373.08-.022.022-.056.045-.08.1-.17 0-.34 0-.52-.022l-.1.472.36.146c-.03.028-.053.063-.068.1h-.293v.19c.022.023.068.08.124.124-.08 0-.147.022-.248.045-.1.64-.1.64-.18.72-.046 0-.1 0-.147.022v.146c.1 0 .204.022.328.045v.416a.72.72 0 0 1 .248.034c0 .067.023.146.046.214h.147c0 .1-.023.202-.046.326-.022 0-.057.023-.1.045a.68.68 0 0 0-.101-.225c-.023 0-.046 0-.09-.022-.1.123-.1.123-.282.202 0 .067-.022.146-.046.247-.045.022-.124.045-.192.1v.326l.464.067c0 .124 0 .247-.023.37.023 0 .046.023.102.045.1-.067.192-.17.317-.27.045 0 .1 0 .17-.022 0 .045.033.123.056.202.125-.08.125-.08.317-.08a1.58 1.58 0 0 1-.248.225l.18.146c0 .023-.034.045-.057.1-.125 0-.248 0-.373-.034a.38.38 0 0 0 .034.18c.022 0 .045.022.1.045 0 .045.033.123.056.19.396.056.396.056.487.123-.046.1-.046.1-.215.18 0 .1 0 .19.022.314.147.202.147.202.193.37-.046 0-.1.022-.17.045 0 .123-.022.247-.045.37a.53.53 0 0 1 .17.023c0 .37 0 .37.046.494a.5.5 0 0 0-.147.101l-.068.236c.17.1.17.1.34.1a.19.19 0 0 0 .079-.101h.17c.023.1.057.202.102.326-.055.026-.112.05-.17.067-.056.18-.056.18-.033.348l.475.067v.18h-.226v.393l.475.068v.146c-.057.023-.125.08-.203.123 0 .08 0 .18-.023.27.08 0 .17.023.272.056l.248.416c.08 0 .17.023.27.045a.68.68 0 0 0 .101.225c.046-.056.125-.1.193-.146.022 0 .057 0 .1.023.023.1.068.214.125.337h-.35c-.1.123-.1.123-.248.157 0 .112-.022.236-.045.36l.317.08c.158.214.158.214.158.337-.08.056-.08.056-.158 0 0-.045 0-.123-.023-.19h-.17v.37c.022 0 .046 0 .08.022 0 .123.022.247.046.37l.226-.124c.022 0 .045.023.068.045v.315a1.59 1.59 0 0 0 .271.079c.1.225.1.225.204.27 0 .023 0 .045-.034.1-.045 0-.113 0-.192.022 0 .045 0 .1.022.17h.294c.08-.067.08-.067.203-.045 0 .022 0 .045-.022.1-.057 0-.1.022-.147.045-.032.096-.058.193-.08.292.046.022.1.08.17.124-.045.1-.045.1-.192.17-.022.225-.08.45-.125.697.046 0 .102 0 .147-.034l.147-.292c.022 0 .046 0 .08.022v.37a1.47 1.47 0 0 1 .271.045l.147.573-.08.338c-.045 0-.124 0-.192.022.022.056.045.123.1.202.057 0 .124.022.203.045 0 .08.023.146.046.225h.147v.19c.1 0 .203 0 .305.034.068-.1.068-.1.17-.123l.068.067a.67.67 0 0 1-.193.146c-.023.086-.057.17-.1.247.057.022.1.08.18.123 0 .022-.033.045-.056.1-.125 0-.25 0-.373-.022 0 .1 0 .19-.022.292.056.022.1.045.146.067v.247c.226-.067.25-.146.305-.146a1.27 1.27 0 0 1 .068.202l.373-.1.214.067c-.045.08-.045.08-.237.1 0 .202-.034.393-.057.595.08 0 .147 0 .248.023.022.123.045.27.1.416.046-.056.125-.1.193-.17.033 0 .056.022.1.045 0 .123 0 .247-.022.37.068 0 .147.022.248.045l.068.37c.08.023.08.023.18.247l.1.607c.057-.045.125-.1.204-.17.067.023.17.045.27.1-.022.067-.022.067-.204.146l-.067.54a1.26 1.26 0 0 1 .271.022v.348c.046.023.1.045.17.067-.068.416-.068.416-.045.742.068.045.1.19.214.315v.472c.034.067.057.146.102.214.022 0 .045 0 .1.022 0 .08 0 .146.022.225-.022.08-.046.17-.1.27-.1 0-.215.022-.34.045 0 .08-.023.157-.057.247-.215.022-.215.022-.588-.045 0 .1-.022.19-.045.315l-.373.08-.08.213c-.068 0-.147.034-.214.056 0 .1-.034.19-.057.292l-.395.225-.068.27c-.1 0-.204-.023-.328-.056l-.34 1.405c-.42.123-.42.123-.747.123-.068.124-.248.19-.293.292-.272-.045-.272-.045-.52 0-.046.078-.046.078-.17.078 0-.078-.023-.157-.046-.225-.124.045-.248.1-.395.17-.033.1-.056.202-.08.292-.1 0-.226 0-.35.034 0 .022-.022.045-.046.067-.17 0-.373 0-.565-.022 0 .123-.022.247-.046.37.068 0 .17.022.272.045l.215.292c-.068 0-.17.023-.272.056l-.373-.1c-.1 0-.193 0-.317.022l-.08.708c.1.034.1.034.124.124-.068.022-.147.08-.215.123.046.124.125.146.272.37 0 .124.022.247.045.37.08.022.08.022.17.213.08.034.18.056.27.102 0 .1-.022.202-.046.292-.068 0-.146 0-.225.034v.17c.1 0 .203.022.328.046.022.123.022.123-.147.865-.057.023-.1.046-.18.067 0 .102 0 .203-.023.326.102.046.102.046.248.36-.045 0-.124.022-.192.056 0 .045.022.123.046.19.022 0 .045.022.1.056 0 .022 0 .046-.023.1H99.6c0 .18 0 .18.125.45h.17c.022.112.078.236.124.382h.17c-.068.472-.068.472-.045.786.045.056.045.056.045.35.125.046.248.1.373.17-.022.08-.08.18-.125.27-.045 0-.1 0-.17.023 0 .056.023.1.046.18.248.046.248.046.317.124-.022.022-.046.045-.068.1-.046 0-.1 0-.17.033 0 .112-.034.236-.057.36h.18c.023.202.09.247.114.45h.18a.69.69 0 0 0 .022.213.77.77 0 0 1 .249.056c.124.214.124.214.214.606l.395.08c0 .102 0 .192.034.315-.08 0-.158.023-.226.056v.192h.17v.19l.497.1c0 .124-.022.247-.045.393h.17c0 .08.022.146.045.225h.08v.17c-.08 0-.146 0-.225.023v.18h.17c0 .112-.023.225-.046.382.046 0 .1.022.17.045l-.068.292-.18.08c0 .1-.022.19-.045.315.1.022.225.08.35.123 0 .023-.033.046-.057.08-.124 0-.248 0-.36.022 0 .022-.034.045-.057.1-.17 0-.34-.022-.52-.046-.022.023-.045.08-.1.124-.158.022-.304.08-.45.123l-1.153-.224v-.192h-.395c-.08.022-.147.067-.226.124 0 .022 0 .045-.022.1-.1 0-.204 0-.294-.022-.056-.067-.1-.146-.18-.214l-.565-.1c-.068.145-.068.145-.068.315h-.18v-.192c-.1 0-.193-.022-.317-.056a.66.66 0 0 0 .068.37c-.046-.022-.09-.045-.17-.067 0-.033 0-.056-.022-.1L97 60.25l-.068-.067c.046-.08.046-.08 0-.146-.17.046-.17.046-.203.124l-.712.1c-.046-.022-.125-.046-.193-.067 0 .046-.033.1-.056.17h-.193v-.19c-.17.045-.203.123-.62.315-.046.1-.193.146-.294.27-.373.203-.395.27-.588.35-.033.123-.056.27-.08.416h-.147zm7.157-1.226h.147c.033-.123.056-.247.056-.37h-.147v-.225h-.226c-.022.123-.022.247-.022.37h.147c.023.08.046.147.046.225zm-2.883-.573h.215c.033-.067.033-.123.033-.17-.27-.046-.27-.046-.35 0 .023.146.023.146.102.17zm-9.902-.416c.045-.022.08-.046.1-.046-.022-.045-.022-.1-.022-.123-.057-.023-.102-.046-.125-.046 0 .214 0 .214.046.214zm13.475-.596c.057-.033.102-.056.147-.056.034-.09.034-.192.034-.292-.057-.022-.102-.022-.125-.022-.08.123-.08.123-.057.37zM89.2 44.83c.057-.022.1-.022.147-.022.08-.202.08-.202.056-.35-.056-.022-.1-.045-.124-.045-.08.19-.08.19-.08.416zm15.013-.742c.045 0 .045 0 .045-.17h-.113c-.033.045-.057.08-.057.1.045.015.087.038.125.067zm-1.402-6.923c.046-.022.1-.022.147-.022l.068-.292c-.046-.045-.046-.045-.215-.022v.337zM88.092 18.44c.046-.022.08-.022.1-.022v-.17c-.056-.022-.08-.022-.1-.022v.214zm9.903-.933c.147-.022.192-.123.34-.19.033-.08.033-.124.033-.17-.124-.034-.225-.034-.328-.034-.022.146-.045.27-.045.394zm-.08-2.698c.08-.022.124-.022.18-.022l.068-.292a.51.51 0 0 0-.193-.056c-.035.12-.053.245-.055.37z" fill="#ca0088"/><path fill="#fff22d" d="M86.498 35.3v34.077L69.36 52.35z"/><path d="M95.18 71.962v-1.674h4.906v1.674H95.18zm-22.847-1.674h1.696v7.81h-1.696v-7.81zm-5.834 0h1.854l2.962 7.81h-1.854l-2.962-7.81zm16.505 0h1.854l2.962 7.81h-1.854l-2.962-7.81zm-17.138 0l.87 2.293-2.092 5.52h-1.854l2.962-7.81h.113zm16.505 0l.87 2.293-2.09 5.52h-1.855l2.962-7.81h.114zm6.4 0h1.684v7.81h-1.684v-7.81zm8.004 2.37h1.696v5.44h-1.696v-5.44z" fill="#33348e"/><path d="M67.133 78.267L65.89 76.12h2.487l-1.244 2.147zm16.505 0l-1.244-2.147h2.488l-1.244 2.147z" fill="#ca0088"/><path d="M74.616 71.658v-1.37h.95c1.21 0 2.103.326 2.7.966.588.652.882 1.63.882 2.945 0 .72-.1 1.35-.328 1.888a3.11 3.11 0 0 1-.95 1.325c-.305.247-.655.416-1.062.528-.395.1-.95.157-1.673.157h-.51v-1.405h.747c.757 0 1.3-.202 1.64-.584.328-.393.498-1.034.498-1.9 0-.866-.158-1.518-.464-1.923-.317-.405-.802-.618-1.47-.618h-.95zm16.483-.01v-1.36h.735c.826 0 1.447.214 1.877.64.418.428.633 1.046.633 1.877 0 .81-.204 1.427-.622 1.866s-1.006.652-1.787.652H91.1v-1.416h.43c.42 0 .735-.1.927-.27s.283-.46.283-.866c0-.36-.09-.652-.283-.843s-.475-.282-.848-.282h-.51zM62.686 83.674v-2.277h.273v2.277h-.273zm1.003 0v-1.42h.24v.22a.6.6 0 0 1 .222-.204c.093-.047.196-.07.3-.067.17 0 .3.045.395.134s.142.214.142.373v.967h-.252v-.836c0-.144-.03-.25-.092-.32s-.155-.105-.28-.105a.48.48 0 0 0-.199.04c-.058.025-.11.063-.15.112-.03.038-.052.08-.065.127s-.02.13-.02.248v.735h-.243zm1.93-2.1c0-.048.018-.1.052-.124s.08-.053.127-.052.093.02.127.053.052.08.05.127-.018.092-.05.125-.08.05-.126.05-.094-.017-.128-.05-.053-.08-.052-.127zm.056 2.1v-1.42h.248v1.42h-.248zm2.06-.337v.282c-.068.04-.14.07-.218.087-.086.02-.174.03-.262.028-.22 0-.4-.07-.534-.21s-.202-.322-.202-.55a.77.77 0 0 1 .21-.559c.14-.144.32-.216.537-.216a1.11 1.11 0 0 1 .232.025c.075.016.147.04.214.073v.26a.84.84 0 0 0-.194-.093.66.66 0 0 0-.203-.032c-.16 0-.3.05-.387.15s-.146.233-.146.398a.5.5 0 0 0 .147.367c.098.1.22.147.367.147.074 0 .147-.012.218-.04s.144-.066.223-.12zm.485-1.773a.17.17 0 0 1 .052-.124c.033-.034.08-.053.127-.052s.093.02.127.053.052.08.05.127-.018.092-.052.124-.08.05-.126.05-.094-.018-.127-.05-.052-.08-.052-.126zm.056 2.1v-1.42h.248v1.42h-.248zm1.93-.318a.44.44 0 0 1-.343.136c-.152 0-.27-.046-.352-.14s-.124-.226-.124-.398c0-.162.04-.287.123-.377a.44.44 0 0 1 .344-.135c.14 0 .256.05.344.146s.132.228.132.388-.04.29-.124.38zm.118-1.103v.267a.58.58 0 0 0-.213-.239c-.094-.055-.202-.083-.312-.08a.62.62 0 0 0-.489.207c-.122.138-.183.325-.183.56s.063.416.188.557.29.2.496.2c.1 0 .21-.027.3-.08s.162-.134.22-.237v.258h.24v-1.42h-.245zm.974.198h-.26v-.198h.26v-.574h.252v.574h.26v.198h-.26v1.223h-.252V82.45zm.935-.887c0-.048.018-.1.052-.124s.08-.053.127-.052.093.02.126.053.052.08.05.127-.018.09-.052.124-.08.05-.125.05-.094-.018-.128-.05-.052-.08-.052-.127zm.057 2.1v-1.42h.248v1.42h-.248zm1.433.09l-.71-1.512h.275l.43.992.432-.992h.275l-.704 1.512zm2.136-.41a.44.44 0 0 1-.342.136c-.152 0-.27-.046-.352-.14s-.125-.226-.125-.398c0-.162.04-.287.124-.377s.196-.135.343-.135a.44.44 0 0 1 .344.146c.09.1.133.228.133.388s-.04.29-.125.38zm.118-1.103v.267c-.047-.098-.12-.18-.213-.24s-.202-.083-.31-.08a.62.62 0 0 0-.489.207c-.122.138-.183.325-.183.56s.063.416.188.557.29.2.496.2a.56.56 0 0 0 .299-.081c.09-.054.163-.134.22-.237v.258h.24v-1.42h-.247zm.772 1.182l.2-.14a.43.43 0 0 0 .151.172.4.4 0 0 0 .215.057.3.3 0 0 0 .195-.06.19.19 0 0 0 .075-.155c.001-.047-.017-.093-.052-.126s-.092-.063-.174-.092c-.01-.004-.022-.01-.04-.014-.35-.12-.524-.268-.524-.447a.39.39 0 0 1 .141-.31c.094-.08.217-.12.367-.12.124 0 .23.024.32.073a.43.43 0 0 1 .192.208l-.2.12c-.026-.062-.07-.115-.13-.15s-.13-.054-.2-.053a.26.26 0 0 0-.176.06c-.045.038-.07.095-.07.153 0 .087.096.16.285.22l.085.027c.156.05.263.107.324.17a.35.35 0 0 1 .092.253c.004.125-.05.246-.145.328s-.223.125-.378.125a.72.72 0 0 1-.34-.074.56.56 0 0 1-.225-.226zm4.605-1.497c-.11-.118-.226-.205-.35-.262a.98.98 0 0 0-.411-.085c-.12 0-.24.025-.355.074a.9.9 0 0 0-.299.204c-.085.087-.152.2-.197.303s-.065.235-.065.37a1.05 1.05 0 0 0 .039.292c.026.09.065.17.117.246a.93.93 0 0 0 .772.405.93.93 0 0 0 .407-.09c.125-.06.24-.15.342-.27v.36c-.224.164-.495.252-.773.25-.24 0-.477-.073-.676-.21a1.19 1.19 0 0 1-.383-.425c-.09-.17-.135-.362-.133-.554a1.24 1.24 0 0 1 .089-.478 1.14 1.14 0 0 1 .27-.392c.117-.112.246-.196.388-.25s.297-.084.466-.084a1.26 1.26 0 0 1 .384.06 1.41 1.41 0 0 1 .368.185v.352zm.922.648c.1-.103.224-.155.37-.155s.264.052.364.155a.53.53 0 0 1 .151.382c0 .15-.05.277-.15.38-.093.1-.226.158-.364.156-.144 0-.266-.052-.368-.156s-.152-.232-.152-.38a.53.53 0 0 1 .151-.382zm-.354.675c.08.19.23.338.42.416.094.04.193.058.3.058a.76.76 0 0 0 .294-.059.79.79 0 0 0 .255-.171c.148-.14.23-.334.227-.537.003-.204-.08-.4-.227-.54-.073-.072-.16-.13-.254-.168s-.194-.058-.296-.057c-.207-.003-.406.077-.552.222a.76.76 0 0 0-.227.544.74.74 0 0 0 .059.294zm4.073.414v-.836c0-.144-.03-.25-.088-.32s-.148-.105-.27-.105a.42.42 0 0 0-.182.04.39.39 0 0 0-.141.112c-.03.04-.05.084-.06.13-.015.08-.022.163-.02.245v.735h-.235v-.836c0-.144-.03-.25-.088-.32s-.148-.105-.268-.105c-.064 0-.127.013-.184.04s-.105.064-.144.112a.37.37 0 0 0-.059.126 1.18 1.18 0 0 0-.018.25v.735h-.235v-1.42h.238v.22a.59.59 0 0 1 .212-.204c.082-.046.177-.067.284-.067a.56.56 0 0 1 .296.074.46.46 0 0 1 .184.216c.062-.1.134-.17.218-.22a.58.58 0 0 1 .292-.072c.16 0 .285.045.374.134s.135.214.135.373v.967h-.244v-.002zm1.153-1.42v.7c0 .204.03.346.09.428s.163.122.308.122.246-.04.306-.12.09-.223.09-.43v-.7h.252v.83c0 .215-.055.377-.165.487s-.273.165-.488.165-.374-.055-.485-.166-.165-.273-.165-.486v-.83h.257zm1.72 1.42v-1.42h.24v.22c.06-.092.135-.16.222-.204a.63.63 0 0 1 .3-.067c.168 0 .3.045.395.134s.142.214.142.373v.967h-.252v-.836c0-.144-.03-.25-.09-.32s-.155-.105-.28-.105c-.072 0-.138.014-.2.04a.39.39 0 0 0-.149.112c-.03.038-.052.08-.064.127a1.08 1.08 0 0 0-.02.248v.735h-.243zm1.93-2.1a.17.17 0 0 1 .052-.124c.033-.034.08-.053.127-.052a.18.18 0 0 1 .126.053c.033.034.052.08.05.126a.17.17 0 0 1-.051.125c-.033.033-.08.05-.126.05s-.094-.017-.128-.05-.052-.08-.05-.127zm.056 2.1v-1.42h.248v1.42h-.248zm.998-1.223h-.26v-.198h.26v-.574h.252v.574h.26v.198h-.26v1.223h-.252V82.45zm1.96.905c-.083.09-.197.136-.343.136-.152 0-.27-.046-.352-.14s-.125-.226-.125-.398c0-.162.04-.287.124-.377s.196-.135.343-.135a.44.44 0 0 1 .344.146c.09.1.133.228.133.388s-.04.29-.124.38zm.118-1.103v.267c-.048-.098-.122-.18-.214-.24s-.202-.083-.31-.08a.62.62 0 0 0-.489.207c-.122.138-.183.325-.183.56s.063.416.188.557.292.2.496.2a.56.56 0 0 0 .299-.081c.09-.054.163-.134.22-.237v.258h.24v-1.42h-.246zm.927 1.42v-1.42h.218v.29c.065-.123.135-.21.2-.264s.164-.08.27-.08a.45.45 0 0 1 .166.03l-.08.216c-.026-.01-.053-.016-.08-.02s-.048-.007-.072-.007c-.13 0-.226.046-.29.14s-.097.233-.097.42v.696h-.243zm1.275-2.1c0-.048.017-.1.052-.124a.17.17 0 0 1 .126-.052.18.18 0 0 1 .126.053c.033.034.052.08.05.126a.17.17 0 0 1-.051.125c-.033.033-.08.05-.126.05s-.094-.017-.128-.05-.052-.08-.05-.127zm.057 2.1v-1.42h.248v1.42h-.248zm1.93-.318c-.083.09-.197.136-.343.136-.152 0-.27-.046-.352-.14s-.124-.226-.124-.398c0-.162.04-.287.123-.377a.44.44 0 0 1 .343-.135c.142 0 .256.05.345.146s.132.228.132.388-.04.29-.124.38zm.118-1.103v.267a.58.58 0 0 0-.213-.239.59.59 0 0 0-.312-.081.62.62 0 0 0-.489.207c-.122.138-.182.325-.182.56s.063.416.188.557.29.2.496.2c.1 0 .2-.027.3-.08a.63.63 0 0 0 .219-.237v.258h.24v-1.42h-.246zm.783 1.182l.21-.14c.04.076.1.134.152.172s.14.06.214.057c.07.003.14-.018.196-.06a.19.19 0 0 0 .074-.155.17.17 0 0 0-.051-.126c-.034-.033-.093-.063-.174-.092l-.04-.014c-.35-.12-.524-.268-.524-.447 0-.127.046-.23.14-.3s.216-.12.366-.12a.66.66 0 0 1 .32.073.43.43 0 0 1 .191.208l-.198.12a.33.33 0 0 0-.13-.151.37.37 0 0 0-.199-.053.26.26 0 0 0-.176.06c-.045.038-.07.095-.068.153 0 .087.095.16.285.22l.084.027c.156.05.264.107.325.17s.09.148.09.253c.004.125-.05.246-.144.328s-.223.125-.378.125c-.134 0-.248-.025-.34-.074a.55.55 0 0 1-.225-.226zM62.6 80.066h37.487v.348H62.6v-.348z" fill="#33348e"/></svg>