<svg xmlns="http://www.w3.org/2000/svg" width="166" height="94" fill-rule="nonzero"><path d="M55.154 57.962h2.136l2.517-6.557h9.51l2.546 6.557H74L65.806 36.87H63.58l-8.427 21.093zm9.45-19.083l4.04 10.812H60.42l4.184-10.812zm10.112 19.083h1.844V36.87h-1.844v21.093zm9.738-15.243H81.47V41.4l.03-1.152c.02-.356.092-.665.22-.932s.327-.477.6-.635.664-.236 1.172-.236a4.78 4.78 0 0 1 .644.044l.7.104v-1.595l-.79-.088-.76-.03c-.74 0-1.35.11-1.83.325a2.68 2.68 0 0 0-1.127.915c-.273.395-.457.868-.556 1.418s-.146 1.153-.146 1.802v1.39H77.05v1.564h2.575V57.96h1.845V44.284h2.984V42.72zm.576 15.243h1.844v-8c0-.775.136-1.503.4-2.182a5.03 5.03 0 0 1 1.155-1.746 5.17 5.17 0 0 1 1.771-1.12c.682-.263 1.444-.373 2.282-.335v-1.86c-1.365-.06-2.54.21-3.526.812s-1.71 1.52-2.18 2.763h-.058V42.72H85.03v15.243zm19.96-7.12c.04-1.003-.058-2.007-.293-2.983-.232-.98-.618-1.85-1.156-2.607s-1.233-1.368-2.092-1.835-1.892-.7-3.102-.7-2.244.22-3.102.656-1.562 1.014-2.107 1.73a7.38 7.38 0 0 0-1.215 2.442c-.262.908-.395 1.848-.395 2.792 0 1.023.132 1.995.395 2.917a7.08 7.08 0 0 0 1.215 2.429c.546.698 1.25 1.25 2.107 1.66s1.892.614 3.102.614c1.912 0 3.39-.477 4.433-1.432s1.76-2.3 2.152-4.033H103.1c-.292 1.163-.82 2.103-1.58 2.822s-1.815 1.078-3.16 1.078c-.877 0-1.633-.173-2.268-.518s-1.147-.785-1.537-1.314-.683-1.123-.876-1.78a6.74 6.74 0 0 1-.293-1.942l11.617.001zm-11.618-1.567a7.3 7.3 0 0 1 .483-1.856 5.43 5.43 0 0 1 .98-1.602 4.64 4.64 0 0 1 1.494-1.111c.584-.28 1.256-.423 2.018-.423.74 0 1.404.142 2 .423s1.083.65 1.492 1.11a5.06 5.06 0 0 1 .95 1.586c.225.6.35 1.232.367 1.872h-9.774zm23.84-2.096c-.04-.827-.205-1.546-.497-2.156a4.51 4.51 0 0 0-1.184-1.536 4.86 4.86 0 0 0-1.728-.916c-.654-.198-1.362-.296-2.122-.296a8.82 8.82 0 0 0-2.005.236c-.672.16-1.282.405-1.828.74s-.992.778-1.333 1.328-.513 1.213-.513 1.98c0 .65.107 1.196.322 1.64.2.436.515.82.892 1.122s.825.562 1.333.77 1.063.388 1.668.546l2.37.532 1.214.355a4.67 4.67 0 0 1 1.069.517 2.37 2.37 0 0 1 .746.783c.185.315.28.69.28 1.123 0 .53-.133.98-.395 1.344s-.602.664-1 .902a4.45 4.45 0 0 1-1.348.5c-.487.1-.946.15-1.376.15-1.23 0-2.257-.32-3.087-.96s-1.283-1.59-1.362-2.85h-1.844c.157 1.872.787 3.235 1.888 4.092s2.542 1.284 4.317 1.284c.703 0 1.414-.083 2.136-.25a6.23 6.23 0 0 0 1.946-.799c.573-.362 1.058-.847 1.42-1.42.37-.58.556-1.284.556-2.11 0-.672-.127-1.25-.38-1.745s-.58-.904-.98-1.24-.858-.606-1.376-.813a6.99 6.99 0 0 0-1.565-.428l-2.46-.562-1.024-.31a4.81 4.81 0 0 1-1.024-.488c-.304-.187-.568-.433-.777-.722s-.305-.635-.305-1.05c0-.49.105-.907.32-1.24s.498-.606.85-.813.735-.353 1.155-.443c.41-.088.826-.132 1.244-.132.526 0 1.024.062 1.493.192a3.55 3.55 0 0 1 1.243.605 2.99 2.99 0 0 1 .864 1.049c.215.423.33.92.35 1.492h1.845zm13.913.768c-.215-1.753-.883-3.063-2.005-3.928s-2.493-1.3-4.112-1.3c-1.152 0-2.17.204-3.06.613s-1.635.96-2.24 1.647a7.05 7.05 0 0 0-1.375 2.43 9.16 9.16 0 0 0-.468 2.931c0 1.042.156 2.024.468 2.945s.77 1.726 1.375 2.416 1.35 1.237 2.24 1.647 1.907.614 3.06.614c1.697 0 3.096-.522 4.2-1.565s1.78-2.49 2.034-4.342h-1.844a5.09 5.09 0 0 1-.468 1.742c-.254.532-.576 1-.964 1.375a4.32 4.32 0 0 1-1.347.901c-.506.217-1.044.325-1.61.325-.88 0-1.65-.174-2.313-.522s-1.213-.808-1.652-1.377-.77-1.217-.995-1.94a7.48 7.48 0 0 1-.337-2.217c0-.753.113-1.49.337-2.216s.557-1.37.995-1.94.99-1.028 1.652-1.377 1.435-.524 2.313-.524c1.21 0 2.16.325 2.852.975s1.166 1.547 1.42 2.7l1.845-.001zm7.918-5.228c-1.15 0-2.17.204-3.058.614s-1.634.96-2.237 1.647-1.064 1.5-1.376 2.43-.468 1.908-.468 2.93c0 1.043.157 2.024.468 2.946a7.02 7.02 0 0 0 1.376 2.415c.603.7 1.35 1.237 2.237 1.647s1.908.614 3.058.614 2.172-.203 3.06-.614 1.634-.957 2.24-1.647 1.063-1.494 1.375-2.415.468-1.903.468-2.946c0-1.024-.157-2-.468-2.93s-.77-1.74-1.375-2.43-1.35-1.237-2.24-1.647-1.907-.614-3.06-.614zm0 1.564c.878 0 1.65.174 2.312.524a5 5 0 0 1 1.654 1.377c.438.57.77 1.216.995 1.94a7.49 7.49 0 0 1 0 4.433c-.224.723-.556 1.37-.995 1.94a5 5 0 0 1-1.654 1.377c-.662.347-1.434.522-2.312.522s-1.65-.174-2.31-.522-1.215-.808-1.655-1.377-.77-1.217-.994-1.94a7.47 7.47 0 0 1-.336-2.217 7.46 7.46 0 0 1 .336-2.216 6.13 6.13 0 0 1 .994-1.94c.44-.57.992-1.028 1.655-1.377s1.433-.524 2.31-.524zm9.722-.546c0 .827-.627 1.47-1.442 1.47s-1.443-.644-1.443-1.47.628-1.47 1.443-1.47 1.442.646 1.442 1.47zm-2.66 0c0 .704.518 1.262 1.217 1.262s1.218-.558 1.218-1.262-.52-1.26-1.218-1.26-1.217.558-1.217 1.26zm.9.85h-.207v-1.7h.64c.377 0 .544.166.544.47s-.194.436-.418.475l.495.756h-.24l-.47-.756h-.344v.755zm.27-.932c.253 0 .5-.008.5-.297 0-.237-.195-.293-.395-.293h-.376v.6h.27z" fill="#7a7d81"/><g fill="#fff"><path d="M34.64 46.905l-5.127-5.234c-2.836-2.9-7.456-2.9-10.28-.01a7.5 7.5 0 0 0 0 10.475c2.822 2.9 7.43 2.9 10.265 0l5.14-5.23z"/><path d="M34.64 46.9v7.133l.01.262c0 4.1-3.258 7.425-7.273 7.425s-7.273-3.314-7.273-7.405 3.27-7.416 7.273-7.416h7.263z"/><path d="M34.64 46.9v7.133l.01.262c0 4.1-3.258 7.425-7.273 7.425s-7.273-3.314-7.273-7.405c0-.456.048-.897.123-1.322a7.14 7.14 0 0 0 9.273-.855l5.14-5.232V46.9z"/></g><path d="M27.376 47.833c-3.5 0-6.344 2.9-6.344 6.48 0 3.567 2.844 6.46 6.344 6.46 3.51 0 6.345-2.895 6.345-6.46v-6.48h-6.345z" fill="#8bc037"/><path d="M34.64 46.9l4.943 5.04.204.184c2.824 2.897 2.837 7.6 0 10.5-2.845 2.892-7.44 2.892-10.287 0a7.53 7.53 0 0 1 0-10.484l5.14-5.23z" fill="#fff"/><path d="M30.162 52.795c-2.483 2.526-2.483 6.632 0 9.15 2.472 2.527 6.49 2.527 8.974 0 2.472-2.52 2.472-6.624 0-9.15l-.207-.2-4.3-4.38-4.477 4.562v.008z" fill="#8bc037"/><path d="M34.64 46.9h7.005l.255-.013c4.017 0 7.274 3.32 7.274 7.415s-3.246 7.404-7.262 7.404-7.27-3.313-7.27-7.404V46.9z" fill="#fff"/><path d="M35.566 54.3c0 3.575 2.833 6.47 6.344 6.47 3.496 0 6.33-2.896 6.33-6.47s-2.834-6.468-6.33-6.468h-6.344V54.3z" fill="#8bc037"/><path d="M34.64 46.9l4.943-5.048.19-.2c2.836-2.9 7.442-2.902 10.277-.013 2.836 2.898 2.836 7.587 0 10.483-1.35 1.39-3.202 2.172-5.138 2.172s-3.8-.784-5.138-2.172L34.64 46.9z" fill="#fff"/><path d="M40.437 51.46c2.46 2.534 6.478 2.534 8.962 0 2.485-2.522 2.485-6.615 0-9.144s-6.5-2.526-8.962 0l-.204.198L35.95 46.9l4.464 4.556.022.005z" fill="#8bc037"/><path d="M34.64 46.9v-7.405c0-4.087 3.242-7.415 7.27-7.415 4.005 0 7.25 3.306 7.25 7.402s-3.244 7.417-7.25 7.417h-7.27z" fill="#fff"/><path d="M41.9 45.957c3.496 0 6.33-2.897 6.33-6.475 0-3.564-2.834-6.468-6.33-6.468-3.51 0-6.358 2.903-6.358 6.468l.013.277v6.197H41.9z" fill="#f99f38"/><path d="M34.64 46.9l-4.947-5.048-.193-.18c-2.835-2.9-2.835-7.6 0-10.5 2.822-2.895 7.43-2.895 10.275 0a7.52 7.52 0 0 1 0 10.479L34.64 46.9z" fill="#fff"/><path d="M39.123 41.057a6.58 6.58 0 0 0 0-9.152 6.26 6.26 0 0 0-8.972 0c-2.485 2.524-2.485 6.624 0 9.152l.18.194 4.308 4.373 4.483-4.567z" fill="#0081c6"/><path d="M34.64 46.96h-7l-.264.007c-4.004 0-7.273-3.322-7.273-7.415s3.257-7.41 7.26-7.41c4.016 0 7.276 3.32 7.276 7.413v7.405z" fill="#fff"/><path d="M33.72 39.554c0-3.575-2.834-6.468-6.356-6.468-3.497 0-6.342 2.893-6.342 6.463s2.845 6.476 6.342 6.476l.277-.007h6.08v-6.463z" fill="#0081c6"/><path d="M34.64 46.96l-17.54.007c0-1.895.7-3.793 2.135-5.245a7.16 7.16 0 0 1 10.265 0l5.14 5.238z" fill="#fff"/><path d="M28.848 42.385l4.487 4.573h-5.958c-3.22 0-5.96 2.14-6.9 5.115l-.58-.54c-2.485-2.527-2.485-6.614 0-9.147a6.25 6.25 0 0 1 8.96 0" fill="#0081c6"/><path d="M28.86 42.39l3.55 3.623-5.05.015c-2.907 0-5.358-1.99-6.102-4.7 2.41-1.378 5.57-1.047 7.6 1.067l.012.006zm4.864-2.824l-.005 5.124-3.565-3.635c-2.053-2.098-2.414-5.27-1.063-7.73 2.665.76 4.633 3.26 4.633 6.227v.014zm1.816 5.135v-5.14c0-2.962 1.965-5.464 4.633-6.23 1.35 2.466 1.096 5.557-1.023 7.695l-3.6 3.677z" fill="#005ea5"/><path d="M36.863 45.96l3.562-3.64c1.987-2.043 5.104-2.485 7.58-1.074-.762 2.717-3.087 4.67-5.948 4.717l-5.195-.002z" fill="#ffdf4f"/><path d="M36.863 47.83h5.04c2.907 0 5.356 1.98 6.104 4.703-2.426 1.383-5.54 1.02-7.6-1.074l-3.545-3.63zm-1.297 6.438v-5.115l3.57 3.63c2.053 2.102 2.4 5.29 1.05 7.75-2.666-.765-4.62-3.272-4.62-6.238v-.025zm-5.395-1.484l3.548-3.62.008 5.142c0 2.964-1.952 5.455-4.62 6.223-1.35-2.464-.988-5.644 1.062-7.736v-.01zm-2.76-4.952h5.018l-3.558 3.635c-2.048 2.093-5.188 2.455-7.598 1.078.758-2.726 3.2-4.712 6.116-4.712h.022z" fill="#48a64a"/></svg>