<svg xmlns="http://www.w3.org/2000/svg" width="166" height="94"><defs><linearGradient x1="-37.4939432%" y1="134.950117%" x2="130.006067%" y2="-27.6857525%" id="A"><stop stop-color="#00aeff" offset="0%"/><stop stop-color="#3369e7" offset="100%"/></linearGradient></defs><g fill-rule="nonzero"><path d="M30.68 33H51.28a3.69 3.69 0 0 1 3.681 3.685v20.63A3.69 3.69 0 0 1 51.279 61H30.68A3.69 3.69 0 0 1 27 57.315v-20.64A3.68 3.68 0 0 1 30.681 33z" fill="url(#A)"/><path d="M41.303 40.075a7.91 7.91 0 0 0-7.9 7.913c0 4.373 3.54 7.908 7.9 7.908a7.91 7.91 0 0 0 7.9-7.913 7.9 7.9 0 0 0-7.9-7.908zm0 13.485a5.57 5.57 0 0 1 0-11.144 5.57 5.57 0 0 1 0 11.144zm0-10v4.153c0 .117.126.206.24.145l3.68-1.9c.084-.042.112-.145.07-.23-.762-1.344-2.18-2.257-3.817-2.318-.09-.005-.173.066-.173.16zm-5.16-3.053l-.482-.482a1.2 1.2 0 0 0-1.712 0l-.575.576c-.477.478-.477 1.24 0 1.714l.477.478c.075.075.187.06.253-.02.28-.384.585-.75.926-1.086.346-.346.706-.656 1.094-.936.08-.047.09-.164.02-.243zm7.745-1.255v-.96c0-.67-.543-1.213-1.21-1.213h-2.825c-.67 0-1.21.543-1.21 1.213v.983c0 .112.103.187.2.16.8-.23 1.618-.346 2.46-.346a9.03 9.03 0 0 1 2.376.323c.098.028.2-.047.2-.16z" fill="#fff"/><path d="M96.91 54.417c0 2.266-.575 3.924-1.74 4.977s-2.937 1.578-5.327 1.578c-.875 0-2.69-.17-4.14-.492l.533-2.63c1.21.253 2.816.323 3.658.323 1.333 0 2.282-.272 2.848-.815s.847-1.348.847-2.42v-.543a9.96 9.96 0 0 1-1.3.492c-.533.16-1.155.248-1.847.248-.917 0-1.75-.145-2.502-.435s-1.408-.712-1.94-1.274-.96-1.264-1.253-2.107-.45-2.346-.45-3.446c0-1.035.16-2.336.477-3.203s.78-1.615 1.398-2.233 1.356-1.096 2.23-1.442a8.2 8.2 0 0 1 3.012-.571c1.076 0 2.072.136 3.035.295l2.46.52v13.18zm-9.22-6.555c0 1.39.304 2.94.917 3.582s1.398.97 2.367.97c.524 0 1.024-.075 1.492-.22s.842-.314 1.137-.52v-8.245c-.24-.052-1.23-.253-2.19-.28a3.3 3.3 0 0 0-2.764 1.25c-.636.79-.96 2.173-.96 3.465zm24.967 0c0 1.12-.16 1.97-.49 2.894s-.795 1.714-1.398 2.37-1.324 1.16-2.17 1.522-2.156.562-2.806.562c-.655-.01-1.95-.197-2.792-.562s-1.562-.866-2.166-1.522-1.07-1.442-1.408-2.37-.5-1.775-.5-2.894.154-2.2.49-3.118.814-1.7 1.427-2.35 1.342-1.157 2.17-1.512c.842-.356 1.763-.524 2.764-.524a7.26 7.26 0 0 1 2.774.524c.847.356 1.576.857 2.17 1.512.603.656 1.07 1.437 1.408 2.35.36.918.538 2 .538 3.118zm-3.396.01c0-1.437-.313-2.63-.926-3.465-.613-.843-1.47-1.255-2.563-1.255s-1.95.417-2.563 1.255-.907 2.027-.907 3.465c0 1.452.304 2.43.917 3.268.613.847 1.47 1.264 2.563 1.264s1.95-.426 2.563-1.264c.613-.847.917-1.817.917-3.268zm10.78 7.337c-5.44.023-5.44-4.4-5.44-5.104l-.01-15.695 3.316-.524v15.592c0 .398 0 2.93 2.128 2.94v2.79h.005zm5.846 0h-3.335V40.87l3.335-.524v14.862zm-1.67-16.435c1.113 0 2.02-.9 2.02-2.013a2.01 2.01 0 1 0-4.041 0c0 1.114.907 2.013 2.02 2.013zm9.958 1.583c1.094 0 2.02.136 2.764.407s1.347.656 1.79 1.138.753 1.147.94 1.845c.196.698.3 1.46.3 2.304v8.545c-.5.112-1.282.24-2.315.39s-2.198.23-3.484.23c-.856 0-1.646-.084-2.348-.248-.71-.16-1.314-.426-1.824-.79-.5-.365-.89-.833-1.18-1.41-.28-.576-.426-1.39-.426-2.243 0-.815.16-1.334.477-1.892a3.98 3.98 0 0 1 1.3-1.377 5.54 5.54 0 0 1 1.899-.763c.72-.155 1.478-.23 2.254-.23.365 0 .748.023 1.155.07s.833.117 1.29.23v-.543c0-.384-.042-.75-.136-1.086a2.29 2.29 0 0 0-.477-.908 2.24 2.24 0 0 0-.898-.613c-.374-.145-.847-.253-1.417-.253-.762 0-1.46.094-2.095.206s-1.16.24-1.562.384l-.398-2.725c.416-.145 1.034-.3 1.833-.435s1.646-.23 2.563-.23zm.28 12.047c1.02 0 1.773-.06 2.3-.16v-3.38a6 6 0 0 0-.795-.159c-.346-.052-.73-.084-1.155-.084-.365 0-.74.023-1.113.084-.374.052-.71.155-1 .295s-.543.346-.72.613a1.15 1.15 0 0 0-.271.815c0 .782.27 1.23.762 1.526.5.31 1.16.45 2.002.45zM68.95 40.44c1.094 0 2.02.136 2.764.407s1.347.656 1.79 1.138c.45.492.753 1.147.94 1.845.196.698.3 1.46.3 2.304v8.545c-.5.112-1.282.24-2.315.39s-2.198.23-3.484.23c-.856 0-1.646-.084-2.348-.248-.71-.16-1.314-.426-1.824-.79-.5-.365-.89-.833-1.18-1.41-.28-.576-.426-1.39-.426-2.243 0-.815.16-1.334.477-1.892a3.98 3.98 0 0 1 1.3-1.377 5.54 5.54 0 0 1 1.899-.763c.72-.155 1.478-.23 2.254-.23.365 0 .748.023 1.155.07.398.042.833.117 1.29.23V46.1c0-.384-.042-.75-.136-1.086a2.29 2.29 0 0 0-.477-.908 2.24 2.24 0 0 0-.898-.613c-.374-.145-.847-.253-1.417-.253-.762 0-1.46.094-2.095.206s-1.16.24-1.562.384l-.398-2.725c.416-.145 1.034-.3 1.833-.435.8-.164 1.646-.23 2.563-.23zm.3 12.057c1.02 0 1.773-.06 2.3-.16v-3.38a6 6 0 0 0-.795-.159c-.346-.052-.73-.084-1.155-.084-.365 0-.74.023-1.113.084-.374.052-.71.155-1 .295s-.543.346-.72.613a1.15 1.15 0 0 0-.271.815c0 .782.27 1.23.762 1.526s1.16.45 2.002.45zm13.447 2.71c-5.44.023-5.44-4.4-5.44-5.104l-.01-15.695 3.316-.524v15.592c0 .398 0 2.93 2.128 2.94l.005 2.79z" fill="#182359"/></g></svg>