<svg xmlns="http://www.w3.org/2000/svg" width="166" height="94" fill-rule="nonzero"><path d="M48.78 55.053V40.715h1.855l8.774 11.55v-11.55h1.754v14.338H59.3l-8.773-11.65v11.65zM75.4 54.5c-1.156.442-2.403.662-3.74.662-5.193 0-7.8-2.5-7.8-7.47 0-4.712 2.507-7.07 7.52-7.07 1.438 0 2.775.2 4 .603v1.604c-1.236-.468-2.507-.702-3.8-.702-3.9 0-5.864 1.855-5.864 5.564 0 3.977 1.924 5.966 5.775 5.966.614 0 1.296-.08 2.045-.242v-4.872H75.4v5.955zm2.96-4.972v-8.802h1.854v8.802c0 2.754 1.37 4.133 4.112 4.133s4.1-1.38 4.1-4.133v-8.802H90.3v8.802c0 3.758-1.988 5.636-5.965 5.636s-5.966-1.878-5.966-5.636zm17.093-8.803V53.55h7.5v1.504H93.6V40.716h1.854zm10.177 14.338h-1.925l7.128-16.23 7.13 16.23h-2.055l-1.856-4.512h-4.74l.5-1.502h3.6l-2.677-6.498zm14.287 0V40.715h6.116c2.727 0 4.1 1.147 4.1 3.44 0 1.866-1.332 3.245-4 4.14l4.923 6.758H128.6l-4.56-6.446v-1.212c2.74-.435 4.1-1.488 4.1-3.158 0-1.323-.762-1.986-2.285-1.986h-4.092v12.804h-1.855zm18.078-14.338v10.207c0 2.754-1.62 4.13-4.864 4.13V53.55c2.005 0 3.008-.876 3.008-2.627V40.715h1.855zm3.31 13.835v-1.705c1.505.535 3.128.803 4.873.803 2.466 0 3.7-.903 3.7-2.7 0-1.535-.9-2.305-2.728-2.305h-1.845c-3 0-4.502-1.303-4.502-3.9 0-2.74 1.923-4.112 5.767-4.112 1.67 0 3.225.202 4.662.603v1.704c-1.438-.535-2.992-.803-4.662-.803-2.607 0-3.9.87-3.9 2.607 0 1.536.882 2.305 2.645 2.305h1.845c3.054 0 4.582 1.304 4.582 3.9 0 2.808-1.85 4.212-5.555 4.212-1.744 0-3.368-.202-4.872-.603z" fill="#ccc"/><path d="M49.25 54.584V40.247h1.854l8.773 11.55v-11.55h1.755v14.337h-1.855l-8.774-11.65v11.65zm26.62-.56c-1.156.442-2.403.662-3.74.662-5.193 0-7.8-2.5-7.8-7.47 0-4.712 2.507-7.07 7.52-7.07 1.437 0 2.774.2 4 .603v1.604c-1.236-.468-2.507-.702-3.8-.702-3.9 0-5.865 1.855-5.865 5.564 0 3.977 1.925 5.966 5.775 5.966.614 0 1.297-.08 2.046-.24v-4.872h1.854v5.956zm2.958-4.973v-8.803h1.854v8.803c0 2.754 1.37 4.13 4.1 4.13s4.1-1.377 4.1-4.13v-8.803h1.855v8.803c0 3.757-1.988 5.635-5.965 5.635s-5.965-1.877-5.965-5.635zm17.094-8.804V53.08h7.5v1.504h-9.354V40.246h1.854zM106.1 54.584h-1.925l7.13-16.23 7.128 16.23h-2.056l-1.854-4.512h-4.742l.512-1.504h3.6l-2.676-6.498zm14.286 0V40.247h6.115c2.728 0 4.1 1.146 4.1 3.44 0 1.865-1.332 3.246-4 4.14l4.923 6.758h-2.447l-4.56-6.446v-1.214c2.74-.436 4.1-1.487 4.1-3.16 0-1.323-.763-1.985-2.287-1.985h-4.1v12.803h-1.855z" fill="#000"/><path d="M138.464 40.246v10.207c0 2.754-1.62 4.13-4.863 4.13V53.08c2.005 0 3.008-.877 3.008-2.627V40.246h1.855zm3.308 13.836v-1.704c1.505.534 3.128.803 4.873.803 2.466 0 3.7-.903 3.7-2.708 0-1.536-.9-2.305-2.727-2.305h-1.846c-3 0-4.502-1.303-4.502-3.9 0-2.74 1.922-4.1 5.766-4.1 1.67 0 3.225.202 4.662.603v1.705c-1.438-.535-2.992-.803-4.662-.803-2.607 0-3.9.87-3.9 2.607 0 1.537.88 2.305 2.645 2.305h1.846c3.053 0 4.582 1.304 4.582 3.9 0 2.808-1.85 4.212-5.555 4.212-1.744 0-3.368-.202-4.873-.602z" fill="#a6120d"/><path fill="#b3b3b3" d="M29.745 29.205L13 35.098l2.646 21.938 14.117 7.76 14.19-7.864 2.645-21.938z"/><path fill="#a6120d" d="M44.927 36.26l-15.22-5.19v31.87l12.756-7.06z"/><path fill="#dd1b16" d="M14.88 36.355l2.268 19.62 12.56 6.965V31.07z"/><path d="M33.896 48.037l-4.2 1.96H25.3l-2.076 5.192-3.86.072 10.353-23.032 4.2 15.81zm-.405-.986l-3.757-7.438-3.082 7.3h3.054l3.785.128z" fill="#f2f2f2"/><path fill="#b3b3b3" d="M29.706 32.228l.028 7.385 3.497 7.315h-3.517l-.008 3.063 4.863.005 2.273 5.264 3.695.068z"/></svg>