<svg xmlns="http://www.w3.org/2000/svg" width="166" height="94" fill-rule="nonzero"><path d="M54.7 52.452c0 1.13 0 2.896-2.108 2.896-1.3 0-1.8-.698-2.108-1.87-1.126 1.355-2.518 2.053-4.196 2.053C42.152 55.532 39 52 39 47c0-4.846 3.255-8.563 7.287-8.563 1.617 0 3.214.637 4.196 2.033.123-1.068 1.044-1.848 2.108-1.848 2.108 0 2.108 1.746 2.108 2.896v10.924zm-7.8-.986c2.293 0 3.398-2.34 3.398-4.456s-1.064-4.517-3.398-4.517c-2.416 0-3.5 2.402-3.5 4.517s1.105 4.456 3.5 4.456zm9.048-10.37c0-1.478.92-2.464 2.21-2.464 1.228 0 1.924.677 2.21 1.848.82-1.355 2.538-2.033 4.196-2.033 4.75 0 7.103 4.456 7.103 8.747 0 4.168-2.825 8.316-7.267 8.316-1.372 0-2.886-.513-4.033-1.54v5.4c0 1.478-.92 2.464-2.21 2.464s-2.21-.986-2.21-2.464V41.097zm7.88 10.37c2.293 0 3.44-2.402 3.44-4.456 0-2.094-1.126-4.517-3.44-4.517-2.354 0-3.46 2.218-3.46 4.353 0 2.177 1.024 4.62 3.46 4.62zm13.55-17.043c0 1.376-1.105 2.546-2.477 2.546-1.3 0-2.477-1.19-2.477-2.546 0-1.253 1.167-2.423 2.476-2.423s2.477 1.13 2.477 2.423zm-4.688 6.673c0-1.478.92-2.464 2.21-2.464s2.21.985 2.21 2.464v11.787c0 1.478-.92 2.464-2.21 2.464s-2.21-.985-2.21-2.464V41.097z" fill="#fc4c02"/><path d="M93.86 53.87c0 5.318-3.46 7.988-8.474 7.988-1.8 0-6.96-.883-6.96-3.327 0-.82.92-1.93 1.78-1.93 1.412 0 2.968 1.376 5.506 1.376 2.15 0 3.726-1.252 3.726-3.49v-1.047h-.06c-.92 1.355-2.416 2.094-4.442 2.094-4.626 0-6.796-4.086-6.796-8.48 0-4.456 2.825-8.604 7.267-8.604 1.494 0 3.214.678 4.033 2.033.266-1.17.982-1.848 2.21-1.848 1.3 0 2.21.986 2.21 2.464V53.87zM86 42.513c-2.293 0-3.44 2.403-3.44 4.456 0 2.36 1.126 4.518 3.44 4.518 2.354 0 3.46-2.218 3.46-4.353 0-2.177-1.044-4.62-3.46-4.62zm13.162 5.955c.307 2.177 2.108 3.203 4.155 3.203 2.272 0 3.828-1.787 4.995-1.787.942 0 1.8.944 1.8 1.9 0 1.91-3.9 3.758-7.205 3.758-4.954 0-8.27-3.634-8.27-8.5 0-4.477 3.255-8.563 7.9-8.563 4.77 0 7.922 4.353 7.922 8.05 0 1.314-.573 1.97-1.924 1.97H99.16v-.04zm6.92-2.957c-.246-1.93-1.474-3.388-3.52-3.388-1.965 0-3.275 1.5-3.5 3.388h7.02zm9.62 3.018c.307 2.177 2.108 3.183 4.155 3.183 2.272 0 3.828-1.786 4.995-1.786.942 0 1.8.944 1.8 1.9 0 1.9-3.9 3.758-7.206 3.758-4.954 0-8.27-3.634-8.27-8.5 0-4.477 3.255-8.563 7.9-8.563 4.77 0 7.922 4.353 7.922 8.05 0 1.314-.573 1.97-1.924 1.97H115.7v-.02zm6.92-2.957c-.246-1.93-1.474-3.388-3.52-3.388-1.965 0-3.275 1.5-3.48 3.388h7z" fill="#54585a"/></svg>