<svg xmlns="http://www.w3.org/2000/svg" width="166" height="94"><path d="M35.442 53.742H48.65V40.66H35.442v13.082zm-9.907-22.895h33.02v32.708h-33.02V30.848zm58.628 16.727c0 1.498-.077 3.833-2.203 3.833-1.076 0-1.87-.76-1.87-1.827 0-2.056 2.74-2.03 4.073-2.006zm-3.484-3.147c-.05-.584.384-1.827 1.717-1.827 1.358 0 1.767 1.04 1.767 1.574v1.193c-1.537-.05-3.484.025-5.022.685-2.33.99-2.74 3.147-2.74 4.035 0 2.487 1.793 3.858 4.202 3.858 1.742 0 3.074-.61 3.946-2.082h.05c0 .534.05 1.117.128 1.7h3.458c-.05-.38-.153-.76-.18-1.395v-6.955c0-3.833-2.896-4.77-5.484-4.77-1.383 0-2.74.202-3.792.81-1.025.584-1.716 1.574-1.74 3.173h3.7zm43.784 3.147c0 1.498-.077 3.833-2.204 3.833-1.077 0-1.87-.76-1.87-1.827 0-2.056 2.74-2.03 4.073-2.006zm-3.485-3.147c-.05-.584.386-1.827 1.717-1.827 1.357 0 1.768 1.04 1.768 1.574v1.193c-1.537-.05-3.486.025-5.022.685-2.332.99-2.74 3.147-2.74 4.035 0 2.487 1.792 3.858 4.2 3.858 1.743 0 3.074-.61 3.945-2.082h.052c0 .534.05 1.117.128 1.7h3.46c-.052-.38-.153-.76-.18-1.395v-6.955c0-3.833-2.895-4.77-5.482-4.77-1.383 0-2.74.202-3.793.81-1.024.584-1.716 1.574-1.74 3.173h3.69zm-26.765-3.603h-3.817v12.74h3.844V45.9c.05-1.853 1.1-2.92 2.306-2.92 1.895 0 2.28 1.548 2.305 2.92v7.664h3.844v-8.3c0-.43-.052-1.243-.256-2.03-.462-1.853-2.947-2.79-4.228-2.79-1.947 0-3.15.76-3.945 1.928l-.052-.076-.001-1.47zm46.485 3.4c-.18-2.817-2.485-3.78-5.2-3.78-2.256 0-5.508 1.167-5.508 3.83 0 2.97 2.28 3.5 4.74 4.086.77.178 2.613.61 2.613 1.624 0 .99-.794 1.42-1.844 1.42-1.126 0-2.024-.558-2.1-1.55h-3.562c.052 2.92 2.665 4.088 5.662 4.088 2.383 0 5.816-1.396 5.816-4.188 0-4.77-7.354-3.63-7.354-5.634 0-.837.487-1.142 1.537-1.142.87 0 1.69.38 1.74 1.243l3.46.001zM75.16 45.29c.025-2.996-2.41-4.847-5.688-4.847-3.818 0-5.74 3.375-5.74 6.75s1.922 6.752 5.74 6.752c3.535 0 5.56-1.776 5.688-5.025h-3.74c-.026 1.04-.462 2.487-1.947 2.487-1.64 0-1.666-3.223-1.768-4.4.05-1 .077-4.035 1.717-4.035 1.486 0 1.922 1.27 1.947 2.3l3.792-.001zm32.746 8.273h4.203l4.662-12.74h-3.664l-2.946 8.63h-.052l-2.87-8.63h-4.073l4.74 12.74z" fill="#ca0088" fill-rule="nonzero"/></svg>