<svg xmlns="http://www.w3.org/2000/svg" width="166" height="96" fill-rule="nonzero"><path d="M48.78 67.718c.767 0 1.465.175 1.85.526.07.562-.453 1.474-.767 1.474a3.24 3.24 0 0 0-1.186-.211c-1.814 0-2.72 1.895-2.72 3.756 0 1.158.384 1.86 1.326 1.86.977 0 1.953-.667 2.512-1.158.14.105.314.42.314.772 0 .386-.105.772-.488 1.158-.628.632-1.71 1.193-3.28 1.193-1.78 0-3.035-1.018-3.035-3.405.07-3.16 2.093-5.967 5.477-5.967zm5.86 7.3c.977 0 2.756-1.72 3.244-5.02l.07-.456c-.21-.07-.523-.14-.802-.14-.733 0-1.5.21-2.163 1.158a5.74 5.74 0 0 0-1.012 3.194c0 .807.244 1.264.663 1.264zm-3.21-.913c0-1.193.384-3.23 1.884-4.738 1.29-1.334 2.826-1.65 4.256-1.65.942 0 2.198.316 3 .456-.21.877-.663 4.212-.907 6.142-.105.807-.14 1.966-.105 2.387-.663.28-1.884.35-2.233.35-.174 0-.21-.807-.174-1.615.035-.246.07-.632.07-.807-.767 1.3-2.302 2.387-3.907 2.387-1.15.035-1.884-.948-1.884-2.913zm14.093-6.388c.802 0 1.605.316 1.953.667-.035.562-.453 1.51-1.15 1.228a2.9 2.9 0 0 0-1.012-.175c-.523 0-1.012.246-1.012.737 0 .386.28.667 1.605 1.615.942.702 1.326 1.334 1.326 2.21 0 1.474-1.36 3.054-3.767 3.054-.977 0-1.85-.386-2.093-.772-.35-.597-.07-1.8.314-1.58.523.246 1.36.526 2.058.526.663 0 1.08-.316 1.08-.702 0-.35-.314-.632-1.5-1.51C62.314 72.246 62 71.544 62 70.772c0-1.685 1.43-3.054 3.523-3.054zm6.872 0c.802 0 1.605.316 1.953.667-.035.562-.453 1.51-1.15 1.228a2.9 2.9 0 0 0-1.012-.175c-.523 0-1.012.246-1.012.737 0 .386.28.667 1.605 1.615.942.702 1.326 1.334 1.326 2.21 0 1.474-1.36 3.054-3.767 3.054-.977 0-1.814-.386-2.093-.772-.35-.597-.07-1.8.314-1.58.523.246 1.36.526 2.058.526.663 0 1.08-.316 1.08-.702 0-.35-.314-.632-1.5-1.51-1.012-.772-1.326-1.474-1.326-2.246 0-1.685 1.43-3.054 3.523-3.054zm6.244 7.3c.977 0 2.756-1.72 3.244-5.02l.07-.456c-.21-.07-.523-.14-.802-.14-.733 0-1.5.21-2.163 1.158a5.74 5.74 0 0 0-1.012 3.194c.035.807.244 1.264.663 1.264zm-3.21-.913c0-1.193.384-3.23 1.884-4.738 1.29-1.334 2.826-1.65 4.256-1.65.942 0 2.198.316 3 .456-.21.877-.663 4.212-.907 6.142-.105.807-.14 1.966-.105 2.387-.663.28-1.884.35-2.233.35-.174 0-.21-.807-.174-1.615.035-.246.07-.632.07-.807-.767 1.3-2.302 2.387-3.907 2.387-1.116.035-1.884-.948-1.884-2.913zm13.64-3.79c.907-1.474 2.093-2.597 3.767-2.597 1.43 0 1.884 1.334 1.605 3.194l-.523 3.3c-.14.983-.244 1.86-.21 2.457-.523.246-2.023.35-2.372.35-.14 0-.174-1.088.035-2.246l.663-3.72c.105-.597.07-1.3-.488-1.3-.733 0-2.477 1.193-3.35 6.037-.07.386-.21.632-.453.772-.314.175-.942.35-2.233.35l.907-5.58.314-3.194c.35-.105 2.128-.49 2.302-.49.21 0 .244.632.07 2.106-.035.14-.035.35-.07.49h.035v.07zm10.116 4.668c.872 0 2.65-1.65 3.14-4.563l.105-.632c-.244-.246-.593-.386-1.15-.386-2.023 0-2.895 2.422-2.895 4.177.035.913.35 1.404.802 1.404zm-1.29 2.07c-1.29 0-2.058-1.158-2.058-3.09 0-3.23 2.023-6.213 5.407-6.213.593 0 1.15.175 1.465.35.174-.913.593-3.756.628-4.598.558-.105 1.744-.28 2.302-.28.21 0 .28.21.21.737L104.35 74c-.105 1.088-.14 2.14-.105 2.738-.628.28-1.92.35-2.267.35-.14 0-.21-.913-.174-1.755a9.22 9.22 0 0 0 .07-.702c-1.08 1.615-2.442 2.422-3.977 2.422zm11.65-6.458c1.047-2.352 2.302-2.878 3.14-2.878.244 0 .663.175.837.35.07.667-.453 1.966-.907 2.492-.244-.105-.523-.246-.872-.246-.663 0-2.023 1.053-2.86 5.616-.07.386-.174.526-.384.632-.35.21-1.674.35-2.302.386L107.2 70a10.47 10.47 0 0 0 .035-1.79c.384-.175 1.884-.526 2.198-.526.174 0 .314 1.088.035 2.878h.07v.035zm7.012 4.423c.977 0 2.756-1.72 3.244-5.02l.07-.456c-.21-.07-.523-.14-.802-.14-.733 0-1.5.21-2.163 1.158a5.74 5.74 0 0 0-1.012 3.194c.035.807.244 1.264.663 1.264zm-3.21-.913c0-1.193.384-3.23 1.884-4.738 1.29-1.334 2.826-1.65 4.256-1.65.942 0 2.198.316 3 .456-.21.877-.663 4.212-.907 6.142-.105.807-.14 1.966-.105 2.387-.663.28-1.884.35-2.233.35-.174 0-.21-.807-.174-1.615.035-.246.07-.632.07-.807-.767 1.3-2.302 2.387-3.907 2.387-1.116.035-1.884-.948-1.884-2.913z" fill="#373535"/><path d="M109.686 33.777c.663 7.687-11.372 15.023-26.895 16.356S54.186 46.308 53.523 38.62 64.895 23.598 80.42 22.265c15.488-1.334 28.605 3.79 29.267 11.513" fill="#bbe6fb"/><g fill="#fff"><path d="M80.837 23.142c-5.93-.105-12.837 2.28-18 4.493C62.314 29.18 62 30.83 62 32.55c0 9.126 8.198 16.532 18.314 16.532s18.35-7.37 18.35-16.532c0-2.878-.837-5.616-2.267-7.968-4.116-.632-9.802-1.334-15.558-1.44"/><path d="M80.35 23.142c-3.28-.21-8.93 1.51-13.64 3.23-.733 1.685-1.116 3.545-1.116 5.51 0 8.003 7.22 14.496 14.826 14.496 7.57 0 14.267-6.493 14.826-14.496.174-2.597-.698-5.054-1.953-7.16a141.77 141.77 0 0 0-12.942-1.579"/></g><path d="M71.942 30.864c.42-.913 1.012-1.334 1.605-2.07-.07-.175-.2-.772-.2-.948 0-.913.733-1.615 1.605-1.615a1.62 1.62 0 0 1 .593.105c2.686-2.07 6.2-2.948 9.767-2.14l.942.246c-3.488-.5-7.465.772-10.15 2.948.07.2.314.737.314.983 0 .913-.593 1.123-1.465 1.123-.2 0-.384-.035-.593-.105-.593.807-1.36 2.387-1.7 3.37 1.5 1.334 2.826 1.825 4.57 2.492 0-.07.07-.175.07-.246 0-2.703 2.372-4.914 5.058-4.914 2.407 0 4.43 1.755 4.814 4.072 1.22-.772 2.372-1.37 3.244-2.492-.2-.246-.42-.983-.42-1.334a1.48 1.48 0 0 1 1.465-1.474 1.3 1.3 0 0 1 .349.035c.453-.948.802-1.93 1.012-2.948-4.22-3.16-12.384-2.703-12.384-2.703s-6.488-.35-10.884 1.825c.314 2.036 1.15 4.072 2.407 5.8m20.164-1.228a2.61 2.61 0 0 1 .593.737c.384.702-.384 1.37-1.22 1.37-.07 0-.174 0-.244-.035-.907 1.44-2.512 3.264-3.942 4.212 2.198.35 4.256 1.228 5.86 2.597 1.186-2.14 2.093-5.265 2.093-7.897 0-2-.872-3.475-2.198-4.563-.035 1.088-.628 2.597-.942 3.58m-17.72 13.62c.733-2.036 2.512-3.58 4.22-4.95-.244-.35-.628-1.193-.767-1.58-2.058-.632-3.872-1.825-5.302-3.37 0 .035-.035.105-.035.14-.28 1.193-.314 2.422-.174 3.58.977.175 1.744 1.053 1.744 2.106 0 .632-.558 1.5-.977 1.93.42.913.733 1.404 1.3 2.14m-.14 1.687c-.872-.877-1.465-2.597-2.023-3.685-.105 0-.2.035-.314.035-1.186 0-2.407-.983-2.128-2.14.14-.632.593-1.053 1.3-1.404-.174-1.334-.2-3.194.105-4.563.07-.386.28-.562.384-.948a12.65 12.65 0 0 1-2.128-6.915v-.28c-2.198 1.123-3.837 2.843-3.837 5.58 0 6.072 3.488 12.04 8.65 14.356v-.035m12.733-8.4c-.663 1.895-2.477 3.3-4.605 3.3-1.15 0-2.198-.386-3-1.053-1.7 1.334-3.28 3.685-4.047 5.756.35.386.593.702 1.012 1.053 1.186.316 2.86 0 4.15 0 5.198 0 9.837-2.317 12.488-6.423-1.814-1.264-3.907-2.457-6-2.632" fill="#373535"/><path d="M71.802 31.566c.42-.913.907-1.72 1.5-2.492a1.6 1.6 0 0 1-.105-.562c0-.913.733-1.615 1.605-1.615a1.62 1.62 0 0 1 .593.105c2.686-2.07 6.2-2.948 9.767-2.14l.942.246c-3.488-.5-7.116.597-9.802 2.773.07.2.14.42.14.632 0 .913-.733 1.615-1.605 1.615-.2 0-.384-.035-.593-.105-.593.807-1.116 1.72-1.465 2.703 1.3 1.37 2.86 2.492 4.605 3.124v-.246c0-2.703 2.198-4.914 4.884-4.914 2.407 0 4.43 1.755 4.814 4.072 1.22-.772 2.267-1.755 3.174-2.913-.2-.246-.35-.562-.35-.913a1.48 1.48 0 0 1 1.465-1.474c.105 0 .2 0 .35.035.453-.948.802-1.93 1.012-2.948-4.22-3.16-12.384-2.703-12.384-2.703s-6.488-.35-10.884 1.825c.244 2.14 1.08 4.177 2.337 5.897m20.512-1.688a1.44 1.44 0 0 1 .488 1.088 1.48 1.48 0 0 1-1.465 1.474c-.07 0-.174 0-.244-.035a11.58 11.58 0 0 1-3.558 3.58c2.093.316 4.08 1.228 5.72 2.597a15 15 0 0 0 1.884-7.266c0-2-.872-3.475-2.198-4.563a11.55 11.55 0 0 1-.628 3.124M74.593 43.7c.733-2.036 1.988-3.826 3.698-5.195-.244-.35-.453-.702-.593-1.123-2.058-.632-3.872-1.825-5.302-3.37 0 .035-.035.105-.035.14-.28 1.193-.314 2.422-.174 3.58.977.175 1.744 1.053 1.744 2.106a2.15 2.15 0 0 1-.698 1.579c.35.807.837 1.58 1.36 2.28m-.35 1.207a11.87 11.87 0 0 1-2.163-2.948c-.105 0-.2.035-.314.035a2.12 2.12 0 0 1-2.128-2.141 2.17 2.17 0 0 1 1.186-1.93c-.174-1.334-.105-2.668.2-4.036.07-.386.2-.772.314-1.158a11.9 11.9 0 0 1-2.058-6.704v-.28c-2.198 1.123-3.837 2.843-3.837 5.58 0 6.072 3.593 11.302 8.756 13.62.035 0 .035 0 .035-.035m12.593-7.652c-.663 1.895-2.477 3.3-4.605 3.3-1.15 0-2.198-.386-3-1.053-1.7 1.334-3 3.16-3.802 5.23.35.386.733.737 1.116 1.088a14.51 14.51 0 0 0 3.733.49c5.198 0 9.802-2.703 12.453-6.8-1.744-1.264-3.802-2.07-5.895-2.246" fill="#1287b1"/><path fill="#fff" d="M87.012 35.99l4.5-1.088-4.535-.246 3.698-2.808-4.186 1.51 2.826-3.966-3.942 2.632 1.36-4.633-2.686 3.826-.07-4.844-1.78 4.317-1.465-4.352.07 5.125-2.547-4.598 1.395 4.88-4.15-3.02 3.244 4.107-5.163-1.895 4.047 3.02-5.198.175 5.337 1.37-5.337 1.158 5.267.386-4.43 2.843 4.57-1.65-3.174 4.036 4.012-3.264-1.43 5.405L80.35 40l-.42 5.195 1.744-4.738 1.5 4.95.35-4.984 2.233 4.247-1.326-4.844 4.047 3.16-2.616-4.036 4.465 1.755-3.42-3.37 4.57.35-4.465-1.685z"/><g fill="#373535"><path d="M38.977 44.658C52.965 30.583 64.128 26.23 74.28 24.265c1.326-.246 1.605-3.23 1.605-3.23s.174 2.176 1.116 2.457 2.163-3.405 2.163-3.405-1.116 3.3 0 3.5c1.116.175 3.21-3.23 3.21-3.23s-.837 2.913-.28 3.124c.558.175 3.384-4.247 3.384-4.247s-1.674 2.913-.105 3.23c1.605.28 3.942-2 3.942-2s-1.814 2.07-1.012 2.387c3.488 1.228 6.28-3.3 6.28-3.3s-.663 2-2.337 4.177c3.663.948 6.384-4.598 6.384-4.598l-2.72 5.546c1.395.702 7.012-5.827 7.012-5.827s-2.895 5.09-4.605 6.142c.942.772 4.326-2.28 4.326-2.28s-2.72 3.405-1.674 3.58c1.5 1.228 7.047-6.318 7.047-6.318s-2.163 4.458-5.337 7.932c2.65 1.37 9.28-7.23 9.28-7.23s-.174 2.738-4.988 7.1c3.558-.456 8.163-7.266 8.163-7.266s-1.674 5.09-5.72 8.705c3.488-.35 9.105-9.056 9.105-9.056s-2.163 6.037-6.558 9.547c4.884 1.088 11.93-6.248 11.93-6.248s-2.756 5.195-6.384 7.336c4.047 1.544 9.593-4.88 9.593-4.88s-5.547 8.6-14.372 8.213c-2.895-.14-11.65-8.845-30.42-8.143-24.837.913-30.07 11.513-43.326 18.673" fill-opacity=".35"/><path d="M39.535 43.605c13.988-14.075 25.15-18.427 35.302-20.393 1.326-.246 1.605-3.23 1.605-3.23s.174 2.176 1.116 2.457 2.163-3.405 2.163-3.405-1.116 3.3 0 3.5c1.116.175 3.21-3.23 3.21-3.23s-.837 2.913-.28 3.124c.558.175 3.384-4.247 3.384-4.247s-1.674 2.913-.105 3.23c1.605.28 3.942-2 3.942-2s-1.814 2.07-1.012 2.387c3.488 1.228 6.28-3.3 6.28-3.3s-.663 2-2.337 4.177c3.663.948 6.384-4.598 6.384-4.598l-2.72 5.546c1.395.772 7.047-5.756 7.047-5.756s-2.895 5.09-4.605 6.142c.942.667 4.326-2.352 4.326-2.352s-2.72 3.405-1.674 3.58c1.5 1.228 7.047-6.318 7.047-6.318s-2.198 4.458-5.372 7.932c2.65 1.334 9.314-7.266 9.314-7.266s-.174 2.738-4.988 7.1c3.558-.456 8.163-7.266 8.163-7.266s-1.674 5.09-5.72 8.705c3.488-.35 9.105-9.056 9.105-9.056s-2.163 6.037-6.558 9.547c4.884 1.088 11.93-6.248 11.93-6.248s-2.756 5.195-6.384 7.336c4.047 1.544 9.593-4.88 9.593-4.88s-5.547 8.6-14.372 8.213c-2.895-.14-11.65-8.845-30.42-8.143-24.837.948-30.105 11.513-43.36 18.708"/><path d="M38.628 46.202c7.395 3.72 14.163-.562 22.674 1.86 6.488 1.825 14.372 4.107 25.08 2.527 10.71-1.544 19.85-6.248 24.244-14.6 1.36-3.72 6.907.842 6.907.842s-4.047-1.685-3.942-.913c.105.807 6.07 3.58 6.07 3.58s-5.407-1.685-5.058-.42c.314 1.264 6.767 6.388 6.767 6.388s-7.36-5.546-7.953-4.774c-.628.772 3.105 3.826 3.105 3.826s-6.14-3.826-8.302-2.703c-1.57.807 6.384 6.037 6.384 6.037s-5.163-3.966-6.384-2.913 5.826 9.547 5.826 9.547-8.023-8.705-8.826-8.283 2.198 4.598 2.198 4.598-3.907-4.352-4.988-3.615c-1.08.772 5.65 12.04 5.65 12.04s-7.29-11.548-10.326-9.617c4.71 10.425 2.965 11.9 2.965 11.9s-.593-10.635-6.488-10.354c-2.965.14 1.395 7.932 1.395 7.932S91.616 51.96 88.93 52.1c4.92 9.407 3.174 13.197 3.174 13.197s.802-8.038-5.86-12.495c2.547 2.28-1.605 12.495-1.605 12.495s3.628-15.058-2.686-12.18c-1.012.456-.07 7.51-.07 7.51s-1.256-8.073-3.174-7.652c-1.116.246-7.047 11.197-7.047 11.197s4.85-11.83 3.384-11.337c-1.08.35-3.105 5.23-3.105 5.23s.977-4.81 0-5.09-6.488 5.09-6.488 5.09 4.08-4.81 3.384-5.827c-1.08-1.51-2.302-1.58-3.802-.983-2.163.842-5.058 4.81-5.058 4.81s2.895-4.036 2.407-5.51c-.802-2.422-9.14 4.668-9.14 4.668s4.92-4.668 3.802-5.686c-1.116-.983-7.256-.702-9.14-.702-5.616.07-7.57-1.264-9.28-2.632" fill-opacity=".35"/><path d="M38.314 45.36c7.395 3.72 14.163-.562 22.674 1.86 6.488 1.825 14.372 4.107 25.08 2.527 10.71-1.544 19.85-6.248 24.244-14.6 1.36-3.72 6.907.842 6.907.842s-4.047-1.685-3.942-.913c.105.807 6.07 3.58 6.07 3.58s-5.407-1.685-5.058-.42c.314 1.264 6.767 6.388 6.767 6.388s-7.29-5.58-7.884-4.81 3.105 3.826 3.105 3.826-6.14-3.826-8.302-2.703c-1.57.807 6.384 6.037 6.384 6.037s-5.163-3.966-6.384-2.913 5.826 9.547 5.826 9.547-7.988-8.705-8.79-8.283 2.198 4.598 2.198 4.598-3.977-4.317-5.058-3.58c-1.08.772 5.616 12.04 5.616 12.04s-7.29-11.583-10.29-9.652c4.744 10.46 2.965 11.934 2.965 11.934s-.593-10.635-6.488-10.354c-2.965.14 1.395 7.932 1.395 7.932s-3.977-7.1-6.663-6.95C93.605 60.7 91.86 64.49 91.86 64.49s.802-8.038-5.86-12.495c2.547 2.28-1.605 12.495-1.605 12.495s3.628-15.058-2.686-12.18c-1.012.456-.07 7.51-.07 7.51s-1.256-8.073-3.174-7.652c-1.116.246-7.047 11.197-7.047 11.197s4.85-11.83 3.384-11.337c-1.08.35-3.105 5.23-3.105 5.23s.977-4.81 0-5.09-6.488 5.09-6.488 5.09 4.08-4.81 3.384-5.827c-1.08-1.51-2.302-1.58-3.802-.983-2.163.842-5.058 4.81-5.058 4.81s2.895-4.036 2.407-5.51c-.802-2.422-9.14 4.668-9.14 4.668s4.92-4.668 3.802-5.686c-1.116-.983-7.256-.702-9.14-.702-5.686.035-7.64-1.3-9.35-2.668"/></g></svg>