<svg xmlns="http://www.w3.org/2000/svg" width="166" height="95"><path d="M126.525 41.12c-1.18 0-2.328.16-3.443.48-.5.146-1.006.34-1.482.577-.092-.147-.2-.283-.322-.405a2.15 2.15 0 0 0-1.574-.651h-2.36v18.415h4.6v-9.56c0-1.86.306-2.584.92-3.228s1.552-.96 2.82-.96h1.98V41.12h-1.128zm-83.8-5.44h-2.362v21.59c0 .64.22 1.178.657 1.613a2.15 2.15 0 0 0 1.574.652h2.36V37.945c0-.64-.22-1.176-.655-1.613a2.16 2.16 0 0 0-1.575-.651zm12.02 20.118c2.73 0 3.593-2.996 3.593-5.532s-.863-5.57-3.593-5.57-3.56 3.035-3.56 5.57.83 5.532 3.56 5.532zm.005-15.123c5.177 0 8.048 3.573 8.048 9.532 0 5.934-2.87 9.497-8.048 9.497-5.28 0-8.02-3.563-8.02-9.497 0-5.96 2.74-9.532 8.02-9.532zM31.014 55.798c-2.73 0-3.56-2.996-3.56-5.532s.83-5.57 3.56-5.57c1.418 0 2.33.823 2.88 1.965h4.77c-.958-3.8-3.596-5.987-7.645-5.987-5.28 0-8.02 3.574-8.02 9.532 0 5.934 2.74 9.497 8.02 9.497 4.05 0 6.682-2.183 7.64-5.97H35.53s-.842.024-1.316.492c-.825.815-1.496 1.573-3.2 1.573zm48.117-14c-.415-.458-.95-.686-1.608-.686H75.23v11.54c0 1.1-.317 1.9-.95 2.403a3.36 3.36 0 0 1-2.139.755 3.36 3.36 0 0 1-2.138-.755c-.634-.503-.952-1.304-.952-2.403v-9.205a2.36 2.36 0 0 0-.623-1.647c-.414-.458-.95-.686-1.607-.686h-2.295V51.8c0 3.25.874 5.26 2.426 6.384s3.266 1.51 5.19 1.51 3.64-.4 5.2-1.51 2.426-3.134 2.426-6.384v-8.375a2.36 2.36 0 0 0-.623-1.647zm18.122-5.456c-.437-.434-.963-.65-1.574-.65h-2.302v6.827c-.698-.674-2.17-1.832-4.397-1.832-4.687 0-7.396 3.572-7.396 9.53 0 5.935 2.783 9.497 8.147 9.497 5.238 0 8.153-3.533 8.175-9.422h.002V37.945a2.19 2.19 0 0 0-.656-1.613zm-7.526 19.466c-2.773 0-3.617-2.997-3.617-5.532s.844-5.57 3.617-5.57c2.756 0 3.64 2.998 3.65 5.524v.06c-.003 2.532-.882 5.518-3.65 5.518zm25.925-6.664a2.44 2.44 0 0 1-.236 1.076 2.42 2.42 0 0 1-.387.571 2 2 0 0 1-1.541.686h-9.325c.118 2.192 1.186 4.33 3.494 4.33 1.703 0 2.374-.76 3.2-1.573.474-.467 1.314-.493 1.314-.493h3.13c-.96 3.788-3.59 5.97-7.64 5.97-5.28 0-8.02-3.562-8.02-9.496 0-5.96 2.74-9.532 8.02-9.532 4.05 0 6.69 2.185 7.646 5.987a13.09 13.09 0 0 1 .345 2.192l.003.28zm-7.996-4.438c-1.902 0-3.162 1.472-3.3 3.22h6.62c-.01-1.75-1.47-3.22-3.322-3.22zM143 45.776c0-1.632-.634-2.9-1.902-3.808-1.224-.86-3.06-1.292-5.51-1.292-2.187 0-3.87.522-5.05 1.564-1.05.906-1.687 2.144-1.862 3.55h4.395c.22-.57.593-.92 1.076-1.1s1.027-.273 1.64-.273c.763 0 1.304.102 1.868.307.667.24 1.016.645 1.016 1.326 0 .728-.96 1.41-2.884 1.67-2.313.314-4.14.575-5.803 1.854-1.068.82-1.74 2.325-1.74 4.23 0 2.04.606 3.48 1.77 4.387 1.038.81 2.724 1.5 5.455 1.5 2.448 0 4.284-.56 5.51-1.42 1.268-.906 1.98-1.952 2.023-3.86v-8.63zm-4.93 8.954c-.7.712-1.662 1.068-2.886 1.068-.38 0-1.586-.09-2.087-.592a1.79 1.79 0 0 1-.59-1.408c0-.5.167-.955.458-1.278.646-.716 1.356-.818 2.884-1.168 1.013-.233 2.255-.623 2.893-.997v1.386c0 1.247.027 2.28-.673 3z" fill="#004e6f" fill-rule="nonzero"/></svg>