<svg xmlns="http://www.w3.org/2000/svg" width="166" height="94" fill-rule="nonzero"><path d="M110.463 47.74c0 15.17-12.3 27.47-27.47 27.47s-27.47-12.3-27.47-27.47 12.3-27.47 27.47-27.47 27.47 12.3 27.47 27.47" fill="#fff"/><path d="M83 77.498a29.75 29.75 0 0 1-21.178-8.772 29.75 29.75 0 0 1-8.772-21.178 29.75 29.75 0 0 1 8.772-21.178A29.75 29.75 0 0 1 83 17.596a29.75 29.75 0 0 1 21.178 8.772 29.75 29.75 0 0 1 8.772 21.178 29.75 29.75 0 0 1-8.772 21.178A29.75 29.75 0 0 1 83 77.498zm0-56.634c-7.127 0-13.828 2.775-18.868 7.815s-7.815 11.74-7.815 18.868 2.775 13.828 7.815 18.868S75.873 74.23 83 74.23s13.828-2.775 18.868-7.815 7.815-11.74 7.815-18.868-2.775-13.828-7.815-18.868S90.127 20.864 83 20.864zm-9.7 19l-.006-4.78c-.003-.36.22-.486.473-.612 1.113-.556 2.317-.832 3.512-1.138 4.883-1.25 9.668-.776 14.384.83 1.235.42 1.225.45 1.225 1.74v3.937c-.193.026-.28-.1-.382-.16-2.776-1.902-5.792-3.307-8.982-4.36a1.8 1.8 0 0 0-1.237.012c-3.076 1.073-5.985 2.476-8.67 4.328l-.315.207" fill="#3c4655"/><path d="M78.358 28.4l-.01-1.93c-.038-.523.216-.794.635-.995.917-.44 1.898-.66 2.898-.78 1.653-.2 3.254.055 4.8.652.905.35.97.465.97 1.413l.005 3.71c.004.33-.032.458-.43.378-2.83-.562-5.666-.572-8.494.017-.354.074-.38-.055-.375-.338l.004-2.128" fill="#6e717e"/><path d="M105.18 54.493l-2.592-1.724c-1.776-1.107-3.583-2.164-5.602-2.782-.612-.188-1.235-.374-1.89-.17-.644.2-1.17.594-1.674 1.018-1.074.905-2.016 1.95-3.024 2.922-.12.115-.194.31-.407.297-.06-.093-.014-.167.01-.244 1.003-3.328 2.595-6.33 4.95-8.904.245-.267.256-.4-.032-.647-3.4-2.904-7.14-5.175-11.408-6.55-.328-.105-.625-.123-.952-.007-4.236 1.5-8.096 3.646-11.5 6.597-.26.226-.225.34-.01.57 1.61 1.71 2.828 3.68 3.74 5.838.395.936.816 1.868.992 2.88.364 1.52.7 5.056.897 5.23-2.45-.596-2.944-.866-4.488-1.617-2.026-.985-4.093-1.607-6.386-1.47-1.38.084-2.546.337-3.845.776-.23.078-.717.347-.623.54.03.092.054.097.093.185 1.268 2.835 3.023 5.328 5.292 7.445 4.623 4.313 10.1 6.553 16.43 6.57 4.156.01 8.048-1.086 11.632-3.194 5.098-2.998 8.658-7.278 10.62-12.874.115-.328.063-.5-.224-.686zm-21.253-5.12c-.067 3.553-.536 5.24-.805 7.796-.02.196-.108.71-.108.71l-.172-.715-.773-6.388c-.215-1.867-.297-3.75-.277-5.62.012-1.112.447-2.218.69-3.327.16-.728.284-1.4.518-2.178.275 1.36.572 2.732.9 4.076.476 1.9.052 3.77.016 5.648z" fill="#3c4655"/><path d="M75.783 53.677c1.018 1.188 2.292 2.058 3.623 2.84.935.55 1.92 1.007 2.986 1.264l1.27.24.907.06c-1.013.442-1.984.795-2.995.974-2.96.375-5.553.095-8.202-1.14-1.628-.758-3.204-1.586-5.007-1.863-2.284-.352-4.584-.082-6.733.743-.108.04-.185.212-.293.25-.424-.824-.675-1.712-.963-2.587-.07-.215-.07-.215.168-.466 2.374-2.07 5.03-3.442 8.28-3.284 2.386.116 4.47 1.034 6.34 2.48l.62.486" fill="#777885"/></svg>