<svg xmlns="http://www.w3.org/2000/svg" width="166" height="95" fill-rule="evenodd"><path d="M119.835 34.013c-.598 1.72-1.196 3.437-2.143 5.015-2.28 3.8-5.262 7-8.458 10.026l-1.117 1.088c-.93.707-1.844 1.43-2.64 2.288l-5.602 4.307c-4.2 3.105-8.646 5.8-13.163 8.396-2.834 1.5-5.696 2.947-8.636 4.233l-4.22 1.814c-2.425.864-4.846 1.744-7.378 2.252-3.582.72-7.173 1.362-10.848.767-1.62-.262-3.153-.77-4.426-1.84-2.086-1.754-2.435-4.054-1.946-6.576.44-2.267 1.445-4.3 2.677-6.228 2.41-3.774 5.402-7.04 8.767-9.978.112 1.817.144 3.644.64 5.416-2.524 2.373-4.745 4.995-6.53 7.97-.65 1.082-1.18 2.218-1.438 3.467-.382 1.842.278 2.96 2.093 3.467 1.5.42 3.03.402 4.565.265 3.04-.27 5.976-1.036 8.886-1.914.613-.212 1.234-.403 1.837-.64 1.488-.588 3.037-1.026 4.454-1.79 1.42-.495 2.813-1.044 4.09-1.85l.192-.12h.015c.75-.106 1.353-.56 2.007-.88 2.8-1.38 5.57-2.853 8.17-4.606a.37.37 0 0 0 .158-.023l.17-.115 2.09-1.284c2.17-1.413 4.36-2.796 6.334-4.484 2.017-1.47 4.006-2.976 5.77-4.753a26.99 26.99 0 0 0 3.269-2.987c2.848-2.687 5.385-5.62 7.167-9.138.547-1.08.943-2.217.916-3.463-.018-.85-.38-1.468-1.122-1.868-.76-.4-1.583-.62-2.437-.678-4.325-.293-8.434.697-12.47 2.11-.345-.05-.566-.312-.82-.504-.976-.735-1.987-1.41-3.09-1.94l-.692-.514c4.59-1.71 9.246-3.16 14.176-3.5 1.818-.13 3.613-.025 5.374.43 2.715.7 4.54 2.37 5.358 5.08.1.863.165 1.51.165 1.943 0 .3-.055.75-.165 1.35z" fill="#1872c6"/><path d="M48.165 24.3c.34-.292.722-.47 1.185-.473 3.8-.024 7.67-3.34 7.867-7.894l.006-.164c.017-.472.215-.822.723-.816.5.006.728.364.742.82.022.69.116 1.363.303 2.023.98 3.47 3.865 5.797 7.474 6.04.19.013.384.027.57.065.404.082.628.328.602.75s-.272.616-.693.657c-.87.085-1.74.16-2.583.445-3.252 1.1-5.5 4.022-5.653 7.446-.026.54-.13 1.06-.75 1.075-.575.015-.71-.453-.75-.98-.316-4.477-3.404-7.598-7.902-7.972a2.48 2.48 0 0 1-1.143-.368v-.66z" fill="#c0d93b"/><path d="M108.796 80.775c-.242-.33-.21-.73-.265-1.103-.35-2.296-2.122-3.977-4.42-4.175-.353-.03-.814.004-.844-.455-.03-.48.428-.475.783-.512 2.44-.253 4.147-1.882 4.492-4.29l.057-.408c.025-.287.068-.578.434-.586s.42.273.452.565c.073.683.174 1.362.503 1.98.862 1.617 2.18 2.564 4.028 2.738.35.033.816.02.802.496-.014.465-.48.438-.83.474-2.365.237-4.096 1.894-4.44 4.25-.05.35-.067.7-.258 1.025h-.494z" fill="#087fcd"/><path d="M89.684 58.363c-2.6 1.753-5.36 3.225-8.17 4.606-.654.32-1.256.775-2.007.88l.41-.7c1.407-1.982 1.634-4.12.58-6.275-1.152-2.356-3.1-3.64-5.784-3.594-.6.01-.824-.033-.72-.792.496-3.593-2.487-6.942-6.104-6.948-2.195-.004-4.39.003-6.587.005.346-2.68 1.355-5.14 2.722-7.422 3.476-5.802 8.52-9.575 15.126-11.107 5.107-1.184 10.112-.746 14.936 1.385.274.12.56.213.84.32l.692.514-2.306.01c-2.366.02-4.627 1.863-4.316 4.757.047.434-.15.517-.514.518-.93.001-1.854.054-2.783.128-3.045.243-5.836 3.103-5.897 6.15-.08 3.917 2.84 6.876 6.784 6.88l17.623.027c-1.765 1.776-3.754 3.28-5.77 4.753-1.553.03-3.117-.13-4.652.203-2.47.536-4.068 2.78-4.102 5.703" fill="#64bbdd"/><path d="M61.3 45.545l6.587-.005c3.617.006 6.6 3.355 6.103 6.948-.105.76.12.803.72.792 2.694-.047 4.632 1.238 5.784 3.594 1.055 2.156.828 4.293-.58 6.275-.156.22-.274.466-.4.7a2.44 2.44 0 0 0-.207.12c-1.278.805-2.673 1.354-4.092 1.85l-7.73-.025c-.2 0-.4-.028-.524.158-2.887-3.133-4.735-6.797-5.612-10.958-.497-1.772-.53-3.6-.64-5.416.3-.88.105-1.813.3-2.7.096-.44.118-.9.3-1.32m25.413 19.575c4.516-2.597 8.972-5.3 13.163-8.396 1.892-1.402 3.736-2.87 5.602-4.307l2.493.024c-.164 3.23-1.196 6.208-2.73 9.014-1.266 2.316-2.852 4.407-4.883 6.122-.955.806-1.882 1.648-2.953 2.315-.5.318-1.16.357-1.58.83-.873-.001-1.747.018-2.62-.01-.813-.027-1.625.084-2.44-.104-2.308-.53-4.304-2.787-4.052-5.5" fill="#a2cfe6"/><path d="M86.712 65.133c-.253 2.7 1.743 4.958 4.052 5.49.815.188 1.627.077 2.44.104l2.62.01c-1.664 1.103-3.53 1.75-5.437 2.227-5.567 1.392-10.97.865-16.172-1.584-.124-.058-.24-.132-.36-.198l4.22-1.814c2.94-1.285 5.802-2.732 8.636-4.233" fill="#64bbdd"/><path d="M107.97 52.454l-2.493-.024c.796-.86 1.712-1.58 2.64-2.288.017.775.07 1.552-.147 2.312" fill="#65bbdd"/><path d="M104.21 47.704l-17.623-.027c-3.943-.004-6.863-2.963-6.784-6.88.062-3.047 2.852-5.908 5.897-6.15l2.783-.128c.364 0 .56-.084.514-.518-.31-2.894 1.95-4.737 4.316-4.757l2.306-.01c1.104.53 2.115 1.206 3.09 1.94.255.192.477.452.82.504 1.968 1.75 3.737 3.667 5.096 5.945 1.323 2.22 2.367 4.542 2.852 7.094-1.01 1.083-2.096 2.083-3.27 2.987" fill="#a2cfe6"/><path d="M107.478 44.717c-.485-2.552-1.53-4.875-2.852-7.094-1.358-2.278-3.128-4.194-5.096-5.945 4.037-1.412 8.147-2.402 12.47-2.1.854.058 1.677.268 2.437.678.742.4 1.104 1.02 1.122 1.868.027 1.246-.37 2.384-.916 3.464-1.78 3.518-4.32 6.452-7.167 9.138M61.34 54.992c.877 4.16 2.725 7.825 5.612 10.958a13.8 13.8 0 0 0 1.646 1.65c.2.17.47.307.318.65-2.9.878-5.845 1.643-8.886 1.914-1.535.137-3.065.156-4.565-.265-1.815-.5-2.475-1.626-2.093-3.467.26-1.25.8-2.386 1.438-3.467 1.785-2.976 4.005-5.598 6.53-7.97" fill="#fdfdfe"/><path d="M89.684 58.363c.033-2.922 1.633-5.167 4.102-5.703 1.535-.333 3.1-.173 4.652-.203-1.974 1.688-4.165 3.07-6.334 4.484l-2.09 1.284-.17.115c-.05.02-.104.027-.158.023" fill="#a0cee5"/><path d="M68.917 68.25c.15-.342-.12-.48-.318-.65a13.84 13.84 0 0 1-1.646-1.65c.135-.186.335-.158.524-.158l7.73.025c-1.417.764-2.966 1.203-4.454 1.8l-1.837.64m20.926-9.907l.17-.115-.17.115M79.3 63.968l.192-.12-.192.12" fill="#64bbdd"/></svg>