<svg xmlns="http://www.w3.org/2000/svg" width="166" height="96" fill-rule="nonzero"><path d="M59.74 56.055c-5.066 0-7.612-3.642-7.612-7.683 0-4.016 2.645-7.633 7.662-7.633 1.922 0 3.294.424 4.467 1.172l-1.447 2.37c-.824-.524-1.722-.848-3.07-.848-2.72 0-4.168 2.17-4.168 4.864 0 2.77 1.398 5.064 4.218 5.064 1.597 0 2.546-.55 3.32-1.123l1.323 2.27c-.75.673-2.52 1.546-4.692 1.546zm10.756-9.08c-1.622 0-2.146 1.372-2.146 3.368s.65 3.418 2.27 3.418c1.647 0 2.196-1.347 2.196-3.343-.025-1.996-.674-3.443-2.32-3.443zm.05 9.08c-3.793 0-5.44-2.844-5.44-5.638s1.647-5.713 5.44-5.713 5.515 2.82 5.515 5.613c-.025 2.77-1.697 5.738-5.515 5.738zM80.827 44.98v6.935c0 1.073.374 1.597 1.398 1.597 1.098 0 1.92-1.048 2.146-1.297V44.98h3.045v7.633c0 1.422.15 2.52.3 3.168h-3.02c-.1-.3-.2-.998-.224-1.447-.574.748-1.697 1.696-3.494 1.696-2.396 0-3.244-1.522-3.244-3.517v-7.56h3.095v.025zm14.1 11.076c-3.494 0-5.64-2.27-5.64-5.663 0-3.642 2.42-5.688 5.74-5.688 1.747 0 2.795.524 3.32.848l-.973 2.095c-.474-.3-1.173-.624-2.246-.624-1.697 0-2.595 1.322-2.595 3.293s.848 3.393 2.67 3.393c1.248 0 1.97-.45 2.296-.65l.923 2.045c-.5.325-1.497.948-3.494.948zm11.68-.25v-6.96c0-1.073-.374-1.597-1.398-1.597-1.098 0-1.947 1.023-2.17 1.297v7.234h-3.045V39.815h3.045v6.436c.55-.6 1.597-1.547 3.37-1.547 2.396 0 3.244 1.522 3.244 3.517v7.56h-3.045v.025zm8.585-2.37c.2.075.65.224 1.447.224 1.572 0 2.546-1.148 2.546-3.368 0-1.996-.674-3.193-2.22-3.193-.898 0-1.597.574-1.772.798v5.538zm0-13.595v5.987c.5-.5 1.447-1.123 2.645-1.123 2.696 0 4.592 1.846 4.592 5.588 0 3.717-2.496 5.763-5.8 5.763-2.47 0-3.968-.624-4.517-.873V39.815h3.07v.025zm14.5 11.2h-.374c-1.672 0-2.845.5-2.845 1.72 0 .773.624 1.097 1.298 1.097 1.023 0 1.622-.598 1.92-.898v-1.92zm.324 4.765c-.1-.275-.15-.823-.175-1.148-.474.574-1.497 1.422-3.02 1.422-1.847 0-3.27-1.097-3.27-3.043 0-2.82 2.895-3.84 5.765-3.84h.374v-.6c0-.898-.374-1.447-1.722-1.447-1.398 0-2.346.723-2.745.998l-1.323-1.846c.65-.6 2.096-1.572 4.417-1.572 2.995 0 4.417 1.148 4.417 4.04v3.792c0 1.497.15 2.544.3 3.243h-3.02zm8.21.25c-1.947 0-3.194-.574-3.868-1.023l1.023-2.12c.424.3 1.472.898 2.67.898 1.123 0 1.747-.325 1.747-.923 0-.698-1.223-.898-2.77-1.647-1.497-.723-2.37-1.546-2.37-3.193 0-2.046 1.622-3.343 4.093-3.343 1.847 0 2.995.574 3.494.848l-1.048 2.07c-.424-.25-1.273-.674-2.296-.674s-1.472.35-1.472.923c0 .698.998.873 2.246 1.372 1.697.7 2.92 1.497 2.92 3.293-.05 2.32-1.697 3.518-4.367 3.518zm12.553-6.985c-.025-1.197-.5-2.17-1.797-2.17-1.198 0-1.897.773-2.096 2.17h3.893zm-1.148 4.74c1.472 0 2.27-.474 2.82-.748l.973 1.946c-.724.4-1.822 1.048-4.068 1.048-3.644 0-5.715-2.27-5.715-5.738 0-3.443 2.37-5.613 5.39-5.613 3.42 0 5.066 2.37 4.692 6.41h-6.813c.125 1.62.973 2.694 2.72 2.694z" fill="#000"/><path d="M26.67 31.907c-9.11 0-16.52 7.384-16.52 16.514 0 9.105 7.387 16.514 16.52 16.514 9.11 0 16.52-7.384 16.52-16.514S35.78 31.907 26.67 31.907zm11.156 19.408c0 .998-.574 1.87-1.697 2.07-1.947.35-6.04.55-9.46.55s-7.512-.2-9.46-.55c-1.123-.2-1.697-1.073-1.697-2.07V44.88c0-.998.774-1.92 1.697-2.07.574-.1 1.922-.2 2.97-.2.4 0 .724.3.724.773v4.515l5.8-.125 5.8.125v-4.515c0-.474.324-.773.724-.773 1.048 0 2.396.1 2.97.2.948.15 1.697 1.073 1.697 2.07-.05 2.12-.05 4.29-.05 6.436z" fill="#ed2226"/></svg>