<svg xmlns="http://www.w3.org/2000/svg" xmlns:xlink="http://www.w3.org/1999/xlink" width="166" height="94"><defs><path id="A" d="M.078.1h97.898V22.97H.078z"/></defs><g transform="translate(34 36.339)" fill-rule="evenodd"><mask fill="#fff" transform="translate(0 .068)"><use xlink:href="#A"/></mask><path d="M10.712 14.844c.016-.587.065-1.178.006-1.758-.12-1.16-1.04-2.2-2.088-2.438-1.204-.275-2.45.18-3.055 1.262-1.07 1.92-1.105 3.917-.096 5.866.598 1.155 1.87 1.643 3.12 1.36 1.125-.255 1.99-1.238 2.103-2.473.056-.6.01-1.212.01-1.818zM.088 13.062c.32-.028.213-.304.253-.47.44-1.805 1.26-3.377 2.793-4.503 2.354-1.728 5.05-1.602 7.595.38l.03-.67L10.75.87c-.004-.435.08-.6.56-.582h3.42c.522-.02.68.097.677.652l-.014 11.36.116 9.838c.02.426-.1.554-.534.54a47.82 47.82 0 0 0-3.054.001c-.44.015-.562-.154-.574-.55l-.12-1.565c-.233-.028-.253.153-.322.254-.693 1.02-1.657 1.648-2.83 1.993-.18.053-.415.004-.535.215h-2.2c-.04-.152-.185-.143-.293-.173-2.152-.596-3.5-2.046-4.3-4.048l-.663-1.734v-4.01z" fill="#044777"/><path d="M64.88 14.955l.075.001c0 .585-.054 1.177.01 1.755.144 1.276 1.105 2.276 2.32 2.492 1.267.226 2.503-.37 3.062-1.59.808-1.765.804-3.576.01-5.344-.547-1.22-1.77-1.827-3.05-1.63-1.14.175-2.17 1.252-2.332 2.502-.078.6-.066 1.21-.095 1.814zm2.538 8.072c-1.182-.582-2.378-1.146-3.15-2.352l-.144 1.534c-.015.315-.087.475-.452.468l-3.113-.001c-.344.006-.397-.14-.388-.436.214-7.142.073-14.286.105-21.428.002-.367.055-.534.487-.522 1.22.032 2.442.032 3.662 0 .432-.01.49.154.488.522l-.007 8.186.762-.712c2.632-2.352 6.973-1.68 8.715 1.498 1.824 3.33 1.717 6.768-.108 10.093-.868 1.58-2.284 2.55-4.048 2.995-.125.03-.3-.025-.364.155h-2.444z" fill="#034677"/><path d="M27.564 14.9c-.04-1.017-.162-2.018-.616-2.95-.48-.987-1.23-1.63-2.37-1.627-1.13.002-1.947.597-2.4 1.603-.895 2.03-.908 4.093.02 6.115.447.973 1.26 1.548 2.363 1.554 1.115.006 1.857-.618 2.347-1.57.504-.98.607-2.046.647-3.124zm-4.87 8.13c-.715-.296-1.448-.548-2.123-.933-2.915-1.66-3.907-4.313-3.8-7.473.064-2.077.636-4.027 2.196-5.5 2.587-2.445 5.67-2.85 8.887-1.616 3.057 1.173 4.3 3.726 4.482 6.847.1 1.746-.194 3.433-1.073 4.974-1.053 1.847-2.674 2.946-4.72 3.467-.263.067-.565.017-.784.234h-3.055zm64.34-8.122c-.017-.906-.13-1.887-.543-2.8-.453-1.014-1.166-1.728-2.336-1.77-1.158-.043-2.014.54-2.476 1.562-.924 2.043-.94 4.127.013 6.17.466.995 1.306 1.563 2.433 1.536 1.114-.026 1.837-.685 2.305-1.64.455-.93.572-1.933.604-3.044zm-4.465 8.12c-.036-.125-.147-.117-.243-.136-3.712-.7-6.048-3.57-6.1-7.688-.027-2.12.457-4.108 1.887-5.758 2.027-2.34 5.692-3.196 8.852-2.108 2.862.986 4.695 3.593 4.832 6.934.105 2.542-.452 4.87-2.373 6.7-.962.92-2.123 1.482-3.408 1.8-.182.046-.423-.012-.514.237H82.57zm-30.65-9.8h2.38c.204 0 .387.027.4-.3.103-1.374-1-2.704-2.4-2.82-1.5-.126-2.705.952-3.032 2.655-.07.36.01.47.375.462l2.257-.006zm-.998 9.8c.058-.174-.057-.2-.187-.224-4.35-.806-6.16-4.343-5.877-8.355.158-2.236.948-4.206 2.628-5.77 2.57-2.395 7.926-2.585 10.153.864 1.308 2.026 1.53 4.265 1.276 6.597-.05.454-.364.348-.627.35l-8.363.003c-.715 0-.784.086-.516.77.593 1.514 1.896 1.98 3.352 2.124a10.81 10.81 0 0 0 4.283-.447c.4-.123.578-.098.64.368.1.74.258 1.474.422 2.203.087.387 0 .597-.404.712-.986.28-1.95.648-2.994.677-.1.003-.206.005-.243.13H50.92zm-11.6.001l-1.134-.378c-3.067-.93-4.988-3.338-5.212-6.55-.112-1.614.027-3.193.732-4.683 1.3-2.73 3.552-4.06 6.474-4.422 1.47-.182 2.92-.04 4.346.354.35.097.502.24.404.64l-.56 2.67c-.06.33-.163.4-.478.276-.755-.27-1.545-.326-2.344-.314-1.708.026-3.094 1.038-3.614 2.66-.727 2.268.077 4.623 1.927 5.533 1.276.628 2.608.502 3.935.16.196-.05.386-.123.637-.204l.506 3.173c.048.285-.086.404-.327.485-.502.17-1.008.306-1.54.365-.2.022-.436.032-.576.235H39.31z" fill="#044777"/><path d="M.088 17.073l.662 1.734c.81 2.002 2.147 3.452 4.3 4.048.108.03.252.02.293.173-1.63 0-3.26-.01-4.888.008-.306.003-.377-.07-.375-.373l.008-5.6" fill="#fcfcfd"/><path d="M97.26 9.54c-.01-1.04-.757-1.82-1.727-1.8-.938.02-1.66.806-1.663 1.812-.003 1.05.777 1.855 1.773 1.83.936-.024 1.627-.8 1.617-1.84m-1.667 2.31a2.26 2.26 0 0 1-2.292-2.267c-.013-1.272.977-2.3 2.252-2.317 1.245-.026 2.285 1.006 2.3 2.275.005 1.283-.988 2.302-2.25 2.3" fill="#044777"/><path d="M10.712 14.844l-.01 1.818c-.115 1.236-.98 2.218-2.103 2.473-1.25.283-2.522-.205-3.12-1.36-1-1.95-.975-3.947.096-5.866.604-1.083 1.85-1.537 3.055-1.262 1.047.24 1.97 1.278 2.088 2.438.06.58.01 1.172.01 1.758m54.152.112l.095-1.814c.163-1.25 1.192-2.328 2.332-2.502 1.28-.196 2.502.4 3.05 1.63.794 1.768.798 3.58-.01 5.344-.56 1.22-1.795 1.817-3.062 1.6a2.85 2.85 0 0 1-2.32-2.492c-.065-.578-.01-1.17-.01-1.755l-.075-.001M27.564 14.9c-.04 1.077-.144 2.142-.648 3.124-.5.953-1.23 1.578-2.347 1.57-1.103-.006-1.916-.58-2.363-1.554-.928-2.022-.916-4.085-.02-6.115.443-1.006 1.26-1.6 2.4-1.603s1.9.64 2.37 1.627c.454.93.575 1.932.617 2.95m59.462.01c-.032 1.1-.15 2.115-.604 3.044-.468.955-1.2 1.614-2.305 1.64-1.128.026-1.968-.54-2.433-1.536-.955-2.042-.937-4.125-.013-6.17.462-1.02 1.318-1.604 2.476-1.562 1.17.043 1.883.757 2.336 1.77.413.924.526 1.906.543 2.8M51.92 13.227c-.752 0-1.505-.013-2.257.006-.364.01-.444-.1-.375-.462.327-1.703 1.54-2.78 3.032-2.655 1.38.117 2.493 1.447 2.4 2.82-.024.317-.207.3-.4.3h-2.38M94.735 9.6l.005.665c.017.174-.12.45.207.474.383.028.245-.28.27-.474.023-.166-.073-.402.212-.414.208-.01.406.052.474.293l.12.406c.077.235.276.228.45.18.242-.066.046-.23.04-.345-.024-.404-.438-.75-.023-1.235.216-.252-.093-.595-.456-.698-.966-.275-1.3-.026-1.3.964v.182m2.525-.05c.01 1.03-.68 1.817-1.617 1.84-.996.025-1.776-.78-1.773-1.83.003-1.006.725-1.793 1.663-1.812.97-.02 1.718.76 1.727 1.8" fill="#fcfcfd"/><path d="M95.984 9.14c-.024-.244-.18-.332-.406-.35-.233-.02-.33.083-.323.31.005.188-.004.377.273.346.203-.023.404-.053.455-.306m-1.25.45v-.182c0-1 .334-1.24 1.3-.964.363.103.672.446.456.698-.414.484 0 .83.023 1.235.007.114.204.28-.04.345-.174.048-.374.054-.45-.18l-.12-.406c-.068-.24-.266-.302-.474-.293-.285.012-.2.247-.212.414-.026.193.112.502-.27.474-.326-.024-.19-.3-.207-.474-.02-.22-.005-.443-.005-.665" fill="#044777"/><path d="M95.984 9.14c-.05.253-.252.284-.455.306-.277.03-.267-.157-.273-.346-.007-.23.09-.33.323-.31.225.02.38.107.406.35" fill="#fcfcfd"/></g></svg>