<svg xmlns="http://www.w3.org/2000/svg" width="166" height="94" fill="#47848f" fill-rule="nonzero"><path d="M74.88 29.764c-7.94-1.4-14.22.066-16.722 4.3-1.867 3.152-1.334 7.33 1.294 11.8.224.38.722.512 1.112.294s.525-.703.302-1.084c-2.368-4.024-2.83-7.63-1.297-10.215 2.078-3.5 7.678-4.825 15.02-3.522.288.056.585-.044.777-.262a.78.78 0 0 0 .147-.788.81.81 0 0 0-.632-.512zm-11.3 21.518c3.2 3.44 7.382 6.665 12.14 9.342 11.52 6.482 23.782 8.214 29.825 4.198a.78.78 0 0 0 .209-1.099.83.83 0 0 0-1.127-.212c-5.4 3.595-17.058 1.95-28.094-4.26-4.616-2.597-8.655-5.72-11.75-9.035a.83.83 0 0 0-.78-.252c-.287.058-.52.265-.608.54a.78.78 0 0 0 .184.781zm40.04-.965c5.2-5.986 7.015-12.008 4.518-16.223-1.838-3.102-5.722-4.74-10.884-4.805a.82.82 0 0 0-.711.388.77.77 0 0 0-.01.794.82.82 0 0 0 .7.406c4.643.058 8 1.47 9.496 4 2.074 3.5.455 8.87-4.35 14.404a.78.78 0 0 0-.157.788.81.81 0 0 0 .628.518c.3.05.585-.058.77-.28zm-13.364-20.29c-4.7.982-9.705 2.9-14.5 5.605-11.892 6.7-19.65 16.557-18.57 23.7.035.287.227.532.502.64a.83.83 0 0 0 .818-.117.78.78 0 0 0 .29-.754c-.956-6.352 6.396-15.704 17.774-22.106 4.662-2.623 9.507-4.48 14.038-5.428.43-.1.7-.517.607-.938s-.514-.694-.948-.613z"/><path d="M70.99 64.304c2.72 7.397 7.166 11.953 12.168 11.953 3.647 0 7.02-2.423 9.653-6.69.16-.243.173-.552.032-.807s-.413-.414-.7-.416a.82.82 0 0 0-.717.405c-2.365 3.834-5.27 5.92-8.258 5.92-4.154 0-8.12-4.063-10.634-10.902a.81.81 0 0 0-.621-.528c-.3-.053-.587.05-.776.27s-.24.524-.136.792zm24.833-1.448c1.407-4.382 2.163-9.44 2.163-14.708 0-13.147-4.72-24.48-11.446-27.39-.41-.17-.883.01-1.064.408s-.001.86.403 1.043c5.998 2.596 10.48 13.352 10.48 25.94 0 5.11-.733 10.01-2.09 14.234a.78.78 0 0 0 .167.788c.198.214.5.306.788.24s.517-.278.598-.555zm15.336-.777c0-2.098-1.745-3.798-3.897-3.798s-3.897 1.7-3.897 3.798 1.745 3.798 3.897 3.798 3.897-1.7 3.897-3.798zm-1.63 0c0 1.22-1.016 2.21-2.27 2.21s-2.27-1-2.27-2.21 1.016-2.21 2.27-2.21 2.27 1 2.27 2.21zM59 65.878c2.152 0 3.897-1.7 3.897-3.798S61.152 58.282 59 58.282s-3.897 1.7-3.897 3.798 1.745 3.798 3.897 3.798zm0-1.587c-1.253 0-2.27-1-2.27-2.21s1.016-2.21 2.27-2.21 2.27 1 2.27 2.21-1.016 2.21-2.27 2.21z"/><path d="M83.16 24.63c1.392 0 2.68-.724 3.375-1.9s.696-2.623 0-3.798-1.983-1.9-3.375-1.9c-2.152 0-3.897 1.7-3.897 3.798s1.745 3.798 3.897 3.798zm0-1.587a2.28 2.28 0 0 1-1.965-1.105 2.16 2.16 0 0 1 0-2.211 2.28 2.28 0 0 1 1.965-1.105c1.253 0 2.27 1 2.27 2.21s-1.016 2.21-2.27 2.21zm.595 27.79c-1.523.32-3.023-.623-3.352-2.106s.64-2.946 2.16-3.267c1.51-.294 2.984.647 3.3 2.115s-.618 2.918-2.12 3.258z"/></svg>