<svg xmlns="http://www.w3.org/2000/svg" width="166" height="96" fill-rule="nonzero"><path d="M90.234 39.817l-5.956 5.617-5.53-11.3 2.856-6.497c.722-1.296 1.903-1.313 2.624 0l6.005 12.18z" fill="#ffa000"/><path fill="#f57f17" d="M84.28 45.43L62 66.418l16.75-32.284z"/><path d="M96.765 31.227c1.067-1.03 2.166-.682 2.443.78L105 66.135l-19.21 11.68c-.674.38-2.46.53-2.46.53s-1.625-.2-2.248-.548L62 66.418l34.765-35.192z" fill="#ffca28"/><path d="M78.75 34.133L62 66.417l7.465-47.188c.28-1.462 1.1-1.61 1.837-.315l7.448 15.22z" fill="#ffa000"/></svg>