<svg xmlns="http://www.w3.org/2000/svg" width="166" height="94"><path d="M44.5 30.147H27.8a8.28 8.28 0 0 0-8.3 8.3v16.7a8.28 8.28 0 0 0 8.3 8.3h16.7a8.28 8.28 0 0 0 8.3-8.3v-16.7c0-4.5-3.8-8.3-8.3-8.3zm-7 27.7c-6.2.9-12.2-3.5-12.8-9.3-.8-6.8 3.7-12.3 10.5-12.8 3-.2 6-.1 9 0h2.3v.9c.1.9-.2 2.2-.9 2.7-1 .8-2.4 1.3-3.7 1.5-1.7.2-3.4 0-5.2.1-3.8.1-6.3 1.8-6.8 4.6-.5 2.9.4 5.3 3.2 6.6 3.1 1.5 6.2.6 8.9-2.7-3.4-.7-7.8 1.1-8.3-4.7h13.9c1 6.8-3.1 12.2-10.1 13.1zm18.3-5.2c0-.4 0-.7.1-1.1s.3-.9.6-1.4c.3-.6.7-1.1 1.2-1.5s1.3-.8 2.3-1.1 2.2-.5 3.6-.5c1 0 2 .1 3.2.2 0-2.3-1.3-3.4-3.8-3.4-2 0-3.8.3-5.3.9v-3.6c1.7-.6 3.5-.9 5.5-.9 2.6 0 4.5.7 5.9 2s2 3.2 2 5.7v4.9c0 1.7-.6 3.1-1.9 4.3s-3.1 1.8-5.7 1.8c-2.7 0-4.6-.6-5.9-1.8-1.2-1.3-1.8-2.8-1.8-4.5zm4.3-.6c0 1.9 1.1 2.9 3.4 2.9 2.2 0 3.2-.9 3.2-2.7v-2.3c-1-.1-1.9-.2-2.6-.2-2.6 0-4 .8-4 2.3zm13.7-7.8v-3.7h3v-5.3h4.3v5.3h4.3v3.7h-4.3v8.9c0 .8.2 1.3.5 1.6s.9.4 1.7.4 1.5-.1 2.1-.4v3.6c-.8.4-1.8.5-2.8.5h-.1c-1.8 0-3.2-.5-4.2-1.6s-1.5-2.5-1.5-4.4v-8.6h-3zm16.3 14.3v-24.8h4.3v24.8h-4.3zm10.2-20.4v-4h4.4v4h-4.4zm0 20.4v-18h4.3v18h-4.3zm10.1 0v-16.3c2.6-1.3 5.4-2 8.2-2 2.5 0 4.5.7 5.9 2s2.1 3.1 2.1 5.5v10.8h-4.3v-11.2c0-.5 0-.9-.1-1.2a4.67 4.67 0 0 0-.5-1c-.2-.3-.7-.6-1.3-.8s-1.4-.3-2.3-.3c-1.1 0-2.2.1-3.3.3v14.2h-4.4zm21-9.1c0-1.6.2-3 .6-4.1s.9-2.1 1.5-2.7 1.2-1.1 2-1.5 1.4-.6 2-.7 1.1-.1 1.7-.1c2.5 0 4.4.6 5.6 1.7s1.8 2.5 1.8 4.2v12.8c0 .6-.1 1.1-.2 1.6a4.72 4.72 0 0 1-.7 1.7c-.4.6-.8 1.2-1.4 1.6s-1.4.8-2.4 1.1-2.2.5-3.6.5c-1.9 0-3.6-.2-5.2-.7v-3.9c1.4.5 3 .7 4.7.7 1 0 1.8-.1 2.5-.2.6-.2 1.1-.4 1.3-.7s.4-.6.4-.8c.1-.2.1-.5.1-.9v-1c-1 .2-1.9.3-2.7.3-2.6 0-4.6-.8-6-2.3-1.3-1.6-2-3.7-2-6.6zm4.3.1c0 2 .3 3.4 1 4.1s1.6 1.1 3 1.1c.9 0 1.7-.1 2.6-.2v-8.3c0-1.3-1-2-3-2h-.1c-1.1 0-2 .4-2.6 1.3s-.9 2.1-.9 4z" fill="#e77500" fill-rule="nonzero"/></svg>