<svg xmlns="http://www.w3.org/2000/svg" width="166" height="95" fill-rule="nonzero"><path fill="#ff0" d="M73.955 33.312l-4.637.764-4.23 1.882-3.593 2.294-3.42 4.235-1.93 2.076-1.868.7-.494-1.226.864-1.265.194-1.785.578.024.632.585-.17-1.818-.7-.477.022-.693-1.66.953-1.503 1.8-.314 1.61.643 1.288.6 2.188 1.22.586 1.282-.064 1.216-.717-.81 4.176.81 4.646-.893 2.145-2.925 3.2.52 1.91 1.386 2.214 2.613 1.866 1.386.193 1.54.053-.96 4.006 3.535 1.47 4.404.588 1.507-1 .116-2.706 1.68-2.823.116-2.235 4.056.294 3.767-.353-3.767 2.294.638 2.765 2.376 3.764 2.318 1 1.854-.765.753-1.53 3.883-3 .753.647 6.085.236 1.217-1 .116-1.765-.405-.764-.3-4.764-2.028-4.117.348-1.823 1.217.647 3.42 3.235 1.68.118 1.854-.765 1.855-1.412.927-3.058 5.447.353 3.303-1.294 2.665-2.53 1.912-3.647.463-4.293-.406-5-1.043-4.47-1.043-1.412-1.448-.47-2.55 2.823-2.318.823-2.028-3.41-2.028-1.882-1.1-.706-4.404-3.706-3.535-1.94-3.535-.294-4.114.706-3.593 1.352-2.492 2.06-1.97 2.412-2.028.588-3.535 3.41"/><g fill="#ffc"><path d="M60.51 43.927c-3.97 4.7-3.09 10.402-1.988 15.99l-1.762-4.518-.65-4.143.186-4.236 1.67-4.048 2.504-3.766 3.895-3.294 4.266-1.79 5.01-.66L69 38.83c-3.724 1.226-5.92 2.052-8.492 5.098"/><path d="M79.203 29.604c-2.76 2.734-4.268 4.796-6.025 7.996-1.256 2.3-2.666 4.495-3.988 6.753-.668 1.143-.73 2.1-.93 3.42L66.31 45.42l.928-2.824 3.154-5.742 6.678-6.684 2.133-.565m13.634-6.777c-2.21.84-5.883 1.118-6.138 3.694-.18 1.83.136 2.75 1.222 4.684-2.683-2.818-3.347-2.382-8.533-1.506l2.226-3.2L85.5 24.05l5.01-1.13 2.32-.094"/></g><g fill="#cc0"><path d="M98.938 57.668c.736.46.72.795.597 1.112l1.742-.707 1.13-1.538.838-2.19-1.07-.817-4.68.606-.348.96.1 1.364.448.808.696.354.547.05m-.435-8.12c-2.345.687-2.327.876-3.02 3.238.914-1.49 1.59-2.24 3.02-3.238m15.593-17.67c-.417.196-.823.29-1.083.677-.56.833-1.042 1.534-1.97 2.12-.467.295-.95.486-1.446.642-.41.13-.658.014-1.008.27l.623.1h1.373l1.692-1.06.995-1.06.824-1.696M76.74 37.16c-.922 2.562-1.73 4.76-3.126 7.078 1.8-1.958 2.876-3.623 3.902-5.837.4-.86.474-1.87 1.584-1.494l.278 2.576c.6-4.362 2.29-6.187 6.22-7.88l-3.335.404-3.136.707-1.543 2.273-.846 2.172m7.615-.1c.848 4.05 2.068 7.936 2.598 12.05.344 2.673.382 3.957-.943 6.263-1.448-.095-2.347.07-3.748.536-5.576 1.855-8.775 4.583-12.532-.913l3.598 1.72 2.565-.512 4.53-2.677 3.533-.708 1.145-4.85-.846-6.416-.1-3.03.2-1.465m9.606 25.055c-.468 3.3 1.08 5.058.438 5.967-.18.257-.427.706-.7.83-.98.44-2.328-.082-2.424.175H88.04l-1.294-.556 1.99-2.374 1.94-4.294 1.244-4.344h.647l1.393 4.597"/><path d="M88.524 52.55c.263 1.494.72 1.85 1.41 3.295-.46 2.36-1.2 5.164-2.092 7.245-.376.878-.68 1.362-1.34 2.04a34.72 34.72 0 0 1-3.516 3.138c-.913.714-1.55.356-2.677.194-.48.88-.61 1.37-1.493 1.818-1.356.688-2.57-.795-3.633-1.667l2.305 3.654 1.593 1.515 1.344.202 1.79-1.112.946-1.818 1.99-1.516 2.44-2.12 1.543-2.223 1.393-2.627 1.792-5.455.15-2.07-2.24-1-1.705-1.48M70.67 63.073c2.512 0 5.165-.142 7.466-1.213a20.77 20.77 0 0 1 2.09-2.677c-.725 1.4-.952 2.175-1.145 3.738l-.746 1.112-5.674.152-1.842-.202-.2-.202.05-.707m-.348-1.768l-.195-1.794c-.43 2.622-.326 4.38-1.515 6.728-.888 1.044-1.982 1.994-3.234 2.503.106.644.138 1.046.076 1.518-.22 1.698-3.568.948-4.945.88l6.627 1.732 1.493-.606.498-2.93L70.52 66.7l.25-1.617-.448-3.788m-3.733-14.8c-.07 1.275-.15 1.807.404 2.932.704 1.43 1.57 2.776 2.334 4.2l.25-2.83-2.986-4.293m-10.217 9.63l-.646 1.396c.593 2.027 1.12 3.31 2.25 5.082a3.81 3.81 0 0 1-.796 1.616c-.994-.155-1.876-.2-2.883-.196l3.335 2.627 1.643-.303 1.643-1.667-2.34-3.688-2.204-4.867m57.73-24.928c.677 3.09 1.55 5.944 1.47 9.1-.1 3.884-.845 8.8-4.39 11.133-3.97 2.623-8.632 1.382-12.99.258l5.325 2.223 4.977.253 3.384-1 2.638-2.223 1.99-4.243.746-4.9-.597-4.8-1.095-4.748-1.46-1.053m-59.26 9.213c-1.802 1.19-2.51 1.714-2.313 3.92l.54 1.983.764.525.943.32 1.707-.4.876-2.758-2.425 1.208h-.56l-.63-.98.764-1.14.404-2.166.517.16.63.5-.1-1.14-.427-.73-.427-.365-.27 1.07m40.444-17.39c1.6 1.508 3.564 2.82 4.843 4.66.495.713 1.045 1.078-.008 2.086 1.113-.323 1.527-.288 2.42-.178 1.62.2 3.14 2.54 3.238 4.215-.02.157-.45.513-1.704.864-.025.05-.708-.095-.69-.048.13.362.304.417.57.586.057.402.095 1.023.365 1.463.79-.014 1.56.073 2.332.228.26.438.22.875.2 1.313l.896-.15-.25-2.07.796-1.364-1.145-2.627-2.2-2.122-.21-.01-2.463-1.534-4.017-3.335-2.982-1.977m2.695 12.446c-.084.15-.212.39-.375.555.666.64.995 1.068 1.233 1.973l-2.26 1.138-1.912 1.86c-.84-.458-1.048-.8-1.454-1.685-.473.127-.92.25-1.31.104.248.002.4-.06.647-.216l1.217-1.283 2.15-1.652 1.407-.465c.18-.075.48-.255.66-.33"/><path d="M100.063 37.756c-2.397 1.3-4.692 2.627-5.918 5.115 0-3.157 3.123-4.547 5.917-5.115m-6.393-6.21c-1.78 1.232-3.038 3.717-2.88 6.14-.58-2.098-.374-4.08 1.405-5.528l.9-.444.573-.167"/></g><path d="M117.62 37.263c-.323-2.066-.858-4.07-1.6-5.513a2.16 2.16 0 0 0-.398-.525 4.09 4.09 0 0 0-1.479-.916c-.598-.2-1.228-.25-1.728.014a1.44 1.44 0 0 0-.358.269c-.324.333-.597.738-.87 1.144-.304.452-.6.906-.977 1.223-.425.37-.956.592-1.457.797a10.08 10.08 0 0 0-.758-1.496 14.29 14.29 0 0 0-1.162-1.593c-.314-.382-.67-.727-1.06-1.028-.37-.287-.75-.528-1.2-.808-1.183-.752-2.2-1.65-3.218-2.564l-1.4-1.22c-2.447-2.048-4.73-3.04-7.17-3.197-2.425-.155-4.985.52-8.008 1.813-1.46.623-2.542 1.36-3.486 2.245-.902.846-1.667 1.82-2.508 2.96-.5.035-.923.1-1.366.3-.488.198-.98.52-1.567 1.046l-1.203 1.13L73.6 32.4c-2.752.45-4.994.944-7.002 1.733-2.054.808-3.864 1.918-5.723 3.6a15.19 15.19 0 0 0-1.993 2.171c-.565.752-1.05 1.542-1.474 2.376L56.25 43.5c-.393.36-.812.662-1.282.846l-.398.165c-.014-.008-.02-.05-.04-.126.675-.653.78-1.613.843-2.566a3.7 3.7 0 0 1 .24.346l.3.424.458.586.16-.732c.135-.613.236-1.43.08-2.137-.102-.46-.312-.87-.678-1.16l.1-.263.334-.894.2-.573-.6.104c-.786.14-2.475 1.08-3.664 2.333-.442.465-.82.98-1.07 1.52-.26.56-.375 1.15-.275 1.737.087.514.34 1.02.8 1.494l.244.9c.095.306.197.58.325.848.346.73.898 1.177 1.537 1.385.513.167 1.08.176 1.638.052a15.6 15.6 0 0 0-.204 2.036c-.035.953-.001 2.007.103 3.23l.1.884.133.8-.8 2.207-2.307 2.315c-.674.658-.807.8-.616 1.947.123.74.36 1.458.706 2.123.33.64.775 1.262 1.345 1.843.7.723 1.876 1.622 3.096 2.093.697.27 1.416.4 2.1.3l-.106.316-.355.888c-.828 1.84.022 2.803 1.344 3.415.66.305 1.445.513 2.175.706l.487.13c.864.237 2.357.672 3.72.76 1.5.095 2.83-.216 3.2-1.572.142-.538.225-.95.26-1.352a6.87 6.87 0 0 0-.024-1.22c.424-.955.604-1.223.915-1.683l.156-.234c.333-.5.5-.856.545-1.256.055-.386.008-.77-.06-1.36l-.03-.245c.857.113 1.72.173 2.585.18l1.3-.033-.498.26c-1.15.6-1.197 1.737-.838 2.906.324 1.054.992 2.13 1.4 2.786.88 1.377 1.72 2.543 2.74 3.177 1.068.664 2.288.742 3.863-.123.8-.44 1.054-.9 1.394-1.494l.347-.584c.33-.223 1.155-.912 1.963-1.6l.86-.717c.214.16.472.27.784.346.405.1.888.143 1.466.185.433.032 1.844.03 2.756.03h.656c.94.006 1.7-.044 2.276-.375.612-.352.975-.976 1.054-2.094.034-.497.04-.803-.027-1.116-.063-.293-.187-.56-.4-.947l-.08-2.988c-.016-.604-.082-1.096-.203-1.58s-.3-.94-.52-1.495l-.404-1.056-.28.104.28-.104-.663-1.626.053-.35 1.3 1.27c.6.577 1.13 1.102 1.763 1.48.655.393 1.392.62 2.347.574 1-.048 2.068-.475 2.948-1.134.85-.638 1.535-1.498 1.82-2.45l.445-1.485c1.4.24 2.905.32 4.358.164 1.402-.15 2.756-.512 3.924-1.144 1.717-.93 3.004-2.3 3.93-3.925 1.034-1.817 1.613-3.96 1.833-6.162.176-1.767.08-4.17-.282-6.487zM99.466 52.116c-.807-.276-1.37-.678-2.078-1.132.193.883.28 1.818.024 2.7-.408 1.4-1.067 3.688.805 4.1.712.16 1.036.137 2.04-.4a3.7 3.7 0 0 1-1.784.036c-.507-.095-.776-.42-.917-.807.177.13.466.2.96.32 1.387.34 2.7-.34 2.968-1.315.15-.57.125-.87.445-1.648l.888.247-.516 1.707c-.446 1.476-2.183 2.667-3.717 2.64-1.418-.025-2.317-.927-3.297-1.8l-1.967-1.77c-1.765-.565-3.18-1.226-4.818-2.457 1.166 1.4 1.956 2.16 3.582 2.852-.236 2.448-1.075 4.233-1.8 6.576-.324 1.06-2.877 5.304-3.584 5.718-.504.295-3.665 2.996-4.26 3.353-.443.597-.832 1.422-1.497 1.778-2.028 1.1-3.332-.996-4.423-2.756-.497-.802-1.877-3.112-.674-3.76 1.138-.6 1.775-1.048 2.935-1.822.17.316.463.62.654.935l-.126-1.034a8.28 8.28 0 0 1-.025-1.76l.142-1.825c-.175.62-.524 1.237-.698 1.855l-.16.633a20.21 20.21 0 0 1-7.794.102l-.538-2.73c-.05.82-.018 3.083-.022 4.35-.003.982-.044 1.318-.543 2.154-.467.782-.665.96-1.32 2.28.055.834.056 1.385-.163 2.176-.363 1.316-4.025.296-5 .028-1.2-.33-3.65-.82-3.03-2.43.544-1.417.9-2.9 1.155-4.892-2.18-3.187-4.206-7.554-4.595-11.423-.302-3.004-.12-4.853.52-6.7 1.015-2.912 2.435-5.432 4.714-7.462 3.073-2.737 5.946-3.836 10.445-4.532-1.082 1.23-2.152 2.53-3.318 3.922-1.18 1.4-1.882 2.836-2.632 4.38-1.036 2.13-1.013 2.942.36 4.813 1.183 1.612 1.822 2.338 2.34 3.916-.427.893-.582 1.647-.725 2.866 1.45 1.608 2.525 2.7 3.932 3.048 1.38.333 2.532.27 3.767-.372 2.742-1.423 5.28-3.26 8.372-3.336 1.43-3.57 1.286-6.554.6-10.008-.47-2.36-.658-4.593-.803-6.998-.58 2.477-.7 4.655-.26 7.123.52 2.973.922 6.258-.52 8.872-2.797.217-5.194 1.944-7.714 3.27-1.013.533-2.068.585-3.2.272-1.04-.3-1.743-1-2.865-2.302-.018-1.318.275-1.926.872-3.12.958-1.917 2.016-3.7 3.176-5.587-1.42 1.74-2.767 3.195-3.886 4.946-.428-1.236-1.04-1.864-2.052-3.256-1-1.36-1.092-1.955-.353-3.528.743-1.58 1.374-2.97 2.64-4.358 2.187-2.397 4.2-5.065 6.582-7.425 1.3-1.282 1.826-1.238 3.548-1.502a59.84 59.84 0 0 0 4.664-.916c-1.535.145-3.02.198-4.514.236l-.046.001c1.47-1.906 2.324-2.97 4.713-4.022 5.88-2.592 9.618-2.872 14.238 1.07 1.197 1.022 2.243 2.013 3.457 2.895a4.33 4.33 0 0 0-1.321.318c.6-.118 1.316-.001 1.95.117a15.04 15.04 0 0 0 .548.343c.857.513 1.344.796 1.923 1.615a17.48 17.48 0 0 1 1.573 2.686l-.763-.264a1.62 1.62 0 0 0-1.547.097l-.036.017c-.474.235-1.2.5-1.7.583.25.088.805.12 1.067.016.035-.014.07-.025.107-.034a1.68 1.68 0 0 0-.219.685c-.03.32.03.64.175.926l.001.003a.91.91 0 0 0 .174.274c-.224.084-.454.18-.7.284 1.096-.17 2.084-.198 3.154-.056l.208 1.074-.43.034c-.506-.4-1.07-.34-1.84-.163-2.343.542-1.792 1.876-2.87 3.887 1.12-1.388 1.036-2.84 2.86-3.28.425-.102.714-.23 1.002-.186-.518.264-.965.702-1.143 1.2-.5 1.435-.2 2.643-.74 3.983.68-1.198.722-2.367 1.33-3.627.22-.452 1.03-1.177 1.53-1.188l.4-.01c.12.797.193 1.6.147 2.245-.085 1.198-.392 2.977-.575 3.658.617-.805.898-2.5 1.17-3.7.282-1.25.2-2.75-.036-4.092-.34-1.842 1.53-1.542 2.615-2.4.798-.638 1.347-1.657 2.078-2.38.725-.716 1.868.336 2.153 1.036 1.237 3.038 1.8 7.817 1.474 10.88-.367 3.436-2.002 7.188-4.988 8.88-3.807 2.156-8.295.84-12.078-.454zm-5.4 15.262c-.124 1.418-.6 1.5-1.816 1.5l-3.34-.07c-.796-.07-1.242-.142-1.486-.326 1.25-.93 3.374-4.777 3.788-6.1.438-1.4.917-2.62 1.274-3.912.164.54.293 1.076.532 1.65.398.96.593 1.552.622 2.58l.1 3.256c.343.608.396.738.335 1.432zm-37.623-10.74c.794 2.787 2.146 5.526 3.645 7.83v.04c-.094.396-.203.78-.43 1.1-1.072 1.455-3.797-.68-4.587-1.498-.862-.894-1.44-1.952-1.577-2.945-.1-.724-.003-.742.495-1.254l2.013-2.068.44-1.194zm-1.516-17.53c-.203.443-.348.78-.446 1.125-.427 1.498.193 2.835-1.147 3.92.63 1.3.6 1.804 2.066 1.208a4.8 4.8 0 0 0 1.447-.934c-.2.53-.387 1.07-.555 1.6l-.083.276c-1.048.45-2.425.738-2.953-.38-.256-.543-.4-1.075-.587-1.76-1.725-1.814.854-4.2 2.26-5.068zm.848 1.922c-.213-.216-.383-.363-.66-.33a4.02 4.02 0 0 1 .098-.526 6.71 6.71 0 0 1 .07-.253c.357.2.45.594.5 1.1zm51.728-6.776l.192.425a1.79 1.79 0 0 0-.148.123c-.085-.2-.208-.384-.36-.538l.317-.01zM55.096 44.67l-.012-.03.012.03zm-6.087-.436c.275-3.155.88-4.517 3.087-6.9-2.77 1.98-3.46 2.88-3.087 6.9zm-.715-2.578c.305-1.42.6-1.956 1.452-3.12-1.4.992-1.582 1.4-1.452 3.12m32.498-19.793c-1.66.406-1.976.717-2.474 2.368.794-1.2 1.25-1.602 2.474-2.368m2.618-.24c-3.3.82-4.26 1.4-5.352 5.273 1.4-2.836 2.442-3.88 5.352-5.273m7.1 14.114c.35-1.577.974-3.098 3.388-4.274-3.2.813-3.8 2.177-3.388 4.274m20.357.1c1.895-.685 2.808-2.232 3.262-4.05-.742 1.524-1.886 2.8-3.44 3.58-.834.42-1.367.273-2.3.183.947.276 1.548.623 2.478.287M97.95 37.393c-.243-.517-.676-.917-1.207-1.113.465-.252.92-.516 1.277-.845-1.043.5-2.257.37-3.153.984-.788.54-1.877 2.254-2.678 2.98.58-.23 1.14-.624 1.654-1.04.006.806.45 1.543 1.155 1.916-.296.394-.532.83-.7 1.296a12.27 12.27 0 0 1 5.817-3.814c-.58-.008-1.27.102-1.97.336a2.2 2.2 0 0 0-.196-.7M95.754 51.26l-.25 1.54.667-1.676c.244-.543.382-.594.9-.88.368-.203 1.036-.482 1.403-.685l-1.435.27c-1 .173-1.13.42-1.286 1.43M78.488 32.912c-1.173 1.177-2.312 5.215-2.676 6.83.573-1.342 2.008-5.097 3.1-6.052.304-.264.517-.426.745-.544-.788 1.34-.73 1.675-.454 3.472.235-1.827.857-2.533 1.88-3.896a26.91 26.91 0 0 0 3.316-1.08l-3.884.4c-1.088.105-1.263.087-2.034.86" fill="#000"/><path d="M94.468 39.786a.92.92 0 0 1 .425-1.217.89.89 0 0 1 .753-.01c.24.108.423.317.5.572a5.75 5.75 0 0 0-1.15 1.143c-.22-.1-.418-.255-.528-.488m10.017-3.933c.036-.376.352-.653.722-.617s.643.372.608.748c-.008.078-.028.153-.06.224-.34.06-.678.16-1.028.3-.146-.152-.263-.43-.242-.646" fill="#ffc"/></svg>