<svg xmlns="http://www.w3.org/2000/svg" width="166" height="96"><path d="M89.41 55.23l-6.915.014v.092c-2.18 0-4.357.007-6.536-.002-2.314-.01-4.112 1.034-5.512 2.8-2.02 2.562-3.605 5.523-6.677 7.098-.34.174-.612.852-.576 1.266.022.253.67.536 1.078.656 3.645 1.068 7.347 1.223 11.058.468 5.256-1.068 9.996-3.163 13.4-7.54.783-1.004 1.32-2.24 1.786-3.444.328-.85-.033-1.44-1.118-1.418zm-43.215-6.684l-1.708-2.376c-.45-.643-.873-.788-1.522-.183-2.726 2.546-3.7 8.994-1.865 12.22l5.095-9.66zm73.2 1.376c-1.322-.262-1.45-.814-2.023-1.532-2.998-3.75-5.225-7.226-9.158-11.108-6.33-6.662-14.198-10.106-23.38-10.62-4.982-.278-9.893.148-14.786.9-2.353.36-3.896-.564-5.034-2.47-.43-.72-.888-1.48-1.065-2.284-.654-2.963-1.223-5.946-1.766-8.933-.196-1.08-.5-1.332-1.495-.888a5.66 5.66 0 0 0-3.211 3.707c-.42 1.446-.798 2.98-.776 4.467.053 3.422.31 6.845.585 10.26.152 1.9-.114 3.547-1.417 5.06-1.482 1.722-2.757 3.625-4.133 5.44-4.97 6.563-9.11 13.594-11.794 21.435-1.365 3.985-2.412 8.02-1.73 12.3.232 1.457.35 2.932.52 4.398.207 1.764 2.604 3.884 4.364 3.854 2.02-.034 3.77-.882 5.3-2.087 2.697-2.126 5.676-3.727 8.725-5.246 3.63-1.81 6.965-4.067 9.78-7.043.207-.22.372-.48.584-.757-1.436-.35-2.757-.607-4.037-1-1.395-.428-1.672-1.48-.732-2.625.315-.383.764-.65 1.135-.99 1.08-.988 2.227-1.914 3.2-3 .924-1.03 1.63-2.256 2.49-3.35 1.54-1.964 3.545-3.07 6.06-3.12 1.5-.03 3.022-.054 4.532-.02 1.194.027 2.148-.36 3.087-1.136 2.3-1.9 4.26-3.805 6.722-5.476 3.905-2.203 6.835-3.147 10.6-2.766 6.744.684 11.777 4.287 15.853 9.5.15.192.278.46.25.735s-.42.143-.42.143l-4.81-5.075c-.844 1.185-1.284 1.997-1.98 2.86-.952 1.176-2.12 2.197-2.936 3.456-1.325 2.043-.76 5.1 1.03 6.275.153-.237.404-.46.44-.712.138-.98.217-1.718 1.37-1.794.522-.034.15-.65 1.14-.703.31.024.285.288.595.264.25-.036.36-.47.63-.588.535-.234 1.247-.205 1.774-.183.977.04 1.444-.477 1.57-1.1.084-.417.122-.744.325-1.476.468 1.885 1.684 2.454 3.192 2.44.713-.006 1.447-.156 2.135-.032 1.676.107 1.972.487 2.916.85 1.456.558 2.778 1.23 3.28 2.97.15-.047.44-.084.595-.384s.15-.707.163-1.22c.138-5.778-2.753-9.873-8.25-11.6zm-59.14 9.025c1.324-.02 1.523.285.967 1.45-.124.26-.25.543-.27.824-.176 2.255-1.274 3.867-3.213 4.983-.98.564-1.838 1.344-2.824 1.895-.54.302-1.383.625-1.812.4-.23-.12-.362-.44-.47-.8-.208-.694-.26-1.438-.097-2.144.82-3.545 4.166-6.55 7.72-6.608zm-7.973 12.064c.014-.3 1.4-1.496 1.738-1.44s.328.305.33.666-1.377 1.607-2.04 1.19c-.155-.134-.066-.36-.027-.418zm13.025-1.206c-1.75 1.633-3.702 2.94-5.6 4.15-1.483.943-3.1 1.67-4.606 2.58-2.293 1.385-4.545 2.84-6.8 4.274-1.688 1.068-3.328 2.255-5.5 2.198.034-.182.03-.31.065-.323 2.284-.81 3.97-2.337 5.528-4.19.94-1.118 2.352-1.9 3.658-2.626 2.732-1.54 4.946-3.57 6.632-6.24 1.204-1.905 1.25-1.83 3.246-.95 1.026.453 1.906.613 3.387 1.127zm32.15-27.02c2.618-.055 3.817.252 5.674.69 1.47.36 2.5 1.352 3.1 2.155-2.342-.723-3.527-1.112-5.845-1.32-4.983-.6-9.356.97-13.192 4.132-1.622 1.338-3.23 2.71-4.693 4.22-.864.89-.88 1.124-2.96.992 1.837-2.868 3.512-5.774 5.153-8.652 5.306-9.308 18.642-7.714 23.225-2.316.187.22.47.805.47.805s-4.337-2.34-7.526-2.34c-1.92 0-2.403.143-3.6.35-.313.054-.837.33-.833.792s.66.445 1.016.496zm27.97 16.93c-1.392-2.176-3.496-1.705-5.466-1.714-.587-.003-1.174.03-1.76.053-.99.036-1.828-.198-2.26-1.228-.11-.265-.4-.674-.622-.716-.226.063-.302.21-.342.298-.894 1.92-2.63 2.222-4.43 2.26-1.04.022-1.895.168-2.407 1.21-.1.202-.606.435-.693.364-.222-.18-.494-.588-.425-.794.266-.782.548-1.602 1.026-2.257 1.214-1.663 2.538-3.244 3.93-5l2.116 2.245c.584.603 1.13 1.278 1.817 1.733.362.24 1.144.277 1.444.035.258-.208.29-1.042.1-1.42-.4-.77-1.057-1.4-1.58-2.123-.4-.532-.738-1.095-1.202-1.792 4.69-.845 11.654 4.9 10.765 8.842z" fill="#000" fill-rule="nonzero"/></svg>