<svg xmlns="http://www.w3.org/2000/svg" xmlns:xlink="http://www.w3.org/1999/xlink" width="166" height="94"><defs><path id="A" d="M.038.055h120.945v35.04H.038z"/></defs><g transform="translate(23 30)" fill-rule="evenodd"><mask fill="#fff" transform="translate(0 .05)"><use xlink:href="#A"/></mask><path d="M85.404 20.268l.003-6.408c.003-.776.123-1.532.498-2.232.606-1.13 1.608-1.704 2.815-1.996.42-.1.844-.125 1.274-.124l10.313-.004c.275-.001.356.06.355.345l-.026 13.016c-.001 1.022.425 1.444 1.456 1.45l.743-.005c.27-.024.372.046.364.34l-.01 2.382c0 .117.037.257-.165.258-1.036.01-2.072.04-3.044-.427-1.444-.693-2.294-1.818-2.316-3.41l-.025-10.433c-.001-.53 0-.53-.53-.53-2.367 0-4.734 0-7.1 0-.113 0-.226-.003-.338.004-.907.052-1.27.433-1.27 1.337l.006 13.117c.001.276-.064.356-.348.348l-2.265-.001c-.303.008-.403-.065-.4-.385l.008-6.643" fill="#010101"/><path d="M21.82 19.08l.007 7.883c.001.263-.06.338-.33.33a42.2 42.2 0 0 0-2.333.001c-.296.01-.34-.1-.338-.354l.013-6.005c.002-.296-.08-.374-.378-.373l-9.84.001c-.273-.001-.357.058-.355.343l.007 5.938c0 .526.01.44-.462.442-.744.003-1.488-.008-2.23.006-.24.004-.335-.042-.334-.308V11.152c0-.26.084-.317.328-.312a56.78 56.78 0 0 0 2.367-.001c.274-.006.34.082.338.34l-.012 6.038c-.002.274.065.35.35.35h9.805c.316.001.42-.07.418-.4l-.016-6.005c-.002-.277.083-.327.335-.322a58.77 58.77 0 0 0 2.333 0c.256-.005.335.05.333.325l-.008 7.917m9.812-1.202v.004c-.946 0-1.892-.01-2.837.004-.703.01-1.092.386-1.1 1.082l-.002 4.2c.01.776.432 1.153 1.22 1.153h5.303c.896 0 1.283-.358 1.292-1.248l-.002-3.954c-.01-.878-.384-1.224-1.272-1.228h-2.6zm.158-2.982l2.738.003c1.756.037 3.18 1.088 3.738 2.73.178.524.258 1.07.257 1.614l-.042 4.324a3.84 3.84 0 0 1-2.667 3.444 5.69 5.69 0 0 1-1.76.275c-1.713-.002-3.426.025-5.138-.008-1.807-.035-3.175-.808-3.94-2.5-.206-.455-.28-.943-.283-1.436l-.004-4.46c.01-2.04 1.368-3.5 3.3-3.9.58-.12 1.163-.112 1.748-.113h2.062v.007zm32.22 8.192c-.913 0-1.826-.013-2.74.008-.284.007-.332-.087-.326-.338l-.001-2.18c-.008-.278.1-.33.346-.33l5.106.005c.74 0 1.206-.448 1.256-1.202a1.21 1.21 0 0 0-1.086-1.31 2.99 2.99 0 0 0-.405-.022l-5.038-.001c-1 .001-1.458.445-1.468 1.426v3.925c.01.925.48 1.37 1.4 1.37l4.97-.006c.263-.002.35.062.343.334l-.003 2.214c.003.217-.034.314-.3.313-1.724-.012-3.45.025-5.173-.016-1.763-.043-3.073-.843-3.8-2.47-.18-.4-.26-.832-.27-1.27l.018-4.963c.1-1.893 1.586-3.423 3.488-3.64a6.65 6.65 0 0 1 .742-.045l5.072.004c.92.01 1.817.172 2.596.714 1.283.893 1.842 2.126 1.72 3.667-.118 1.48-.772 2.64-2.104 3.376-.5.276-1.044.42-1.615.426l-2.74.003v.012z" fill="#020202"/><path d="M41.067 20.48l-.007-5.23c-.002-.3.1-.38.383-.372h2.264c.296-.008.378.07.376.37l-.015 8.585c-.002.314.084.4.386.37 1.06-.07 1.975-.5 2.825-1.087 1.524-1.054 2.663-2.457 3.625-4.012a16.98 16.98 0 0 0 1.806-3.948c.068-.222.168-.275.378-.273h2.57c.25-.003.308.048.222.302-.834 2.467-1.92 4.808-3.496 6.905-1.8 2.378-4.028 4.13-6.97 4.886a10.19 10.19 0 0 1-2.942.322c-.623-.024-1.196-.485-1.34-1.085-.053-.22-.065-.44-.065-.666l.001-5.064m77.812 1.572l-.007 6.573c-.027 1.97-1.17 3.377-3.084 3.898a3.82 3.82 0 0 1-1.032.138 445.83 445.83 0 0 0-5.172.002c-.25.001-.33-.064-.325-.317V30c-.005-.253.076-.32.327-.317l5.036.006c.847 0 1.268-.4 1.268-1.255l.001-13.113c0-.438 0-.438.435-.438l2.23-.007c.276-.008.336.074.335.336l-.006 6.842h-.008z" fill="#010101"/><path d="M75.45 23.04l.006 3.96c.002.232-.05.3-.292.295l-2.434-.001c-.226.004-.283-.065-.282-.28l.006-7.85c.003-1.27.364-2.404 1.387-3.247a4.41 4.41 0 0 1 2.83-1.025l6.525-.01c.216-.001.26.062.257.262l.002 2.415c.005.256-.055.332-.327.33l-6.255-.006c-.213 0-.425-.004-.637.053a.95.95 0 0 0-.73.75c-.046.187-.057.375-.057.566v3.8m29.6-3.7l-.007-4.092c-.003-.3.1-.38.384-.373h2.333c.25-.006.296.077.295.304l-.004 7.648.01.402c.08.7.5 1.08 1.2 1.082l5.105-.006c.256-.002.318.06.312.312l-.002 2.38c.003.205-.025.295-.266.294-1.713-.01-3.427.024-5.14-.015-1.583-.037-2.873-.663-3.7-2.058-.42-.697-.516-1.467-.52-2.256l-.002-3.623M92.18 17.87c-.754 0-1.508-.008-2.262.005-.222.004-.3-.06-.297-.28l.001-2.446c-.002-.205.08-.27.28-.27h4.592c.205-.001.28.067.28.27l.001 2.446c.002.22-.077.284-.298.28l-2.296-.005" fill="#020202"/></g></svg>