<svg xmlns="http://www.w3.org/2000/svg" width="20" height="20" viewBox="0 0 20 20">
    <path fill="#ff017d" fill-rule="nonzero" d="M12.818 10.273a.44.44 0 0 1 0-.637l6.818-6.818a.982.982 0 0 0 .273-.636.982.982 0 0 0-.273-.637L18.364.273A.982.982 0 0 0 17.727 0a.825.825 0 0 0-.636.273L10.273 7.09a.44.44 0 0 1-.637 0L2.818.273A.982.982 0 0 0 2.182 0a.982.982 0 0 0-.637.273L.273 1.545A.982.982 0 0 0 0 2.182c0 .182.09.454.273.636L7.09 9.636a.44.44 0 0 1 0 .637L.273 17.09a.982.982 0 0 0-.273.636c0 .182.09.455.273.637l1.272 1.272a.982.982 0 0 0 .637.273c.182 0 .454-.09.636-.273l6.818-6.818a.44.44 0 0 1 .637 0l6.818 6.818a.982.982 0 0 0 .636.273c.182 0 .455-.09.637-.273l1.272-1.272a.982.982 0 0 0 .273-.637.982.982 0 0 0-.273-.636l-6.818-6.818z"/>
</svg>
