<svg xmlns="http://www.w3.org/2000/svg" width="166" height="94"><path d="M110.3 15.18H55.7c-2.6 0-4.7 2.088-4.7 4.673v54.184c0 2.585 2.1 4.673 4.7 4.673h54.5c2.6 0 4.7-2.088 4.7-4.673V19.853c.1-2.585-2-4.673-4.6-4.673zM69.9 56.44a1.15 1.15 0 0 1-1.2 1.193h-7.1a1.15 1.15 0 0 1-1.2-1.193v-7.06a1.15 1.15 0 0 1 1.2-1.193h7.1a1.15 1.15 0 0 1 1.2 1.193v7.06zm0-11.83a1.15 1.15 0 0 1-1.2 1.193h-7.1a1.15 1.15 0 0 1-1.2-1.193v-7.06a1.15 1.15 0 0 1 1.2-1.193h7.1a1.15 1.15 0 0 1 1.2 1.193v7.06zm0-11.732a1.15 1.15 0 0 1-1.2 1.193h-7.1a1.15 1.15 0 0 1-1.2-1.193v-7.06a1.15 1.15 0 0 1 1.2-1.193h7.1a1.15 1.15 0 0 1 1.2 1.193v7.06zM81.8 68.17a1.15 1.15 0 0 1-1.2 1.193h-7.1a1.15 1.15 0 0 1-1.2-1.193v-7.06a1.15 1.15 0 0 1 1.2-1.193h7.1a1.15 1.15 0 0 1 1.2 1.193v7.06zm0-23.563a1.15 1.15 0 0 1-1.2 1.193h-7.1a1.15 1.15 0 0 1-1.2-1.193v-7.06a1.15 1.15 0 0 1 1.2-1.193h7.1a1.15 1.15 0 0 1 1.2 1.193v7.06zm0-11.732a1.15 1.15 0 0 1-1.2 1.193h-7.1a1.15 1.15 0 0 1-1.2-1.193v-7.06a1.15 1.15 0 0 1 1.2-1.193h7.1a1.15 1.15 0 0 1 1.2 1.193v7.06zM93.7 68.17a1.15 1.15 0 0 1-1.2 1.193h-7.1a1.15 1.15 0 0 1-1.2-1.193v-7.06a1.15 1.15 0 0 1 1.2-1.193h7.1a1.15 1.15 0 0 1 1.2 1.193v7.06zm0-11.732a1.15 1.15 0 0 1-1.2 1.193h-7.1a1.15 1.15 0 0 1-1.2-1.193v-7.06a1.15 1.15 0 0 1 1.2-1.193h7.1a1.15 1.15 0 0 1 1.2 1.193v7.06zm0-23.563a1.15 1.15 0 0 1-1.2 1.193h-7.1a1.15 1.15 0 0 1-1.2-1.193v-7.06a1.15 1.15 0 0 1 1.2-1.193h7.1a1.15 1.15 0 0 1 1.2 1.193v7.06zm11.8 35.294a1.15 1.15 0 0 1-1.2 1.193h-7.1a1.15 1.15 0 0 1-1.2-1.193v-7.06a1.15 1.15 0 0 1 1.2-1.193h7.1a1.15 1.15 0 0 1 1.2 1.193v7.06zm0-11.732a1.15 1.15 0 0 1-1.2 1.193h-7.1a1.15 1.15 0 0 1-1.2-1.193v-7.06a1.15 1.15 0 0 1 1.2-1.193h7.1a1.15 1.15 0 0 1 1.2 1.193v7.06zm0-11.83a1.15 1.15 0 0 1-1.2 1.193h-7.1a1.15 1.15 0 0 1-1.2-1.193v-7.06a1.15 1.15 0 0 1 1.2-1.193h7.1a1.15 1.15 0 0 1 1.2 1.193v7.06z" fill="#0b63ce" fill-rule="nonzero"/></svg>