<svg xmlns="http://www.w3.org/2000/svg" width="166" height="94" fill="#f0ab00" fill-rule="nonzero"><path d="M107.755 46.136c-.096-1.057-.616-1.627-1.615-1.75-.438-.054-.876-.2-1.327-.34-.15-.054-.3-.095-.452-.136l-.137-.407-.807-2.264a.28.28 0 0 1-.027-.081c-1.806-5.138-5.173-8.948-10.017-11.293-1-.488-2.04-1-2.75-1.817-1.574-1.8-2.258-4.067-2.23-7.375v-.108c.04-1.925-.835-2.345-1.615-2.373-.698 0-1.232.488-1.875 1.26-1.423 1.762-2.176 4.284-2.012 6.765v.054c-.958-1.6-1.3-3.498-1.587-5.586-.014-.136-.04-.298-.055-.46l-.014-.108c-.068-.6-.123-1.234-.274-1.668a1.38 1.38 0 0 0-1.273-.976c-1.108-.054-1.642 1.098-2.244 2.413l-.068.15c-1.314 2.833-1.464 5.64-1.368 7.93-.862-1.14-1.464-2.413-1.834-3.85a1.33 1.33 0 0 0-.944-.949 1.3 1.3 0 0 0-1.286.366c-.602.624-.82 1.26-.958 1.803a9.52 9.52 0 0 0 .123 5.599c-4.283 2.427-7.294 5.87-8.936 10.3l-.78 2.156-.205.6-.274.08c-.465.15-.9.285-1.34.34-1 .122-1.52.7-1.615 1.75-.04.42-.15 1.708 1.327 1.966.397.068.4.08.465.312l.862 6.657c.123 1 .588 1.925 1.286 2.657l1.533 11.198c.055.352.246.678.534.895a32.49 32.49 0 0 0 18.898 6.006c6.993 0 13.657-2.17 19.267-6.277a1.29 1.29 0 0 0 .534-.908l1.26-11.036c.657-.72 1.067-1.586 1.2-2.55l.862-6.643c.055-.258.068-.258.465-.34 1.464-.27 1.355-1.546 1.314-1.966zM73.626 30.18c-.164-.502-.287-1.003-.342-1.518.82 1.302 1.888 2.454 3.216 3.525a1.32 1.32 0 0 0 .575.271c.52.095 1.026-.054 1.382-.407.643-.637.465-1.505.342-2.142-.014-.068-.027-.122-.027-.176-.205-1.98-.315-4.27.246-6.535.493 2.48 1.314 4.555 3.106 6.33l.068.068a3.13 3.13 0 0 1 .328.298c.506.447 1.08.963 1.93 1.33.506.217 1.108.095 1.492-.298.383-.407.465-1.003.22-1.5-.452-.895-.602-2.3-.67-3.416a7.91 7.91 0 0 1 .342-2.82c.3 2.657 1.204 4.76 2.764 6.548 1.067 1.22 2.408 1.87 3.585 2.454 4.27 2.074 7.13 5.314 8.703 9.883.014.04.027.08.04.095l.37 1.03c-4.242-.813-8.758-1.18-13.424-1.07-.903.027-2.203.203-2.983 1.464l-.22.34c-.164.217-.287.298-.342.312a5.53 5.53 0 0 0-1.478-.217h-.014c-.725-.027-1.314.163-1.505.217-.055-.014-.164-.095-.328-.312a4.78 4.78 0 0 1-.233-.34c-.78-1.26-2.08-1.437-2.983-1.464-4.735-.108-9.305.258-13.588 1.098l.397-1.112.027-.054c1.4-3.796 4.023-6.792 7.773-8.92.82-.42 1.82-1.234 1.232-2.97zm5.392 16.933c-.192 2.427-.876 4.623-1.574 6.616-.848 2.44-2.9 2.576-5.077 2.7-.274.014-.534.04-.794.054-.506.04-1.34.054-1.902.054-.26 0-.438 0-.575.014h-.985c-3.654.054-4.64-.325-5.118-3.972l-.3-1.966c-.192-1.207-.4-2.562-.493-3.606-.04-.542.055-.732.684-.895 2.9-.746 7.417-1.22 11.262-1.22a40.52 40.52 0 0 1 2.655.081c1.08.08 1.642.244 1.93.57.26.312.342.8.287 1.56zM64.855 59.15l.1.014c.192.014.37.027.547.027h.096c2.846.122 5.542.258 8.36.108 3.12-.15 4.94-1.4 6.254-4.338.616-1.383 1-2.86 1.368-4.284a19.93 19.93 0 0 1 .26-.963c.246-.908.63-1.5 1.013-1.573.397.08.766.664 1.013 1.573l.26.963c.37 1.424.753 2.9 1.368 4.284 1.314 2.928 3.134 4.2 6.254 4.338 2.82.136 5.5.014 8.36-.108h.096c.178-.014.37-.014.547-.027l.123-.014c.068-.014.15-.014.22-.027l-.985 8.663C95.056 71.34 89.103 73.2 82.877 73.2c-6.076 0-11.905-1.803-16.9-5.192l-1.218-8.88a.27.27 0 0 1 .096.014zm31.76-2.576c-.137-.014-.315-.014-.575-.014-.56 0-1.396-.014-1.902-.054-.26-.027-.534-.04-.794-.054-2.176-.136-4.228-.27-5.077-2.7-.698-2.006-1.368-4.2-1.574-6.616-.068-.76.027-1.247.274-1.546.287-.325.848-.488 1.93-.57 4.2-.298 10.304.203 13.917 1.125.63.163.725.352.684.895-.082 1.03-.3 2.4-.493 3.606l-.3 1.966c-.48 3.647-1.45 4.04-5.118 3.972h-.972zm-23.372-8.62a2.24 2.24 0 0 0-1.642.664 2.29 2.29 0 0 0-.684 1.627 2.32 2.32 0 0 0 2.313 2.305c1.286 0 2.326-1.03 2.326-2.3s-1.04-2.3-2.313-2.305m19.322-.001c-.602-.014-1.204.23-1.642.664a2.29 2.29 0 0 0-.684 1.627 2.32 2.32 0 0 0 2.313 2.305c1.286 0 2.326-1.03 2.326-2.3s-1.04-2.3-2.313-2.305"/></svg>