<svg id="Layer_1" data-name="Layer 1" xmlns="http://www.w3.org/2000/svg" viewBox="0 0 396.75 93.29"><defs><style>.cls-1{fill:#663399;}.cls-2{fill:#282425;}</style></defs><title>Brand Color V3</title><path class="cls-1" d="M255.37,289.49c-.32,8.85-.05,17.73-.09,26.59,0,2.52.38,5.06,3.43,5s3.28-2.68,3.26-5.17c0-6.54.3-13.11-.1-19.62-.57-9.21.91-17.24,11.29-22.08-10.86-.06-17.45,5.86-17.79,15.3" transform="translate(-226.55 -253.42)"/><path class="cls-1" d="M270.3,253.42a43.76,43.76,0,1,0,43.76,43.76,43.76,43.76,0,0,0-43.76-43.76m10.21,58.89c-2.63,1.09-5.11,1.49-6.42-1.54-1.24-2.87.88-4.19,3.23-5.06a16.25,16.25,0,0,0,10.77-12.31c.95-4.21.12-8.12-3.48-10.81a9.18,9.18,0,0,0-10.15-1c-3.88,2-5.14,5.26-5.1,9.4q.12,12.68,0,25.37c-.07,7.27-4.67,12.31-10.9,12.18s-10.29-4.86-10.4-11.95c-.07-4.44,0-8.88,0-14.17.4-5.24-.69-11.39.79-17.46,2.8-11.5,12.21-18.8,24-18.52,11.13.27,20.4,8.64,22.56,20.39,1.81,9.87-5,21.37-14.91,25.48" transform="translate(-226.55 -253.42)"/><path class="cls-1" d="M353.88,308.48a5,5,0,0,1,5-5,12.5,12.5,0,1,0-12.5-12.5V323.7a5,5,0,1,1-10,0V291a22.5,22.5,0,1,1,22.5,22.5A5,5,0,0,1,353.88,308.48Zm137.63-38a22.5,22.5,0,1,0,22.5,22.5V260.22a5,5,0,1,0-10,0v32.71a12.5,12.5,0,1,1-12.5-12.5,5,5,0,0,0,0-10Zm50.62,33a12.5,12.5,0,1,1,12.5-12.5v18.75a5,5,0,1,0,10,0V291a22.5,22.5,0,1,0-22.5,22.5,5,5,0,0,0,0-10Zm73.18,6.25V291a22.5,22.5,0,1,0-45,0v18.8a5,5,0,1,0,10,0V291a12.5,12.5,0,1,1,25,0v18.75a5,5,0,1,0,10,0Zm-217.76.7V291a12.49,12.49,0,0,1,12.5-12.5,5,5,0,0,0,0-10,22.49,22.49,0,0,0-22.5,22.5v19.45a5,5,0,1,0,10,0Zm60.69-41.9a5,5,0,0,0-5,5v18.75a12.5,12.5,0,1,1-25,0v-18.8a5,5,0,0,0-10,0v18.8a22.5,22.5,0,0,0,35,18.71v1.83a12.49,12.49,0,0,1-12.5,12.5,5,5,0,0,0,0,10,22.5,22.5,0,0,0,22.5-22.5V273.54A5,5,0,0,0,458.24,268.54Z" transform="translate(-226.55 -253.42)"/><path class="cls-2" d="M610.58,260.28v0a6.36,6.36,0,1,1,12.71,0v0a6.36,6.36,0,1,1-12.71,0Zm11.54,0v0a5.18,5.18,0,1,0-10.36,0v0a5.18,5.18,0,1,0,10.36,0Zm-7.21-2.77h2.49c1.23,0,2.13.56,2.13,1.75a1.63,1.63,0,0,1-1.17,1.64l1.35,1.9h-1.55L617,261.09h-.82v1.67h-1.29Zm2.4,2.57c.59,0,.91-.29.91-.73s-.35-.73-.91-.73h-1.11V260Z" transform="translate(-226.55 -253.42)"/><path class="cls-1" d="M483.28,341a5.27,5.27,0,0,1-.84,2.92,5.56,5.56,0,0,1-2.45,2,9.17,9.17,0,0,1-3.82.73,8.6,8.6,0,0,1-4.37-1,5.81,5.81,0,0,1-2-1.92,4.37,4.37,0,0,1-.76-2.34,1.58,1.58,0,0,1,1.62-1.6,1.38,1.38,0,0,1,1,.37,2.89,2.89,0,0,1,.68,1.09,7.26,7.26,0,0,0,.74,1.43,3,3,0,0,0,1.12.95,4.12,4.12,0,0,0,1.89.37,4.27,4.27,0,0,0,2.62-.75,2.26,2.26,0,0,0,1-1.87,2,2,0,0,0-.54-1.45,3.51,3.51,0,0,0-1.4-.85q-.86-.29-2.3-.62a16.83,16.83,0,0,1-3.23-1.06,5.21,5.21,0,0,1-2.06-1.65,4.28,4.28,0,0,1-.76-2.59,4.45,4.45,0,0,1,.81-2.62,5.08,5.08,0,0,1,2.33-1.76,9.54,9.54,0,0,1,3.59-.62,8.88,8.88,0,0,1,2.85.41,6,6,0,0,1,2,1.09,4.53,4.53,0,0,1,1.16,1.42,3.28,3.28,0,0,1,.37,1.45,1.71,1.71,0,0,1-.46,1.17,1.46,1.46,0,0,1-1.14.52,1.31,1.31,0,0,1-.95-.31,4.2,4.2,0,0,1-.7-1,4.64,4.64,0,0,0-1.17-1.58,3.43,3.43,0,0,0-2.2-.57,3.81,3.81,0,0,0-2.26.62,1.79,1.79,0,0,0-.86,1.48,1.5,1.5,0,0,0,.29.93,2.47,2.47,0,0,0,.81.67,5.52,5.52,0,0,0,1,.44q.52.16,1.73.46a27.54,27.54,0,0,1,2.74.78,8.32,8.32,0,0,1,2.09,1,4.27,4.27,0,0,1,1.34,1.54A5,5,0,0,1,483.28,341Z" transform="translate(-226.55 -253.42)"/><path class="cls-1" d="M494.85,328.2a9.55,9.55,0,0,1,4.78,1.13,7.32,7.32,0,0,1,3,3.21,10.94,10.94,0,0,1,1,4.89,12,12,0,0,1-.56,3.77,8.18,8.18,0,0,1-1.68,2.94,7.37,7.37,0,0,1-2.76,1.9,10.89,10.89,0,0,1-7.51,0,7.46,7.46,0,0,1-2.77-1.91,8.15,8.15,0,0,1-1.68-3,12,12,0,0,1-.57-3.75,11.58,11.58,0,0,1,.59-3.79,8.13,8.13,0,0,1,1.71-2.93,7.42,7.42,0,0,1,2.73-1.85A9.83,9.83,0,0,1,494.85,328.2Zm5.15,9.21a8.4,8.4,0,0,0-.63-3.41,4.74,4.74,0,0,0-1.81-2.18,5,5,0,0,0-2.7-.74,4.9,4.9,0,0,0-2,.41,4.43,4.43,0,0,0-1.59,1.19,5.7,5.7,0,0,0-1,2,9,9,0,0,0-.38,2.73,9.25,9.25,0,0,0,.38,2.76,5.65,5.65,0,0,0,1.09,2,4.55,4.55,0,0,0,1.61,1.21,5.09,5.09,0,0,0,4.55-.29,4.81,4.81,0,0,0,1.86-2.15A8.3,8.3,0,0,0,500,337.41Z" transform="translate(-226.55 -253.42)"/><path class="cls-1" d="M518.09,331.31H511v4.58h6a1.79,1.79,0,0,1,1.24.37,1.28,1.28,0,0,1,.41,1,1.25,1.25,0,0,1-.42,1,1.81,1.81,0,0,1-1.23.37h-6v5.9a2.37,2.37,0,0,1-.51,1.67,1.84,1.84,0,0,1-2.61,0,2.38,2.38,0,0,1-.51-1.66V330.73a3,3,0,0,1,.23-1.28,1.44,1.44,0,0,1,.73-.72,3.06,3.06,0,0,1,1.26-.23h8.54a1.86,1.86,0,0,1,1.29.38,1.3,1.3,0,0,1,.42,1,1.32,1.32,0,0,1-.42,1A1.86,1.86,0,0,1,518.09,331.31Z" transform="translate(-226.55 -253.42)"/><path class="cls-1" d="M534.75,331.5h-4v13a2.39,2.39,0,0,1-.5,1.67,1.68,1.68,0,0,1-1.29.54,1.7,1.7,0,0,1-1.31-.55,2.38,2.38,0,0,1-.51-1.66v-13h-4a2,2,0,0,1-1.38-.41,1.39,1.39,0,0,1-.45-1.08,1.37,1.37,0,0,1,.47-1.1,2,2,0,0,1,1.36-.4h11.52a2,2,0,0,1,1.4.42,1.39,1.39,0,0,1,.46,1.09,1.37,1.37,0,0,1-.46,1.08A2.05,2.05,0,0,1,534.75,331.5Z" transform="translate(-226.55 -253.42)"/><path class="cls-1" d="M552,343.58l-2.89-10.73-2.93,10.73q-.34,1.22-.54,1.75a2.32,2.32,0,0,1-.7,1,2,2,0,0,1-1.33.42,2.19,2.19,0,0,1-1.1-.25,1.91,1.91,0,0,1-.7-.71,4.47,4.47,0,0,1-.44-1.09q-.17-.63-.3-1.17l-3-12a7,7,0,0,1-.27-1.6,1.57,1.57,0,0,1,.49-1.17,1.66,1.66,0,0,1,1.21-.48,1.37,1.37,0,0,1,1.33.63,7.2,7.2,0,0,1,.6,1.84l2.34,10.45,2.63-9.78a15.81,15.81,0,0,1,.52-1.71,2.47,2.47,0,0,1,.76-1,2.2,2.2,0,0,1,1.43-.43,2.08,2.08,0,0,1,1.42.45,2.44,2.44,0,0,1,.7,1q.19.53.52,1.73l2.65,9.78,2.34-10.45a12.32,12.32,0,0,1,.32-1.28,2.05,2.05,0,0,1,.52-.83,1.48,1.48,0,0,1,1.08-.37,1.68,1.68,0,0,1,1.2.47,1.56,1.56,0,0,1,.49,1.18,7.67,7.67,0,0,1-.27,1.6l-3,12q-.3,1.22-.51,1.79a2.37,2.37,0,0,1-.68,1,2,2,0,0,1-1.36.43,2,2,0,0,1-1.33-.41,2.24,2.24,0,0,1-.7-.93Q552.4,344.84,552,343.58Z" transform="translate(-226.55 -253.42)"/><path class="cls-1" d="M574.9,344.38l-.85-2.25h-7.28l-.85,2.29a8,8,0,0,1-.85,1.81,1.36,1.36,0,0,1-1.16.47,1.7,1.7,0,0,1-1.21-.5,1.53,1.53,0,0,1-.53-1.13,2.55,2.55,0,0,1,.12-.76q.12-.39.4-1.09l4.58-11.62.47-1.2a6,6,0,0,1,.59-1.17,2.37,2.37,0,0,1,.82-.75,2.52,2.52,0,0,1,1.25-.29,2.54,2.54,0,0,1,1.26.29,2.44,2.44,0,0,1,.82.74,5.24,5.24,0,0,1,.52,1q.21.52.54,1.39l4.68,11.55a5.8,5.8,0,0,1,.55,1.92,1.59,1.59,0,0,1-.52,1.14,1.7,1.7,0,0,1-1.25.52,1.62,1.62,0,0,1-.73-.15,1.48,1.48,0,0,1-.51-.42,3.78,3.78,0,0,1-.45-.81C575.15,345,575,344.66,574.9,344.38Zm-7.18-5h5.35l-2.7-7.39Z" transform="translate(-226.55 -253.42)"/><path class="cls-1" d="M586.93,338.75h-1.27v5.75a2.38,2.38,0,0,1-.5,1.67,1.7,1.7,0,0,1-1.31.54,1.66,1.66,0,0,1-1.34-.56,2.49,2.49,0,0,1-.48-1.65V330.73a1.9,1.9,0,0,1,2.22-2.22h5.9a18.1,18.1,0,0,1,2.09.1,5.27,5.27,0,0,1,1.56.42,4.53,4.53,0,0,1,1.49,1,4.43,4.43,0,0,1,1,1.53,5.09,5.09,0,0,1,.34,1.85,4.47,4.47,0,0,1-1.13,3.2,6.49,6.49,0,0,1-3.42,1.7,6.64,6.64,0,0,1,1.84,1.51,15.31,15.31,0,0,1,1.57,2.13,15.7,15.7,0,0,1,1.07,2,4,4,0,0,1,.38,1.25,1.28,1.28,0,0,1-.23.7,1.59,1.59,0,0,1-.62.55,1.94,1.94,0,0,1-.9.2,1.76,1.76,0,0,1-1-.29,2.77,2.77,0,0,1-.71-.73q-.3-.44-.81-1.29L591.18,342a13.35,13.35,0,0,0-1.4-2,3.45,3.45,0,0,0-1.25-1A4.3,4.3,0,0,0,586.93,338.75Zm2.08-7.52h-3.34v4.92h3.25a9.11,9.11,0,0,0,2.2-.23,2.57,2.57,0,0,0,1.36-.77,2.21,2.21,0,0,0,.47-1.5,2.32,2.32,0,0,0-.38-1.31,2.28,2.28,0,0,0-1-.85A7.52,7.52,0,0,0,589,331.23Z" transform="translate(-226.55 -253.42)"/><path class="cls-1" d="M612.46,331.31h-8.17v4.39h7.52a1.79,1.79,0,0,1,1.24.37,1.26,1.26,0,0,1,.41,1,1.31,1.31,0,0,1-.4,1,1.75,1.75,0,0,1-1.25.38h-7.52v5.09h8.45a1.85,1.85,0,0,1,1.29.4,1.36,1.36,0,0,1,.43,1.06,1.33,1.33,0,0,1-.43,1,1.85,1.85,0,0,1-1.29.4h-9.85a1.9,1.9,0,0,1-2.22-2.22V330.73a3,3,0,0,1,.23-1.28,1.44,1.44,0,0,1,.73-.72,3.06,3.06,0,0,1,1.26-.23h9.57a1.86,1.86,0,0,1,1.29.38,1.3,1.3,0,0,1,.42,1,1.32,1.32,0,0,1-.42,1A1.86,1.86,0,0,1,612.46,331.31Z" transform="translate(-226.55 -253.42)"/></svg>