<svg xmlns="http://www.w3.org/2000/svg" width="166" height="95" fill="#c8102e" fill-rule="nonzero"><path d="M133.383 57.523v-.015c.16-.033.28-.17.3-.335a.4.4 0 0 0-.137-.31c-.15-.08-.32-.117-.49-.104-.18-.002-.358.013-.534.044v1.405h.324v-.564h.154c.182 0 .265.07.3.223a1.25 1.25 0 0 0 .112.335h.35a1.21 1.21 0 0 1-.104-.35c-.02-.148-.12-.273-.257-.328zm-.387-.102h-.154v-.402a.73.73 0 0 1 .182-.02c.202 0 .3.087.3.214s-.145.208-.327.208z"/><path d="M133.06 56.077a1.414 1.414 0 1 0 .041 2.827 1.41 1.41 0 0 0 1.395-1.421 1.42 1.42 0 0 0-.427-1.002c-.27-.264-.632-.4-1-.403zm0 2.527a1.12 1.12 0 0 1-1.071-.66c-.2-.42-.104-.9.214-1.242a1.12 1.12 0 0 1 1.23-.261c.424.174.7.6.697 1.05a1.08 1.08 0 0 1-.3.784 1.07 1.07 0 0 1-.77.33zM99.3 36.07h-7.06c-2.85 0-3.494.9-3.494 3.3v16.422L80.253 38.6c-1.013-1.9-1.985-2.83-3.48-2.814-1.6.02-2.544.963-3.34 2.814l-8.457 17.13-4.37-17.13c-.5-1.983-1.823-2.814-3.34-2.814s-2.67.784-3.365 2.814l-5.3 17.2-5.2-17.2c-.644-2.03-1.836-2.814-3.36-2.814s-2.816.83-3.317 2.814l-5.21 20.46h3.48l5.067-19.93 5.285 17.472c.55 1.8 1.94 2.63 3.275 2.582 1.336.047 2.706-.784 3.305-2.582l5.344-17.526 4.37 17.067c.5 2.122 1.75 3.046 3.3 3.046 1.474 0 2.532-1.117 3.302-2.582l8.542-17.32 3.96 7.945h-5.798l-1.67 3.33h9.093l3.038 6.05c.988 1.8 1.633 2.582 3.43 2.582 1.836 0 3.32-.725 3.32-4.754l.013-14.988h7.345c4.047 0 4.8 2.093 4.8 3.756s-.835 3.987-4.876 4.006H94v3.294l5.215.01c6.392 0 8.784-3.026 8.784-7.318s-2.44-7.12-8.696-7.12zm30.075 7.17c0-4.294-2.436-7.158-8.743-7.158h-9.986c-2.347 0-2.347 3.364 0 3.364h10.175c4.048 0 4.876 2.13 4.876 3.793s-.835 3.83-4.876 3.83l-10.95.04.038 11.917h3.397l-.028-8.63h6.9l6.025 8.6h4.102l-6.26-8.93c3.506-.74 5.33-3.488 5.33-6.814z"/></svg>