<svg xmlns="http://www.w3.org/2000/svg" xmlns:xlink="http://www.w3.org/1999/xlink" width="166" height="94"><defs><path id="A" d="M.146.043H107.12v25.59H.146z"/></defs><g transform="translate(26 34.07)" fill="none" fill-rule="evenodd"><g transform="translate(6.77 .174)"><mask id="B" fill="#fff"><use xlink:href="#A"/></mask><path d="M100.79 12.673c-.727-.65-1.498-1.012-2.538-1.012-1.114 0-1.944.39-2.67 1.08-.655.652-1.057 1.516-1.16 2.752h7.622c-.138-1.25-.605-2.168-1.254-2.82zM38.557 16.97c0-2.54-1.7-4.6-3.772-4.6s-3.772 2.06-3.772 4.6 1.7 4.6 3.772 4.6 3.772-2.06 3.772-4.6zm18.255.033c0-2.54-1.7-4.6-3.772-4.6s-3.77 2.06-3.77 4.6 1.688 4.6 3.77 4.6 3.772-2.06 3.772-4.6zm18.535 1.712l.002-3.4c-.566-1.868-2.037-3.21-3.807-3.21-2.27 0-4.02 2.15-4.02 4.846s1.75 4.93 4.02 4.93c1.77 0 3.24-1.314 3.804-3.167zm-75.2 6.35V15.14c.007-1.4.32-2.583.943-3.582.2-.32.43-.62.688-.895.666.608 1.708 1 2.876 1 2.01 0 3.643-1.158 3.643-2.583 0-.213-.037-.42-.105-.617 1.278.085 2.396.345 3.354.786.43.198.823.428 1.18.686.356-.258.75-.49 1.18-.686 1.07-.49 2.34-.76 3.81-.808h.15c1.468.048 2.74.317 3.81.808 1.17.54 2.068 1.308 2.69 2.31s.937 2.192.943 3.582v9.923h-5.132l.01-9.534c.017-1.127-.25-2.018-.856-2.613-1.186-.804-2.212-.73-3.145.024-.605.595-.9 1.458-.882 2.587v9.536H10.05l.01-9.534c.017-1.127-.25-2.018-.856-2.613-1.186-.804-2.214-.73-3.145.024-.605.595-.9 1.458-.884 2.587v9.536H.146zm82.78.046h4.9V.043h-4.9V25.11zm8.085-2.46c-1.223-1.488-1.87-3.365-1.907-5.633.04-2.622.878-4.742 2.505-6.362 1.668-1.533 3.78-2.3 6.33-2.3 2.867 0 5.045.88 6.702 2.485s2.544 4.26 2.472 7.572H94.098c.037 1.282.566 2.105 1.352 2.82s1.883.973 3.055.973c.708 0 1.387-.187 2.014-.556.546-.37 1.112-.745 1.39-1.566h5.14c-.653 1.58-2.018 3.206-3.426 4.03s-3.056 1.32-5.172 1.32c-3.35 0-5.83-.928-7.438-2.785zM67.34 24.86a7.83 7.83 0 0 1-2.546-1.781c-.732-.767-1.302-1.668-1.715-2.707s-.62-2.177-.63-3.417c.01-1.238.216-2.372.627-3.404s.98-1.922 1.708-2.678 1.566-1.34 2.522-1.755 1.98-.623 3.075-.63c1 .007 1.874.144 2.623.413s1.398.643 1.937 1.12l.406.35V.076h4.9V25.14h-4.9v-1.464l-.083.065c-.34.32-.72.602-1.142.85-1.01.59-2.232.895-3.66.908-1.116-.006-2.156-.22-3.123-.64zm-36.026.084c-1.074-.43-2.016-1.034-2.824-1.812a8.41 8.41 0 0 1-1.893-2.735c-.452-1.047-.68-2.2-.7-3.428.01-1.238.238-2.38.7-3.428a8.41 8.41 0 0 1 1.893-2.735c.808-.778 1.75-1.382 2.824-1.812s2.24-.65 3.5-.656c1.262.007 2.43.226 3.5.656s2.01 1.034 2.81 1.812a8.31 8.31 0 0 1 1.869 2.735c.446 1.047.67 2.2.68 3.428-.01 1.238-.234 2.38-.68 3.428a8.31 8.31 0 0 1-1.869 2.735c-.8.778-1.736 1.382-2.81 1.812s-2.24.65-3.5.656c-1.25-.007-2.415-.224-3.5-.656zm18.255.033c-1.074-.43-2.016-1.034-2.824-1.812s-1.44-1.7-1.89-2.735-.684-2.2-.7-3.428c.007-1.238.238-2.38.7-3.428a8.37 8.37 0 0 1 1.891-2.735c.808-.778 1.75-1.382 2.824-1.812s2.24-.65 3.5-.656c1.262.007 2.43.226 3.5.656s2.01 1.034 2.81 1.812a8.31 8.31 0 0 1 1.869 2.735c.446 1.047.673 2.2.68 3.428-.007 1.238-.234 2.38-.68 3.428s-1.068 1.957-1.87 2.735-1.736 1.382-2.81 1.812-2.24.65-3.5.656c-1.25-.007-2.415-.224-3.5-.656z" fill="#f99305" mask="url(#B)"/></g><path d="M2.848 17.134c-.004-2.02.175-4.045-.146-5.926-.07-.406.727-.256.197-1.175l-2.815.07 2.81-.074c0-.004.28-.01.28-.01l8.803-.235 8.952-6.18-5 3.477c.8.732 1.46 1.48 1.767 2.266-1.4 1.382-2.74 2.824-3.826 4.516-.295.393-.723.54-1.267.482-1.575-.59-3.36-1.073-5.545-1.358-.293-1.05-.44-1.985-.01-3.058l-3.863.096c.063.17.404.7.363.878-.068.26-.557.523-.463.7.08.16.48.55.44.75-.133.68-.376 2.394-.3 3.158.155 1.4.935 3.84.487 5.09-.15.415-.46 2.41-.48 2.815-1.33-1.912-.382-4.607-.384-6.293" fill="#000"/><path fill="#666" d="M11.89 9.575L0 9.892 9.732 4.4l11.112-1.004z"/></g></svg>