<svg xmlns="http://www.w3.org/2000/svg" width="166" height="94" fill-rule="evenodd"><path d="M40 60.283l2.3-.012c.212-.004.307.076.394.262l4.68 9.932c.13-.068.153-.193.2-.296l3.622-7.842.83-1.812c.077-.174.17-.25.372-.245l2.033.003c.165-.001.255.04.232.223-.008.065-.001.133-.001.2v15.688c0 .446.056.41-.408.412-.622.001-1.244.003-1.866-.001-.24-.001-.244-.007-.247-.24v-1.03-9.647c-.127.133-.16.248-.21.353l-3.424 7.238c-.122.26-.263.362-.55.34-.387-.027-.778-.018-1.166-.003-.226.01-.355-.053-.46-.273l-3.58-7.384c-.032-.066-.046-.146-.146-.193-.05.13-.027.26-.027.384L42.57 76.35c0 .504.046.445-.442.447a251.81 251.81 0 0 1-1.8 0c-.1 0-.223.02-.33-.025V60.283z" fill="#03aae5"/><path d="M126 64.34c-.1.107-.1.26-.182.38a1.3 1.3 0 0 1-1.561.456 1.28 1.28 0 0 1-.775-1.394c.103-.584.608-1.022 1.204-1.044.626-.023 1.073.3 1.272.9.006.02.028.033.042.05v.665z" fill="#07abe5"/><path d="M80.933 17.004H82.6c.02.044.01.08-.032.105-.534.1-1.07.1-1.604.001-.04-.026-.05-.062-.03-.106" fill="#b0e4f7"/><path d="M79.867 76.97h-.933c-.02-.042-.012-.075.026-.102.293-.092.587-.092.88 0 .038.027.047.06.026.102" fill="#64cbef"/><path d="M103.933 76.97h-.8c-.02-.04-.013-.074.025-.1a1.1 1.1 0 0 1 .751 0c.037.027.045.06.024.1" fill="#76d1f1"/><path d="M61.4 76.97h-.733a.07.07 0 0 1 .024-.1.95.95 0 0 1 .686 0c.037.027.044.06.023.1" fill="#65cbef"/><path d="M91.067 76.97h-.533c-.022-.038-.015-.07.02-.098a.56.56 0 0 1 .495 0c.034.027.04.06.02.098" fill="#75d0f1"/><path d="M91.867 76.97H91.4c-.022-.037-.016-.07.018-.096.144-.072.288-.072.432 0 .033.027.04.06.017.097" fill="#77d1f1"/><path d="M82.602 17.063l-.002-.06h.333l.001.063c-.112.098-.222.1-.332-.003m-1.67-.06l-.002.06c-.1.103-.22.1-.332.003v-.063h.333z" fill="#dff4fb"/><path d="M78.927 76.913c.004.02.006.038.006.058H78.6a.43.43 0 0 0-.001-.064c.11-.095.22-.098.328.006" fill="#bde8f8"/><path d="M91.405 76.914l-.005.056h-.333l-.005-.057a.22.22 0 0 1 .344 0" fill="#4bc2ec"/><path d="M91.867 76.97c.001-.02.002-.038.005-.057.107-.106.217-.103.33-.007-.002.02-.002.042-.001.064h-.333z" fill="#c3ebf9"/><path d="M60.66 76.915l.006.055H60.4c-.003-.02-.004-.038-.005-.057.09-.087.178-.087.266.002" fill="#a3e0f5"/><path d="M61.4 76.97c0-.02.002-.04.006-.058.085-.085.172-.083.26-.006-.002.02-.002.043-.001.064H61.4z" fill="#bfe9f8"/><path d="M79.867 76.97l.005-.056c.07-.087.155-.08.246-.038.033.027.038.058.016.094h-.267z" fill="#95dbf4"/><path d="M90.53 76.913c.003.02.004.038.004.058h-.267c-.022-.036-.017-.067.016-.094.1-.043.175-.048.247.036" fill="#b2e5f7"/><path d="M102.733 76.97l-.001-.063c.075-.08.16-.076.252-.032.033.027.04.058.017.095h-.267z" fill="#bfe9f8"/><path d="M103.933 76.97l.005-.056c.086-.088.173-.086.263-.006l-.002.062h-.267z" fill="#bce8f8"/><path d="M80.133 76.97l.004-.057c.065-.065.13-.064.198-.002l-.002.06h-.2z" fill="#d0effa"/><path d="M90.265 76.91l.002.06h-.2v-.064a.13.13 0 0 1 .199.005" fill="#ddf3fb"/><path d="M103 76.98c0-.02-.002-.042-.005-.063.046-.05.092-.05.14-.001v.065H103z" fill="#77d1f1"/><path d="M80.6 17.066l.332-.003h1.67l.332.003c1.508.124 2.995.358 4.45.8 6.807 2.022 11.988 7.504 13.6 14.405a19.01 19.01 0 0 1 .413 6.073c-.688 7.5-5.538 13.55-11.904 16.24-1.863.788-3.8 1.293-5.817 1.466-5.592.48-10.55-1.072-14.808-4.714-3.226-2.76-5.314-6.238-6.282-10.37a18.87 18.87 0 0 1-.461-5.507 19.03 19.03 0 0 1 4.29-11.06c2.95-3.637 6.738-5.94 11.328-6.93.946-.204 1.906-.302 2.867-.394M90.265 76.9l-.2-.005c-.714-.102-1.426-.2-2.108-.463-.975-.36-1.814-.92-2.537-1.656.01-.114.098-.158.156-.217l1.302-1.286c.183-.18.187-.182.363-.02.96.896 2.108 1.318 3.407 1.4.702.04 1.397.03 2.083-.144.237-.06.466-.144.686-.252 1-.498 1.408-1.432 1.28-2.443-.142-1.112-.72-1.732-1.82-1.957-.88-.18-1.777-.27-2.665-.403-.852-.13-1.67-.363-2.408-.82-1.083-.672-1.658-1.66-1.8-2.9-.115-.943-.03-1.86.348-2.734.583-1.342 1.644-2.14 3.015-2.563 1.025-.315 2.078-.338 3.135-.25 1.03.087 2.007.36 2.9.893a7.98 7.98 0 0 1 1.098.807c.1.085.14.154.023.265l-1.478 1.445-.195-.154c-1.362-1.113-2.93-1.336-4.584-.944-1.368.324-2.107 1.625-1.794 2.968a1.83 1.83 0 0 0 .826 1.16c.504.325 1.065.484 1.652.577l2.856.468c.62.15 1.207.377 1.728.754.697.504 1.185 1.16 1.442 1.98a5.35 5.35 0 0 1 .135 2.756c-.283 1.326-1.07 2.288-2.242 2.948-.684.385-1.426.606-2.2.73l-.46.07-.33.007h-.8l-.533-.001-.264-.001m-9.927.005l-.198.002-.266.001-.944-.002-.328-.006-.848-.168c-1.56-.403-2.604-1.378-3.15-2.88-.426-1.175-.516-2.396-.436-3.634.053-.8.198-1.604.5-2.358.603-1.45 1.62-2.443 3.177-2.822 1.027-.25 2.053-.217 3.053.127 1.566.538 2.483 1.685 2.953 3.227a6.4 6.4 0 0 1 .28 1.765l.01 1.196c-.001.228-.007.23-.245.235h-6.997c-.436 0-.407-.047-.384.42a3.55 3.55 0 0 0 .28 1.224c.384.898 1.073 1.414 2.025 1.595.508.096 1.018.072 1.525-.01.63-.1 1.174-.4 1.65-.8.115-.102.213-.226.376-.312l.818.765.562.52c.1.088.093.15 0 .24-.818.8-1.753 1.4-2.9 1.598l-.526.086m22.8-.006l-.14.001-.263-.006c-.448-.082-.894-.172-1.313-.358-1.473-.65-2.356-1.788-2.66-3.346-.3-1.6-.318-3.197.047-4.782.457-1.986 2.04-3.313 4.07-3.5.8-.074 1.6-.016 2.364.254 1.623.574 2.585 1.74 2.953 3.4.254 1.145.242 2.3.17 3.472-.035.564-.115 1.123-.3 1.664-.563 1.74-1.76 2.77-3.545 3.132l-.327.064-.263.006-.805-.001m-41.453-.007l-.26.006-.745.003-.266-.002c-.667-.095-1.3-.288-1.86-.678-.867-.604-1.346-1.448-1.537-2.473-.086-.46-.1-.926-.1-1.4l-.003-7.08c.007-.258.007-.263.26-.265l1.933-.002c.145-.006.202.056.2.197-.006.077-.001.155-.001.233v6.647a4.29 4.29 0 0 0 .101.955c.285 1.257 1.234 1.807 2.43 1.757.543-.023 1.05-.182 1.47-.547.497-.432.722-.997.8-1.634.02-.187.018-.376.018-.564l.001-6.746c.004-.3.004-.293.297-.294h1.8c.287.001.3.005.3.3v11.034c-.001.5.068.43-.45.434h-1.6c-.277-.001-.28-.005-.282-.272v-.803c-.075-.02-.097.005-.12.027-.62.6-1.368.97-2.22 1.126-.044.008-.086.02-.13.03m51.498-4.972l.001 4.652c.02.182-.07.226-.237.225a86.82 86.82 0 0 0-1.933 0c-.18.002-.225-.072-.222-.237l.003-1.196-.001-7.875c0-.497.067-.427-.45-.433-.233-.003-.467-.006-.7.001-.142.004-.2-.05-.197-.192v-1.43c-.002-.145.058-.194.198-.2l.833.001c.313-.002.315-.003.317-.306l.007-1.66a3.38 3.38 0 0 1 .298-1.353c.438-.978 1.203-1.535 2.253-1.715.662-.113 1.33-.04 1.995-.06.124-.004.182.04.18.172v1.695c.001.133-.068.172-.186.17a30 30 0 0 0-.6.001c-.155.001-.3-.001-.466.01-.597.045-1.004.405-1.067.995-.068.628-.017 1.262-.026 1.893-.002.168.115.16.23.16h1.566c.55 0 .55 0 .55.535l-.001 1.03c-.003.236-.007.24-.24.242l-1.8.002c-.302.001-.305.003-.305.312v4.552m5.15-1.388v-3.2c0-.284-.003-.286-.295-.288-.278-.002-.555-.007-.833.002-.152.005-.22-.038-.218-.204V65.46c-.002-.154.043-.22.207-.215l.9.001c.233-.003.238-.007.24-.245l.001-2.957c.001-.407-.042-.372.376-.373h1.732c.268.001.272.005.272.28v3.1c-.013.16.06.2.216.2h1.9c.106-.002.166.038.165.154l.001 1.495c.001.172-.113.16-.226.16-.533 0-1.066-.003-1.6.001-.52.004-.453-.074-.453.46v5.68c0 .232-.01.466.05.694.143.543.522.847 1.112.875l.9.003c.15-.003.22.037.22.204l-.002 1.628c.001.116-.028.194-.164.2-.687-.02-1.38.065-2.06-.075a2.91 2.91 0 0 1-2.363-2.403c-.05-.272-.08-.546-.077-.825l.002-2.957m-49.596-3.38V60.65c0-.406-.04-.37.378-.372l1.766.001c.237.001.237.007.244.24v12.83c0 .2-.003.42.054.626.142.513.464.77 1.05.796l.966.007c.252.003.255.006.257.26l.001 1.53c0 .113.01.234-.157.23-.73-.02-1.467.066-2.193-.082a2.81 2.81 0 0 1-2.307-2.44 5.62 5.62 0 0 1-.062-.86l.002-6.25" fill="#03aae5"/><path d="M125.794 64c.003.602-.445 1.076-1.023 1.084-.606.008-1.054-.45-1.054-1.08 0-.6.438-1.06 1.032-1.063.586-.002 1.04.46 1.045 1.058" fill="#fdfeff"/><path d="M81.753 54.62c-9.964-.026-18.036-8.098-17.94-18.1.095-9.802 8.1-17.748 18.004-17.723s17.95 8.047 17.906 17.987c-.043 9.865-8.06 17.817-17.97 17.826m-2.616 15.32c-.8 0-1.577.002-2.366-.001-.256-.001-.254-.006-.252-.257.004-.448.1-.88.27-1.3.447-1.015 1.254-1.503 2.336-1.514 1.072-.01 1.873.468 2.336 1.458.185.396.28.814.322 1.247.033.355.032.357-.315.357h-2.332m26.85.985c.033.642.022 1.283-.12 1.915-.216.964-.748 1.645-1.734 1.903-1.26.33-2.56-.284-2.948-1.597a5.98 5.98 0 0 1-.2-.975 13.35 13.35 0 0 1 .003-2.552 4.42 4.42 0 0 1 .22-1.036c.428-1.243 1.563-1.675 2.57-1.544 1.14.15 1.82.795 2.075 1.938a4.54 4.54 0 0 1 .119.753l.005 1.194" fill="#fff"/><path d="M125.36 64.695c-.147.08-.233.04-.3-.07l-.266-.42c-.054-.086-.133-.12-.227-.092s-.078.12-.08.196l-.006.33c-.003.063-.042.097-.107.098s-.106-.033-.106-.098l-.002-1.257c0-.108.078-.118.16-.118l.53.005c.23.015.346.11.384.295.045.22-.012.358-.197.476-.037.023-.078.04-.146.075l.362.58" fill="#08ace6"/><path d="M90.178 32.098c-.122.05-.16.16-.22.25L83.9 41.372a.58.58 0 0 1-.56.303l-3.266-.002c-.212.002-.34-.058-.46-.238l-6-8.942c-.09-.135-.166-.285-.293-.396-.117.075-.164.192-.225.295a9.1 9.1 0 0 0-1.291 4.009c-.2 2.425.45 4.603 1.945 6.525.74.95 1.652 1.698 2.716 2.264.33.175.33.175.232.552l-1.086 4.176c-.027.106-.08.155-.2.093l-.178-.1c-4.165-2.15-6.868-5.484-7.847-10.056-1.04-4.864.166-9.216 3.458-12.97.905-1.032 1.966-1.89 3.13-2.62a7.9 7.9 0 0 1 .287-.169c.017-.01.04-.01.09-.022l7.404 11.548c.153-.108.213-.256.296-.383l7.034-10.816c.245-.377.143-.388.56-.117 3.54 2.293 5.81 5.488 6.594 9.624.886 4.667-.272 8.848-3.36 12.476-1.103 1.296-2.427 2.335-3.912 3.168l-.204.113c-.235.12-.24.122-.305-.126l-1.132-4.302c-.048-.18.005-.254.145-.342 2.292-1.445 3.65-3.526 4.108-6.17.397-2.3-.03-4.472-1.257-6.473-.04-.065-.09-.125-.134-.187" fill="#03aae5"/><path d="M124.737 63.453c.262.003.378.072.382.224.004.145-.126.234-.366.243-.084.003-.194.035-.242-.056-.058-.108-.053-.24-.005-.35.042-.097.155-.053.23-.062" fill="#edf8fd"/></svg>