<svg xmlns="http://www.w3.org/2000/svg" width="166" height="95" fill-rule="evenodd"><path d="M151.2 49.656c-.01-.747.058-1.5-.21-2.223-.243-.657-.657-1.136-1.347-1.327-1.312-.362-2.467.323-2.714 1.696-.22 1.225-.175 2.47-.01 3.706.01.066.035.13.054.193.303 1.013 1.02 1.57 2.025 1.576 1.01.006 1.746-.567 2.05-1.59.2-.667.14-1.352.15-2.032zm2.723 1.756c-.135.176-.11.396-.16.595-.535 2.22-2.127 3.526-4.45 3.622-1.17.05-2.284-.152-3.267-.84-1.067-.745-1.653-1.81-1.84-3.07-.205-1.375-.232-2.776.003-4.144.436-2.543 2.296-3.98 4.905-3.912 1.453.038 2.734.458 3.695 1.618.6.725.904 1.58 1.047 2.5.01.07-.027.162.068.206v3.425z" fill="#801b55"/><path d="M62.976 47.62v6.848c0 .716-.276.993-.99.994-.634.001-1.27-.026-1.902.008-.66.035-1.05-.255-1.316-.85l-4.364-9.63c-.08-.178-.104-.51-.344-.456-.187.043-.087.357-.087.548l-.004 9.566c0 .814 0 .814-.792.814-.4 0-.8.002-1.202-.001-.426-.003-.56-.133-.56-.56l-.001-13.695c0-.833.265-1.097 1.102-1.097l1.77-.008c.58-.037.902.224 1.128.733l2.676 5.95 2.08 4.604s.066.16.162.142.093-.11.095-.19l.001-.268V40.736c0-.54.082-.625.614-.626h1.335c.535.001.6.066.6.594v6.915" fill="#801a54"/><path d="M80.4 49.636l-.006 3.353c-.002.222.072.292.28.302l1.663.098c1.21.022 1.945-.564 2.126-1.765.185-1.23.13-2.473.036-3.71-.02-.253-.085-.508-.17-.748-.232-.66-.683-1.09-1.385-1.207-.787-.13-1.572-.028-2.357.05-.226.022-.187.17-.187.3v3.32m-2.73 2.294v-6.98c0-.533.055-.618.56-.748 1.582-.404 3.188-.607 4.822-.51 2.184.13 3.754 1.508 4.088 3.676.25 1.62.285 3.258-.065 4.87-.425 1.953-1.858 3.155-3.84 3.35-.837.082-1.667.047-2.494-.067-.284-.04-.354.03-.35.318l.007 3.12c-.001.477-.118.595-.588.596a234.83 234.83 0 0 1-1.568 0c-.45-.002-.572-.124-.572-.577V51.93" fill="#801a55"/><g fill="#ea9333"><path d="M42.107 31.067c.03.158-.066.28-.118.4-1.313 3.3-3.127 6.296-5.678 8.798a17.3 17.3 0 0 1-3.658 2.733c-1.77.996-3.5 1-5.296.04-2.194-1.185-4.018-2.793-5.588-4.712-1.724-2.108-3.032-4.462-4.022-6.998-.03-.08-.096-.156-.052-.274.146.074.213.217.305.33 2.395 2.973 5.268 5.316 8.825 6.746 1.197.48 2.437.78 3.743.648 1.153-.116 2.235-.488 3.275-.98 3.16-1.494 5.77-3.682 7.947-6.4l.253-.3c.01-.014.04-.013.065-.02M17.687 64.44c-.025-.178.075-.3.13-.45 1.314-3.287 3.136-6.243 5.688-8.7 1.315-1.27 2.773-2.337 4.45-3.095 1.353-.6 2.67-.622 4.023-.002 1.928.882 3.544 2.177 4.982 3.7 2.265 2.417 3.9 5.23 5.1 8.312.027.07.08.138.038.24-.147-.07-.212-.218-.303-.332-2.3-2.868-5.053-5.156-8.434-6.625-1.266-.55-2.58-.9-3.984-.77-1.164.115-2.26.476-3.315.963-3.203 1.483-5.855 3.67-8.058 6.425-.094.117-.16.265-.318.337"/><path d="M46.524 60.083c-.593-.16-1.143-.43-1.697-.685-3.362-1.558-6.32-3.655-8.636-6.596a14.49 14.49 0 0 1-1.892-3.149c-.58-1.32-.564-2.6.026-3.922.828-1.845 2.036-3.4 3.468-4.805 2.464-2.403 5.36-4.12 8.546-5.367.07-.027.135-.084.25-.04l-1.318 1.1c-2.427 2.183-4.376 4.717-5.7 7.735-1.002 2.302-.958 4.567.032 6.855 1.475 3.4 3.72 6.2 6.583 8.53.12.098.233.204.35.306-.007.01-.015.02-.023.028m-33.193-.025l2.104-1.856c2.015-2.015 3.65-4.287 4.806-6.914 1.092-2.485 1.026-4.905-.127-7.347-1.558-3.3-3.8-6.023-6.658-8.266-.025-.02-.05-.042-.077-.066.103-.097.2-.037.294.001 3.742 1.503 7.074 3.608 9.714 6.72.82.965 1.495 2.022 2.062 3.16.77 1.543.704 3.04-.044 4.568-.948 1.937-2.263 3.582-3.827 5.037-2.323 2.16-5.006 3.742-7.94 4.9-.092.036-.2.054-.286.08l-.02-.026z"/></g><path d="M70.408 48.648l1.937-.001c.117 0 .252.035.253-.166.008-1.55-1.003-2.768-2.714-2.384-1.014.228-1.765 1.364-1.642 2.394.024.204.153.155.263.155l1.903.002m1.262 1.948c-1.046 0-2.093.01-3.14-.007-.263-.004-.3.078-.3.32.062 1.477.964 2.36 2.473 2.364 1.202.004 2.4-.1 3.6-.187.556-.045.6.017.6.584l-.001 1.142c-.001.244-.108.402-.358.45-1.735.327-3.48.554-5.237.242-2.125-.377-3.574-2-3.752-4.173-.107-1.306-.167-2.62.1-3.914.484-2.435 2.296-3.808 4.873-3.752 1.924.042 3.423.786 4.283 2.595a5.31 5.31 0 0 1 .5 2.037l.027 1.712c-.005.5-.116.586-.6.586H71.67m54.675-1.947l1.966-.002c.097-.001.214.05.243-.136.133-.857-.506-2.002-1.315-2.33-1.553-.63-3.203.622-3.04 2.3.02.2.13.168.25.168l1.9.001m1.26 1.948c-1.046 0-2.093.006-3.14-.005-.23-.002-.3.054-.286.298.095 1.553.96 2.4 2.515 2.386l3.566-.188c.538-.044.603.026.603.564l-.01 1.175c-.005.204-.073.378-.303.422-1.8.346-3.637.615-5.462.214-2.15-.473-3.467-2.08-3.6-4.344-.07-1.192-.14-2.398.092-3.582.5-2.547 2.3-3.94 4.906-3.873 1.6.04 2.942.554 3.883 1.9.618.9.86 1.905.9 2.972l.007 1.5c-.004.415-.13.54-.544.54l-3.14.001" fill="#801a55"/><path d="M104.23 54.643c-.15-.002-.238.096-.336.16-1.11.707-2.325.925-3.613.763-1.458-.183-2.342-1.05-2.65-2.564-.14-.683-.18-1.375-.18-2.07l-.002-6.447c0-.56.1-.673.655-.673h1.302c.714 0 .764.05.765.753l.005 6.615c0 .223.027.446.04.67.076 1.242.82 1.512 1.768 1.477.787-.03 1.468-.4 2.152-.762.167-.086.105-.232.105-.355l.003-7.69c0-.632.077-.708.713-.708h1.403c.485.001.608.124.608.616l-.001 10.5c-.006.386-.14.52-.527.523h-1.57c-.528-.001-.618-.09-.626-.623l-.01-.196" fill="#801b55"/><path d="M112.262 44.622l.4-.22c1.245-.76 2.6-.884 3.994-.63 1.306.237 2.106 1.193 2.355 2.705.1.597.137 1.2.136 1.804l-.001 6.546c0 .52-.1.633-.62.635h-1.402c-.604 0-.702-.097-.702-.693l-.003-5.674c-.003-.692.05-1.388-.073-2.076-.112-.622-.387-.878-1.004-1-1.05-.192-1.97.182-2.873.638-.164.083-.114.226-.115.35l-.002 7.453c0 1 0 1-.997 1-.378 0-.757.002-1.135-.001-.455-.002-.573-.118-.573-.576V44.477c0-.6.073-.665.645-.665h1.336c.528.001.623.094.635.617l.01.193m-21.72 4.9l.004-3.4c.001-.197-.03-.292-.258-.317l-1.616-.243c-.368-.06-.47-.183-.472-.558v-.672c.004-.4.124-.528.545-.53l1.536.004c.2.005.275-.043.267-.258l-.01-1.3c-.015-.334.14-.506.444-.56l1.84-.313c.32-.05.454.073.457.404l-.004 1.746c-.007.243.072.3.3.293l1.436-.004c.4.003.527.135.534.516v1.007c-.006.367-.144.508-.504.512-.5.005-1.002.01-1.503-.003-.207-.006-.262.056-.262.263l.01 6.614c.002.653.138.772.797.775l1.102.003c.28.004.434.13.427.433v1.074c.006.266-.107.428-.366.476-1.005.187-2.014.235-3.016.005-.97-.223-1.5-.885-1.62-2.006-.14-1.238-.038-2.482-.07-3.723v-.235" fill="#801a54"/><path d="M141.715 49.634v5.2c0 .52-.108.63-.624.63-.523.002-1.046.004-1.568-.001-.382-.004-.525-.143-.526-.53v-10.6c0-.39.134-.516.528-.52h1.635c.437.002.554.117.555.554v5.267" fill="#811b55"/><path d="M136.263 53.885l-.002 1.107c-.008.335-.138.462-.475.466-.567.007-1.134.007-1.702 0-.33-.004-.464-.142-.466-.472l-.003-2.214c-.001-.29.14-.44.424-.443h1.802c.288.002.42.166.42.45v1.107" fill="#801954"/><path d="M140.352 42.264c-.3 0-.6.006-.9-.002-.356-.01-.51-.16-.516-.51v-1.64c.005-.35.162-.503.52-.507h1.83c.34.004.486.156.5.493v1.674c-.004.336-.152.482-.493.49l-.932.002" fill="#811c56"/><path d="M70.408 48.648c-.634 0-1.27.002-1.903-.002-.11-.001-.24.048-.263-.155-.123-1.03.628-2.166 1.642-2.394 1.71-.384 2.722.833 2.714 2.384-.001.2-.136.165-.253.166l-1.937.001" fill="#fcfbfc"/></svg>