<svg xmlns="http://www.w3.org/2000/svg" xmlns:xlink="http://www.w3.org/1999/xlink" width="166" height="94"><defs><path id="A" d="M.02.047h109.965V19.94H.02z"/></defs><g transform="translate(29 37)" fill-rule="evenodd"><mask fill="#fff" transform="translate(0 .049)"><use xlink:href="#A"/></mask><path d="M79.873.1l1.18.216c2.592.57 4.062 2.256 4.702 4.758.254.994.368 2 .37 3.033l.01 11.04c.001.258-.064.32-.318.315h-2.942c-.26.004-.342-.05-.34-.33L82.54 8.95c-.002-.9-.048-1.797-.277-2.673-.44-1.686-1.4-2.56-3.126-2.772-1.06-.13-2.104-.014-3.068.487-1.188.618-1.8 1.667-2.13 2.923a8.22 8.22 0 0 0-.246 2.032L73.7 19.13c.001.26-.067.316-.318.312a95.86 95.86 0 0 0-2.973 0c-.25.004-.32-.06-.32-.316l.004-9.783c-.002-1-.042-1.98-.265-2.952-.463-2.025-1.68-2.973-3.762-2.92-2.238.056-3.896 1.44-4.52 3.778a9.06 9.06 0 0 0-.298 2.332l.003 9.57c.001.256-.065.32-.32.317l-2.973-.002c-.213.002-.297-.03-.297-.276V.85c0-.213.048-.273.266-.27l2.82-.001c.248-.004.28.085.276.298l-.003 2.3c0 .097-.03.2.047.326.403-.86 1.042-1.486 1.783-2.015A7.26 7.26 0 0 1 66.26.164c.048-.006.104.007.123-.06h.245a.47.47 0 0 0 .368 0h.307c.143.05.286.05.43 0h.245c.65.048 1.287.157 1.9.404 1.22.5 2.15 1.313 2.846 2.416.1.144.157.307.307.458.232-.372.466-.716.75-1.023C74.96 1.08 76.377.27 78.14.136c.03-.002.06-.01.082-.032h.184c.143.05.286.05.43 0h.307a.79.79 0 0 0 .49 0h.245zM29.288.1c.37.14.766.13 1.146.215 3.25.714 5.28 2.744 6.328 5.84.548 1.62.627 3.3.593 5-.003.156-.06.186-.2.182l-.858-.002c-4.578 0-9.156.003-13.734-.007-.28-.001-.33.067-.3.336.168 2.37 1.9 4.133 4.18 4.817 2.85.86 5.2.04 7.08-2.215.206-.248.328-.243.564-.054.7.567 1.43 1.122 2.166 1.654.24.173.193.273.038.46-1.644 2-3.764 3.147-6.326 3.48-2.112.276-4.182.142-6.143-.755-2.672-1.223-4.323-3.325-5.03-6.147-.712-2.84-.477-5.607 1.026-8.167C21.325 2.157 23.613.694 26.542.2c.182-.03.38.005.546-.113h2.207zm-1.425 8.354l5.364.007c.26.002.314-.084.276-.314-.046-.282-.06-.57-.1-.85-.296-1.58-1.015-2.885-2.485-3.657-1.268-.667-2.625-.78-4.018-.528-2.387.434-4.362 2.553-4.638 4.96-.044.382-.044.382.34.382h5.272zM10.7.1c.15.134.344.075.514.103 2.908.472 4.845 2.37 5.367 5.274.1.605.157 1.216.158 1.83l.008 11.807c.001.283-.073.355-.352.35h-2.942c-.258.004-.317-.07-.316-.32V8.104c-.005-1.162-.247-2.272-1-3.214-.67-.85-1.58-1.284-2.632-1.394-1.28-.134-2.508.05-3.6.8C4.74 5.1 4.146 6.272 3.847 7.63c-.145.66-.2 1.33-.2 2.007l.01 9.476c.001.275-.07.336-.336.33l-3.28-.017V.592C.14.492.287.506.42.506h2.844c.425.002.48.055.48.474v2.18C4.767 1.45 6.327.574 8.2.187 8.488.13 8.776.163 9.054.1H9.3c.143.05.286.05.43 0h.368c.143.05.286.05.43 0h.184z" fill="#000"/><path d="M98.204.153L98.207.1h.736c-.005.018-.004.036.002.054a.65.65 0 0 1-.741-.002" fill="#c1c1c1"/><path d="M79.628.1c-.164.137-.327.13-.49 0h.49z" fill="#3b3b3b"/><path d="M9.728.1c-.143.133-.286.133-.43 0h.43zm.797 0c-.143.133-.286.134-.43 0h.43z" fill="#3f3f3f"/><path d="M67.733.1c-.143.136-.286.13-.43 0h.43z" fill="#3c3c3c"/><path d="M78.83.1c-.143.117-.286.15-.43 0h.43z" fill="#414141"/><path d="M66.997.1c-.123.128-.245.14-.368 0h.368z" fill="#3c3c3c"/><path d="M46.714 7.234L50.987.87a.58.58 0 0 1 .568-.293l3.647.008c.096 0 .2-.03.314.038L53.472 3.4 49.27 9.14c-.136.184-.125.3.008.465l7.42 9.784c-.084.087-.18.046-.264.046-1.338.003-2.677-.004-4.015.008a.52.52 0 0 1-.496-.258L46.7 11.743l-.15-.192-5.407 7.69c-.078.1-.142.202-.308.2l-4.138-.006c-.026 0-.053-.012-.108-.026l2.168-2.863 5.26-6.928c.148-.194.126-.3-.012-.482L37.7.816c-.046-.06-.122-.108-.12-.204.085-.057.178-.028.265-.028L41.88.577c.2-.002.308.065.417.225l4.22 6.16.196.272m51.49-7.08l.74.002c4.693.2 8.527 3.556 9.363 8.196.085.472.085.472.572.472h1.006L109 9.74l-2.015 1.973c-.1.1-.152.18-.3.042l-2.857-2.822c-.02-.018-.025-.05-.055-.1.336 0 .648-.013.958.004.218.013.27-.03.22-.262-.516-2.42-2.645-4.5-5.074-4.965-3.054-.573-5.882.84-7.26 3.63-.073.15-.126.188-.292.12l-2.702-1.054c-.204-.076-.17-.162-.1-.307 1.44-3.028 3.8-4.914 7.063-5.644a8.87 8.87 0 0 1 1.608-.193M87.548 11.4l2.775-2.915c.098-.103.16-.118.266-.007L93.39 11.4c-.256 0-.605.013-.953-.005-.228-.012-.295.028-.234.276.77 3.132 3.88 5.288 7.086 4.886 2.376-.298 4.098-1.544 5.178-3.675.1-.196.182-.182.34-.118l2.644 1.033c.166.064.217.123.13.302-1.52 3.153-3.98 5.118-7.438 5.682-3.333.544-6.24-.436-8.635-2.82-1.464-1.458-2.35-3.24-2.7-5.283-.033-.2-.083-.302-.32-.284-.352.027-.708.007-.954.007" fill="#000"/><path d="M100.956 9.813c-.002 1.276-1.052 2.312-2.332 2.303-1.264-.01-2.29-1.044-2.292-2.313C96.33 8.52 97.36 7.492 98.65 7.5c1.278-.003 2.31 1.036 2.307 2.324" fill="#02a3cd"/></g></svg>