<svg xmlns="http://www.w3.org/2000/svg" width="166" height="96"><path d="M74.668 50.545h8.062l-4.263-6.9-7.823 12.494h-3.56L76.6 41.12c.414-.606 1.103-.973 1.868-.973.74 0 1.43.354 1.83.947l9.553 15.033h-3.56l-1.68-2.792H76.45l-1.78-2.792zm36.985 2.792V40.3h-3.02v14.313a1.5 1.5 0 0 0 .439 1.061c.288.29.677.455 1.103.455h13.78l1.78-2.792h-14.08zM61.667 51c2.934 0 5.316-2.387 5.316-5.344S64.6 40.3 61.667 40.3H48.45v15.83h3.02V43.092h9.997c1.404 0 2.532 1.15 2.532 2.565s-1.128 2.564-2.532 2.564l-8.518-.012 9.02 7.92h4.388L60.288 51h1.38zm-31.81 5.13C25.52 56.13 22 52.59 22 48.22s3.52-7.92 7.856-7.92h9.13c4.338 0 7.854 3.55 7.854 7.92s-3.517 7.908-7.855 7.908h-9.13zm8.928-2.792c2.8 0 5.085-2.287 5.085-5.116s-2.276-5.13-5.085-5.13h-8.726c-2.81 0-5.085 2.3-5.085 5.13s2.277 5.116 5.085 5.116h8.726zm57.373 2.792c-4.338 0-7.86-3.537-7.86-7.908s3.523-7.92 7.86-7.92h10.845l-1.768 2.792h-8.876c-2.808 0-5.1 2.3-5.1 5.13s2.282 5.116 5.1 5.116h10.895l-1.78 2.792h-9.315zm36.948-2.792c-2.32 0-4.288-1.566-4.9-3.727h12.913l1.78-2.792h-14.694c.602-2.148 2.57-3.726 4.9-3.726h8.864l1.792-2.792h-10.857c-4.338 0-7.86 3.55-7.86 7.92s3.523 7.908 7.86 7.908h9.315l1.78-2.792h-10.895z" fill="#ea1b22" fill-rule="nonzero"/></svg>