<svg xmlns="http://www.w3.org/2000/svg" width="166" height="94" fill="#048371" fill-rule="nonzero"><path d="M62.173 55.738H59.25V41.8h2.923v13.928zm-.004-15.986h-2.916V36.95h2.916v2.803zM79.034 41.8l-4.07 12.03c-.7 1.967-1.947 2.22-2.957 2.22-1.5 0-2.402-.685-2.934-2.216l-3.393-10h-1.342V41.8h3.502l3.496 11.184c.153.477.247.763.67.763.44 0 .527-.3.67-.763L76.243 41.8h2.8m7.187 11.958c2.262 0 3.664-1.7 3.664-3.74V47.84c0-2.04-1.4-3.74-3.664-3.74-2.395 0-3.662 1.7-3.662 3.74v2.188c0 2.04 1.322 3.74 3.662 3.74m0-11.96c3.782 0 6.42 2.48 6.42 6.03v2.188c0 3.548-2.637 6.03-6.42 6.03s-6.423-2.484-6.423-6.03V47.84c0-3.552 2.643-6.03 6.423-6.03m29.753.444c-1.456-.372-3.732-.642-5.412-.642-3.837 0-6.22 2.405-6.22 6.282v1.526c0 3.873 2.38 6.315 6.22 6.315l1.08-.028V53.37l-1.08.03c-2.087 0-3.5-1.6-3.5-3.98v-1.526c0-2.38 1.404-3.98 3.5-3.98.945 0 2.37.076 2.862.18l.156.034.003 11.6h2.92v-13c0-.248 0-.343-.53-.483m3.348 13.493h2.922V36.95h-2.922zm-70.247-18.8h-5.128v18.787h3.04V39.56h1.782l1.024.025c2.634.05 3.924 1.1 3.924 3.124l.005.22c0 1.883-1.04 3.132-3.913 3.132-.274 0-.557-.006-.85-.004l-.004 2.525.858.026c4.12 0 7.032-1.6 7.032-5.652l-.004-.243c0-4.2-3.17-5.766-7.765-5.766m48.756 1.86V41.8h4.76v2.25h-4.76v8.116c0 1.273.82 1.308 2.005 1.308h2.756v2.253h-3.73c-2.758 0-3.987-1.097-3.987-3.56V39.2l2.956-.403"/></svg>