<svg xmlns="http://www.w3.org/2000/svg" width="166" height="96"><path d="M23.234 57.33v-1.22c0-.25.126-.373.38-.373h1.315V42.806h-1.315c-.253 0-.38-.124-.38-.373V41.19c0-.25.126-.373.38-.373l5.384-.15c4.382 0 6.572 1.542 6.572 4.626 0 1.078-.278 2.027-.834 2.848a5.36 5.36 0 0 1-2.225 1.878l2.958 5.72h1.567c.253 0 .38.124.38.373v1.22c0 .25-.126.373-.38.373H33.7a.59.59 0 0 1-.556-.323l-3.437-6.7H29.2c-.54 0-1.02-.025-1.44-.075v5.123h1.593c.253 0 .38.125.38.373v1.22c0 .25-.126.373-.38.373h-5.738c-.253 0-.38-.124-.38-.373zm4.525-14.6v5.994c.135.017.33.025.582.025 1.365 0 2.427-.265 3.185-.796s1.138-1.326 1.138-2.388c0-1.9-1.33-2.835-3.994-2.835h-.9zm16.734 15.27c-2.005 0-3.476-.576-4.41-1.728s-1.403-2.678-1.403-4.576.497-3.47 1.49-4.713 2.427-1.865 4.297-1.865c.927 0 1.723.17 2.39.5s1.175.8 1.53 1.38c.674 1.128 1.01 2.43 1.01 3.905 0 .696-.034 1.078-.1 1.144s-.194.1-.38.1h-7.432c.084 1.194.383 2.118.897 2.773s1.403.982 2.667.982c.927 0 1.88-.215 2.857-.647.236-.116.404-.05.505.2l.48 1.144c.084.2.008.365-.227.498-1.112.597-2.502.895-4.17.895zm-3.008-7.685h5.258c.034-2.073-.792-3.11-2.477-3.11-.994 0-1.698.31-2.11.933s-.636 1.347-.67 2.176zm13.7-2.885V53.7c0 .78.1 1.343.303 1.69s.58.522 1.138.522 1.095-.116 1.618-.348c.185-.066.32 0 .404.2l.455 1.144a.69.69 0 0 1 .025.212c0 .09-.084.186-.253.286-.81.398-1.77.597-2.882.597-1.5 0-2.486-.38-2.957-1.144-.337-.498-.53-.978-.582-1.443a18.72 18.72 0 0 1-.101-1.99v-5.994h-1.44c-.253 0-.38-.124-.38-.373v-1.293c0-.25.126-.373.38-.373h1.44v-3.358c0-.25.126-.373.38-.373h2.073c.253 0 .38.124.38.373v3.358h2.553c.253 0 .38.124.38.373v1.293c0 .25-.126.373-.38.373h-2.553zm4.803-6.615v-1.293c0-.25.126-.373.38-.373h3.817c.253 0 .38.124.38.373v7.66a4.49 4.49 0 0 1 3.918-2.064c2.612 0 3.918 1.41 3.918 4.228v6.392h1.49c.253 0 .38.124.38.373v1.22c0 .25-.126.373-.38.373h-5.536c-.253 0-.38-.124-.38-.373v-1.22c0-.25.126-.373.38-.373h1.214V50.6c0-1.044-.135-1.807-.405-2.288s-.826-.72-1.668-.72-1.542.25-2.098.746-.834 1.06-.834 1.69v5.72h1.542c.253 0 .38.124.38.373v1.22c0 .25-.126.373-.38.373h-5.738c-.253 0-.38-.124-.38-.373v-1.22c0-.25.126-.373.38-.373h1.365V41.19h-1.365c-.253 0-.38-.124-.38-.373zM79.83 55.74h1.593c.253 0 .38.124.38.373v1.22c0 .25-.126.373-.38.373h-6.016c-.253 0-.38-.124-.38-.373v-1.22c0-.25.126-.373.38-.373H77v-8.307h-1.365c-.253 0-.38-.124-.38-.373v-1.293c0-.25.126-.373.38-.373h3.817c.253 0 .38.124.38.373v9.973zm-3.54-13.828c0-.514.164-.94.493-1.28s.767-.5 1.315-.5.986.17 1.314.5.493.767.493 1.28-.168.937-.505 1.268-.78.497-1.327.497-.982-.166-1.302-.497-.48-.755-.48-1.27zm6.395 5.173v-1.318c0-.25.126-.373.38-.373h3.438c.22 0 .354.124.405.373l.227 1.443c.944-1.393 2.292-2.09 4.044-2.09 2.612 0 3.918 1.41 3.918 4.228v6.392h1.466c.253 0 .38.124.38.373v1.22c0 .25-.126.373-.38.373h-5.51c-.253 0-.38-.124-.38-.373v-1.22c0-.25.126-.373.38-.373h1.214V50.6c0-1.044-.135-1.807-.405-2.288s-.826-.72-1.668-.72-1.542.25-2.098.746-.834 1.06-.834 1.69v5.72h1.567c.253 0 .38.124.38.373v1.22c0 .25-.126.373-.38.373h-5.738c-.253 0-.38-.124-.38-.373v-1.22c0-.25.126-.373.38-.373h1.34v-8.307h-1.365c-.253 0-.38-.116-.38-.348zm19.843-7.56v9.923h1.29l3.918-3.78c.185-.182.404-.273.657-.273h1.97c.253 0 .38.124.38.373v1.293c0 .25-.126.373-.38.373h-1.542l-2.78 2.66 3.463 5.646h1.49c.253 0 .38.125.38.373v1.22c0 .25-.126.373-.38.373h-3.26c-.236 0-.43-.108-.582-.323l-3.792-6.02h-.834v4.377h1.34c.253 0 .38.124.38.373v1.22c0 .25-.126.373-.38.373h-5.51c-.253 0-.38-.124-.38-.373v-1.22c0-.25.126-.373.38-.373h1.34V41.165h-1.365c-.253 0-.38-.124-.38-.373v-1.27c0-.25.126-.373.38-.373h3.817c.253 0 .38.124.38.373zm10.5 1.293l4.803-.15 2.338.062c.514.04 1.1.128 1.757.26s1.243.31 1.757.535 1.032.543 1.555.957c.515.407.96.894 1.315 1.443.775 1.26 1.163 2.885 1.163 4.875 0 3-.843 5.235-2.528 6.703s-3.985 2.2-6.9 2.2h-5.258c-.253 0-.38-.124-.38-.373v-1.22c0-.25.126-.373.38-.373h1.315V42.83h-1.315c-.253 0-.38-.124-.38-.373v-1.27c0-.25.126-.373.38-.373zm10.124 13.156c1.02-1.194 1.53-2.827 1.53-4.9s-.476-3.648-1.428-4.725-2.44-1.617-4.462-1.617h-1.618v13.032h1.668c1.854 0 3.3-.597 4.3-1.79zm6.635 3.358v-1.22c0-.25.126-.373.38-.373h1.34V42.83h-1.315c-.253 0-.38-.124-.38-.373v-1.27c0-.265.126-.398.38-.398l5.764-.124c1.82 0 3.273.344 4.36 1.032s1.63 1.67 1.63 2.947c0 .928-.29 1.737-.872 2.425s-1.268 1.2-2.06 1.505c1.298.2 2.288.67 2.97 1.418S143 51.65 143 52.73c0 1.41-.53 2.55-1.593 3.42s-2.47 1.364-4.22 1.48l-3.488.075h-3.54c-.253 0-.38-.124-.38-.373zm4.55-7.46v5.92h1.137c1.483 0 2.633-.232 3.45-.696s1.226-1.268 1.226-2.412c0-1.873-1.33-2.8-3.994-2.8h-1.82zm0-7.188v5.124h.96c2.494 0 3.74-.854 3.74-2.562 0-.962-.303-1.63-.9-2.002s-1.475-.56-2.604-.56h-1.188z" fill="#204956" fill-rule="nonzero"/></svg>