<svg xmlns="http://www.w3.org/2000/svg" width="166" height="94" fill-rule="nonzero"><path d="M62.986 46.286a20.93 20.93 0 0 1-1.384-7.539c.028-11.64 9.44-21.067 21.046-21.077a20.78 20.78 0 0 1 2.978.215l-2.372 2.384a18.29 18.29 0 0 0-.648-.013c-10.177.012-18.424 8.284-18.436 18.5a18.53 18.53 0 0 0 .7 5.03h16.133l-6.737 12.746 16.306-16.52H68.388l24.905-24.98C80.8 9.36 66.07 14.417 59.662 26.572s-2.287 27.213 9.412 34.38l7.75-14.66-13.838-.006zm33.15-29.746l-7.75 14.66h13.832a21.11 21.11 0 0 1-2.291 19.492c-3.92 5.722-10.4 9.137-17.323 9.13-1.028 0-2.055-.075-3.072-.225l2.347-2.377a18.71 18.71 0 0 0 .726.016c10.178-.01 18.426-8.283 18.44-18.5a20.67 20.67 0 0 0-.693-5.03H84.217l6.738-12.746L74.398 37.5h22.234L71.918 62.47c12.5 5.665 27.22.607 33.63-11.547s2.287-27.213-9.412-34.38z" fill="#e1251b"/><path d="M50.352 81.04l.482-.706c.037-.066.104-.1.18-.12a.24.24 0 0 1 .204.071 2.27 2.27 0 0 0 1.532.645c.592.01 1.082-.46 1.1-1.054 0-.545-.37-.905-1.063-1.364-.816-.533-1.78-1.24-1.78-2.48s.853-2.578 2.793-2.578c.805-.002 1.585.284 2.2.806.146.127.163.348.037.496l-.482.682c-.1.15-.26.16-.433.025-.38-.352-.88-.547-1.397-.545a1.01 1.01 0 0 0-1.05.967c0 .496.334.744 1.075 1.24.816.545 1.903 1.227 1.903 2.6 0 1.45-1.125 2.665-2.954 2.665a3.44 3.44 0 0 1-2.348-.967c-.074-.074-.136-.186 0-.372zm6.08.893l4.647-8.342c.037-.083.12-.137.2-.136h.1c.08.002.15.058.173.136l2.274 8.342c.025.075.012.158-.034.222s-.12.1-.2.1h-1.075c-.185 0-.284-.062-.32-.248l-.3-1.376H58.83l-.717 1.376a.44.44 0 0 1-.395.248H56.58c-.173 0-.235-.16-.148-.322zm5.08-2.64l-.58-2.702h-.025l-1.347 2.702h1.953zm4.708-5.48c.018-.126.12-.224.247-.235H67.7a.2.2 0 0 1 .147.075c.037.045.05.104.04.16l-.74 5.218a2.21 2.21 0 0 0-.025.397c0 .818.42 1.314 1.26 1.314 1.013 0 1.582-.657 1.73-1.698l.742-5.23c.014-.128.12-.228.247-.235h1.223c.057.005.1.032.144.077s.05.102.042.158l-.754 5.305c-.26 1.884-1.57 3.26-3.497 3.26-1.656 0-2.818-1.14-2.818-2.764a3.48 3.48 0 0 1 .037-.496l.754-5.305zm12.236-.36c1-.01 1.93.42 2.57 1.177.077.1.056.263-.05.347l-.667.645a.28.28 0 0 1-.408 0 2.22 2.22 0 0 0-1.532-.62c-1.483 0-2.768 1.537-2.768 3.3 0 1.314.704 2.442 1.9 2.442a2.55 2.55 0 0 0 1.693-.731c.16-.136.297-.1.395.012l.643.806a.29.29 0 0 1-.062.335 3.94 3.94 0 0 1-2.793 1.202c-2.138 0-3.522-1.723-3.522-3.855 0-2.913 2.05-5.07 4.6-5.07zm4.894.36c.013-.124.1-.223.235-.235h4.573a.2.2 0 0 1 .147.075c.037.045.05.104.04.16l-.148 1.016c-.014.128-.12.228-.247.235h-3.164L84.5 77.1h2.62c.057.005.1.033.144.077s.05.102.04.158l-.148 1.03c-.018.127-.12.224-.247.235H84.3l-.3 2.17h3.176c.124 0 .185.112.173.236l-.136 1.016c-.014.128-.12.228-.247.236h-4.572a.19.19 0 0 1-.145-.075.18.18 0 0 1-.028-.16l1.15-8.205z" fill="#636569"/><path d="M91.285 73.814c.018-.126.12-.224.247-.235h.53c.057.005.1.033.144.077s.05.102.04.158l-1.075 7.6h3.15c.055.005.106.034.14.08s.045.102.034.157l-.05.36c-.018.126-.12.224-.247.236h-3.88a.2.2 0 0 1-.147-.075c-.037-.045-.05-.104-.04-.16l1.15-8.205zm4.227 8.12l4.56-8.342c.038-.082.12-.135.2-.136h.1c.08.002.152.058.173.136l2.2 8.342a.26.26 0 0 1-.04.218c-.045.063-.117.1-.194.105H102a.18.18 0 0 1-.185-.136l-.494-2.045h-3.856l-1.05 2.045c-.048.085-.138.137-.235.136h-.53c-.173 0-.235-.16-.148-.322zm5.586-2.628l-.976-4.065h-.074l-2.113 4.065h3.164zm7.65-1.413c.643.314 1.05.97 1.05 1.686 0 1.525-1.075 2.677-2.78 2.677h-2.558a.2.2 0 0 1-.147-.075c-.037-.045-.05-.104-.04-.16l1.15-8.205c.018-.126.12-.224.247-.235h2.46c.53-.023 1.046.176 1.423.55a1.92 1.92 0 0 1 .566 1.42 2.48 2.48 0 0 1-1.372 2.305v.037zm-1.557 3.532c.853 0 1.57-.793 1.57-1.76a1.3 1.3 0 0 0-.375-.954c-.25-.253-.592-.392-.947-.385h-1.73l-.432 3.1h1.916zm.37-3.954c.914 0 1.508-.73 1.508-1.822 0-.72-.37-1.215-1.087-1.215h-1.705l-.433 3.037h1.718zm3.76 3.484l.198-.2c.148-.15.247-.198.395-.062.37.334.8.867 1.83.867.4.023.808-.126 1.104-.4a1.48 1.48 0 0 0 .453-1.089c0-.78-.58-1.24-1.606-1.834-1-.57-1.656-1.116-1.656-2.256 0-1.04.655-2.504 2.682-2.504.7-.004 1.363.218 1.916.632.062.05.173.186.012.422l-.136.198c-.124.173-.247.223-.408.1-.422-.33-.937-.516-1.47-.533a1.6 1.6 0 0 0-1.152.436 1.61 1.61 0 0 0-.504 1.126c0 .694.47 1.153 1.248 1.574 1.186.645 2.088 1.252 2.088 2.53 0 1.376-1 2.43-2.706 2.43-.886-.013-1.725-.4-2.3-1.066-.087-.087-.136-.198.025-.36z" fill="#e1251b"/></svg>