<?xml version="1.0" encoding="utf-8"?>
<!-- Generator: Adobe Illustrator 21.0.0, SVG Export Plug-In . SVG Version: 6.00 Build 0)  -->
<svg version="1.1" id="Layer_1" xmlns="http://www.w3.org/2000/svg" xmlns:xlink="http://www.w3.org/1999/xlink" x="0px" y="0px"
	viewBox="0 0 600 600" style="enable-background:new 0 0 500 500;" xml:space="preserve">
<style type="text/css">
	.Drop_x0020_Shadow{fill:none;}
	.Outer_x0020_Glow_x0020_5_x0020_pt{fill:none;}
	.Jive_GS{fill:#A6D0E4;}
	.st0{fill:#00d7fc;}
</style>
<g>
	<g>
		<ellipse cx="300.5" cy="177.4" rx="9.8" ry="7.5"/>
	</g>
</g>
<g>
	<g>
		<path d="M280.9,222.2c0,12.3-13.2,22.4-29.3,22.4s-29.3-10-29.3-22.4h-19.6c0,20.6,21.9,37.3,48.9,37.3c27,0,48.9-16.7,48.9-37.3
			H280.9z"/>
	</g>
</g>
<path class="st0" d="M429.8,314.8l-21.7-5.3V281c0-12-13.2-21.7-29.3-21.7h-44.1c9.7-8.6,16.6-18.6,20.5-29.3
	c24.2-2.1,43.1-17.2,43.1-35.7v-57.8c0-59.8-65.8-108.4-146.7-108.4S104.9,76.7,104.9,136.5v57.8c0,18.5,18.9,33.6,43.1,35.7
	c4,10.7,10.9,20.7,20.5,29.3h-44.1c-16.2,0-29.3,9.7-29.3,21.7v28.5l-21.6,5.3c-28,6.9-46.8,26.2-46.8,48v113.3h450V362.8
	C476.6,341,457.8,321.7,429.8,314.8z M358.7,214.7c0.2-2,0.5-4,0.5-6v-34.8c11.4,3,19.6,10.9,19.6,20.3
	C378.8,203.8,370.3,211.8,358.7,214.7z M124.4,194.3c0-9.4,8.2-17.4,19.6-20.3v34.8c0,2,0.3,4,0.5,6
	C132.9,211.8,124.4,203.8,124.4,194.3z M144,136.5v22.4c-7.3,1.1-13.9,3.5-19.6,6.7v-29.1c0-51.8,57-93.9,127.2-93.9
	s127.2,42.1,127.2,93.9v29.1c-6-3.4-13.1-5.8-20.8-6.8c-3.3-20-13.6-39.4-30-55.5l-6.4-6.3l-37,24.3
	c-34.3,22.5-75.9,37.1-120.9,42.8v-27.6H144z M163.6,208.7v-30c10.1-1.2,20-2.7,29.7-4.7c0.9,3.3,4.7,5.8,9.4,5.8
	c5.4,0,9.8-3.2,9.8-7.2c0-1-0.3-2-0.8-2.9c31.4-8.3,60.5-21,85.8-37.7l20.8-13.7c13.8,16.1,21.3,35.1,21.3,54.2v36.1
	c0,19.9-12,38.2-32.9,50.6H196.4C175.6,246.9,163.6,228.6,163.6,208.7z M114.6,281c0-4,4.4-7.2,9.8-7.2h254.3c5.4,0,9.8,3.2,9.8,7.2
	v122.8H369V288.2H134.2v115.6h-19.6V281z M349.4,302.7v101.2H153.8V302.7H349.4z M388.5,418.3c0,8-8.8,14.5-19.6,14.5H134.2
	c-10.8,0-19.6-6.5-19.6-14.5H388.5z M46.2,461.6v-98.8c0-15.6,13.4-29.3,33.4-34.3l15.5-3.8v93.5c0,15.9,17.5,28.9,39.1,28.9h48.9
	c12.7,0,23.5,6.1,27.5,14.5H46.2z M272.2,461.6H231c-1.5-5.4-4.7-10.2-9-14.5h59.2C276.9,451.4,273.6,456.2,272.2,461.6z M457,461.6
	H292.5c4-8.4,14.8-14.5,27.5-14.5H369c21.6,0,39.1-13,39.1-28.9v-93.5l15.5,3.8c20,4.9,33.4,18.7,33.4,34.3V461.6z"/>
<g>
	<g>
		<polygon points="220.3,338.7 204.6,329.7 170.9,364.1 204.6,398.4 220.3,389.5 195.3,364.1 		"/>
	</g>
</g>
<g>
	<g>
		<polygon points="298.5,329.7 282.9,338.7 307.8,364.1 282.9,389.5 298.5,398.4 332.3,364.1 		"/>
	</g>
</g>
<g>
	<g>
		<polygon points="222.7,399.3 252,324.6 270.7,328.9 241.4,403.6 		"/>
	</g>
</g>
<g>
	<g>
		<ellipse cx="202.7" cy="173.5" rx="9.8" ry="7.7"/>
	</g>
</g>
</svg>
