<?xml version="1.0" encoding="utf-8"?>
<!-- Generator: Adobe Illustrator 21.0.0, SVG Export Plug-In . SVG Version: 6.00 Build 0)  -->
<svg version="1.1" id="Layer_1" xmlns="http://www.w3.org/2000/svg" xmlns:xlink="http://www.w3.org/1999/xlink" x="0px" y="0px"
	 viewBox="0 0 500 500" style="enable-background:new 0 0 500 500;" xml:space="preserve">
<style type="text/css">
	.Drop_x0020_Shadow{fill:none;}
	.Outer_x0020_Glow_x0020_5_x0020_pt{fill:none;}
	.Jive_GS{fill:#A6D0E4;}
	.st0{fill:#00d7fc;}
</style>
<g>
	<path class="st0" d="M162.8,161.7c-4.9,0.1-8.5,1-11,2.4c-1.4,0.8-2.5,1.8-3.2,3c-0.7,1.3-1.1,3-1,4.9c0.2,5.5,3.7,12.8,10.4,21.1
		l0.1,0.1l21.8,28.9c8.8,11.6,17.9,23.4,29.3,32.1c11,8.3,24.2,14,41.8,14c19,0,33-5.8,44.3-14.6c11.7-9.2,21-21.7,30.2-34.3
		l24.6-33.7c4.6-8.7,6.2-14.5,5.2-18c-0.6-2-3.3-3-7.9-3.2c-1,0-2,0-3,0c-1.1,0-2.3,0.1-3.4,0.2c-0.7,0-1.3,0-1.9-0.1
		c-2.2,0.1-4.4,0-6.7-0.3l8.4-31c-62.4,8.2-109.1-30.4-175.1-7.7l4.8,36.6C167.6,162.1,165.1,162,162.8,161.7L162.8,161.7
		L162.8,161.7L162.8,161.7z M322.4,406.5V424l-43.1,20.3V424l27.7-8.8l-27.7-8.7v-20.3L322.4,406.5L322.4,406.5z M247.8,450.1h-18.3
		l22.6-73.5h18.3L247.8,450.1L247.8,450.1z M217.2,406.5l-27.7,8.7l27.7,8.8v20.3L174.2,424v-17.4l43.1-20.3V406.5L217.2,406.5z
		M355.6,155.2L355.6,155.2L355.6,155.2c0.9-31.7,7.9-63.7-19.2-89.7C317.2,47,267,29.5,234.4,28c-13.7-0.6-8.5,8.7-22.1,12.6
		c-28,8.1-52.5,25.2-60.5,49c-1.3,3.9-2.2,7.8-2.7,11.8c-0.9,16.5-0.4,36.3,1,51.9c-2,0.6-3.7,1.4-5.3,2.2c-3.4,1.9-5.9,4.3-7.5,7.3
		c-1.6,2.8-2.3,6-2.1,9.5c0.3,7.4,4.4,16.5,12.4,26.4l21.8,28.9c7.6,10.1,15.6,20.4,25.3,29.1c-0.5,1.2,0-0.1-0.3,0.7
		c-2.7,6.8-7.2,18.1-11.2,24.5C156.8,296.3,96.1,300,72.6,311c-64.3,29.8-41.1,91.4-41.8,142.2c1.3,11.3,9,17.8,24.2,18.8h16.4
		l-18-113.8c-1.4-8.9,6.2-16.1,15.4-16.1h84.4h99.6c-3.4-18.4-60.6-36.2-62.7-50.1c0.6-0.3,1.1-0.8,1.5-1.3
		c4.9-5.6,9.9-17.4,13.4-25.9c12.3,8.3,27,13.7,46,13.7c17,0,30.6-3.9,42-10.3c1.1,1.3,2.3,2.7,3.5,4.2c5.4,6.6,11.7,14.3,17.6,19.8
		c-1.3,15.8-50.9,16-56.5,49.8h176.6c9.3,0,16.9,7.3,15.4,16.1l-18,113.8h16.4c15.2-1,22.9-7.5,24.2-18.8
		c-4.3-48,17.3-114.7-41.8-142.2c-23.2-10.8-82.6-14.6-109.7-28.5c-4.6-4.7-9.5-10.7-13.8-16c-1.4-1.7-2.7-3.4-4-4.8l0.7-0.5
		c13-10.1,22.7-23.3,32.3-36.5l24.8-34.1c0.1-0.2,0.3-0.4,0.4-0.6l0,0c5.8-11,7.7-19.1,6-24.8C365.6,159.9,361.7,156.7,355.6,155.2
		L355.6,155.2z"/>
</g>
</svg>
