<?xml version="1.0" encoding="utf-8"?>
<!-- Generator: Adobe Illustrator 21.0.0, SVG Export Plug-In . SVG Version: 6.00 Build 0)  -->
<svg version="1.1" id="Layer_1" xmlns="http://www.w3.org/2000/svg" xmlns:xlink="http://www.w3.org/1999/xlink" x="0px" y="0px"
	 viewBox="0 0 482 482" style="enable-background:new 0 0 482 482;" xml:space="preserve">
<style type="text/css">
	.st0{fill:#4b68c1;}
</style>
<g>
	<g>
		<path class="st0" d="M204.6,365.5c-21,0-38.1,17.1-38.1,38.1s17.1,38.1,38.1,38.1s38.1-17.1,38.1-38.1
			C242.6,382.6,225.6,365.5,204.6,365.5z M204.6,420.4c-9.3,0-16.8-7.5-16.8-16.8c0-9.3,7.5-16.8,16.8-16.8
			c9.3,0,16.8,7.5,16.8,16.8C221.4,412.9,213.8,420.4,204.6,420.4z"/>
	</g>
</g>
<g>
	<g>
		<path class="st0" d="M338.1,365.5c-21,0-38.1,17.1-38.1,38.1s17.1,38.1,38.1,38.1c21,0,38.1-17.1,38.1-38.1
			C376.2,382.6,359.1,365.5,338.1,365.5z M338.1,420.4c-9.3,0-16.8-7.5-16.8-16.8c0-9.3,7.5-16.8,16.8-16.8
			c9.3,0,16.8,7.5,16.8,16.8C355,412.9,347.4,420.4,338.1,420.4z"/>
	</g>
</g>
<g>
	<g>
		<path class="st0" d="M347.5,165H195.2c-5.9,0-10.6,4.8-10.6,10.6c0,5.9,4.8,10.6,10.6,10.6h152.4c5.9,0,10.6-4.8,10.6-10.6
			C358.1,169.8,353.4,165,347.5,165z"/>
	</g>
</g>
<g>
	<g>
		<path class="st0" d="M339.2,220.2H203.5c-5.9,0-10.6,4.8-10.6,10.6s4.8,10.6,10.6,10.6h135.8c5.9,0,10.6-4.8,10.6-10.6
			C349.8,225,345.1,220.2,339.2,220.2z"/>
	</g>
</g>
<g>
	<g>
		<path d="M451.2,104.6c-4.1-5-10.1-7.8-16.5-7.8H103.6l-6.7-32.5c-1.4-6.8-6-12.5-12.4-15.2L37.9,28.9c-5.4-2.3-11.6,0.1-14,5.5
			c-2.3,5.4,0.1,11.6,5.5,14l46.7,20.3l51.4,249.7c2,9.8,10.8,17,20.8,17H403c5.9,0,10.6-4.8,10.6-10.6c0-5.9-4.8-10.6-10.6-10.6
			H148.3l-6.3-30.4H405c10,0,18.8-7.1,20.8-17l29.7-144.3C456.9,116.1,455.3,109.6,451.2,104.6z M405,262.4H137.7L108,118.1l326.8,0
			L405,262.4z"/>
	</g>
</g>
</svg>
