<?xml version="1.0" encoding="utf-8"?>
<!-- Generator: Adobe Illustrator 21.0.0, SVG Export Plug-In . SVG Version: 6.00 Build 0)  -->
<svg version="1.1" id="Layer_1" xmlns="http://www.w3.org/2000/svg" xmlns:xlink="http://www.w3.org/1999/xlink" x="0px" y="0px"
	 viewBox="0 0 500 500" style="enable-background:new 0 0 500 500;" xml:space="preserve">
<style type="text/css">
	.st0{fill:#4b68c1;}
</style>
<g>
	<path class="st0" d="M478,431.1c0-40.5-24.6-75.1-58.9-88.4c5.4-7.7,9.6-16.8,12.4-25.5c4.7-3.3,8.3-9.2,9.8-16.1
		c1.3-6.3,4.3-20-2-27.5v-6.2c0.3-10.6,1-38.1-18.5-50c-0.5-2.2-0.6-4-0.7-4.3l-2.5-29.4l-17.9,19.9c-2.1,1.9-14,5.4-25.2,6.7
		l-4.6,0.8c-34.3,6.4-33.7,29.6-33.3,48.4c0.1,2.4,0.1,4.9,0.1,7.7l0.2,5.6c-3.4,4.5-5.9,12.7-2.7,28c1.5,6.8,5.2,12.8,9.8,15.7
		c2.1,6.4,6.3,16.9,12.8,26.3c-14.5,5.6-27.3,15.1-37.2,27.2c-9.2-7-19.4-12.5-30.4-16.5c8.1-10.8,14.2-24.1,18.1-36.7
		c6.1-4,10.9-11.7,12.8-20.7c1.7-8.2,5.6-26.3-2.7-35.3v-9.3c0.6-21.8-1.5-52-24.5-65.4c-0.9-3.8-1.1-6.7-1.1-7l-2.9-35.1
		l-21.4,23.7c-2.5,2.7-18.9,7.6-34.6,9.4l-6.2,1.1c-44.3,8.2-43.6,37.1-43,63.6c0.1,2.9,0.1,5.9,0.1,9.3l0.2,8.3
		c-4.5,5.4-7.9,15.8-3.7,36.1c1.9,8.9,6.8,16.5,12.8,20c2.9,8.9,9,24.6,18.8,37.8c-10.9,4-21.1,9.5-30.3,16.4
		c-9.9-12.2-22.7-21.6-37.3-27.2c5.4-7.7,9.6-16.8,12.4-25.5c4.7-3.3,8.3-9.1,9.8-16.1c1.3-6.3,4.2-20-2-27.5v-6.2
		c0.3-10.6,1-38.1-18.5-50c-0.5-2.2-0.6-4-0.7-4.3l-2.5-29.4l-17.9,19.9c-2.1,1.9-14,5.4-25.2,6.7l-4.6,0.8
		c-34.3,6.4-33.7,29.6-33.3,48.4c0.1,2.4,0.1,4.9,0.1,7.8l0.2,5.5c-3.4,4.5-5.9,12.7-2.7,28c1.4,6.8,5.2,12.8,9.8,15.7
		c2.1,6.4,6.3,16.9,12.8,26.3C47.5,356.1,23,390.6,23,431.1v6.4h113.3c-2.8,10.6-4.4,21.7-4.4,33.2v6.4h237.3v-6.4
		c0-11.5-1.6-22.6-4.4-33.2H478L478,431.1L478,431.1L478,431.1z M435.3,424.7V407c0-3.5-2.4-6.4-5.4-6.4c-3,0-5.4,2.9-5.4,6.4v17.8
		h-63.9c-2.6-6.9-5.9-13.5-9.6-19.7c-0.6-1-1.1-2-1.7-2.9c-5.9-9.2-12.9-17.5-20.9-24.8c5-5.9,10.8-11,17.3-15.2l38.3,51.2
		c1,1.4,2.5,2.2,4,2.2c1.7-0.1,3.1-0.8,4.1-2.2l37.4-51.6c20.9,13.4,35.5,36.4,37.5,63.1L435.3,424.7L435.3,424.7z M358.2,464.3H312
		v-26c0-0.3-0.1-0.6-0.2-0.9c-0.4-3-2.5-5.4-5.2-5.4c-2.7,0-4.8,2.4-5.2,5.4c0,0.3-0.2,0.6-0.2,0.9v26H199.7v-26
		c0-0.3-0.1-0.6-0.2-0.9c-0.4-3-2.5-5.4-5.2-5.4c-2.7,0-4.8,2.4-5.2,5.4c0,0.3-0.2,0.6-0.2,0.9v26h-46.2c0.5-9.3,2.2-18.3,4.8-26.9
		c0.6-2.1,1.3-4.3,2.1-6.4h0.2c0-0.1,0-0.2-0.1-0.3c0.8-2,1.6-4.1,2.5-6.1c2.3-5.3,5.1-10.3,8.1-15.1c5.4-8.5,11.8-16.1,19.2-22.7
		c1.4-1.3,2.8-2.6,4.3-3.8c1.5-1.2,3-2.3,4.5-3.4c1.9-1.4,3.9-2.8,5.9-4l52.1,69.7c1,1.4,2.5,2.1,4,2.1c0,0,0,0,0,0
		c1.6,0,3-0.8,4.1-2.2l51-70.2c2.4,1.4,4.6,3,6.9,4.6c1.5,1.1,3.1,2.2,4.5,3.4c1.5,1.2,2.9,2.6,4.3,3.8c7.4,6.6,13.8,14.3,19.2,22.7
		c3.1,4.8,5.8,9.8,8.2,15.1c0.9,2,1.7,4,2.5,6.1c0,0.1,0,0.2,0,0.3h0.2c0.8,2.1,1.4,4.2,2.1,6.4C355.9,446,357.7,455,358.2,464.3z
		 M71,400.6c-3,0-5.4,2.8-5.4,6.4v17.8H34c2-26.4,16.2-49.3,36.8-62.7l38.3,51.2c1,1.4,2.5,2.2,4,2.2c1.1-0.1,3.1-0.8,4.1-2.2
		l37.4-51.6c6.7,4.3,12.8,9.6,18,15.6c-8,7.3-15,15.6-20.9,24.8c-0.6,0.9-1.1,2-1.7,2.9c-3.7,6.2-7,12.8-9.6,19.7H76.4v-17.8
		C76.4,403.4,74,400.6,71,400.6z M77.3,306.5l-2.6-0.9c-1.8-0.6-4.2-3.8-5.1-7.9c-2.1-10.4-1.1-15.5,0.7-16.9l2.5-2L72.5,267
		c0-2.8-0.1-5.4-0.1-7.9c-0.4-18.6-0.7-30.9,24.2-35.5l4.3-0.8c0.2,0,24.9-3,31.2-9.9l2-2.3l0.3,3.5c0.1,1.2,0.4,5.3,2,10l0.8,2.5
		l2.1,1.1c10.6,5.4,14.8,17.1,14.3,39.5v13.1l2.8,1.8c0.6,0.4,2.3,2.7-0.4,15.8c-0.9,4.1-3.1,7.6-5.7,8.9l-2.3,1.1l-0.8,2.8
		c-2.9,9.9-7.9,20.6-14.6,28.4c-1.8,2-3.7,3.8-5.7,5.3c-3.9,3-8.2,4.9-13,5.1c-0.1,0-0.2,0-0.3,0c-0.2,0-0.3,0-0.5,0
		c-0.1,0-0.3,0-0.4,0c-0.4,0-0.7-0.2-1.1-0.2c-4.7-0.3-8.9-2.1-12.5-4.9c-2-1.5-3.9-3.4-5.6-5.3c-8.4-9.8-13.4-23.8-15.1-29.6
		L77.3,306.5z M121.1,388.2l-4.7-21.8l5.7-5.8c4.9-1.6,9.3-4.3,13.3-7.9c3.1,0.9,6.1,2.1,9,3.4L121.1,388.2z M102.8,360.4l5.9,6
		l-4.6,21.1L81,356.5c3.1-1.4,6.2-2.7,9.5-3.7C94.1,356.1,98.2,358.8,102.8,360.4z M201.3,305.7l-2.6-0.9c-2.9-1-6.7-5.6-8.1-12.1
		c-2.7-12.9-2-22,1.7-24.9l2.5-1.9l-0.4-14.8c0-3.3-0.1-6.5-0.2-10.5c-0.6-25.1-1-43.2,33.9-49.6l5.9-1.1
		c0.3-0.1,32.8-4.1,40.7-12.8l5.4-6l0.7,9.1c0.1,1,0.5,6.6,2.5,12.9l0.8,2.5l2.1,1.1c18.7,9.6,20.7,33,20.2,54.8v16.3l2.8,1.9
		c3.1,2,3.2,9.9,0.3,23.5c-1.3,6.1-4.7,11.4-8.8,13.3l-2.3,1.1l-0.8,2.8c-4,13.9-11.1,29-20.7,39.6c-1.7,1.9-3.5,3.6-5.4,5.2
		c-2.5,2.1-5.1,3.8-7.9,5.2c-3.3,1.6-6.7,2.7-10.4,3c-1,0.1-1.9,0.4-2.9,0.4c-1.4,0-2.8-0.2-4.2-0.4c-3.4-0.5-6.5-1.5-9.5-3
		c-2.8-1.4-5.3-3.2-7.7-5.2c-1.9-1.6-3.7-3.3-5.4-5.2c-12-13.5-18.9-33.1-21.4-41.2L201.3,305.7z M261.8,415.9l-6.9-31.8l9.5-9.6
		l-0.6-0.6c5.9-2.2,11.3-5.8,16.1-10.3c5.3,1.6,10.5,3.6,15.4,6L261.8,415.9z M236.1,373.6l-0.9,0.9l9.5,9.6l-6.6,30.8L204.5,370
		c5.2-2.5,10.6-4.7,16.3-6.4C225.3,367.9,230.4,371.3,236.1,373.6z M352.2,306.5l-2.6-0.9c-1.8-0.7-4.2-3.8-5.1-7.9
		c-2.1-10.4-1.1-15.5,0.7-16.9l2.5-2l-0.3-11.9c0-2.8-0.1-5.4-0.1-7.9c-0.4-18.6-0.7-30.8,24.2-35.5l4.3-0.8c0.2,0,24.9-3,31.2-9.9
		l2-2.3l0.3,3.5c0.1,1.2,0.4,5.3,1.9,10l0.8,2.5l2.1,1.1c10.6,5.4,14.8,17.1,14.3,39.5v13.1l2.8,1.8c0.6,0.4,2.3,2.7-0.4,15.8
		c-0.9,4.1-3.1,7.6-5.7,8.9l-2.3,1.1l-0.8,2.8c-2.9,9.9-7.9,20.6-14.6,28.4c-1.8,2-3.7,3.8-5.7,5.3c-3.9,3-8.3,4.9-13,5.1l0.1,0.1
		c-0.1,0-0.2,0-0.4,0c-0.2,0-0.3,0-0.5,0c-0.1,0-0.3,0-0.4,0c-0.4,0-0.7-0.2-1.1-0.2c-4.7-0.3-8.8-2.1-12.5-4.9
		c-2-1.5-3.8-3.4-5.6-5.3c-8.4-9.8-13.4-23.8-15.1-29.6L352.2,306.5z M396,388.2l-4.7-21.8l5.7-5.8c4.9-1.6,9.3-4.3,13.3-7.9
		c3.1,0.9,6.1,2.1,8.9,3.4L396,388.2z M377.7,360.4l5.9,6l-4.6,21.1l-23.2-31.1c3.1-1.4,6.2-2.7,9.5-3.7
		C369,356.1,373.1,358.8,377.7,360.4z"/>
</g>
</svg>
