<?xml version="1.0" encoding="utf-8"?>
<!-- Generator: Adobe Illustrator 21.0.0, SVG Export Plug-In . SVG Version: 6.00 Build 0)  -->
<svg version="1.1" id="Layer_1" xmlns="http://www.w3.org/2000/svg" xmlns:xlink="http://www.w3.org/1999/xlink" x="0px" y="0px"
	 viewBox="0 0 500 500" style="enable-background:new 0 0 500 500;" xml:space="preserve">
<style type="text/css">
	.st0{fill:#181818;}
	.st1{clip-path:url(#SVGID_2_);fill:#181818;}
	.st2{clip-path:url(#SVGID_4_);fill:#ffbc00	;}
	.st3{clip-path:url(#SVGID_6_);fill:#181818;}
	.st4{clip-path:url(#SVGID_8_);fill:#181818;}
</style>
<g>
	<path class="st0" d="M372.5,369.2h-15.1V399H221.8v14.9h135.6v22.4c0,12.3-10.1,22.4-22.6,22.4H169.1c-8.1,0-15.5-4.3-19.6-11.2
		l-13,7.4c6.8,11.5,19.2,18.6,32.6,18.6h165.7c20.8,0,37.6-16.7,37.7-37.3L372.5,369.2L372.5,369.2z"/>
	<g>
		<g>
			<defs>
				<rect id="SVGID_1_" x="26" y="26.5" width="451" height="447"/>
			</defs>
			<clipPath id="SVGID_2_">
				<use xlink:href="#SVGID_1_"  style="overflow:visible;"/>
			</clipPath>
			<rect x="244.4" y="428.8" class="st1" width="15.1" height="14.9"/>
		</g>
		<g>
			<defs>
				<rect id="SVGID_3_" x="26" y="26.5" width="451" height="447"/>
			</defs>
			<clipPath id="SVGID_4_">
				<use xlink:href="#SVGID_3_"  style="overflow:visible;"/>
			</clipPath>
			<path class="st2" d="M289.6,227.6v-14.9h-23c-3.8-47.5-41.9-85.3-90-89V101h-15.1v22.7c-5.1,0.4-10.1,1.2-15.1,2.3v-40H267V71.2
				H146.5v-7.5c0-12.3,10.1-22.4,22.6-22.4h165.7c5.5,0,10.8,2,14.9,5.6l10-11.2c-6.9-6-15.7-9.3-24.9-9.3H169.1
				c-20.8,0-37.6,16.7-37.7,37.3v67.1c-33.9,14.1-57,45.7-59.9,82h-23v14.9h23c3.6,47.6,41.8,85.5,90,89.1v22.7h15.1v-22.7
				c48.2-3.5,86.4-41.4,90-89.1L289.6,227.6L289.6,227.6z M161.6,287.3v14.6c-10.5-0.9-20.7-3.9-30.1-8.6v-13.4
				c0-20.6,16.9-37.3,37.7-37.3s37.7,16.7,37.7,37.3v13.4c-9.4,4.8-19.6,7.7-30.1,8.6v-14.6H161.6z M146.5,205.3
				c0-12.3,10.1-22.4,22.6-22.4s22.6,10,22.6,22.4s-10.1,22.4-22.6,22.4C156.6,227.6,146.5,217.6,146.5,205.3L146.5,205.3z
				 M224.4,281.3c-0.8,0.7-1.7,1.3-2.5,2v-3.5c0-19.5-11-37.3-28.5-46.3c12.1-10.1,16.5-26.6,11.1-41.3
				c-5.4-14.7-19.6-24.5-35.4-24.5c-15.8,0-30,9.8-35.4,24.5c-5.4,14.7-1,31.2,11.1,41.3c-17.5,9-28.4,26.8-28.5,46.3v3.6
				c-0.8-0.7-1.7-1.3-2.5-2c-15.6-13.8-25.3-33-27.2-53.7h14.7v-14.9H86.6c3.7-39.3,35.2-70.5,74.9-74.1v14.5h15.1v-14.5
				c39.8,3.6,71.3,34.8,74.9,74.1h-14.7v14.9h14.7C249.7,248.3,240,267.5,224.4,281.3L224.4,281.3L224.4,281.3z"/>
		</g>
	</g>
	<path class="st0" d="M455.3,160.6c4.2,0,7.5-3.3,7.5-7.5V63.7c0-4.1-3.4-7.4-7.5-7.4H289.6c-4.2,0-7.5,3.3-7.5,7.4v89.4
		c0,4.1,3.4,7.5,7.5,7.5H455.3z M297.2,71.2h150.6v74.5H297.2V71.2z"/>
	<rect x="312.2" y="86.1" class="st0" width="30.1" height="14.9"/>
	<rect x="357.4" y="86.1" class="st0" width="75.3" height="14.9"/>
	<g>
		<g>
			<defs>
				<rect id="SVGID_5_" x="26" y="26.5" width="451" height="447"/>
			</defs>
			<clipPath id="SVGID_6_">
				<use xlink:href="#SVGID_5_"  style="overflow:visible;"/>
			</clipPath>
			<polyline class="st3" points="380,130.8 312.2,130.8 312.2,115.9 432.7,115.9 432.7,130.8 380,130.8 			"/>
		</g>
		<g>
			<defs>
				<rect id="SVGID_7_" x="26" y="26.5" width="451" height="447"/>
			</defs>
			<clipPath id="SVGID_8_">
				<use xlink:href="#SVGID_7_"  style="overflow:visible;"/>
			</clipPath>
			<path class="st4" d="M454,175.5c-5.8,0-11.5,2.1-15.8,6l-65.7,57.3v-63.3h-15.1V250h2.2l-42.9,37.4c-27.9,1.6-49.7,24.4-49.7,52
				v13.1c0,7.4-4.2,14.2-10.9,17.4c-3.1,1.5-4.8,5-4,8.4c0.8,3.4,3.8,5.7,7.3,5.7h52.7c27.9,0,51-21.6,52.6-49.2L472,214.8
				c6.2-7,7.7-16.9,3.9-25.4C472,180.9,463.4,175.5,454,175.5L454,175.5z M312.2,369.2h-34.4c2.8-5.1,4.3-10.8,4.3-16.7v-13.1
				c0-19.4,15.1-35.6,34.7-37.1l33,32.7C348.2,354.3,331.9,369.2,312.2,369.2L312.2,369.2z M460.7,205L357.1,321.1l-26.3-26
				l117.4-102.5c3.5-3,8.8-2.9,12.1,0.4C463.6,196.2,463.7,201.5,460.7,205L460.7,205z"/>
		</g>
	</g>
	<path class="st0" d="M33.5,436.3h165.7c4.2,0,7.5-3.3,7.5-7.5v-59.6c0-4.1-3.4-7.5-7.5-7.5h-52.7v-37.3h-15.1v37.3H33.5
		c-4.2,0-7.5,3.3-7.5,7.5v59.6C26,432.9,29.4,436.3,33.5,436.3L33.5,436.3z M41.1,376.7h150.6v44.7H41.1V376.7z"/>
	<rect x="56.1" y="391.6" class="st0" width="37.7" height="14.9"/>
	<rect x="108.9" y="391.6" class="st0" width="67.8" height="14.9"/>
	<path class="st0" d="M33.5,130.8h75.3c4.2,0,7.5-3.3,7.5-7.5V63.7c0-4.1-3.4-7.4-7.5-7.4H33.5c-4.2,0-7.5,3.3-7.5,7.4v59.6
		C26,127.5,29.4,130.8,33.5,130.8L33.5,130.8z M41.1,71.2h60.3v44.7H41.1V71.2z"/>
	<rect x="56.1" y="86.1" class="st0" width="30.1" height="14.9"/>
</g>
</svg>
