<?xml version="1.0" encoding="utf-8"?>
<!-- Generator: Adobe Illustrator 21.0.0, SVG Export Plug-In . SVG Version: 6.00 Build 0)  -->
<svg version="1.1" id="Layer_1" xmlns="http://www.w3.org/2000/svg" xmlns:xlink="http://www.w3.org/1999/xlink" x="0px" y="0px"
	 viewBox="0 0 500 500" style="enable-background:new 0 0 500 500;" xml:space="preserve">
<style type="text/css">
	.st0{fill:#ff017d;}
</style>
<g>
	<path class="st0" d="M331.8,26H146.2c-24,0-43.5,20.4-43.5,45.4v360.2c0,25,19.5,45.4,43.5,45.4h185.5c24,0,43.5-20.4,43.5-45.4
		V71.4C375.3,46.4,355.7,26,331.8,26z M146.2,46.9h185.5c13,0,23.5,11,23.5,24.5v10.1H122.7V71.4C122.7,57.9,133.3,46.9,146.2,46.9z
		 M355.3,102.4v295.9H122.7V102.4H355.3z M331.8,456.1H146.2c-13,0-23.5-11-23.5-24.5v-12.4h232.5v12.4
		C355.3,445.1,344.7,456.1,331.8,456.1z"/>
	<path class="st0" d="M239,428.4c-2.6,0-5.2,1.1-7.1,3.1c-1.9,1.9-2.9,4.6-2.9,7.4c0,2.7,1.1,5.4,2.9,7.4c1.9,1.9,4.4,3.1,7.1,3.1
		s5.2-1.1,7.1-3.1c1.9-1.9,2.9-4.6,2.9-7.4c0-2.7-1.1-5.4-2.9-7.4C244.2,429.5,241.6,428.4,239,428.4z"/>
	<path d="M162.4,251.1l31.1,32.5c2,2,4.5,3.1,7.1,3.1s5.1-1,7.1-3.1c3.9-4.1,3.9-10.7,0-14.8l-24-25.1l24-25.1
		c3.9-4.1,3.9-10.7,0-14.8c-3.9-4.1-10.2-4.1-14.1,0l-31.1,32.5c-1.9,2-2.9,4.6-2.9,7.4C159.4,246.5,160.5,249.2,162.4,251.1
		L162.4,251.1z"/>
	<path d="M270.4,283.6c2,2,4.5,3.1,7.1,3.1c2.6,0,5.1-1,7.1-3.1l31.1-32.5c1.9-2,2.9-4.6,2.9-7.4c0-2.8-1.1-5.4-2.9-7.4l-31.1-32.5
		c-3.9-4.1-10.2-4.1-14.1,0c-3.9,4.1-3.9,10.7,0,14.8l24,25.1l-24,25.1C266.5,272.9,266.5,279.6,270.4,283.6L270.4,283.6z"/>
	<path d="M224.6,312.5c0.7,0.1,1.3,0.2,1.9,0.2c4.7,0,8.9-3.5,9.8-8.4l22-116.9c1.1-5.7-2.5-11.1-7.9-12.3
		c-5.4-1.1-10.7,2.6-11.7,8.2l-22,116.9C215.7,305.9,219.2,311.4,224.6,312.5L224.6,312.5z"/>
</g>
</svg>
