<?xml version="1.0" encoding="utf-8"?>
<!-- Generator: Adobe Illustrator 21.0.0, SVG Export Plug-In . SVG Version: 6.00 Build 0)  -->
<svg version="1.1" id="Layer_1" xmlns="http://www.w3.org/2000/svg" xmlns:xlink="http://www.w3.org/1999/xlink" x="0px" y="0px"
	 viewBox="0 0 500 500" style="enable-background:new 0 0 500 500;" xml:space="preserve">
<style type="text/css">
	.st0{fill:#ff017d;}
</style>
<g>
	<path class="st0" d="M408.1,221c-3.1-8.9-11.5-14.9-20.8-14.9c-9.3,0-17.6,6-20.7,14.9h-45.5v-29.9h29.4c4.1,0,7.4-3.3,7.4-7.5
		c0,0,0,0,0,0v-31.3c11.5-4.1,17.5-16.9,13.4-28.6c-4.1-11.7-16.7-17.8-28.2-13.7c-11.5,4.1-17.5,16.9-13.4,28.6
		c2.2,6.4,7.2,11.4,13.4,13.7v23.8h-22.1v-14.9c0-4.1-3.3-7.5-7.3-7.5c0,0,0,0,0,0h-14.7v-38.7c11.5-4.1,17.5-16.9,13.4-28.6
		c-4.1-11.7-16.7-17.8-28.2-13.7c-11.5,4.1-17.5,16.9-13.4,28.6c2.2,6.4,7.2,11.4,13.4,13.7v38.7h-29.4V34.6c0-4.1-3.3-7.5-7.3-7.5
		c0,0,0,0,0,0C156.9,27.1,85.8,93.8,85.8,179c0,40.5,15.8,94,41.3,139.8c4.6,8.2,10.5,16.8,16.8,26c13.3,19.3,28.2,41.1,29.8,60
		c-5.7,4.1-9,10.7-8.8,17.7c0,5.1,1.7,9.9,4.9,13.9c-4.4,4.4-6.8,10.3-6.7,16.5c0,12.4,9.9,22.4,22.1,22.4h125
		c12.3-0.1,22.1-10.2,22.1-22.7c0-0.1,0-0.2,0-0.2c0-6.1-2.4-11.9-6.8-16.1c3.2-4.1,4.9-9.1,4.9-14.3c0-11.8-9.5-21.4-21.1-21.4
		c-0.3,0-0.6,0-0.9,0h-53.3V258.4h14.7v22.4c0,4.1,3.3,7.5,7.3,7.5c0,0,0,0,0,0h22.1v8.8c-11.5,4.1-17.5,16.9-13.4,28.6
		c4.1,11.7,16.7,17.8,28.1,13.7c11.5-4.1,17.5-16.9,13.4-28.6c-2.2-6.4-7.2-11.4-13.4-13.7v-16.3c0-4.1-3.3-7.5-7.3-7.5c0,0,0,0,0,0
		h-22.1v-14.9h29.4c4.1,0,7.4-3.3,7.4-7.5c0,0,0,0,0,0V236h45.5c4.1,11.6,16.7,17.7,28.1,13.6C406.2,245.4,412.2,232.6,408.1,221z
		 M350.5,124c4.1,0,7.4,3.3,7.4,7.5c0,4.1-3.3,7.5-7.4,7.5c-4.1,0-7.4-3.3-7.4-7.5C343.2,127.3,346.5,124,350.5,124z M156,336.2
		c-6.1-8.8-11.9-17.2-16.1-24.8c-23.9-43-39.4-95-39.4-132.4c0-74.5,60.8-133.3,139.7-136.8v52.2c-2,0.1-3.9,0.3-6.1,0.6
		c-3.1,0.4-5.7,2.7-6.3,5.9l-2.2,10.8c-1.8,0.4-3.7,0.9-5.5,1.5l-7.3-8.3c-2.1-2.4-5.5-3.1-8.4-1.9c-8.2,3.6-16,8.2-23.1,13.7
		c-2.5,1.9-3.5,5.3-2.6,8.3l3.4,10.4c-1.4,1.3-2.7,2.7-4.1,4.1l-10.3-3.4c-3-1-6.3,0.1-8.2,2.6c-5.4,7.2-10,15.1-13.5,23.5
		c-1.2,2.9-0.5,6.4,1.9,8.5l8.2,7.4c-0.5,1.8-1,3.7-1.5,5.6l-11.4,2.3c-3.4,0.7-5.9,3.8-5.9,7.3v25.5c0,3.6,2.5,6.6,5.9,7.3
		l11.4,2.3c0.4,1.9,0.9,3.7,1.5,5.6l-8.2,7.4c-2.3,2.1-3.1,5.5-1.9,8.5c3.5,8.4,8.1,16.3,13.5,23.5c1.9,2.5,5.2,3.6,8.2,2.6
		l10.3-3.4c1.3,1.4,2.7,2.8,4.1,4.1l-3.4,10.4c-1,3,0,6.4,2.6,8.3c7.1,5.5,14.9,10.1,23.1,13.7c2.9,1.2,6.3,0.5,8.4-1.9l7.3-8.3
		c1.8,0.6,3.7,1.1,5.5,1.5l2.2,10.8c0.6,3.1,3.2,5.5,6.3,5.9c2.1,0.3,4.1,0.4,6.1,0.6v82.7h-52.1C185.1,378.6,169.8,356.2,156,336.2
		z M181.4,206.1c0,34.2,25.4,62.9,58.8,66.8v25.7l-1.2-5.9c-0.6-3-2.9-5.3-5.9-5.8c-4.4-0.8-8.6-2-12.8-3.5
		c-0.8-0.3-1.6-0.4-2.5-0.4c-2.1,0-4.1,0.9-5.5,2.5l-6.9,7.8c-3.8-1.9-7.5-4.2-11.1-6.6l3.2-9.9c0.9-2.9,0-6.1-2.2-8
		c-3.4-2.9-6.5-6.1-9.4-9.6c-1.9-2.3-5.1-3.2-7.9-2.3l-9.7,3.2c-2.4-3.6-4.6-7.4-6.5-11.2l7.7-7c2.2-2,3-5.2,2-8.1
		c-1.5-4.2-2.7-8.6-3.5-13c-0.5-3-2.8-5.4-5.8-6l-10.3-2.1v-13.2l10.3-2.1c3-0.6,5.3-3,5.8-6c0.8-4.4,2-8.8,3.5-13
		c1-2.9,0.2-6.1-2-8.1l-7.7-7c1.9-3.9,4.1-7.6,6.5-11.2l9.7,3.2c2.8,0.9,6,0,7.9-2.3c2.9-3.4,6-6.6,9.4-9.6c2.3-2,3.2-5.1,2.2-8
		l-3.2-9.9c3.5-2.4,7.2-4.7,11.1-6.6l6.9,7.8c2,2.3,5.1,3.1,8,2c4.2-1.5,8.5-2.7,12.8-3.5c2.9-0.5,5.3-2.8,5.9-5.8l1.2-5.9v25.7
		C206.8,143.2,181.5,171.9,181.4,206.1z M240.2,154.4v103.4c-28.1-4.1-47.6-30.5-43.6-59.1C199.9,175.8,217.6,157.7,240.2,154.4z
		 M317.4,452.9c0,4.1-3.3,7.5-7.4,7.5h-125c-4.1-0.1-7.4-3.5-7.4-7.7c0-0.1,0-0.2,0-0.3c0-4.1,3.3-7.5,7.4-7.5h125
		c4.1,0.1,7.4,3.5,7.4,7.7C317.4,452.7,317.4,452.8,317.4,452.9z M308.2,415.5c3.7-0.3,7,2.4,7.3,6.2c0,0.3,0,0.5,0,0.8
		c0,4.1-3.3,7.5-7.4,7.5H187c-4.1-0.1-7.4-3.5-7.4-7.7c0-0.1,0-0.2,0-0.3c0.2-3.7,3.3-6.6,6.9-6.5c0.1,0,0.3,0,0.4,0L308.2,415.5
		L308.2,415.5z M306.4,310.7c4.1,0,7.4,3.3,7.4,7.5s-3.3,7.5-7.4,7.5c-4.1,0-7.4-3.3-7.4-7.5C299.1,314,302.4,310.7,306.4,310.7z
		 M291.7,86.6c4.1,0,7.4,3.3,7.4,7.5s-3.3,7.5-7.4,7.5s-7.4-3.3-7.4-7.5C284.4,90,287.6,86.6,291.7,86.6z M306.4,243.5h-51.5v-74.7
		h51.5V243.5z M387.3,236c-4.1,0-7.4-3.3-7.4-7.5c0-4.1,3.3-7.5,7.4-7.5c4.1,0,7.4,3.3,7.4,7.5C394.6,232.7,391.3,236,387.3,236z"/>
</g>
<g>
	<g>
		<path d="M318.5,368.5c-2.6,4.7-4.9,9.6-6.9,14.6l13.7,5.5c1.8-4.4,3.8-8.7,6.1-12.9L318.5,368.5z"/>
	</g>
</g>
<g>
	<g>
		<path d="M335,342.2c-2.9,4.2-5.8,8.5-8.5,12.8l12.3,8.1c2.7-4.2,5.5-8.3,8.3-12.4L335,342.2z"/>
	</g>
</g>
<g>
	<g>
		<path d="M351.8,317.4c-2.5,4-5.2,8.1-8.1,12.4l12.1,8.5c3-4.4,5.9-8.8,8.5-12.9L351.8,317.4z"/>
	</g>
</g>
<g>
	<g>
		<path d="M365.6,291.4c-2.1,4.5-4.3,8.9-6.6,13.3l13,7c2.4-4.6,4.7-9.2,6.9-13.9L365.6,291.4z"/>
	</g>
</g>
<g>
	<g>
		<path d="M377,263.9c-1.7,4.6-3.5,9.2-5.5,13.8l13.5,5.9c2-4.8,3.9-9.6,5.7-14.4L377,263.9z"/>
	</g>
</g>
<g>
	<g>
		<path d="M409.3,177.5l-14.7,0.1l0,1.4c0,4.2-0.2,8.6-0.6,13.1l14.7,1.3c0.4-5,0.6-9.8,0.6-14.4L409.3,177.5z"/>
	</g>
</g>
<g>
	<g>
		<path d="M405.6,145.7l-14.3,3.4c1.1,4.7,1.9,9.4,2.4,14.2l14.6-1.8C407.7,156.2,406.8,150.9,405.6,145.7z"/>
	</g>
</g>
<g>
	<g>
		<path d="M395,115.5l-13.2,6.5c2.1,4.3,3.9,8.7,5.5,13.3l13.9-5C399.4,125.3,397.3,120.3,395,115.5z"/>
	</g>
</g>
<g>
	<g>
		<path d="M378.2,88.5l-11.5,9.3c2.9,3.8,5.7,7.7,8.2,11.7l12.4-8C384.5,97,381.5,92.7,378.2,88.5z"/>
	</g>
</g>
<g>
	<g>
		<path d="M356.2,65.7l-9.4,11.5c3.7,3.1,7.2,6.3,10.5,9.8l10.5-10.5C364.1,72.7,360.2,69.1,356.2,65.7z"/>
	</g>
</g>
<g>
	<g>
		<path d="M330.2,47.9l-7,13.1c4.2,2.3,8.3,4.8,12.2,7.5l8.2-12.4C339.3,53.2,334.8,50.4,330.2,47.9z"/>
	</g>
</g>
<g>
	<g>
		<path d="M301.3,35.5l-4.5,14.2c4.6,1.5,9.1,3.2,13.4,5L316,41C311.3,39,306.3,37.1,301.3,35.5z"/>
	</g>
</g>
<g>
	<g>
		<path d="M270.8,28.6l-1.9,14.8c4.7,0.6,9.5,1.5,14.1,2.5l3.2-14.6C281.2,30.2,276,29.3,270.8,28.6z"/>
	</g>
</g>
<g>
	<g>
		<rect x="41.7" y="430.2" width="14.7" height="14.9"/>
	</g>
</g>
<g>
	<g>
		<rect x="41.7" y="460.1" width="14.7" height="14.9"/>
	</g>
</g>
<g>
	<g>
		<rect x="56.4" y="445.1" width="14.7" height="14.9"/>
	</g>
</g>
<g>
	<g>
		<rect x="27" y="445.1" width="14.7" height="14.9"/>
	</g>
</g>
<g>
	<g>
		<rect x="446.1" y="26.9" width="14.7" height="14.9"/>
	</g>
</g>
<g>
	<g>
		<rect x="446.1" y="56.7" width="14.7" height="14.9"/>
	</g>
</g>
<g>
	<g>
		<rect x="460.8" y="41.8" width="14.7" height="14.9"/>
	</g>
</g>
<g>
	<g>
		<rect x="431.4" y="41.8" width="14.7" height="14.9"/>
	</g>
</g>
</svg>
