<?xml version="1.0" encoding="utf-8"?>
<!-- Generator: Adobe Illustrator 21.0.0, SVG Export Plug-In . SVG Version: 6.00 Build 0)  -->
<svg version="1.1" id="Layer_1" xmlns="http://www.w3.org/2000/svg" xmlns:xlink="http://www.w3.org/1999/xlink" x="0px" y="0px"
	 viewBox="0 0 500 500" style="enable-background:new 0 0 500 500;" xml:space="preserve">
<style type="text/css">
	.st0{fill:#00d7fc;}
	.st1{fill:#FFFFFF;}
</style>
<g id="XMLID_2062_">
	<g id="XMLID_2129_">
		<path id="XMLID_2137_" class="st0" d="M178.6,284c-1.8,0-3.2-1.5-3.2-3.4V33.1c0-1.8,1.5-3.4,3.2-3.4h291.5c1.8,0,3.2,1.5,3.2,3.4
			v247.5c0,1.8-1.5,3.4-3.2,3.4H178.6z M181.9,277.3h285.1V88.3H181.9V277.3z M181.9,81.6h285.1V36.5H181.9V81.6z"/>
		<path id="XMLID_2130_" class="st0" d="M470.1,286.7H178.6c-3.2,0-5.9-2.7-5.9-6.1V33.1c0-3.4,2.6-6.1,5.9-6.1h291.5
			c3.2,0,5.9,2.7,5.9,6.1v247.5C476,284,473.4,286.7,470.1,286.7z M178.6,32.5c-0.3,0-0.6,0.3-0.6,0.6v247.5c0,0.3,0.3,0.6,0.6,0.6
			h291.5c0.3,0,0.6-0.3,0.6-0.6V33.1c0-0.3-0.3-0.6-0.6-0.6H178.6z M469.5,279.7H179.2V85.6h290v194.1H469.5z M184.5,274.5h279.8
			V91.1H184.5V274.5z M469.5,84.4H179.2V34h290v50.4H469.5z M184.5,78.9h279.8V39.2H184.5V78.9z"/>
	</g>
	<g id="XMLID_2114_">
		<path id="XMLID_2124_" d="M114.8,471.3c-2.3,0-4.1-1.8-4.1-4.3c0-2.4,1.8-4.3,4.1-4.3H138l0.6-2.1c5.3-16.5,8.2-33.9,9.1-51.6
			v-3.1H58.2c-15.2,0-27.6-12.8-27.6-28.7V195.9c0-15.9,12.3-28.7,27.6-28.7h262.5c15.2,0,27.6,12.8,27.6,28.7v181.3
			c0,15.9-12.3,28.7-27.6,28.7h-89.4v3.1c0.9,17.7,3.8,35.1,9.1,51.6l0.6,2.1h23.2c2.3,0,4.1,1.8,4.1,4.3c0,2.4-1.8,4.3-4.1,4.3
			L114.8,471.3L114.8,471.3z M155.9,409c-0.6,17.1-3.5,33.9-8.2,50.1l-1.2,4h85.9l-1.2-4c-4.7-15.9-7.3-32.7-8.2-50.1v-3.1h-67.2
			V409z M38.6,377.2c0,11.3,8.8,20.4,19.6,20.4h262.5c10.9,0,19.6-9.2,19.6-20.4v-4.6H38.6V377.2z M58.2,175.5
			c-10.9,0-19.6,9.2-19.6,20.4v168.5h301.8V195.9c0-11.3-8.8-20.4-19.6-20.4C320.7,175.5,58.2,175.5,58.2,175.5z"/>
		<path id="XMLID_2115_" d="M264.4,474H114.8c-3.5,0-6.5-3.1-6.5-6.7s2.9-6.7,6.5-6.7h21.4v-0.3c5.3-16.2,8.2-33.3,9.1-50.7v-0.3
			H58.2c-16.7,0-30.2-14-30.2-31.4V195.9c0-17.4,13.5-31.4,30.2-31.4h262.5c16.7,0,30.2,14,30.2,31.4v181.3
			c0,17.4-13.5,31.4-30.2,31.4h-86.8v0.3c0.9,17.4,3.8,34.5,9.1,50.7v0.3h21.4c3.5,0,6.5,3.1,6.5,6.7
			C270.8,470.9,267.9,474,264.4,474z M114.8,465.5c-0.9,0-1.5,0.6-1.5,1.5s0.6,1.5,1.5,1.5h149.6c0.9,0,1.5-0.6,1.5-1.5
			s-0.6-1.5-1.5-1.5h-25.2l-1.2-4c-5.3-16.8-8.5-34.2-9.4-52.2l-0.3-6.1h92.4c13.8,0,24.9-11.6,24.9-25.9V195.9
			c0-14.3-11.1-25.9-24.9-25.9H58.2c-13.8,0-24.9,11.6-24.9,25.9v181.3c0,14.3,11.1,25.9,24.9,25.9h92.4l-0.3,6.1
			c-0.9,18-3.8,35.7-9.4,52.2l-1.2,4L114.8,465.5L114.8,465.5z M235.9,465.5h-93l2.1-7.3c4.7-15.9,7.3-32.4,8.2-49.1l0.3-5.5h72.1
			l0.3,5.5c0.6,16.8,3.5,33.6,8.2,49.1L235.9,465.5z M150,460.3h79.2v-0.6c-4.7-16.2-7.6-33.3-8.2-50.7v-0.3h-62.5v0.3
			c-0.6,17.4-3.5,34.5-8.2,50.7L150,460.3z M320.7,400.4H58.2c-12.3,0-22-10.4-22-22.9v-7.3H343v7.3
			C343,390.1,333,400.4,320.7,400.4z M41.2,375.4v1.8c0,9.8,7.6,17.7,17,17.7h262.5c9.4,0,17-7.9,17-17.7v-1.8H41.2z M343,366.9
			H36.2V195.9c0-12.8,10-22.9,22-22.9h262.5c12.3,0,22,10.4,22,22.9v170.9H343z M41.2,361.7h296.5V195.9c0-9.8-7.6-17.7-17-17.7
			H58.2c-9.4,0-17,7.9-17,17.7C41.2,195.9,41.2,361.7,41.2,361.7z"/>
	</g>
	<g id="XMLID_2109_">
		<path id="XMLID_2110_" d="M289.2,143.5h-49.6c-3.5,0-6.2,2.7-6.2,6.4v52.2c0,3.7,2.6,6.4,6.2,6.4h49.6c3.5,0,6.2-2.7,6.2-6.4
			v-52.2C295.4,146.3,292.8,143.5,289.2,143.5L289.2,143.5z M283.1,195.7h-37.2v-39.4h37.2V195.7z"/>
	</g>
	<g id="XMLID_2105_">
		<path id="XMLID_2106_" d="M313.2,236h-49.6c-3.5,0-6.2,2.7-6.2,6.4s2.6,6.4,6.2,6.4h49.6c3.5,0,6.2-2.7,6.2-6.4
			C319.4,239.1,316.8,236,313.2,236L313.2,236z"/>
	</g>
	<g id="XMLID_2101_">
		<path id="XMLID_2102_" d="M313.2,260.1h-49.6c-3.5,0-6.2,2.7-6.2,6.4s2.6,6.4,6.2,6.4h49.6c3.5,0,6.2-2.7,6.2-6.4
			C319.4,262.9,316.8,260.1,313.2,260.1L313.2,260.1z"/>
	</g>
	<g id="XMLID_2099_">
		<path id="XMLID_2007_" class="st1" d="M58.2,175.5c-10.9,0-19.6,9.2-19.6,20.4v168.5h301.8V195.9c0-11.3-8.8-20.4-19.6-20.4
			C320.7,175.5,58.2,175.5,58.2,175.5z"/>
	</g>
	<g id="XMLID_2085_">
		<g id="XMLID_2094_">
			<path id="XMLID_2095_" d="M378.6,210.1h49.6c3.5,0,6.2-2.7,6.2-6.4v-52.2c0-3.7-2.6-6.4-6.2-6.4h-49.6c-3.5,0-6.2,2.7-6.2,6.4
				v52.2C372.5,207.3,375.1,210.1,378.6,210.1L378.6,210.1z M384.8,157.9H422v39.4h-37.2C384.8,197.3,384.8,157.9,384.8,157.9z"/>
		</g>
		<g id="XMLID_2090_">
			<path id="XMLID_2091_" d="M429.1,226.6h-49.6c-3.5,0-6.2,2.7-6.2,6.4s2.6,6.4,6.2,6.4h49.6c3.5,0,6.2-2.7,6.2-6.4
				C435.2,229.3,432.6,226.6,429.1,226.6L429.1,226.6z"/>
		</g>
		<g id="XMLID_2086_">
			<path id="XMLID_2087_" d="M429.1,250.4h-49.6c-3.5,0-6.2,2.7-6.2,6.4c0,3.7,2.6,6.4,6.2,6.4h49.6c3.5,0,6.2-2.7,6.2-6.4
				C435.2,253.4,432.6,250.4,429.1,250.4L429.1,250.4z"/>
		</g>
	</g>
	<g id="XMLID_2081_">
		<path id="XMLID_2082_" d="M203.9,66.5h2.9c3.5,0,6.2-2.7,6.2-6.4s-2.6-6.4-6.2-6.4h-2.9c-3.5,0-6.2,2.7-6.2,6.4
			S200.3,66.5,203.9,66.5L203.9,66.5z"/>
	</g>
	<g id="XMLID_2077_">
		<path id="XMLID_2078_" d="M229.4,66.5h2.9c3.5,0,6.2-2.7,6.2-6.4s-2.6-6.4-6.2-6.4h-2.9c-3.5,0-6.2,2.7-6.2,6.4
			S226.1,66.5,229.4,66.5L229.4,66.5z"/>
	</g>
	<g id="XMLID_2073_">
		<path id="XMLID_2074_" d="M255.2,66.5h2.9c3.5,0,6.2-2.7,6.2-6.4s-2.6-6.4-6.2-6.4h-2.9c-3.5,0-6.2,2.7-6.2,6.4
			S251.9,66.5,255.2,66.5L255.2,66.5z"/>
	</g>
	<g id="XMLID_2067_">
		<path id="XMLID_1961_" class="st0" d="M287.1,277.7l-47.2-42.1c-2.9-2.7-7.3-2.1-9.7,0.9c-2.6,3.1-2.1,7.6,0.9,10.1l41.1,36.6
			L231,319.8c-2.9,2.7-3.2,7-0.9,10.1c1.5,1.5,3.2,2.4,5.3,2.4c1.5,0,3.2-0.6,4.4-1.8l47.2-41.8c1.5-1.5,2.3-3.4,2.3-5.5
			C289.4,281,288.5,278.9,287.1,277.7z"/>
	</g>
	<g id="XMLID_2065_">
		<path id="XMLID_1960_" class="st0" d="M92.3,288.7l47.2,42.1c1.2,1.2,2.9,1.8,4.4,1.8c2.1,0,3.8-0.9,5.3-2.4
			c2.6-3.1,2.1-7.6-0.9-10.1l-41.1-36.6l41.1-36.6c2.9-2.7,3.2-7,0.9-10.1c-2.6-3.1-6.7-3.4-9.7-0.9l-47.2,41.8
			c-1.5,1.5-2.3,3.4-2.3,5.5C89.7,285.3,90.6,287.4,92.3,288.7z"/>
	</g>
	<g id="XMLID_2063_">
		<path id="XMLID_1959_" class="st0" d="M169.8,346.6c0.6,0.3,1.5,0.3,2.1,0.3c2.9,0,5.6-1.8,6.7-4.9L214,228.5
			c1.2-3.7-0.9-7.9-4.4-9.2c-3.5-1.2-7.6,0.9-8.8,4.6l-35.5,113.8C163.9,341.5,165.9,345.4,169.8,346.6z"/>
	</g>
</g>
</svg>
