<?xml version="1.0" encoding="utf-8"?>
<!-- Generator: Adobe Illustrator 21.0.0, SVG Export Plug-In . SVG Version: 6.00 Build 0)  -->
<svg version="1.1" id="Layer_1" xmlns="http://www.w3.org/2000/svg" xmlns:xlink="http://www.w3.org/1999/xlink" x="0px" y="0px"
	 viewBox="0 0 500 500" style="enable-background:new 0 0 500 500;" xml:space="preserve">
<style type="text/css">
	.st0{fill:#ffbc00;}
</style>
<g id="API">
	<path class="st0" d="M441.8,413.2c-13.3,0-24.9,9.2-28.2,22.4h-22.9c-4,0-7.3-3.3-7.3-7.5v-52.2H399c4,16,20,25.6,35.6,21.4
		c15.6-4.1,25-20.4,21-36.4s-20-25.6-35.6-21.4c-10.3,2.7-18.3,10.9-21,21.4h-15.6V249h21.9c36.3,0,65.7-30.1,65.7-67.2
		s-29.4-67.2-65.7-67.2h-15c-3.9-36.8-36.3-63.3-72.3-59.3c-11.3,1.3-22.1,5.5-31.3,12.3c-37.4-48.5-106.3-56.7-153.7-18.5
		C112.5,65.6,98.5,88.9,93.4,115c-36.2,2.8-63.3,35.1-60.5,72c2.6,35,31.2,62,65.6,62h21.9v97h-15.6c-4-16-20-25.6-35.6-21.4
		c-15.6,4.1-25,20.4-21,36.4c4,16,20,25.6,35.6,21.4c10.3-2.7,18.3-10.9,21-21.4h15.6v67.2c0,4.1-3.3,7.5-7.3,7.5H90.1
		c-4-16-20-25.6-35.6-21.4s-25,20.4-21,36.4s20,25.6,35.6,21.4c10.3-2.7,18.3-10.9,21-21.4h22.9c12.1,0,21.9-10,21.9-22.4v-67.2
		h58.4c12.1,0,21.9-10,21.9-22.4V249h29.2v165.2c-15.6,4.1-25,20.4-21,36.4c4,16,20,25.6,35.6,21.4s25-20.4,21-36.4
		c-2.7-10.5-10.7-18.7-21-21.4V249h29.2v104.5c0,12.4,9.8,22.4,21.9,22.4h58.4v52.2c0,12.4,9.8,22.4,21.9,22.4h22.9
		c4.1,15.9,20,25.5,35.6,21.3c15.6-4.1,24.9-20.4,20.9-36.4C466.7,422.3,455.1,413.2,441.8,413.2L441.8,413.2z M427.2,353.5
		c8.1,0,14.6,6.7,14.6,14.9c0,8.2-6.5,14.9-14.6,14.9s-14.6-6.7-14.6-14.9C412.6,360.2,419.1,353.5,427.2,353.5z M76.5,368.4
		c-8.1,0-14.6-6.7-14.6-14.9s6.5-14.9,14.6-14.9s14.6,6.7,14.6,14.9C91.1,361.7,84.6,368.4,76.5,368.4z M61.9,458
		c-8.1,0-14.6-6.7-14.6-14.9s6.5-14.9,14.6-14.9s14.6,6.7,14.6,14.9C76.5,451.3,70,457.9,61.9,458z M200.7,338.6
		c0,4.1-3.3,7.5-7.3,7.5H135v-97h65.7V338.6z M266.5,443c0,8.2-6.5,14.9-14.6,14.9c-8.1,0-14.6-6.7-14.6-14.9s6.5-14.9,14.6-14.9
		C259.9,428.1,266.4,434.8,266.5,443z M368.7,360.9h-58.4c-4,0-7.3-3.3-7.3-7.5V249h65.7V360.9z M98.4,234.1
		c-28.2,0-51.1-23.4-51.1-52.2s22.9-52.2,51.1-52.2h0.9c18.3,0.4,35,10.6,43.8,26.9l12.9-7.2c-10-18.2-27.6-30.7-47.8-33.9
		c11.7-52.2,62.6-84.9,113.7-73c40.7,9.5,70.6,45.1,73.6,87.7l14.5-1c-1.2-17.4-6.4-34.2-15.1-49.1c22.9-16.9,54.8-11.7,71.4,11.7
		c11.6,16.4,12.9,38.1,3.4,55.8l12.7,7.2c4.2-7.8,6.9-16.3,7.8-25.1h15c28.2,0,51.1,23.4,51.1,52.2s-22.9,52.2-51.1,52.2H98.4z
		 M441.8,458c-8.1,0-14.6-6.7-14.6-14.9s6.5-14.9,14.6-14.9s14.6,6.7,14.6,14.9C456.4,451.3,449.8,457.9,441.8,458z"/>
	<path d="M76.5,181.8c0-12.4,9.8-22.4,21.9-22.4v-14.9c-20.2,0-36.5,16.7-36.5,37.3s16.4,37.3,36.5,37.3h43.8v-14.9H98.4
		C86.3,204.2,76.5,194.2,76.5,181.8z"/>
	<path d="M207.9,151.2c-0.4-3.8-3.5-6.7-7.2-6.6h-29.2c-3.7,0-6.9,2.9-7.2,6.6l-7.3,67.2l14.5,1.6l2.6-23.2h24.3l2.6,23.2l14.5-1.6
		L207.9,151.2z M175.6,181.8l2.5-22.4h16.1l2.5,22.4H175.6z"/>
	<path d="M281.1,144.5h-43.8c-4,0-7.3,3.3-7.3,7.5v67.2h14.6v-29.9h36.5c4,0,7.3-3.3,7.3-7.5V152
		C288.4,147.9,285.1,144.5,281.1,144.5z M273.8,174.4h-29.2v-14.9h29.2V174.4z"/>
	<path d="M332.2,159.4v44.8h14.6v14.9H303v-14.9h14.6v-44.8H303v-14.9h43.8v14.9H332.2z"/>
</g>
</svg>
