<svg xmlns="http://www.w3.org/2000/svg" width="166" height="94"><path d="M18 36.715L33.136 34v25.995L18 57.29V36.715zm5.042 5.867c-.62.735-.81 1.75-.697 2.683.094.813.546 1.558 1.16 2.074.56.48 1.28.77 1.783 1.334.38.422.473 1.125.094 1.58-.3.365-.82.39-1.248.318-.717-.104-1.325-.547-1.798-1.084l.005 2.246c.697.53 1.596.72 2.453.714.608-.016 1.227-.156 1.72-.526.62-.453.977-1.193 1.066-1.943.125-.875-.02-1.818-.56-2.537-.473-.6-1.107-1.037-1.752-1.422-.348-.214-.697-.443-.93-.787-.275-.47-.265-1.136.14-1.52.338-.328.852-.354 1.294-.302.54.057 1.05.302 1.47.636V41.8c-.702-.287-1.48-.318-2.225-.26-.754.1-1.492.443-1.975 1.032zm11.56-4.226c.52-.51 1.242-.823 1.975-.756 1.045.057 1.965.875 2.225 1.88a2.74 2.74 0 0 1 .047 1.162 6.82 6.82 0 0 1 3.706 3.83c.738-.14 1.54.073 2.095.584.878.756 1.118 2.126.582 3.158-.478.97-1.622 1.547-2.682 1.33-.65 1.704-2.006 3.126-3.69 3.82.146.84-.11 1.74-.717 2.345-.63.65-1.643.89-2.5.6-.4-.135-.754-.354-1.03-.667v-3.58c.49-.51 1.185-.823 1.892-.787.67.016 1.294.354 1.747.828 1.42-.563 2.557-1.756 3.077-3.194-.42-.438-.723-1-.785-1.6-.104-.808.224-1.626.785-2.194a5.47 5.47 0 0 0-3.093-3.21c-.405.47-.993.776-1.606.84-.75.083-1.502-.24-2.027-.77v-3.606zm28-.01h1.798v7.206c.56-.927 1.414-1.72 2.485-1.985.956-.24 1.996-.208 2.91.172.8.333 1.388 1.053 1.67 1.865.286.787.348 1.63.353 2.46v6.758H70.03v-6.174c-.016-.813-.047-1.652-.4-2.402-.244-.53-.702-.985-1.273-1.157-.873-.276-1.892-.14-2.625.422-.863.662-1.33 1.756-1.346 2.83v6.47h-1.788l.005-16.465zm63.976.255c.66-.24 1.47.214 1.544.933.125.62-.364 1.266-.993 1.334-.56.094-1.196-.26-1.315-.84-.156-.573.187-1.245.764-1.428zm-72.256.782c.977-.4 2.048-.453 3.082-.39.785.052 1.59.156 2.292.526v2.074c-.977-.766-2.26-1.02-3.477-.948-.81.047-1.648.37-2.157 1.016-.53.683-.53 1.652-.244 2.433.4.84 1.242 1.303 1.996 1.777 1.222.72 2.516 1.37 3.503 2.418.68.703 1.07 1.673 1.034 2.663.016 1.047-.37 2.12-1.154 2.83-.93.88-2.235 1.245-3.483 1.303-1.003.083-2.017-.12-2.978-.417-.37-.12-.738-.25-1.055-.47l.005-2.188c.852.75 1.954 1.172 3.056 1.355.826.12 1.695.068 2.48-.25a1.89 1.89 0 0 0 1.086-1.193c.23-.77.135-1.667-.37-2.313-.405-.51-.962-.88-1.502-1.245-.94-.63-1.975-1.1-2.87-1.808-.65-.505-1.28-1.1-1.58-1.88a4.3 4.3 0 0 1-.088-2.808c.348-1.157 1.32-2.037 2.422-2.48zm48.725-.15h2.937c1.107.005 2.246-.068 3.337.24 1.055.276 2.048.917 2.62 1.865.63 1.053.733 2.345.546 3.527-.187 1.188-.873 2.267-1.84 2.965-.697.52-1.528.84-2.38.98-1.118.188-2.256.073-3.39.104v5.893h-1.835l.005-15.574zm1.835 1.667v6.372c1.21-.036 2.464.12 3.644-.25.697-.224 1.346-.667 1.7-1.313.405-.735.478-1.615.353-2.433-.104-.65-.42-1.292-.962-1.688-.702-.526-1.606-.662-2.453-.688h-2.292zm38.475.068l1.788-.578v3.293h2.796v1.542h-2.786v6.46c.016.438.068.907.312 1.282.224.354.65.52 1.05.547.504.068 1.02-.068 1.435-.35v1.547c-.645.328-1.388.39-2.1.333-.613-.052-1.248-.26-1.684-.714-.577-.578-.77-1.422-.806-2.21v-6.91h-1.923V43.68h1.923l-.005-2.715zM76.57 43.702c1.196-.333 2.505-.432 3.696-.016a3.03 3.03 0 0 1 1.835 1.839c.353.917.327 1.928.317 2.897V54.8H80.63v-1.766c-.437.766-1.08 1.438-1.913 1.756-.904.354-1.923.354-2.848.104-1.003-.28-1.87-1.09-2.116-2.12-.192-.813-.146-1.704.187-2.485.25-.615.733-1.1 1.3-1.438.63-.365 1.336-.547 2.053-.65l3.342-.474c-.016-.74-.11-1.547-.608-2.136-.405-.5-1.07-.683-1.695-.662-1.315-.02-2.604.51-3.602 1.355v-1.86c.556-.35 1.206-.542 1.84-.73zm.9 5.95c-.62.14-1.33.302-1.7.865-.296.474-.333 1.068-.25 1.6.125.646.67 1.136 1.29 1.313.697.198 1.47.125 2.12-.188a3.14 3.14 0 0 0 1.575-2.001c.187-.667.094-1.37.12-2.053l-3.145.464zm15.76-5.2c.842-.672 1.913-1.053 2.994-1.032.993-.02 2.017.23 2.812.844.8.62 1.33 1.547 1.57 2.522.25.948.23 1.933.23 2.913-2.61 0-5.23-.005-7.844 0 .047.875.198 1.787.717 2.51.504.735 1.346 1.188 2.22 1.292 1.466.214 2.978-.26 4.132-1.188v1.7c-1.014.75-2.292 1.032-3.53 1.073-1.045.047-2.12-.12-3.03-.667-.9-.542-1.575-1.438-1.928-2.423-.4-1.068-.468-2.23-.4-3.356.11-1.59.8-3.184 2.058-4.19zm1.2 1.12c-.8.63-1.258 1.615-1.398 2.6H99c-.005-.84-.187-1.725-.738-2.38-.468-.573-1.222-.855-1.944-.844-.686-.03-1.372.193-1.887.615zm23.26-2.105c1.315-.14 2.73-.02 3.872.698 1.227.756 1.98 2.1 2.22 3.512.224 1.34.187 2.756-.286 4.038-.51 1.39-1.627 2.564-3.04 3.048-1.196.406-2.52.438-3.743.125a4.85 4.85 0 0 1-3.046-2.438c-.65-1.198-.77-2.6-.65-3.95.11-1.224.53-2.444 1.367-3.37.826-.97 2.048-1.52 3.306-1.662zm.172 1.527c-.93.12-1.798.65-2.313 1.438-.68 1.037-.806 2.334-.712 3.548.088 1.125.572 2.282 1.523 2.944.738.53 1.684.688 2.578.6.723-.057 1.45-.328 1.965-.84.56-.526.878-1.266 1.03-2.016.16-.84.16-1.7.052-2.543-.14-1.032-.613-2.09-1.518-2.668-.76-.5-1.72-.578-2.604-.474zm15.682-.604c.598-.542 1.383-.875 2.183-.96.878-.083 1.814 0 2.573.474.852.52 1.362 1.46 1.57 2.407.224.96.16 1.943.172 2.907v5.58h-1.788v-6.393c-.02-.813-.104-1.667-.52-2.386-.286-.51-.8-.89-1.377-1.006-.67-.146-1.403-.083-2.017.24-1.086.573-1.715 1.792-1.73 3V54.8h-1.788V43.67h1.788v1.876c.27-.412.556-.823.936-1.157zm-45.217-.406c.75-.563 1.767-.6 2.64-.354v1.88c-.54-.37-1.242-.438-1.87-.313-.754.162-1.3.792-1.643 1.46-.42.865-.525 1.844-.494 2.803v5.35h-1.788V43.68h1.798V46c.25-.782.67-1.542 1.357-2.027zm37.716-.302h1.798v11.135h-1.788l-.01-11.135z" fill="#0072c6" fill-rule="nonzero"/></svg>