<svg xmlns="http://www.w3.org/2000/svg" xmlns:xlink="http://www.w3.org/1999/xlink" width="166" height="94"><defs><path id="A" d="M.176.124h12.688v14.09H.176z"/><path id="B" d="M.3.124h12.688v14.09H.3z"/></defs><g transform="translate(36 13.192)" fill="none" fill-rule="evenodd"><g fill="#e43026"><path d="M46.322 34.222c-7.995 0-14.475-6.493-14.475-14.502S38.327 5.22 46.322 5.22s14.475 6.493 14.475 14.502-6.48 14.502-14.475 14.502M46.128 0C35.195 0 26.332 8.88 26.332 19.833s8.863 19.833 19.796 19.833 19.797-8.88 19.797-19.833S57.062 0 46.128 0"/><path d="M32.894 23.404s2.37 9.23 11.635 10.22S58.426 26.6 58.426 26.6l-2.48-1.538s-3.86 6.483-10.753 6.263-10.367-4.34-12.297-7.9m4.874 5.203c2.088 1.478 4.55 2.258 7.432 2.35 6.6.2 10.405-6.03 10.443-6.093l.182-.304 2.625 1.627c2.133-3.493 1.623-7.404 1.623-7.404l-4.296.05s.33 6.318-7.28 9.9c-3.17 1.487-8.5 1.245-11.7-1.263 0 0 .28.5.96 1.15m17.376-10.11l-.02-.36L60 18.1c-.2-3.5-2.852-6.564-2.852-6.564l-5.073 3.132s3.23 2.405.306 8.1c-1.017 1.977-3.205 4.113-5.214 5.05-2.457 1.147-4.345 1.205-4.345 1.205.248.098 2.623.57 5.955-.905 6.572-2.9 6.37-9.35 6.36-9.598"/></g><path d="M20.072 50.374s-.164 8.4.007 12.16c.045 1.003.044 2.205.903 3.36.892 1.197 2.714 1.3 3.146 1.32l2.254-.016c.147.001.467.025.507-.33l-.002-1.442c-.073-.25-.506-.206-.75-.2-1.02.03-2.185-.05-2.648-.66-.34-.45-.545-.945-.517-1.412l.03-3.574v-4.266l2.138.004c.1-.01.295.016.4-.016.167-.04.176-.298.176-.34V53.65c0-.044.014-.37-.45-.353l-2.253-.003c-.03-.555-.004-2.862-.004-2.862-.013-.248-.035-.432-.07-.505a.44.44 0 0 0-.375-.225c-.94.056-1.887.273-2.48.674m-6.078 3.266c-.072.032-.202.122-.2.362V67s.15.084 1.347.084c1.172 0 1.317-.107 1.317-.107v-13.38c-.033-.256-.063-.55-.4-.518-.688.183-1.436.308-2.043.573m63.086 1.653c.796.035 1.046-.222 1.1-.52.053-.25-.001-.9-.015-1.017-.02-.178-.08-.4-.447-.46-.307-.04-.804-.004-1.767-.01-.302-.002-.878-.023-1.26.037-3.523.555-3.236 3.553-3.236 3.553V67s.15.084 1.347.084c1.173 0 1.317-.107 1.317-.107l.018-9.356c.057-2.03 1.47-2.378 2.934-2.315m-67.46-.2c.192-.43.302-.9.126-1.066-.596-.523-2.22-.703-2.544-.737-3.033-.314-6.348.582-6.76 3.143-.403 2.504 1.747 3.362 3.606 4.266 1.718.835 3.98 1.315 3.606 3.143-.43 2.107-4.162 1.185-5.4.898-.506-.117-1.03-.458-1.4-.418-.27.028-.476.308-.5.378-.2.378-.43.7-.32 1.4.156.62 2.302.872 2.465.897 5.942.9 7.228-1.406 7.5-1.85 2.132-3.613-2.495-5.393-2.757-5.56-1.467-.932-4.213-1.2-3.83-3.143.214-1.096 1.44-1.292 2.254-1.347 1.386-.093 2.8.57 3.2.622.454.06.626-.233.797-.615" fill="#231f20"/><g transform="translate(28.187 53.083)"><mask id="C" fill="#fff"><use xlink:href="#A"/></mask><path d="M3.123 6.056a5.59 5.59 0 0 1 .655-2.287l.173-.282c.516-.776 1.35-1.438 2.692-1.5l.1-.005c.01 0 .018-.001.026-.001h.022.016c.63-.005 1.143.14 1.56.376s.738.568.984.934c.8 1.192.815 2.764.815 2.764H3.123zm7.66 1.783l1.505-.015c.236-.03.617-.288.573-.827-.107-1.313-.1-3.972-2.348-5.67C8.93.126 6.984-.007 5.444.2c-.683.096-3.016.848-4.282 2.918C.314 4.516.01 6.645.26 8.518c.528 3.94 3.906 5.114 4.213 5.227.52.192 1.255.315 1.872.386.867.098 2.13.125 3.155 0 .615-.075 1.314-.11 1.842-.52.127-.1.193-.384.17-.672-.075-.175-.108-.392-.152-.598-.25-.652-1.03-.468-1.274-.403-.926.25-3.337.1-3.337.1-.705-.033-1.52-.256-1.875-.554C2.908 9.83 3.2 7.844 3.2 7.844l7.592-.005z" fill="#231f20" mask="url(#C)"/></g><g transform="translate(78.645 53.083)"><mask id="D" fill="#fff"><use xlink:href="#B"/></mask><path d="M3.258 6.056c0-.142.08-1.26.654-2.287l.173-.282c.516-.776 1.35-1.438 2.69-1.5l.1-.005c.01 0 .018-.001.027-.001h.02.016c.63-.005 1.143.14 1.56.376s.738.568.983.934c.8 1.192.815 2.764.815 2.764H3.258zm7.66 1.783l1.505-.015c.236-.03.617-.288.573-.827-.108-1.313-.1-3.972-2.35-5.67C9.064.126 7.12-.007 5.578.2c-.683.096-3.015.848-4.282 2.918-.848 1.388-1.15 3.517-.9 5.39.527 3.94 3.906 5.114 4.212 5.227.52.192 1.255.315 1.872.386.867.098 2.13.125 3.155 0 .615-.075 1.314-.11 1.84-.52.127-.1.192-.384.17-.672-.075-.175-.108-.392-.152-.598-.25-.652-1.03-.468-1.273-.403-.926.25-3.338.1-3.338.1-.705-.033-1.52-.256-1.875-.554-1.968-1.653-1.686-3.64-1.686-3.64l7.592-.005z" fill="#231f20" mask="url(#D)"/></g><path d="M64.744 63.947c-.684.955-1.877 1.547-2.932 1.547-.86 0-1.88-.392-2.513-1.055-.9-.942-1.257-2.43-1.257-4.1 0-1.78.37-3.035 1.28-4.05.616-.687 1.708-1.105 2.5-1.105 1.167 0 2.217.32 3.105 1.743.552.887.665 2.16.665 3.412 0 1.405-.17 2.68-.838 3.608m3.222-6.983c-1.145-2.24-3.45-3.77-6.105-3.77-2.825 0-5.128 1.65-6.185 4.124-.364.85-.518 1.86-.518 2.848 0 1.238.145 2.412.7 3.42 1.176 2.134 3.423 3.577 6.002 3.577 2.7 0 5.035-1.408 6.16-3.707.457-.935.6-2.026.6-3.142 0-1.16-.155-2.388-.647-3.35m-20.435-.827s-1.202.898-1.352 3.405.8 5.052 2.667 5.464 3.08-.075 3.08-.075.07-.03.184-.066c.34-.105.914-.295 1.243.178.147.212.368.7.376 1.048.01.44-.263.674-.8.86-1.297.46-4.695.7-7.4-1.123s-3.268-7.297-1.202-9.766 4.694-3.22 8.038-2.507l.8.337s.64.187.188.973-.6.898-1.503.636-3.155-.6-4.32.636m45.605-3.5h.15c.244 0 .366-.106.366-.32 0-.174-.117-.26-.35-.26h-.164v.58zm-.02 1.006h-.3c-.018.001-.023-.008-.023-.024v-1.815h.536c.474 0 .665.23.665.55 0 .225-.08.334-.333.467l.406.775c.007.02.002.046-.017.048h-.323c-.016 0-.036-.01-.05-.043l-.37-.707h-.167v.722c0 .03-.013.027-.02.028zm.286.257a1.18 1.18 0 0 0 .862-.352 1.15 1.15 0 0 0 .358-.849c0-.326-.12-.607-.358-.843a1.16 1.16 0 0 0-.848-.354c-.327 0-.6.118-.846.354s-.355.518-.355.846.118.605.354.842.514.356.834.356zm-.003.343c-.418 0-.778-.15-1.078-.455a1.49 1.49 0 0 1-.451-1.087 1.48 1.48 0 0 1 .453-1.091c.302-.3.667-.45 1.094-.45s.792.15 1.094.45.453.662.453 1.088a1.48 1.48 0 0 1-.455 1.097 1.52 1.52 0 0 1-1.109.447z" fill="#231f20"/></g></svg>