<svg xmlns="http://www.w3.org/2000/svg" width="166" height="94" fill-rule="nonzero"><path d="M43.8 50.168c0 .672-.143 1.292-.426 1.86a4.19 4.19 0 0 1-1.187 1.449c-.508.396-1.1.707-1.8.93s-1.466.335-2.298.335c-.996 0-1.888-.136-2.678-.4s-1.583-.723-2.373-1.35l1.308-2.13c.63.527 1.197.914 1.704 1.157a3.56 3.56 0 0 0 1.553.365c.65 0 1.17-.167 1.567-.503s.594-.787.594-1.355a2.16 2.16 0 0 0-.107-.687c-.07-.213-.202-.432-.395-.656a5.61 5.61 0 0 0-.79-.731l-1.292-.977-1.185-.883a8.81 8.81 0 0 1-1.049-.977c-.314-.345-.566-.73-.76-1.157s-.287-.916-.287-1.465c0-.63.13-1.203.394-1.722a3.98 3.98 0 0 1 1.078-1.326c.455-.365 1-.65 1.64-.853a6.83 6.83 0 0 1 2.08-.306 8.3 8.3 0 0 1 2.297.318 7.71 7.71 0 0 1 2.055.924L42.23 41.93c-.8-.568-1.663-.853-2.557-.853-.548 0-1 .144-1.354.428s-.532.64-.532 1.068c0 .407.157.773.47 1.098s.853.784 1.62 1.372l1.925 1.495c.5.428.9.83 1.205 1.205s.5.76.613 1.145.168.813.168 1.28m17.715-3.743c0 1.2-.184 2.3-.55 3.307s-.875 1.885-1.527 2.636-1.424 1.335-2.32 1.753-1.863.623-2.9.623c-.47 0-.907-.04-1.314-.12a4.36 4.36 0 0 1-1.161-.412 5.93 5.93 0 0 1-1.083-.749c-.356-.305-.728-.682-1.115-1.128V62H45.62V39.143h3.912l.02 2.224c.712-.893 1.483-1.548 2.318-1.965s1.8-.624 2.897-.624c.996 0 1.904.187 2.728.563a6.4 6.4 0 0 1 2.134 1.57c.6.67 1.063 1.473 1.388 2.408s.488 1.97.488 3.107m-4.255.154c0-1.666-.337-2.984-1.012-3.95s-1.593-1.45-2.758-1.45c-1.226 0-2.196.514-2.9 1.54s-1.073 2.415-1.073 4.164c0 1.708.353 3.05 1.056 4.025a3.38 3.38 0 0 0 2.897 1.465c.736 0 1.342-.187 1.823-.564s.87-.855 1.165-1.434a6.85 6.85 0 0 0 .63-1.89c.124-.68.184-1.316.184-1.907M63.244 32h4.014v22.357h-4.014zm17.144 22.363l-.01-2.04c-.772.854-1.565 1.47-2.378 1.846s-1.76.563-2.836.563c-1.2 0-2.2-.24-3.035-.715s-1.417-1.186-1.782-2.122c-.102-.222-.18-.457-.23-.7l-.138-.84a10.81 10.81 0 0 1-.076-1.083l-.015-1.495V39.12h4.014v8.727c0 .774.036 1.362.107 1.77a3.41 3.41 0 0 0 .383 1.098c.468.855 1.295 1.282 2.477 1.282 1.5 0 2.55-.63 3.12-1.892a4.31 4.31 0 0 0 .306-1.084c.06-.398.092-.96.092-1.693v-8.2h4.015V54.37h-4.014zm17.312-.007v-8.703c0-.77-.035-1.36-.107-1.765a3.43 3.43 0 0 0-.382-1.096c-.468-.852-1.295-1.28-2.477-1.28-.754 0-1.402.157-1.942.472s-.944.776-1.207 1.384c-.145.345-.24.715-.3 1.1s-.077.948-.077 1.658v8.217h-4.05v-15.22h4.05l.008 2.04c.773-.853 1.565-1.47 2.38-1.845s1.758-.565 2.835-.565c1.2 0 2.2.248 3.034.746a4.24 4.24 0 0 1 1.784 2.116l.214.685a6.53 6.53 0 0 1 .152.806 10.61 10.61 0 0 1 .076 1.082l.015 1.506v8.648H97.7zm16.894.31l-6.055-8.406v8.1h-4.05V32.016h4.05v13.126h.426l5.385-6.244 3.043 1.3-5.173 5.543 6.117 7.614z" fill="#0f0500"/><path fill="#76b33a" d="M121.812 53.954v-2.676l9.432-4.654-9.432-4.594v-2.738l12.17 6.115V47.9z"/><path d="M123.08 36.665c.204 0 .344-.094.344-.258V36.4c0-.153-.125-.25-.332-.25h-.425v.516h.413zm-.628-.71h.648c.184 0 .336.058.43.152.07.066.115.164.115.28v.008c0 .235-.155.375-.374.426l.448.582h-.265l-.418-.547h-.37v.547h-.215v-1.45zm1.838.766v-.008c0-.708-.55-1.285-1.28-1.285a1.28 1.28 0 0 0-1.289 1.293v.007c0 .708.55 1.285 1.28 1.285a1.28 1.28 0 0 0 1.289-1.293zm-2.696.007v-.007c0-.77.624-1.415 1.417-1.415s1.41.638 1.41 1.407v.008c0 .77-.625 1.414-1.418 1.414s-1.408-.637-1.408-1.406z" fill="#0f0500"/></svg>