<svg xmlns="http://www.w3.org/2000/svg" width="166" height="96"><defs><linearGradient x1="25.8951071%" y1="78.1487629%" x2="38.3411716%" y2="70.965014%" id="A"><stop stop-color="#909ca9" offset="0%"/><stop stop-color="#ededee" offset="100%"/></linearGradient><linearGradient x1="0.167947727%" y1="49.8457052%" x2="18.5944843%" y2="49.8457052%" id="B"><stop stop-color="#939fab" offset="0%"/><stop stop-color="#dcdee1" offset="100%"/></linearGradient><radialGradient cx="44.3461988%" cy="43.8808738%" fx="44.3461988%" fy="43.8808738%" r="12.416737%" gradientTransform="translate(0.443462,0.438809),scale(0.721072,1.000000),rotate(-171.184379),translate(-0.443462,-0.438809)" id="C"><stop stop-color="#ee352c" offset="0%"/><stop stop-color="#a91d22" offset="100%"/></radialGradient></defs><g fill-rule="nonzero"><path d="M50.457 39.813l-7.793 2.627-6.78 3.09-1.897.517-1.537 1.44-1.6 1.374a12.06 12.06 0 0 0-1.543 1.581c-.536.693-.96 1.43-1.143 1.995-.324 1.022-.165 2.056.46 3 .8 1.216 2.397 2.457 4.26 3.302.948.432 2.545.985 3.746 1.295 1.997.523 5.86 1.09 7.987 1.174h1.03c.047-.03.377-.68.76-1.5 1.308-2.755 2.25-5.34 2.763-7.547.306-1.338.548-3.12.707-5.23a45.19 45.19 0 0 0 .024-3.235c-.053-1.095-.147-1.983-.294-2.852-.024-.128-.03-.243-.018-.25.023-.018.094-.043 1.054-.328l-.194-.474zm-1.78 1.077c.07 0 .26 1.867.306 3.047.012.25.006.414-.006.414-.047 0-.995-.578-1.673-1.016L45.42 42.04c-.06-.043-.053-.05.43-.22l2.827-.93zm-3.97 1.35c.053 0 .188.08.512.286 1.213.785 2.863 1.733 3.57 2.05.218.097.24.06-.26.414-1.072.754-2.41 1.496-4.047 2.244l-.536.237c-.012 0 .023-.152.07-.334.395-1.514.62-3.047.63-4.275.006-.608.006-.608.06-.626v.006zm-.82.322c.035.036.012 1.4-.035 1.77-.106.888-.27 1.715-.542 2.646l-.135.426c-.024.03-.83-.785-1.096-1.1-.46-.547-.82-1.095-1.084-1.63-.135-.274-.347-.81-.33-.827.094-.067 3.198-1.307 3.222-1.283zm-3.852 1.563c.03.018.07.116.106.225a8.3 8.3 0 0 0 .978 1.806c.4.547.925 1.13 1.36 1.514l.29.255c.035.037.047.03-.913.407L38.14 49.67l-.995.335c-.053.018-.035-.012.118-.26.69-1.113 1.738-3.296 2.327-4.84l.218-.596c.024-.085.053-.116.13-.158l.1-.024zm-1.178.505c.018.012-.283.663-.577 1.26l-2.032 3.655-.294.48c-.03.043-.04.03-.135-.158-.2-.407-.365-.93-.454-1.41-.088-.474-.07-1.3.03-1.812.076-.377.07-.37.247-.462l3.216-1.55zm10.16.426v.255a34.14 34.14 0 0 1-.348 4.573l-.07.438-.37-.1a14.95 14.95 0 0 1-2.71-1.198c-.57-.322-1.402-.852-1.378-.876.006-.006.253-.14.542-.298 1.155-.62 2.262-1.29 3.222-1.952l1.02-.76.094-.073zm-14.608 1.8c.024 0 .018.05-.018.268l-.065.65c-.047.888.094 1.545.518 2.445l.206.462c-.04.037-3.94 1.216-5.166 1.563l-.707.2c-.04.012-.047.006-.03-.097.135-.894.795-2.062 1.714-3.047a7.65 7.65 0 0 1 1.938-1.533l1.608-.912zm9.19 1.697c.006-.006.147.073.318.176 1.26.754 3.016 1.454 4.512 1.812l.136.03-.19.11c-.783.45-3.357 1.557-6 2.573l-.83.322c-.07.03-.135.05-.135.043a12.78 12.78 0 0 1 .241-.48c.736-1.423 1.48-3.156 1.856-4.36l.083-.225zm-.937.316c.006.006-.04.134-.1.28-.512 1.283-1.184 2.682-2.044 4.25l-.407.724c-.006 0-.183-.1-.395-.243-1.25-.79-2.356-1.764-3.08-2.706l-.106-.134.536-.152c1.92-.54 3.552-1.125 5.172-1.843l.424-.176zm5.82 2.098c.006.14-.295 1.393-.542 2.3l-.707 2.408-.27.845a.38.38 0 0 1-.077-.018c-1.75-.33-3.316-.785-4.79-1.393l-1.037-.474c-.012-.012.342-.182.79-.383l6.415-3.175c.112-.073.2-.11.218-.11zm-13.436.474c.012.012-.736 1.125-1.785 2.64l-.948 1.38-.536.815-.248.395-.265-.23a9.99 9.99 0 0 1-1.096-1.156c-.507-.65-.848-1.338-.984-1.964-.065-.292-.065-.438-.006-.456l5.867-1.423zm.754.298l.188.22a11.14 11.14 0 0 0 2.763 2.335c.19.1.33.207.318.213-.04.03-3.64 1.35-5.307 1.946l-1.714.614a1.01 1.01 0 0 1-.118-.079l-.106-.08.17-.255c.554-.827 1.25-1.733 2.763-3.62l1.043-1.295zm4.7 3.473c.006-.006.265.09.583.213a18.42 18.42 0 0 0 2.185.699 23.5 23.5 0 0 0 3.305.59c.13.012.2.024.177.043-.04.024-.907.322-1.543.53l-6.627 2.02-.89.26c-.06.012-.253-.043-.253-.067 0-.012.14-.2.312-.407.848-1.046 1.69-2.214 2.392-3.32l.36-.56zm-1.037.03c.006.006-.412.7-1.143 1.89l-.784 1.277-.395.67-.17.3-.088-.024a48.07 48.07 0 0 1-2.097-.766c-.49-.2-.995-.444-1.373-.65-.47-.262-1.06-.65-1.013-.663.012-.006.82-.23 1.79-.505l4.948-1.447.324-.09zm7.333 1.776h.006c.024.06-.93 2.798-1.278 3.66-.076.195-.106.243-.147.237-.1-.006-1.484-.207-2.327-.334l-4.547-.82-.14-.03.878-.207 3.71-.967a25.73 25.73 0 0 0 3.469-1.38l.377-.158z" fill="url(#A)"/><path d="M42.423 21.058c-.13-.018-2.22.76-3.57 1.326-1.82.766-3.234 1.496-4.106 2.13-.324.237-.73.657-.795.82-.024.06-.035.134-.035.207l.79.772 1.88.62 4.47.827 5.113.906.053-.456c-.018 0-.03-.006-.047-.006l-.672-.1-.135-.25-1.908-3.892c-.347-.82-.677-1.77-.86-2.45-.1-.414-.112-.438-.177-.444zm-.094.3h.006c.006.006.03.176.053.377.1.852.283 1.672.57 2.56.218.67.218.633-.035.553-.6-.17-3.293-.65-5.242-.93l-.577-.09c-.024-.024 1.408-.797 2.038-1.1l3.187-1.368zm-5.678 2.725l.23.08c1.25.438 4.388 1.058 6.12 1.204l.365.037c.006.006-.16.097-.37.2l-2.39 1.368c-.188.122-.36.22-.383.22s-.147-.024-.277-.043l-.236-.037-.59-.596-2.162-2.147-.306-.286zm-.236.188l.83 1.07 1.013 1.295.177.237c-.024.018-1.202-.22-1.826-.365l-1.302-.353-.324-.1v-.085c.006-.407.507-1.016 1.355-1.636l.077-.055zm7.057 1.46c.024 0 .053.055.124.22.2.456.825 1.685.978 1.922.047.08.13.085-.7-.055l-2.64-.456a.61.61 0 0 1 .135-.091c.62-.353 1.243-.803 1.797-1.283l.283-.243c.006-.012.018-.018.024-.012z" fill="url(#B)"/><path d="M33.994 25.248s-.13.213-.006.53c.077.195.3.432.554.675l2.94 3.016c1.45 1.727 2.08 3.43 2.138 5.777.035 1.508-.242 2.834-.93 4.373-1.225 2.76-3.81 5.808-7.8 9.19l.583-.2c.377-.292.89-.602 2.09-1.283 2.774-1.57 5.896-3 9.725-4.494 5.513-2.14 14.58-4.646 19.738-5.46l.536-.085-.083-.134c-.47-.754-.795-1.222-1.184-1.72-1.13-1.447-2.503-2.62-4.182-3.594-2.31-1.332-5.296-2.372-9.077-3.144-.713-.146-2.28-.426-3.552-.626l-6.362-1.07-2.403-.456c-.353-.08-1.03-.243-1.56-.432-.424-.17-1.037-.34-1.166-.858zm1.52 1.52c.006-.006.1.03.224.073.224.08.512.17.854.268l.778.213.654.176c.04.043.636 2.007.837 2.76.076.286.135.53.13.53-.006.006-.07-.097-.147-.237-.69-1.253-1.78-2.524-3.04-3.546-.165-.122-.29-.23-.29-.237zm2.898.827c.03 0 .16.018.318.055 1 .23 2.798.584 3.947.785.194.03.348.067.348.08s-.07.055-.16.103c-.194.103-.978.584-1.237.766-.654.45-1.243.937-1.667 1.374l-.318.322s-.035-.103-.065-.23c-.212-.845-.654-2.098-1.054-2.98-.065-.14-.118-.268-.118-.28l.006.006zm5.1 1.003c.035.012.094.22.212.675.218.882.318 1.867.283 2.785-.012.255-.024.493-.035.523l-.018.06-.306-.103a90.63 90.63 0 0 0-2.533-.772c-.5-.14-.907-.268-.907-.28 0-.037.73-.79 1.043-1.076.595-.54 2.21-1.83 2.262-1.812zm.406.06c.018-.018 2.44.414 3.54.633l2.08.45c.035.012-.088.085-.483.268-1.555.724-2.7 1.374-3.858 2.165l-.56.377c-.006 0-.012-.176-.012-.39 0-1.155-.224-2.323-.636-3.308-.04-.097-.077-.19-.07-.195zm6.26 1.277c.018.018-.06.51-.13.803-.212.906-.783 2.25-1.484 3.515-.124.225-.236.407-.248.414s-.17-.085-.353-.195c-.683-.414-1.46-.803-2.31-1.168-.236-.103-.442-.19-.448-.2-.04-.037 1.855-1.332 2.857-1.952.795-.5 2.09-1.24 2.115-1.216zm.448.073c.053 0 1.125.304 1.685.474 1.384.426 2.975 1.028 4.01 1.514l.43.2-.3.073c-2.533.602-4.7 1.295-6.792 2.17-.17.073-.324.134-.336.134s.047-.14.124-.3c.63-1.38 1.037-2.822 1.137-4.05.006-.116.024-.207.04-.207zm-10.673 2.53c.018-.018.836.182 1.278.3.67.195 2.097.687 2.097.724 0 .006-.16.146-.347.316-.772.663-1.514 1.362-2.403 2.25-.265.262-.49.474-.5.474s-.018-.037-.012-.085c.135-1.022.106-2.335-.082-3.667-.018-.17-.035-.316-.03-.322zm17.206.018c.012.012-.377.645-.624 1.003-.353.523-.872 1.216-2.044 2.737L52.95 38.31l-.436.56c-.006 0-.082-.11-.165-.243-.66-1.022-1.45-1.916-2.386-2.718l-.436-.365c-.065-.05-.118-.097-.118-.103 0-.018 1-.462 1.76-.778a59.13 59.13 0 0 1 4.506-1.66c.713-.23 1.473-.456 1.484-.444zm.454.122c.023-.006.165.067.336.17 1.43.845 2.833 1.934 3.94 3.053.312.316 1.084 1.143 1.072 1.15l-.59.05c-2.48.195-5.655.736-8.706 1.496l-.4.09c-.012 0 .218-.237.507-.523 1.79-1.782 2.61-2.907 3.575-4.914l.265-.572zm-13.118 1.387c.083.018.848.39 1.425.687.53.274 1.325.712 1.367.748.006.006-.277.158-.624.335-1.107.572-2.056 1.113-3.045 1.733l-.524.322c-.024 0-.018-.024.14-.322.53-.997.954-2.19 1.196-3.35.023-.09.047-.152.065-.152zm-.766.146c.018.018-.183.766-.306 1.174a15.23 15.23 0 0 1-1.043 2.469l-.312.56-.147.243-.33-.328c-.383-.383-.695-.62-1.096-.833-.16-.085-.283-.158-.283-.17 0-.05 1.007-.99 1.78-1.672.554-.493 1.72-1.46 1.738-1.44zm4.683 1.99l.29.195c.66.444 1.437 1.034 2.032 1.55.336.286.984.888 1.113 1.034l.07.08-.477.14c-2.698.772-4.783 1.46-7.216 2.384-.27.103-.5.188-.518.188-.035 0-.065.03.542-.547 1.555-1.478 2.933-3.108 3.958-4.695l.206-.328zm-1.23.316c.012.012-.795 1.186-1.278 1.85-.577.79-1.602 2.116-2.31 2.98l-.56.663c-.018.006-.024-.085-.024-.225 0-.736-.183-1.52-.5-2.19-.135-.28-.16-.347-.13-.377.112-.103 1.826-1.113 2.9-1.715.73-.4 1.873-.997 1.89-.985zm-7.445 1.885c.018 0 .153.073.306.158a6.46 6.46 0 0 1 1.013.705c.012.012-.14.14-.342.292-.56.414-1.408 1.076-1.902 1.484-.518.426-.536.438-.477.347.39-.614.583-.96.79-1.405.183-.395.365-.864.495-1.27.047-.176.106-.3.118-.3zm1.985 1.605c.03-.006.065.05.224.292.336.517.595 1.2.66 1.77l.012.122-.807.322c-1.443.578-2.774 1.15-3.676 1.575l-.984.487c-.29.152-.524.268-.524.26s.183-.146.406-.316c1.76-1.32 3.287-2.767 4.43-4.214l.247-.298h.012zm-.913.23c.024.024-.648.81-1.107 1.29-1.137 1.198-2.262 2.135-3.658 3.047l-.353.23c-.04.024.012-.037.624-.724.39-.432.683-.797 1.02-1.247.224-.298.265-.34.59-.578.866-.645 2.863-2.043 2.886-2.02z" fill="url(#C)"/><path d="M84.44 45.182l-.37.012c-2.498.134-4.183 1.236-5.17 3.4-.843 1.948-.75 4.494.01 6.454.884 1.915 2.312 2.925 4.696 3.307.504.083.843.36 1.82 1.505l1.202 1.413h2.18l-1.45-1.466-1.45-1.565c0-.06.307-.196.678-.3 1.223-.37 2.24-1.32 2.95-2.772.575-1.167.658-1.527.74-2.98.216-4.32-2.055-7.02-5.837-7v.001zm1.91 11.298c-1.06.515-2.6.618-3.606.248-1.04-.383-2.046-1.466-2.498-2.69-.503-1.34-.43-3.813.144-4.927.925-1.773 2.148-2.59 3.936-2.59 2.65 0 4.16 1.63 4.357 4.7.156 2.556-.698 4.473-2.33 5.267l-.001.001zm37.66-7.607c-.914 0-1.614.37-2.086 1.103l-.37.58v-1.506h-1.583v9.03h1.582v-2.886c0-2.64.033-2.948.4-3.67.507-1 1.38-1.484 2.22-1.248l.566.165v-1.565h-.73v-.002zm-9.298-.083c-.3 0-.64.04-.966.114-2.118.555-3.31 2.588-3.238 4.68 0 1.752.34 2.628 1.182 3.546 1.726 1.42 3.288 1.534 5.395.772l.75-.33v-1.42l-.75.4c-1.705.745-3 .745-4.02-.132-.656-.67-.945-1.474-1.078-2.39h6.38V52.8c0-2.482-1.5-4.05-3.658-4.01h.001zm-2.58 3.96s.236-1.548 1.1-2.156a2.38 2.38 0 0 1 1.376-.442c.474 0 .946.154 1.336.453.8.618.936 2.134.936 2.134h-4.76v.012zM73.98 51.12c-1.716-1.043-2.477-1.794-2.384-2.68.266-2.453 3.288-2.113 4.96-1.185l.012-1.65s-.925-.402-2.25-.423c-2.034-.03-3.35.638-3.965 2-.905 2.01-.104 3.525 2.793 5.215 1.626.95 2.345 1.773 2.345 2.67 0 1.856-2.23 2.504-4.532 1.34l-.896-.434c-.083.526-.04 1.785-.04 1.785s.707.298 1.768.503c2.63.526 5.024-.712 5.25-2.72.197-1.886-.483-2.876-3.06-4.42h0zm64.04-2.352c-.31 0-.636.043-.978.115-2.115.556-3.307 2.59-3.225 4.68 0 1.75.338 2.617 1.18 3.534 1.726 1.422 3.288 1.537 5.406.773l.748-.328V56.12l-.75.392c-1.71.742-2.993.742-4.018-.135-.66-.67-.946-1.463-1.08-2.39h6.37v-1.217c0-2.47-1.5-4.04-3.658-3.997l.004-.003zm-2.58 3.96s.238-1.546 1.11-2.165a2.37 2.37 0 0 1 1.375-.443c.47 0 .946.154 1.336.454.8.618.936 2.144.936 2.144h-4.757v.01zM106.43 51.14c-1.716-1.04-2.475-1.794-2.383-2.68.266-2.454 3.288-2.113 4.96-1.185l.012-1.65s-.925-.402-2.25-.42c-2.034-.03-3.35.638-3.966 2-.904 2.01-.092 3.525 2.795 5.215 1.624.948 2.343 1.76 2.343 2.66 0 1.856-2.23 2.514-4.53 1.34l-.896-.43c-.083.526-.04 1.785-.04 1.785a10.74 10.74 0 0 0 1.756.503c2.633.527 5.027-.71 5.252-2.72.196-1.877-.483-2.866-3.052-4.412v-.002zm40.888-2.3c-.914 0-1.623.372-2.086 1.104l-.37.577v-1.503h-1.583v9.028h1.58V55.17c0-2.638.032-2.948.4-3.67.507-.99 1.38-1.484 2.22-1.247l.566.165V48.85h-.73zm-53.474 2.238v-5.752H92.25v12.74h6.7v-1.505h-5.114v-5.483zm36.9 1.793l-1.315 3.433-1.265-3.45-1.284-3.825h-1.633l3.37 9.04h1.51l3.585-9.038h-1.56l-1.407 3.843zM97.522 41.865c.257 0 .47-.083.648-.26s.266-.38.266-.638-.092-.473-.266-.638-.38-.248-.636-.248-.474.083-.648.258a.86.86 0 0 0-.257.638c0 .26.083.475.257.638.165.165.38.248.636.248v.002zm-.566-1.466c.153-.154.34-.225.577-.225.224 0 .4.07.566.225s.236.34.236.567-.082.423-.236.577a.77.77 0 0 1-.566.227.75.75 0 0 1-.566-.227c-.153-.154-.236-.35-.236-.577s.07-.414.224-.567zm.38.65h.104c.073 0 .145.07.206.206l.124.28h.194l-.153-.3c-.062-.124-.124-.196-.196-.216.09-.02.163-.052.214-.113.052-.053.07-.125.07-.207 0-.095-.03-.165-.092-.217-.07-.06-.184-.09-.33-.09h-.327v1.155h.165v-.485h.02zm0-.537h.144c.104 0 .177.02.217.052s.05.07.05.144c0 .134-.083.196-.236.196h-.177v-.392h.002zm-26.357.434l-.02-.877h.01a2.64 2.64 0 0 0 .133.466l1.532 3.433h.257l1.532-3.463a3.13 3.13 0 0 0 .133-.434h.012l-.04.878v3.03h.524v-4.503h-.658l-1.408 3.132-.216.556h-.02c-.03-.122-.102-.307-.205-.534l-1.376-3.164h-.7v4.503h.504v-3.02l.008-.002zm5.22.008h.453v2.805H76.2v-2.805zm.226-1.028c.094 0 .174-.032.236-.095s.104-.142.104-.236-.03-.175-.103-.236a.33.33 0 0 0-.238-.095c-.092 0-.174.032-.236.095s-.104.144-.104.236c0 .103.032.175.104.236s.144.095.236.095h.001zm3.453 3.895v-.494a1.3 1.3 0 0 1-.79.278c-.33 0-.597-.113-.793-.33s-.298-.514-.298-.887c0-.4.104-.7.318-.936.206-.227.474-.34.8-.34.267 0 .524.083.76.248v-.526c-.216-.113-.462-.166-.74-.166-.514 0-.914.166-1.214.485s-.45.753-.45 1.277c0 .466.133.857.4 1.156.29.307.658.463 1.1.463.35-.01.636-.083.884-.227zm1.295-1.495c0-.37.082-.67.236-.875.144-.185.318-.28.524-.28.174 0 .298.032.39.104v-.537c-.07-.03-.173-.04-.306-.04a.78.78 0 0 0-.495.177c-.153.122-.276.307-.348.544h-.012v-.658h-.513v3.215h.514v-1.65h.01zm2.95 1.714c.483 0 .872-.156 1.16-.466s.43-.72.43-1.237c0-.526-.132-.928-.4-1.227s-.636-.443-1.12-.443-.872.144-1.16.423c-.31.307-.47.74-.47 1.298 0 .485.132.887.4 1.186.287.3.668.464 1.15.464h0zm-.73-2.62c.196-.207.453-.3.77-.3.33 0 .577.103.76.3.185.216.277.525.277.937 0 .392-.083.7-.257.908-.174.216-.43.33-.77.33a1 1 0 0 1-.781-.331c-.194-.217-.288-.515-.288-.908-.02-.4.083-.71.288-.937zm4.572 2.34c.196-.175.3-.4.3-.66 0-.236-.083-.433-.236-.587-.125-.124-.318-.236-.597-.35-.248-.104-.4-.196-.483-.268a.44.44 0 0 1-.133-.331.39.39 0 0 1 .153-.319c.104-.083.236-.123.412-.123.277 0 .514.073.73.228v-.515c-.207-.104-.432-.154-.69-.154-.33 0-.608.09-.813.267-.216.175-.318.402-.318.67 0 .236.07.433.205.577.113.123.307.248.575.36.257.114.43.216.524.3s.133.186.133.307c0 .3-.205.455-.606.455-.31 0-.586-.102-.833-.307v.555c.224.135.493.196.8.196.38-.02.68-.113.884-.3h.003zm2.446-3.092c-.483 0-.872.144-1.16.423-.306.307-.47.74-.47 1.298 0 .485.133.887.4 1.186.29.3.668.464 1.15.464.495 0 .872-.156 1.16-.466s.432-.72.432-1.236c0-.526-.134-.928-.4-1.227-.278-.3-.648-.443-1.12-.443l-.002.001zm.997 1.7c0 .392-.082.7-.257.908-.174.216-.43.33-.77.33a1 1 0 0 1-.781-.331c-.194-.217-.287-.515-.287-.908 0-.414.103-.733.31-.948.194-.206.45-.3.77-.3s.574.104.76.3c.165.227.257.535.257.948h.001zm1.388 1.61h.513v-2.784h.75v-.433h-.75v-.496c0-.45.174-.678.535-.678.12 0 .245.03.337.083v-.464c-.092-.04-.216-.05-.37-.05-.277 0-.503.083-.688.258-.216.206-.33.473-.33.835v.527h-.542v.433h.542v2.773l.004-.002zm2.106-.877c0 .63.277.95.843.95.205 0 .36-.033.483-.106V43.5c-.094.07-.206.104-.33.104-.174 0-.297-.042-.37-.135s-.114-.248-.114-.463v-1.814h.813v-.433h-.813V39.8l-.514.165v.782h-.554v.433h.554v1.907l.001.001zm55.15 5.927a.88.88 0 0 0-.636-.248c-.26 0-.474.083-.648.26s-.257.4-.257.638c0 .258.083.473.256.638s.39.248.648.248a.88.88 0 0 0 .648-.258.87.87 0 0 0 .265-.638c-.01-.26-.103-.475-.277-.64h.001zm-.082 1.218a.76.76 0 0 1-.566.225c-.224 0-.4-.07-.566-.225s-.236-.35-.236-.58.07-.41.226-.567.338-.225.575-.225c.224 0 .4.07.566.225a.78.78 0 0 1 .236.567c0 .24-.07.423-.236.58zm-.462-.526c.092-.02.165-.063.216-.113s.07-.125.07-.208c0-.092-.03-.166-.092-.216-.07-.06-.185-.09-.33-.09h-.328v1.154h.165v-.485h.102c.07 0 .142.07.205.206l.122.278h.196l-.153-.3c-.053-.135-.114-.196-.177-.216l.002.003zm-.113-.104h-.177v-.4h.145c.103 0 .174.02.216.05s.05.07.05.144c0 .134-.082.195-.236.195h.001zm-28.67-8.987h.144v-1.155h.38v-.144h-.905v.144h.38v1.155zm.872-.868l-.008-.256c.01.06.03.103.04.134l.442 1h.07l.443-1 .04-.124c-.01.103-.01.185-.01.248v.875h.153v-1.298h-.185l-.4.896c-.01.032-.04.095-.06.166h-.012c-.008-.04-.03-.083-.06-.154l-.4-.908h-.207v1.3h.145v-.868h.008z" fill="#231f1f"/></g></svg>