<svg xmlns="http://www.w3.org/2000/svg" width="166" height="94" fill-rule="nonzero"><path d="M49.633 41.083c-1.2 0-2.298.423-3.205 1.087l-6.652-8.15.06-.06c.423-.543.302-1.328-.242-1.75s-1.33-.302-1.754.242-.302 1.328.242 1.75c.423.302.968.302 1.39.12l6.652 8.15c-.484.423-.907.966-1.2 1.51l-18.93-8.755c.12-.423.18-.845.12-1.268-.12-.725-.484-1.39-1.09-1.81s-1.33-.604-2.056-.543c-.726.12-1.39.483-1.814 1.087-.907 1.208-.665 2.958.544 3.864a2.79 2.79 0 0 0 1.633.543h.363c.726-.12 1.39-.483 1.814-1.087.06-.12.18-.242.242-.362l18.93 8.694c-.242.543-.363 1.147-.423 1.81H28.225c-.06-.423-.302-.845-.665-1.147-.726-.543-1.814-.423-2.36.302s-.423 1.81.363 2.355c.726.543 1.814.423 2.36-.302.18-.242.302-.543.302-.785H44.31c0 .664.18 1.328.484 1.932l-4.112 1.992c-.12-.18-.363-.362-.726-.423a1.26 1.26 0 0 0-1.512.966c-.18.664.302 1.39.968 1.51a1.26 1.26 0 0 0 1.512-.966c.06-.242.06-.423 0-.664l4.112-1.992c.363.604.847 1.208 1.39 1.63l-5.322 7.306c-.544-.362-1.2-.543-1.935-.423s-1.39.483-1.814 1.087c-.907 1.208-.665 2.958.544 3.864a2.79 2.79 0 0 0 1.633.543h.363c.726-.12 1.39-.483 1.814-1.087a3.11 3.11 0 0 0 .544-2.053 2.4 2.4 0 0 0-.847-1.63l5.322-7.306c.847.543 1.814.845 2.903.845 2.903 0 5.322-2.355 5.322-5.313s-2.42-5.313-5.322-5.313M25.2 35.77c-.363.483-.907.785-1.512.906-.605.06-1.2-.06-1.693-.423-1.028-.785-1.2-2.234-.484-3.26.363-.543.907-.845 1.512-.966h.302c.484 0 .968.18 1.39.483.544.362.847.906.968 1.51.06.604-.12 1.268-.484 1.75M41.41 61.49c-.363.483-.907.845-1.512.906s-1.2-.06-1.693-.423c-1.028-.785-1.2-2.234-.484-3.26.363-.483.907-.785 1.512-.906h.302c.484 0 .968.18 1.39.483.484.362.786.906.907 1.51s-.06 1.208-.423 1.69" fill="#82bd41"/><path d="M128.192 57.204V45.5a7.2 7.2 0 0 0-.605-2.958c-1.1-2.355-3.387-3.02-5.685-2.657-1.754.242-3.266 1.147-4.596 2.174-.12.12-.242.18-.423.302v-2.174h-3.326v16.966h3.7V45.43c0-.18.06-.362.12-.423 1.2-.966 2.48-1.8 4.052-1.932 1.4-.12 2.48.423 2.842 1.8.18.604.242 1.208.302 1.8V57.26h3.63v-.06zM60.82 36.253v16.664c0 .423 0 .785.06 1.208.242 1.5 1.028 2.596 2.54 3.14 1.572.543 3.145.302 4.717-.12l1.572-.604-1.028-2.717c-.12.06-.302.18-.484.242-.665.302-1.4.483-2.117.483-.786 0-1.27-.423-1.45-1.147-.06-.362-.12-.725-.12-1.087v-9.117h3.8a.45.45 0 0 0 .484-.302l.726-2.294c.06-.12.06-.18.06-.362h-4.717c-.302 0-.363-.06-.363-.362v-4.7l-3.7 1.087m31.217-4.47c-.18.06-.302.12-.423.12l-2.842 1.026c-.302.12-.423.242-.423.604v20.468c0 1.8 1.028 3.02 2.782 3.38 1.15.242 2.238.06 3.387-.12.605-.12 1.2-.362 1.814-.483-.06-.12 0-.18-.06-.18-.665-.725-1.33-1.45-1.693-2.415 0-.06-.242-.12-.302-.12l-.847.18c-.726.12-1.2-.242-1.33-.966-.06-.242-.06-.483-.06-.725v-20.77zM147 57.204h-3.447c-.242 0-.363-.06-.423-.302-.12-.483-.302-.906-.484-1.4-.12.12-.242.18-.363.302-1.4 1.147-2.903 1.8-4.778 1.8-2.6-.06-4.475-1.4-5.685-3.623-.907-1.7-1.2-3.502-1.15-5.374.06-1.8.544-3.502 1.572-5 1.45-2.113 3.508-3.26 5.987-3.623 1.27-.18 2.54-.18 3.75.06h.363v-6.52c0-.302.06-.423.363-.483l3.387-1.208v19.683c.06 1.932 0 3.804.907 5.675m-4.536-9.117v-4.528c0-.362-.12-.483-.423-.543-.847-.18-1.754-.242-2.66-.12-1.512.18-2.782.845-3.7 2.113-.726.966-1.028 2.113-1.1 3.32-.12 1.45 0 2.838.726 4.106.786 1.45 1.996 2.294 3.75 2.174 1.2-.06 2.238-.604 3.145-1.4.18-.18.302-.362.302-.604-.12-1.5-.06-3.02-.06-4.528m-56.423 9.12h-2.782c-.847 0-.847 0-1.15-.845l-.302-.845c-.12.06-.18.18-.302.242-1.45 1.268-3.145 1.932-5.14 1.8-2.842-.12-5.02-2.294-5.08-5.132-.06-2.777 1.45-4.7 4.354-5.374 1.33-.302 2.72-.362 4.112-.362l1.572-.06c.18 0 .302-.06.302-.242-.06-.483 0-.966-.12-1.4-.302-1.268-1.2-2.053-2.6-2.234-1.754-.18-3.326.242-4.9 1.026a2.95 2.95 0 0 1-.423.181l-1.33-2.475 2.056-.906c2.298-.785 4.657-1.026 7.015-.423 2.238.604 3.568 2.174 3.8 4.468.06.483.06.966.06 1.45v6.34c0 1.63.12 3.2.786 4.7.06-.06.06 0 .06.06m-4.475-6.34v-1.75l-2.842.12-1.754.242c-.786.18-1.45.604-1.754 1.4-.605 1.5 0 3.623 2.42 3.683 1.45.06 2.66-.604 3.75-1.5.12-.06.12-.242.12-.362.06-.543.06-1.208.06-1.8m29.343-1.45c0 .06 0 .12-.06.242H99.95c-.06.664.12 1.268.302 1.872.665 1.872 2.36 3.02 4.294 3.08 1.572.06 3.024-.242 4.415-.966.12-.06.18-.12.363-.18l1.15 2.596c-.605.302-1.15.604-1.754.785-2.117.785-4.354.966-6.53.423-2.6-.604-4.415-2.234-5.322-4.7-1.1-3.02-.968-6.038.484-8.936 1.27-2.596 3.93-3.985 6.834-3.804 3.387.242 5.564 2.355 6.35 5.555.363 1.328.423 2.657.363 4.045m-4.717-5.494c-.665-.906-1.572-1.268-2.66-1.268-2.056.06-3.8 2.174-3.508 4.287h7.197c-.12-1.087-.363-2.113-1.028-3.02" fill="#1675bc"/></svg>