<svg xmlns="http://www.w3.org/2000/svg" width="166" height="94" fill-rule="evenodd"><path d="M69.4 68.157c-.144 5.688-3.556 9-9.1 8.807-5.667-.187-8.822-3.53-8.7-9.22.12-5.525 3.593-8.826 9.1-8.658 5.597.17 8.83 3.545 8.7 9.07m20.863 6.55c-1.878 1.75-3.83 2.324-6.042 2.138-2.277-.192-3.972-1.65-4.407-3.834-.495-2.487.48-4.593 2.603-5.646 1.565-.777 3.298-.88 4.964-1.26l1.835-.5c.597-.2.8-.63.775-1.248-.025-.6-.278-1.02-.82-1.27-1.26-.584-2.976-.125-3.748 1.05-.223.34-.363.625-.86.612l-4.24-.013c.45-3.055 1.894-4.67 4.765-5.307 2.13-.473 4.282-.513 6.398.066 2.528.692 3.515 1.964 3.8 4.575.302 2.682.113 5.37.178 8.053.028 1.157-.133 2.32.624 3.387.398.56.115 1.003-.67.986-1.127-.024-2.265-.1-3.38.02-1.224.13-1.868-.246-1.785-1.8m28.685-.105c-2.364 2.1-4.726 2.752-7.388 1.976-1.98-.578-3.193-2.1-3.315-4.193s.493-3.862 2.475-4.925c1.365-.73 2.9-.888 4.37-1.207l2.567-.615c.54-.162.922-.52.898-1.182s-.297-1.116-.9-1.38c-1.287-.566-3.02-.118-3.73 1.107-.28.486-.56.568-1.022.56-.98-.015-1.967-.06-2.944.01-.996.072-1.3-.163-.95-1.2.66-2.015 1.92-3.4 3.955-3.975 2.3-.638 4.65-.7 6.976-.095 2.606.688 3.812 2.15 3.9 4.806l.113 8.362c.013.927.038 1.835.573 2.677.56.88.152 1.208-.8 1.17-1.03-.04-2.067-.075-3.1.01-1.17.095-1.975-.114-1.687-1.908" fill="#303130"/><path d="M83.5 51.484c.107-3.405.016-6.83 1.425-10.063 2.658-6.095 9.77-9.347 16.108-7.354.9.287 1.343.544 1.077 1.72-1.203 5.307-5.65 9.503-11.02 10.2-.727.094-1.457.185-2.178.318-3.007.554-4.392 2.386-4.574 6.044-.034.684-.03 1.37-.05 2.053-.01.3.004.656-.387.665-.397.008-.397-.358-.4-.65l-.003-2.935M68.677 33.6c6.405.128 11.368 4.202 12.838 10.434.213.905-.022 1.232-.82 1.484-7.065 2.23-15.213-1.516-17.232-9.833-.183-.755-.052-1.263.867-1.512 1.434-.388 2.87-.605 4.348-.574m19.22-6.843c-.015 4.55-1.445 7.637-4.128 10.203-.642.614-1.096.55-1.743.02-5.618-4.623-5.505-14.504.212-19.068.57-.455.876-.345 1.343.085 2.817 2.584 4.36 5.72 4.316 8.76" fill="#a3b944"/><path d="M74.097 54.968c2.695 0 2.774.003 2.664 2.666-.06 1.47.138 2.4 1.904 2.04.795-.158 1.04.247.952.985-.04.337-.052.7.001 1.024.172 1.07-.194 1.563-1.325 1.346-1.213-.232-1.6.24-1.53 1.484l.042 6.158c.016 1.314.443 2.332 2.015 2.297.568-.013.714.204.756.77.2 2.702.207 2.706-2.437 3-1.045.116-2.066-.03-3.055-.285-1.582-.408-2.202-1.633-2.456-3.135-.502-2.963-.3-5.95-.285-8.925.002-1.05-.194-1.582-1.347-1.37-.817.15-1.022-.28-.95-1.007.044-.435.04-.882.001-1.32-.066-.724.15-1.16.96-1.025 1.2.2 1.462-.405 1.308-1.42-.022-.144-.003-.293-.003-.44.001-2.846.001-2.846 2.783-2.846M43.358 67.678l.015-3.67c.032-.74-.167-1.133-.96-.975-1.296.258-1.473-.46-1.36-1.485.094-.865-.45-2.147 1.3-1.877.888.138 1.04-.308 1.038-1.1-.004-1.162-.53-2.714.207-3.4.787-.722 2.343-.1 3.547-.24 1.355-.17 1.9.324 1.668 1.67-.055.334.036.7-.016 1.025-.233 1.495.157 2.37 1.898 2.028.823-.162 1 .292.935 1.005-.04.387-.055.8.003 1.172.147.974-.255 1.35-1.202 1.175-1.384-.258-1.728.354-1.654 1.66l.038 5.872c.02 1.35.4 2.46 2.067 2.412.5-.014.64.187.7.682.32 2.645.233 2.783-2.355 3.066-3.663.4-5.24-.733-5.706-4.353-.198-1.54-.033-3.124-.033-4.688h-.12m59.387-5.267c1.195-1.94 2.698-2.9 4.7-3.052.58-.047.763.085.746.67l.003 3.818c.025.664-.223.773-.84.798-3.544.15-4.378 1-4.468 4.5l.018 6.02c.062 1.16-.35 1.434-1.4 1.334-.925-.087-1.867-.066-2.796-.004-.9.06-1.296-.16-1.283-1.193V60.92c-.012-1.015.35-1.28 1.26-1.175.437.05.883.01 1.325.01 2.516 0 2.516 0 2.734 2.66" fill="#303130"/><path d="M63.743 68.12c.047 1.09-.068 2.152-.634 3.116-.6 1.02-1.512 1.504-2.688 1.484-1.2-.02-2.086-.558-2.567-1.645-.83-1.876-.824-3.807-.16-5.722.442-1.277 1.366-2.004 2.76-2.026 1.463-.023 2.394.745 2.913 2.05.35.877.424 1.806.375 2.744" fill="#fefefe"/><path d="M90.16 68.712c-.01 1.357.277 2.648-.802 3.674-1.02.97-2.7 1.264-3.617.572-.6-.453-.814-1.102-.748-1.807.077-.825.65-1.297 1.404-1.503l3.762-.936" fill="#fcfcfc"/><path d="M118.773 68.55l-.01 2.13c-.2 1.763-2.045 3.026-3.75 2.6-.875-.22-1.293-.855-1.393-1.694-.105-.88.275-1.51 1.126-1.828 1.28-.477 2.678-.52 4.028-1.207" fill="#fdfdfd"/></svg>