<svg xmlns="http://www.w3.org/2000/svg" xmlns:xlink="http://www.w3.org/1999/xlink" width="166" height="94"><defs><path id="A" d="M.113.172h50.854v60.283H.113z"/><path id="B" d="M.128.023h5.898V8.61H.128z"/><path id="C" d="M.034.134h5.357V7.08H.034z"/></defs><g transform="translate(57 17.168)" fill="none" fill-rule="evenodd"><g transform="translate(0 .091)"><mask id="D" fill="#fff"><use xlink:href="#A"/></mask><path d="M48.884 23.696c0-12.75-10.28-23.17-22.7-23.35-12.46-.18-23.627 9.653-23.72 23.328-.09 12.887 10.418 23.393 23.275 23.39 12.823-.003 23.146-10.425 23.146-23.368M.137 53.76L.113 1.082c-.001-.812.21-.91.944-.9l49.07.003c.654-.001.842.094.84.817l-.022 59.463h-2.283c.85-.32 1.576-.777 1.82-1.733.288-1.13.3-2.27.01-3.393-.292-1.133-1.15-1.725-2.406-1.764-1.662-.052-2.538.393-2.97 1.507-.8 2.043-.23 4.116 1.452 5.383h-3.616c.543-.22.746-.646.584-1.185-.2-.666-.682-.224-1.028-.18-1.23.156-1.953-.2-2.197-1.13-.573-2.188.364-3.26 2.562-2.927.246.037.56.165.613-.2.05-.348.214-.765-.2-1.04-1.273-.852-3.76-.05-4.323 1.394-.77 1.97-.2 3.986 1.515 5.268h-5.71c.447-.196.765-.78 1.422-.25.33.266.795.08.788-.54l-.02-4.203c-.02-.745-.336-1.388-1.066-1.67-1.106-.425-2.24-.322-3.36-.015-.517.142-.424.582-.386.946.05.47.398.418.72.318.65-.203 1.313-.203 1.975-.112.46.064.622.446.62.84-.002.448-.41.27-.652.31-.5.082-1.015.083-1.505.197-.814.2-1.46.597-1.624 1.52-.16.91-.02 1.708.77 2.293.147.11.277.24.416.362H27.92c.256-.294.382-.615.365-1.026-.033-.827-.01-1.657-.01-2.486 0-1.838-.002-1.854 1.822-2.05.43-.046.53-.23.524-.607s-.036-.72-.534-.72c-.38.001-.757-.024-1.13.106-.517.18-.973.5-1.602.093-.406-.264-.623.144-.618.62l.001 5.26c-.002.303.097.555.23.808h-3.616c.54-.414 1.144-.748 1.377-1.472.423-1.313.445-2.62.004-3.923-.333-.986-1.062-1.432-2.083-1.505-.67-.048-1.28.183-1.96.36l.001-1.494c.005-.577-.402-.542-.8-.55-.41-.01-.747.01-.743.583l.002 7.245c-.003.63.46.79.787.526.616-.5.926-.112 1.313.23h-4.757c.135-.23.504-.25.493-.625-.048-1.62.137-3.248-.106-4.86-.13-.867-.754-1.303-1.588-1.4-.695-.073-1.393-.046-2.035.3-.288.155-.528.2-.86 0-.85-.507-1.76-.41-2.648-.062-.33.13-.558.355-.98-.005-.334-.284-.853-.16-.846.543l-.004 5.25c-.01.565.23.7.738.702.528.002.83-.093.8-.728-.04-1.176.05-2.36-.03-3.53-.07-1.028.513-1.137 1.28-1.174.84-.04 1.01.432.993 1.145-.025 1.113-.001 2.228-.01 3.34-.003.385-.001.76.227 1.093h-6.47c.182-.27.232-.567.23-.895l.004-5.058c.008-.542-.094-.81-.722-.797-.578.01-.8.19-.775.77.03 1.144.01 2.3.007 3.436-.003.99-.246 1.184-1.318 1.24-.884.045-1.195-.4-1.196-1.207l-.001-3.054c-.001-1.226-.001-1.226-1.184-1.15l-.372.02" fill="#fdfdfe" mask="url(#D)"/></g><path d="M11.936 60.547c-.228-.332-.23-.708-.227-1.093l.01-3.34c.016-.712-.154-1.185-.993-1.144-.766.037-1.35.146-1.28 1.174.08 1.172-.01 2.355.03 3.53.02.635-.28.73-.8.728-.5-.002-.747-.137-.738-.702l.003-5.25c-.008-.703.512-.827.846-.543.423.36.65.135.98.005.89-.35 1.797-.444 2.647.063a.76.76 0 0 0 .861 0c.642-.346 1.34-.373 2.035-.3.834.087 1.457.523 1.588 1.4.243 1.61.058 3.24.106 4.86.01.375-.358.395-.493.625h-.76c-.253-.314-.284-.68-.28-1.07l.003-3.614c.002-.71-.387-.95-1.035-.89-.595.057-1.23.015-1.197.94l.018 3.52c.01.43-.053.805-.364 1.115h-.95z" fill="#4352bb"/><g transform="translate(19.03 51.937)"><mask id="E" fill="#fff"><use xlink:href="#B"/></mask><path d="M1.663 5.115l-.002 1.43c-.004.282.09.443.37.575 1.185.56 2.187.075 2.397-1.21.092-.565.096-1.135-.042-1.702-.244-1.003-.7-1.26-1.82-1.168-.972.08-.955.708-.908 1.407.015.22.002.444.003.667zM2.23 8.61c-.387-.343-.698-.73-1.313-.23-.328.265-.8.105-.787-.526L.128.607C.124.034.46.014.87.024c.39.01.795-.026.8.55V2.07c.682-.176 1.29-.407 1.96-.36 1.02.073 1.75.52 2.083 1.505.44 1.303.42 2.6-.004 3.923-.233.724-.838 1.058-1.377 1.472H2.23z" fill="#4352bb" mask="url(#E)"/></g><g transform="translate(31.59 53.468)"><mask id="F" fill="#fff"><use xlink:href="#C"/></mask><path d="M3.9 4.66c-.045-.372.198-.958-.594-.84-.725.11-1.644-.062-1.77 1.007-.075.646.368.98 1.003 1 .88.03 1.35-.372 1.36-1.168zM1.28 7.08l-.416-.362c-.8-.585-.93-1.382-.77-2.293.163-.924.8-1.332 1.624-1.52.49-.114 1.006-.115 1.506-.197.24-.04.65.137.652-.31.002-.394-.16-.777-.62-.84-.66-.09-1.324-.09-1.975.112-.32.1-.67.152-.72-.318C.522.984.43.544.946.402c1.12-.307 2.253-.4 3.36.015.73.28 1.047.923 1.066 1.67l.02 4.203c.006.62-.46.804-.788.54-.657-.53-.975.055-1.422.25H1.28z" fill="#4352bb" mask="url(#F)"/></g><path d="M49.14 57.183l-.067-1.094c-.073-.75-.5-1.132-1.246-1.153-.722-.02-1.232.27-1.36 1.028-.137.816-.174 1.637.057 2.447.207.726.76.85 1.4.822.633-.027.994-.367 1.106-.965.07-.37.07-.755.097-1.086zm-2.57 3.363c-1.683-1.266-2.242-3.34-1.452-5.383.43-1.114 1.306-1.56 2.97-1.507 1.255.04 2.113.63 2.406 1.764.3 1.122.28 2.264-.01 3.393-.244.956-.97 1.412-1.82 1.733H46.57zM.137 53.85l.372-.02c1.183-.076 1.183-.076 1.184 1.15l.001 3.054c.002.798.312 1.252 1.196 1.207 1.072-.055 1.315-.25 1.318-1.24L4.2 54.566c-.015-.58.197-.76.775-.77.628-.012.73.255.722.797l-.004 5.058c.002.328-.047.624-.23.895H1.47c-.62-.356-1.037-.9-1.332-1.53V53.85zm40.343 6.697c-1.704-1.28-2.284-3.296-1.515-5.268.563-1.444 3.05-2.246 4.323-1.394.413.276.25.693.2 1.04-.052.364-.367.236-.613.2-2.198-.333-3.135.74-2.562 2.927.244.93.968 1.286 2.197 1.13.346-.044.828-.486 1.028.18.163.54-.04.963-.584 1.185H40.48zm-13.5 0c-.133-.253-.232-.505-.23-.808v-5.26c-.005-.476.2-.884.618-.62.63.4 1.085.087 1.602-.093.372-.13.75-.105 1.13-.106.498-.002.527.34.534.72s-.093.56-.524.607c-1.823.194-1.822.2-1.822 2.05l.01 2.486a1.39 1.39 0 0 1-.365 1.026h-.95z" fill="#4352bb"/><path d="M12.887 60.547c.3-.3.373-.684.364-1.115l-.018-3.52c-.032-.924.602-.882 1.197-.94.648-.062 1.037.178 1.035.9l-.003 3.614c-.004.4.028.755.28 1.07h-2.854zm-12.75-1.53c.295.64.712 1.175 1.332 1.53-1.332 0-1.332 0-1.332-1.53" fill="#fdfdfe"/><path d="M25.838 35.864c1.824.046 3.78-.092 5.727-.39 4.26-.654 6.63-2.754 7.344-6.717.833-4.62.305-9.202-.58-13.76-.096-.496-.372-.7-.882-.598a46.5 46.5 0 0 1-2.44.378c-.557.07-.656.383-.58.87.223 1.446.5 2.888.628 4.343.234 2.666.385 5.342-.268 7.98-.455 1.837-1.565 3.026-3.462 3.367-3.78.68-7.56.688-11.337-.027-1.732-.328-2.8-1.385-3.308-3.05-.394-1.29-.483-2.628-.523-3.965-.087-2.88.257-5.724.772-8.546.126-.7-.073-.933-.712-1.006-.723-.083-1.447-.183-2.158-.335-.598-.128-.868.06-.99.665-.863 4.24-1.26 8.504-.73 12.82.526 4.272 2.576 6.51 6.74 7.415 2.18.474 4.392.587 6.76.557m23.046-12.077c0 12.942-10.323 23.365-23.146 23.368-12.857.003-23.364-10.503-23.275-23.39C2.556 10.09 13.725.255 26.184.436c12.42.18 22.7 10.6 22.7 23.35" fill="#3e4eba"/><path d="M20.692 57.053l-.003-.667c-.047-.7-.064-1.327.908-1.407 1.117-.092 1.575.165 1.82 1.168.138.566.134 1.136.042 1.702-.2 1.284-1.212 1.768-2.397 1.2-.28-.132-.375-.293-.37-.575l.002-1.43M35.5 58.13c-.01.797-.478 1.2-1.36 1.168-.636-.022-1.078-.354-1.003-1 .124-1.068 1.044-.897 1.77-1.007.793-.12.55.467.594.84m13.64-.948l-.097 1.086c-.112.598-.473.94-1.106.965-.652.028-1.203-.096-1.4-.822-.23-.8-.194-1.63-.057-2.447.127-.758.636-1.048 1.36-1.028.746.02 1.172.4 1.246 1.153l.067 1.094m-23.315-21.32c-2.368.03-4.58-.083-6.76-.557-4.165-.906-6.215-3.143-6.74-7.415-.53-4.315-.133-8.58.73-12.82.123-.606.393-.793 1-.665.7.152 1.435.252 2.158.335.638.073.838.316.712 1.006-.515 2.822-.86 5.668-.772 8.546.04 1.337.13 2.674.523 3.965.508 1.666 1.576 2.723 3.308 3.05 3.777.715 7.557.707 11.337.027 1.897-.34 3.006-1.53 3.462-3.367.653-2.638.503-5.314.268-7.98-.128-1.455-.404-2.897-.628-4.343-.075-.488.024-.8.58-.87a46.5 46.5 0 0 0 2.44-.378c.5-.092.786.102.882.598.885 4.557 1.413 9.14.58 13.76-.715 3.963-3.085 6.063-7.344 6.717-1.948.3-3.903.438-5.727.4" fill="#fdfdfe"/></g></svg>