<svg xmlns="http://www.w3.org/2000/svg" width="166" height="94"><path d="M69.08 56.046l-3.62-6.96-3.702 6.96h-3.98l5.645-8.983-5.08-8.928h4.036l3.296 6.783 3.57-6.783h3.692l-5.218 8.873 5.3 9.04h-3.94zm12.907 0v-1.95h-.055c-.983 1.53-2.374 2.295-4.174 2.295-1.387 0-2.48-.378-3.28-1.134-.8-.765-1.198-1.788-1.198-3.07 0-2.747 1.538-4.31 4.615-4.687l4.12-.567c0-1.926-.89-2.9-2.672-2.9-1.7 0-3.26.525-4.684 1.576V42.8c.533-.323 1.295-.613 2.287-.87 1-.258 1.9-.387 2.728-.387 3.637 0 5.455 1.843 5.455 5.53v8.973h-3.14zm-3.017-6.484c-.946.12-1.612.355-1.997.705-.377.34-.565.87-.565 1.6a1.84 1.84 0 0 0 .647 1.452c.432.37.996.553 1.694.553.946 0 1.727-.327 2.342-.982s.923-1.47.923-2.447V49.16l-3.044.4zm26.468 6.484v-7.99c0-1.318-.207-2.295-.62-2.93-.404-.645-1.13-.968-2.177-.968-.836 0-1.538.387-2.108 1.16-.57.765-.854 1.69-.854 2.78v7.95H96.5v-8.268c0-2.415-.923-3.622-2.77-3.622-.863 0-1.575.364-2.135 1.092-.55.728-.827 1.678-.827 2.848v7.95h-3.182V41.888h3.182v2.184h.055c1.02-1.687 2.507-2.53 4.463-2.53.937 0 1.763.25 2.48.747.725.49 1.235 1.166 1.53 2.032 1.075-1.853 2.654-2.78 4.74-2.78 3.067 0 4.6 1.917 4.6 5.752v8.752h-3.196zm13.775 0v-1.95h-.055c-.983 1.53-2.374 2.295-4.174 2.295-1.387 0-2.48-.378-3.28-1.134-.8-.765-1.198-1.788-1.198-3.07 0-2.747 1.538-4.31 4.615-4.687l4.12-.567c0-1.926-.89-2.9-2.672-2.9-1.7 0-3.26.525-4.684 1.576V42.8c.533-.323 1.295-.613 2.287-.87 1-.258 1.9-.387 2.728-.387 3.637 0 5.455 1.843 5.455 5.53v8.973h-3.14zm-3.017-6.484c-.946.12-1.612.355-1.997.705-.377.34-.565.87-.565 1.6a1.84 1.84 0 0 0 .647 1.452c.432.37.996.553 1.694.553.946 0 1.727-.327 2.342-.982s.923-1.47.923-2.447V49.16l-3.044.4zM133.015 45c-.523-.323-1.14-.484-1.846-.484-.918 0-1.667.396-2.245 1.19-.57.793-.854 1.825-.854 3.097v7.245h-3.182V41.888h3.182v2.75h.055c.68-2 1.883-3 3.61-3 .56 0 .987.065 1.28.194V45zm3.168-6.277c-.542 0-1-.175-1.378-.525-.377-.36-.565-.797-.565-1.313 0-.535.188-.982.565-1.34a1.92 1.92 0 0 1 1.378-.539 1.91 1.91 0 0 1 1.391.553 1.76 1.76 0 0 1 .565 1.327c0 .516-.188.954-.565 1.313-.377.35-.84.525-1.39.525zm-1.626 17.324V41.888h3.182v14.158h-3.182zm15.21 0v-7.95c0-2.627-.94-3.94-2.824-3.94-.946 0-1.74.364-2.383 1.092-.634.72-.95 1.636-.95 2.75v8.047h-3.182V41.888h3.182v2.267h.055c1.03-1.742 2.553-2.613 4.573-2.613 3.14 0 4.71 1.936 4.71 5.807v8.696h-3.182zM23.327 31a2.84 2.84 0 0 0-2.399 1.395l-7.568 13.21a2.89 2.89 0 0 0 0 2.789l7.568 13.21A2.84 2.84 0 0 0 23.327 63h15.136a2.84 2.84 0 0 0 2.399-1.395l7.568-13.21a2.89 2.89 0 0 0 0-2.789l-7.568-13.21A2.84 2.84 0 0 0 38.463 31H23.327zm.137 7.73c.02-.002.043-.002.063 0h2.61c.116.002.228.07.285.17l4.43 7.93c.022.04.037.083.042.128.005-.045.02-.09.042-.128l4.418-7.93c.06-.104.177-.17.296-.17h2.61c.23.002.404.295.296.5L34.234 47l4.323 7.76c.12.207-.06.513-.296.51h-2.61c-.12-.001-.24-.073-.296-.18l-4.418-7.93c-.022-.04-.037-.083-.042-.128-.005.045-.02.09-.042.128l-4.43 7.93c-.055.105-.168.176-.285.18h-2.61c-.237.002-.415-.304-.296-.51L27.555 47l-4.323-7.77a.36.36 0 0 1 .232-.5z" fill="#3498db" fill-rule="nonzero"/></svg>